<svg width="34" height="34" viewBox="0 0 34 34" fill="none" xmlns="http://www.w3.org/2000/svg">
<rect width="34" height="34" rx="4" fill="url(#paint0_linear)"/>
<path opacity="0.3" d="M34 16.6694V34H16.6033L8.49055 25.9439L8.53778 25.8919L14.2044 20.1875L14.2092 20.1828L22.8508 11.4797L23.8567 10.4644L23.8614 10.4597L25.7928 8.51889L26.4917 9.21306L34 16.6694Z" fill="url(#paint1_linear)"/>
<circle cx="17" cy="17" r="12.2778" fill="url(#paint2_linear)"/>
<path d="M23.8708 10.4597L12.9719 16.7214L7.30056 15.4747L23.8708 10.4597Z" fill="#6CF9CE"/>
<path d="M12.9719 16.7214L23.8708 10.4597L14.1761 20.1733L12.9719 16.7214Z" fill="#4FC39F"/>
<path d="M14.1761 20.1733L23.8708 10.4597L17.34 21.0328L14.1761 20.1733Z" fill="#61E2BB"/>
<path d="M17.34 21.0328L23.8708 10.4597L18.3364 26.3689L17.34 21.0328Z" fill="#53C4A1"/>
<path opacity="0.2" d="M13.3356 17.7697L12.9719 16.7214L7.30056 15.4747L13.3356 17.7697Z" fill="#231F20"/>
<path opacity="0.2" d="M17.4817 21.7931L17.34 21.0328L14.1761 20.1733L17.4817 21.7931Z" fill="#231F20"/>
<defs>
<linearGradient id="paint0_linear" x1="50.8348" y1="14.6343" x2="14.6343" y2="-16.8348" gradientUnits="userSpaceOnUse">
<stop stop-color="#009AA9"/>
<stop offset="1" stop-color="#009688"/>
</linearGradient>
<linearGradient id="paint1_linear" x1="42.838" y1="23.8078" x2="24.3353" y2="7.72518" gradientUnits="userSpaceOnUse">
<stop stop-color="white" stop-opacity="0.01"/>
<stop offset="1"/>
</linearGradient>
<linearGradient id="paint2_linear" x1="29.2778" y1="29.2778" x2="29.2778" y2="4.72223" gradientUnits="userSpaceOnUse">
<stop stop-color="#F2F1EF"/>
<stop offset="1" stop-color="white"/>
</linearGradient>
</defs>
</svg>
