<svg width="28" height="28" viewBox="0 0 28 28" fill="none" xmlns="http://www.w3.org/2000/svg">
<path d="M11.0516 17.7539L11.2966 18.0339C10.9407 18.4299 10.5313 18.7744 10.0804 19.0576C8.22539 20.1251 6.52789 21.2101 3.80664 20.7026V17.2989C3.80664 17.2989 6.54539 17.5001 7.96289 16.0914C8.27084 15.7827 8.56289 15.4585 8.83789 15.1201L9.09164 15.4176L10.3429 16.9051L11.0516 17.7539Z" fill="white"/>
<path d="M14.7087 13.9038L14.525 14.1488L14.3763 14.3325L13.055 16.0038L12.4425 16.7563L12.2588 16.9663L12.0925 17.1588L11.8475 16.8613V16.8088C11.7937 16.7542 11.7439 16.6957 11.6988 16.6338C11.55 16.45 11.3925 16.2575 11.2438 16.0563L11.1825 15.9863L10.535 15.1113L10.2375 14.7175L9.975 14.3763L9.905 14.28L9.625 14.07L9.8 13.8513C9.85031 13.7829 9.9059 13.7185 9.96625 13.6588L10.5262 12.9588C10.9725 12.4075 11.4013 11.83 11.935 11.2788L12.145 11.0425L12.285 10.885L12.5038 11.1388L12.5563 11.2088C12.9063 11.6375 13.23 12.0838 13.545 12.46L13.72 12.6963C13.7519 12.732 13.7811 12.77 13.8075 12.81L13.8775 12.8888L14.3763 13.5538L14.4463 13.6325L14.7087 13.9038Z" fill="white"/>
<path d="M24.7528 8.89007L19.9491 13.0726L19.6603 12.9851V10.9638C18.6878 10.9854 17.7296 11.2027 16.8428 11.6026C16.3279 11.9804 15.871 12.4314 15.4866 12.9413L15.2678 12.6176L14.6728 11.7426L13.5266 10.0538L13.3516 9.80007C14.16 8.94373 15.1372 8.26442 16.2216 7.80507C19.2578 6.79007 19.7216 7.28882 19.7216 7.28882L19.9841 4.66382L24.7528 8.89007Z" fill="white"/>
<path d="M14.7079 13.9039L14.5241 13.6676L14.4541 13.5889C14.391 13.6609 14.3326 13.7369 14.2791 13.8164L14.1216 14.0089L14.0166 14.1489L13.3516 15.0239L12.8004 15.7414C12.6079 15.9864 12.4154 16.2401 12.2054 16.4764L12.0216 16.6951C11.9745 16.7635 11.9218 16.8279 11.8641 16.8876L12.1091 17.1851L12.2054 17.2989C12.2655 17.2358 12.321 17.1685 12.3716 17.0976L12.5466 16.8876L12.6166 16.8089V16.7476C12.8004 16.5289 12.9579 16.3276 13.1154 16.1176L13.1679 16.0564C13.2729 15.9339 13.3691 15.8026 13.4741 15.6714C13.5791 15.5401 13.6404 15.4526 13.7191 15.3476L14.2354 14.6651L14.3841 14.4814V14.4376L14.4454 14.3676C14.4716 14.3377 14.495 14.3055 14.5154 14.2714L14.7079 14.0351V13.9039ZM11.0504 17.7539C10.4236 18.4267 9.71173 19.015 8.93289 19.5039C8.57019 19.7326 8.18634 19.926 7.78664 20.0814C7.58267 20.1683 7.37198 20.2385 7.15664 20.2914C6.48355 20.49 5.78464 20.5873 5.08289 20.5801H4.05039V17.5439H5.08289C5.86467 17.5049 6.62827 17.2942 7.31939 16.9267C8.01051 16.5592 8.61219 16.044 9.08164 15.4176L8.82789 15.1201L8.74039 15.0151C7.57664 16.3014 6.48289 17.0189 5.08289 17.0189H4.05039C3.91115 17.0189 3.77762 17.0742 3.67916 17.1726C3.5807 17.2711 3.52539 17.4046 3.52539 17.5439V20.5714C3.52539 20.7106 3.5807 20.8441 3.67916 20.9426C3.77762 21.0411 3.91115 21.0964 4.05039 21.0964H5.08289C5.83441 21.0989 6.58256 20.9958 7.30539 20.7901C7.53709 20.7275 7.76497 20.6516 7.98789 20.5626C8.40613 20.385 8.8124 20.1804 9.20414 19.9501C10.0045 19.4486 10.7343 18.8424 11.3741 18.1476L11.2779 18.0339L11.0504 17.7539ZM9.86039 14.3151L9.93039 14.4114C9.99028 14.3504 10.0431 14.2829 10.0879 14.2101L10.2629 13.9914L10.8141 13.2739L10.9016 13.1514C11.3129 12.6176 11.7241 12.0664 12.1791 11.5326L12.3804 11.2876L12.5291 11.1214L12.3104 10.8676L12.1879 10.7189L12.0479 10.8764L11.8379 11.1214L11.7766 11.2001C11.3304 11.7251 10.9016 12.2501 10.4904 12.8364L10.4466 12.8801V12.9501L10.0266 13.5014L9.98289 13.5539V13.5976L9.93039 13.6589L9.85164 13.7551C9.78236 13.8426 9.70629 13.9245 9.62414 14.0001L9.68539 14.0789L9.86039 14.3151ZM24.8404 8.48761L23.9654 7.70886L20.2904 4.57636C20.1941 4.4976 20.0736 4.45435 19.9491 4.45386C19.8731 4.4535 19.798 4.47151 19.7304 4.50636C19.6384 4.54609 19.5602 4.61216 19.5057 4.69625C19.4512 4.78033 19.4228 4.87867 19.4241 4.97886V7.00011H19.1791C18.0614 7.01278 16.9579 7.25193 15.9352 7.70311C14.9126 8.15428 13.992 8.80812 13.2291 9.62511L13.3516 9.80886L13.5266 10.0626C14.2521 9.28738 15.1268 8.66683 16.0981 8.23828C17.0695 7.80973 18.1175 7.58203 19.1791 7.56886H19.9491V4.97886L23.6241 8.10261L24.4991 8.88136L19.9491 12.7839V10.6051H19.1791C18.5173 10.6282 17.8668 10.7832 17.2657 11.0612C16.6647 11.3392 16.1253 11.7345 15.6791 12.2239L15.3379 12.5651L15.2941 12.6176L15.5129 12.9414L15.5916 13.0639L15.7141 12.9326L16.0466 12.6001C16.4444 12.1518 16.93 11.79 17.4734 11.5371C18.0167 11.2842 18.6063 11.1457 19.2054 11.1301H19.4504V12.7839C19.4502 12.8838 19.4791 12.9817 19.5334 13.0655C19.5878 13.1494 19.6653 13.2157 19.7566 13.2564C19.8243 13.2912 19.8993 13.3092 19.9754 13.3089C20.1015 13.309 20.2231 13.2622 20.3166 13.1776L24.8666 9.28386C24.924 9.23458 24.97 9.17349 25.0015 9.10478C25.0331 9.03606 25.0494 8.96135 25.0494 8.88574C25.0494 8.81013 25.0331 8.73541 25.0015 8.6667C24.97 8.59799 24.924 8.5369 24.8666 8.48761H24.8404Z" fill="#636363"/>
<path d="M10.3333 16.905L11.0508 17.78C10.4239 18.4528 9.71212 19.0411 8.93328 19.53C8.57058 19.7588 8.18673 19.9522 7.78703 20.1075C7.58306 20.1945 7.37237 20.2647 7.15703 20.3175C6.48835 20.5235 5.79165 20.6238 5.09203 20.615H4.05078V19.04H5.09203C7.0491 19.0311 8.92699 18.2661 10.3333 16.905Z" fill="#62E2BB"/>
<path d="M14.4379 13.5713C14.3748 13.6433 14.3163 13.7193 14.2629 13.7988L14.1054 13.9913L14.0004 14.1313C13.7729 14.4113 13.5541 14.7 13.3266 15.0063L12.7841 15.7238C12.5916 15.9688 12.3991 16.2225 12.1891 16.4588L12.0054 16.6775C11.9582 16.7459 11.9056 16.8103 11.8479 16.87V16.8175C11.794 16.7629 11.7443 16.7045 11.6991 16.6425C11.5504 16.4588 11.3929 16.2663 11.2441 16.065L11.4016 15.8988L11.5941 15.68C11.8041 15.4438 12.0054 15.2163 12.1891 14.9713C12.6091 14.4725 12.9941 13.965 13.3704 13.4663C13.4404 13.3788 13.4929 13.3 13.5629 13.2213L13.7204 13.0113L13.8866 12.8013L13.9566 12.88L14.4379 13.5713Z" fill="#62E2BB"/>
<path d="M19.9492 9.05615V10.6049H19.1792C18.5174 10.6279 17.8669 10.783 17.2658 11.061C16.6648 11.339 16.1253 11.7343 15.6792 12.2237C15.559 12.3307 15.4451 12.4447 15.338 12.5649L15.2942 12.6174L14.6992 11.7424C16.003 10.1849 17.3242 9.05615 19.2055 9.05615H19.9492Z" fill="#62E2BB"/>
<path d="M24.5002 8.88133L19.9414 12.7926V11.2438L23.5989 8.11133L24.5002 8.88133Z" fill="#62E2BB"/>
<path d="M3.79688 7.2363V10.7363C4.8538 10.6156 5.92373 10.7809 6.89494 11.215C7.86615 11.649 8.70301 12.3359 9.31812 13.2038C11.5581 16.24 14.5681 21.0088 19.7044 20.7375V23.0563L19.9406 23.3013L24.7531 19.1975L19.9406 15.0325L19.6256 15.2863V17.08C19.6256 17.08 17.6569 17.7975 15.1369 14.9713C12.6169 12.145 10.4119 6.54505 3.79688 7.2363Z" fill="white"/>
<path d="M15.0495 14.3237L14.8482 14.5512L14.6995 14.7262L13.3432 16.3012L12.6957 17.0449L12.5207 17.2549L12.3545 17.4474C12.2932 17.3949 12.2495 17.3337 12.1882 17.2724L12.092 17.1587L11.847 16.8612V16.8087C11.7931 16.7541 11.7434 16.6956 11.6982 16.6337C11.5495 16.4499 11.392 16.2574 11.2432 16.0562L11.182 15.9862L10.5345 15.1112L10.237 14.7174L9.97445 14.3762L9.90445 14.2799L9.62445 14.0699V13.9999L9.2832 13.5624L9.46695 13.3174L9.5982 13.1337L10.1582 12.3899L11.4532 10.6399L11.6457 10.3774L11.777 10.2112C11.9345 10.3774 12.0832 10.5524 12.2232 10.7187L12.3457 10.8674L12.5645 11.1212L12.617 11.1912C12.967 11.6199 13.2907 12.0662 13.6057 12.4424L13.7807 12.6787C13.8126 12.7144 13.8418 12.7524 13.8682 12.7924L13.9382 12.8712L14.437 13.5362L14.507 13.6149L14.6907 13.8512L14.7607 13.9387L15.0495 14.3237Z" fill="white"/>
<path d="M24.8316 18.7075L24.0091 17.99L20.2904 14.7962C20.1941 14.7175 20.0736 14.6742 19.9491 14.6737C19.8737 14.6703 19.7987 14.6853 19.7304 14.7175C19.6377 14.7587 19.5592 14.8264 19.5048 14.912C19.4503 14.9975 19.4223 15.0973 19.4241 15.1987V16.8612H19.1791C17.5779 16.8612 16.3966 15.9425 15.0491 14.3237L14.7779 14L14.7079 13.9125L14.5241 13.6762L14.4541 13.5975L13.9554 12.9325L13.8854 12.8537C13.859 12.8137 13.8298 12.7757 13.7979 12.74L13.6229 12.5037C13.3079 12.1012 12.9841 11.6812 12.6341 11.2525L12.5816 11.1825L12.3629 10.9287L12.2404 10.78C12.1004 10.6137 11.9516 10.4387 11.7941 10.2725C10.1841 8.52247 8.11914 6.93872 5.12664 6.93872H4.05039C3.91115 6.93872 3.77762 6.99403 3.67916 7.09249C3.5807 7.19095 3.52539 7.32448 3.52539 7.46372V10.5087C3.52539 10.648 3.5807 10.7815 3.67916 10.88C3.77762 10.9784 3.91115 11.0337 4.05039 11.0337H5.08289C5.47524 11.0328 5.8652 11.0948 6.23789 11.2175C6.60444 11.3434 6.95414 11.5138 7.27914 11.725C7.62568 11.9544 7.94815 12.2182 8.24164 12.5125L8.45164 12.7225L8.57414 12.845C8.77539 13.055 8.99414 13.3 9.19539 13.545L9.25664 13.615L9.62414 14L9.68539 14.0787L9.88664 14.3237L9.95664 14.42L10.2191 14.7612L10.5166 15.155L11.1641 16.03L11.2254 16.1C11.3741 16.3012 11.5316 16.4937 11.6804 16.6775C11.7256 16.7394 11.7753 16.7979 11.8291 16.8525V16.905L12.0741 17.2025L12.1704 17.3162C12.2316 17.3775 12.2754 17.4387 12.3366 17.4912C12.3903 17.5623 12.4487 17.6295 12.5116 17.6925C12.6691 17.8675 12.8266 18.0337 12.9754 18.1737C14.0591 19.3311 15.4205 20.1924 16.9304 20.6762C17.6563 20.8813 18.4073 20.9844 19.1616 20.9825H19.4066V23.0475C19.4048 23.1489 19.4328 23.2486 19.4873 23.3342C19.5417 23.4198 19.6202 23.4875 19.7129 23.5287C19.7812 23.5609 19.8562 23.5759 19.9316 23.5725C20.0561 23.572 20.1766 23.5287 20.2729 23.45L24.8141 19.5387C24.8715 19.4904 24.9177 19.4301 24.9495 19.3621C24.9812 19.2941 24.9977 19.22 24.9979 19.145C25.0059 19.0642 24.9951 18.9826 24.9662 18.9067C24.9374 18.8308 24.8913 18.7626 24.8316 18.7075ZM19.1791 20.4137C18.4746 20.4202 17.7729 20.323 17.0966 20.125C15.6674 19.6703 14.3803 18.8534 13.3604 17.7537C13.2029 17.605 13.0541 17.4475 12.9141 17.29C12.7741 17.1325 12.7654 17.1237 12.6954 17.045L12.5291 16.8612L12.4416 16.7562L12.1879 16.45C12.1485 16.4164 12.1132 16.3782 12.0829 16.3362L11.5491 15.68L10.9104 14.805L10.2716 13.93C10.1841 13.8162 10.1054 13.7112 10.0004 13.5975L9.93914 13.5187C9.83414 13.3787 9.71164 13.2475 9.59789 13.1075C9.39664 12.8537 9.17789 12.6175 8.96789 12.39C8.75789 12.1625 8.74914 12.1625 8.63539 12.0575L8.24164 11.6987C8.0369 11.5174 7.81738 11.3535 7.58539 11.2087C7.22911 10.9657 6.84027 10.7742 6.43039 10.64C6.00361 10.5015 5.55781 10.4307 5.10914 10.43H4.05039V7.40247H5.08289C7.89164 7.40247 9.83414 8.86372 11.4266 10.64C11.5754 10.7975 11.7154 10.9637 11.8466 11.1212L11.9691 11.2612L12.1879 11.5325C12.5991 12.0225 12.9666 12.5125 13.3341 12.9937C13.3954 13.0637 13.4479 13.1425 13.5179 13.2125C13.7104 13.4837 13.9116 13.7462 14.1041 13.9912L14.3754 14.3325L14.4454 14.4112L14.6991 14.7262C15.9941 16.2662 17.3241 17.3512 19.1791 17.3512H19.9491V15.1637L23.6679 18.375L24.4904 19.0837L19.9491 23.0037V20.3787L19.1791 20.4137Z" fill="#636363"/>
<path d="M19.9417 18.9875V20.4312H19.1717C18.4663 20.4316 17.7647 20.3284 17.0892 20.125C15.6603 19.6653 14.3736 18.8457 13.353 17.745C13.1955 17.5962 13.0467 17.4387 12.9067 17.2812C12.7667 17.1237 12.4167 16.7387 12.1892 16.4062C12.1469 16.3698 12.1087 16.3287 12.0755 16.2837C11.9005 16.0737 11.7255 15.8462 11.5505 15.6275L10.9117 14.875C10.7017 14.5862 10.4742 14.3062 10.273 14C10.0542 13.7112 9.82672 13.4225 9.60797 13.125C9.38922 12.8275 9.17047 12.6175 8.95172 12.39C8.73297 12.1625 8.72422 12.1537 8.61922 12.0575C8.29601 11.7351 7.9446 11.4423 7.56922 11.1825C7.20975 10.9472 6.82159 10.759 6.41422 10.6225C5.98293 10.5128 5.53708 10.4714 5.09297 10.5H4.04297V9.02124H5.09297C7.54297 9.02124 9.05672 10.9812 10.8155 13.2737C10.8502 13.3124 10.8824 13.3533 10.9117 13.3962C11.3055 13.9125 11.7167 14.4462 12.1455 14.9712C12.3467 15.2162 12.5567 15.47 12.7842 15.7062C14.3942 17.5 16.3542 18.9875 19.1717 18.9875H19.9417Z" fill="#62E2BB"/>
<path d="M24.5002 19.1101L19.9414 23.0213V21.5776L23.6602 18.3926L24.5002 19.1101Z" fill="#62E2BB"/>
</svg>
