<svg width="24" height="24" viewBox="0 0 24 24" fill="none" xmlns="http://www.w3.org/2000/svg">
<g clip-path="url(#clip0)">
<path fill-rule="evenodd" clip-rule="evenodd" d="M16.4355 4.60786L15.8551 5.15596L16.8838 6.24676L19.3345 3.93556L17.0224 1.48486L15.9316 2.51446L16.4918 3.10846H5.3575V4.60786H16.4355ZM5.3575 16.7615H2.5V7.23766H21.5476V10.0952V13.904V16.7615H18.6901H5.3575ZM4.8427 20.0546L7.2925 17.7425L8.3221 18.8333L7.77412 19.3508H18.2743V20.8511H7.65616L8.2456 21.4757L7.1548 22.5044L4.8427 20.0546ZM20.0473 14.3289C19.669 14.5626 19.3494 14.8821 19.1156 15.2603H4.93182C4.69794 14.8822 4.37841 14.5628 4.0003 14.3291V9.66978C4.37856 9.43588 4.69822 9.11622 4.93212 8.73796H19.1152C19.3492 9.11637 19.6689 9.43611 20.0473 9.67003V14.3289ZM10.1194 11.9996C10.1194 10.9475 10.9717 10.0952 12.0238 10.0952C13.0759 10.0952 13.9282 10.9475 13.9282 11.9996C13.9282 13.0517 13.0759 13.904 12.0238 13.904C10.9717 13.904 10.1194 13.0517 10.1194 11.9996Z" fill="#9B9B9B"/>
</g>
<defs>
<clipPath id="clip0">
<rect width="24" height="24" fill="white"/>
</clipPath>
</defs>
</svg>
