<svg xmlns="http://www.w3.org/2000/svg" xmlns:xlink="http://www.w3.org/1999/xlink" width="64" height="64" viewBox="0 0 64 64">
    <defs>
        <path id="a" d="M.919.722h18.916v18.916H.919z"/>
    </defs>
    <g fill="none" fill-rule="evenodd">
        <path fill="#FFF" d="M22.766 46.698l3.784-9.458M42.693 39.765a2.35 2.35 0 0 1-1.506-.546l-.712-.6a4.055 4.055 0 0 0-3-.946l-10.372.906a6.722 6.722 0 0 1-6.896-4.412l-5.47-15.204a2.34 2.34 0 0 1 2.202-3.13c.982 0 1.866.622 2.198 1.548l5.468 15.204a2.038 2.038 0 0 0 1.912 1.346l10.548-.916a8.787 8.787 0 0 1 6.414 2.024l.712.6c.48.4.774.964.828 1.586a2.32 2.32 0 0 1-.538 1.706 2.33 2.33 0 0 1-1.788.834"/>
        <path fill="#636363" d="M16.938 15.234a2.94 2.94 0 0 0-2.764 3.932l5.47 15.204a7.317 7.317 0 0 0 7.51 4.808l10.372-.906a3.452 3.452 0 0 1 2.562.806l.716.6a2.936 2.936 0 0 0 1.886.686c.086 0 .172-.004.258-.008a2.917 2.917 0 0 0 1.992-1.04 2.917 2.917 0 0 0 .678-2.144 2.913 2.913 0 0 0-1.04-1.994l-.714-.6a9.38 9.38 0 0 0-6.85-2.16l-10.37.908a1.438 1.438 0 0 1-1.474-.942l-5.468-15.206a2.945 2.945 0 0 0-2.764-1.944m0 1.2c.712 0 1.38.44 1.634 1.15l5.47 15.204a2.63 2.63 0 0 0 2.704 1.734l10.372-.91c.244-.02.486-.03.728-.03 1.918 0 3.76.668 5.246 1.916l.716.6c.736.616.832 1.712.214 2.446a1.736 1.736 0 0 1-2.448.216l-.714-.6a4.684 4.684 0 0 0-3.44-1.084l-10.37.906a6.108 6.108 0 0 1-6.278-4.018L15.304 18.76a1.74 1.74 0 0 1 1.634-2.326"/>
        <path fill="#62E2BB" d="M44.027 38.546c-.32.36-.736.566-1.192.606a1.704 1.704 0 0 1-1.266-.398l-.72-.586a4.597 4.597 0 0 0-3.424-1.098l-10.384.908a6.08 6.08 0 0 1-6.262-4.01l-5.484-15.21a1.723 1.723 0 0 1 .15-1.494l5.334 14.774a6.08 6.08 0 0 0 6.262 4.01l10.384-.906c1.25-.096 2.478.282 3.424 1.096l.72.604c.378.304.832.436 1.266.4.456-.04.872-.246 1.192-.626a.514.514 0 0 0 .096-.132c.436.604.396 1.456-.096 2.062"/>
        <path fill="#FFF" d="M31.26 52.679c-3.484 0-6.826-.554-9.662-1.608-3-1.11-5.244-2.712-6.488-4.632a2.338 2.338 0 0 1 3.924-2.546c.682 1.056 2.17 2.048 4.19 2.796 2.322.862 5.1 1.316 8.036 1.316 2.938 0 5.716-.454 8.038-1.316 2.02-.748 3.508-1.74 4.19-2.794a2.329 2.329 0 0 1 1.964-1.064c.45 0 .89.13 1.268.376.524.34.886.86 1.016 1.472.132.61.016 1.236-.324 1.76-1.244 1.92-3.488 3.522-6.488 4.632-2.836 1.054-6.178 1.608-9.664 1.608"/>
        <path fill="#636363" d="M17.07 42.23a2.938 2.938 0 0 0-2.462 4.536c1.314 2.026 3.66 3.71 6.782 4.868 2.9 1.076 6.314 1.644 9.872 1.644 3.556 0 6.97-.568 9.87-1.644 3.124-1.158 5.47-2.842 6.784-4.868a2.943 2.943 0 0 0-.868-4.064 2.933 2.933 0 0 0-1.596-.472c-1 0-1.924.502-2.466 1.34-.604.93-2.024 1.864-3.896 2.556-2.254.836-4.962 1.278-7.828 1.278-2.868 0-5.574-.442-7.828-1.278-1.874-.692-3.294-1.626-3.898-2.556a2.926 2.926 0 0 0-2.466-1.34m0 1.2c.568 0 1.126.28 1.458.792.752 1.16 2.346 2.236 4.488 3.03 2.386.884 5.238 1.354 8.246 1.354s5.858-.47 8.244-1.354c2.142-.794 3.736-1.87 4.486-3.03a1.738 1.738 0 0 1 2.404-.512 1.736 1.736 0 0 1 .512 2.402c-1.172 1.81-3.314 3.33-6.194 4.398-2.768 1.026-6.036 1.57-9.452 1.57-3.416 0-6.686-.544-9.454-1.57-2.88-1.068-5.022-2.588-6.196-4.398a1.74 1.74 0 0 1 1.458-2.682"/>
        <path fill="#62E2BB" d="M46.904 46.109c-1.174 1.816-3.31 3.328-6.188 4.406-2.76 1.022-6.032 1.57-9.456 1.57-3.424 0-6.678-.548-9.46-1.57-2.286-.85-4.122-2.004-5.334-3.348.946.646 2.062 1.192 3.312 1.648 2.78 1.02 6.034 1.57 9.458 1.57 3.424 0 6.676-.55 9.458-1.57 2.874-1.062 5.012-2.592 6.184-4.39.19-.302.286-.606.286-.944.396-.096.85-.02 1.228.226a1.724 1.724 0 0 1 .512 2.402"/>
        <path fill="#636363" d="M46.908 46.112c-1.172 1.808-3.314 3.33-6.194 4.396-2.766 1.028-6.036 1.57-9.452 1.57-3.416 0-6.686-.542-9.456-1.57-2.878-1.066-5.02-2.588-6.192-4.396a1.737 1.737 0 0 1 2.916-1.89c.752 1.16 2.344 2.236 4.486 3.028 2.386.886 5.236 1.354 8.246 1.354 3.008 0 5.858-.468 8.244-1.354 2.142-.792 3.734-1.868 4.488-3.028a1.736 1.736 0 1 1 2.914 1.89m-20.392-6.906c.212 0 .426-.01.638-.03l8.68-.76 3.102 7.758c-2.224.802-4.87 1.23-7.674 1.23-2.794 0-5.426-.426-7.646-1.22l2.796-6.988c.036.002.068.01.104.01m-5.744-5.242l-5.47-15.206a1.738 1.738 0 0 1 3.27-1.176l5.468 15.206a2.637 2.637 0 0 0 2.706 1.732l10.37-.908a8.166 8.166 0 0 1 5.976 1.884l.714.6a1.738 1.738 0 1 1-2.232 2.662l-.714-.6a4.682 4.682 0 0 0-3.44-1.084l-10.372.908a6.107 6.107 0 0 1-6.276-4.018m26.276 8.738a2.933 2.933 0 0 0-1.596-.472c-1.002 0-1.922.5-2.466 1.34-.494.76-1.552 1.514-2.942 2.148L37.08 38.31l.446-.04a3.463 3.463 0 0 1 2.562.806l.714.6a2.936 2.936 0 1 0 3.776-4.5l-.714-.6a9.382 9.382 0 0 0-6.85-2.16l-10.372.908a1.434 1.434 0 0 1-1.472-.94L19.7 17.176a2.94 2.94 0 0 0-3.756-1.77 2.94 2.94 0 0 0-1.77 3.758l5.468 15.206a7.324 7.324 0 0 0 5.532 4.696l-2.666 6.664c-1.404-.636-2.476-1.396-2.972-2.16a2.926 2.926 0 0 0-2.466-1.34 2.933 2.933 0 0 0-2.87 2.324 2.902 2.902 0 0 0 .408 2.21c1.314 2.028 3.66 3.712 6.782 4.87 2.9 1.076 6.314 1.644 9.872 1.644 3.556 0 6.97-.568 9.87-1.644 3.124-1.158 5.47-2.842 6.784-4.87a2.94 2.94 0 0 0-.868-4.062"/>
        <path fill="#FFF" d="M34.377 28.318c-4.884 0-8.86-3.974-8.86-8.86 0-4.884 3.976-8.858 8.86-8.858 4.882 0 8.858 3.974 8.858 8.858 0 4.886-3.976 8.86-8.858 8.86"/>
        <g transform="translate(24 9.279)">
            <mask id="b" fill="#fff">
                <use xlink:href="#a"/>
            </mask>
            <path fill="#636363" d="M10.377.72C5.155.72.919 4.956.919 10.178c0 5.224 4.236 9.46 9.458 9.46 5.224 0 9.458-4.236 9.458-9.46 0-5.222-4.234-9.458-9.458-9.458m0 1.202c4.554 0 8.258 3.704 8.258 8.256 0 4.554-3.704 8.258-8.258 8.258-4.552 0-8.258-3.704-8.258-8.258 0-4.552 3.706-8.256 8.258-8.256" mask="url(#b)"/>
        </g>
        <path fill="#FFF" d="M43.836 19.458c0 5.222-4.234 9.458-9.458 9.458s-9.458-4.236-9.458-9.458S29.154 10 34.378 10s9.458 4.236 9.458 9.458"/>
        <path fill="#62E2BB" d="M43.836 19.466c0 5.22-4.238 9.458-9.458 9.458a9.448 9.448 0 0 1-9.402-8.494 7.892 7.892 0 0 0 7.83 6.922c4.352 0 7.89-3.536 7.89-7.886a7.883 7.883 0 0 0-7.89-7.888 7.878 7.878 0 0 0-7.83 6.924 9.43 9.43 0 0 1 9.402-8.494 9.45 9.45 0 0 1 9.458 9.458"/>
        <path fill="#636363" d="M31.674 15.126v1.2h1.63a1.53 1.53 0 0 1 1.422.968h-3.052v1.2H34.7a1.54 1.54 0 0 1-1.396.906h-1.116a.598.598 0 0 0-.482.956l3.254 4.394.964-.716-2.544-3.436c1.252-.032 2.25-.93 2.536-2.104h1.164v-1.2h-1.1a2.7 2.7 0 0 0-.414-.968h1.514v-1.2h-5.406z"/>
        <path fill="#636363" d="M34.377 27.716c-4.552 0-8.258-3.706-8.258-8.258s3.706-8.258 8.258-8.258c4.554 0 8.258 3.706 8.258 8.258s-3.704 8.258-8.258 8.258m0-17.716c-5.222 0-9.458 4.234-9.458 9.458s4.236 9.46 9.458 9.46c5.224 0 9.458-4.236 9.458-9.46A9.457 9.457 0 0 0 34.377 10"/>
    </g>
</svg>
