<svg width="28" height="28" viewBox="0 0 28 28" fill="none" xmlns="http://www.w3.org/2000/svg">
<path d="M23.4508 2.42383H22.9258V17.6751H23.4508V2.42383Z" fill="#636363"/>
<path d="M25.1466 5.43384H21.2266V14.6126H25.1466V5.43384Z" fill="white"/>
<path d="M24.885 5.69614V14.3499H21.49V5.69614H24.885ZM25.41 5.17114H21V14.8749H25.375V5.17114H25.41Z" fill="#636363"/>
<path d="M25.1991 5.38989H23.6504V14.6649H25.1991V5.38989Z" fill="#62E2BB"/>
<path d="M24.885 5.69614V14.3499H21.49V5.69614H24.885ZM25.41 5.17114H21V14.8749H25.375V5.17114H25.41Z" fill="#636363"/>
<path d="M5.4957 10.3601H4.9707V25.0864H5.4957V10.3601Z" fill="#636363"/>
<path d="M7.19344 13.2737H3.27344V22.1199H7.19344V13.2737Z" fill="white"/>
<path d="M6.92977 13.5362V21.875H3.49977V13.5362H6.92977ZM7.45477 13.0112H3.00977V22.3825H7.45477V13.0112Z" fill="#636363"/>
<path d="M7.46281 13.0112H5.91406V22.3825H7.46281V13.0112Z" fill="#62E2BB"/>
<path d="M6.92977 13.5362V21.875H3.49977V13.5362H6.92977ZM7.45477 13.0112H3.00977V22.3825H7.45477V13.0112Z" fill="#636363"/>
<path d="M11.4801 3.1062H10.9551V21.0437H11.4801V3.1062Z" fill="#636363"/>
<path d="M13.1778 6.59741H9.25781V17.4824H13.1778V6.59741Z" fill="white"/>
<path d="M12.9141 6.85996V17.22H9.51914V6.85996H12.9141ZM13.4391 6.33496H8.99414V17.71H13.4391V6.33496Z" fill="#636363"/>
<path d="M13.4394 6.33496H11.8906V17.6837H13.4394V6.33496Z" fill="#62E2BB"/>
<path d="M12.9141 6.85996V17.22H9.51914V6.85996H12.9141ZM13.4391 6.33496H8.99414V17.71H13.4391V6.33496Z" fill="#636363"/>
<path d="M17.4645 7.03491H16.9395V23.8262H17.4645V7.03491Z" fill="#636363"/>
<path d="M19.1622 10.325H15.2422V20.4837H19.1622V10.325Z" fill="white"/>
<path d="M18.9005 10.5875V20.2125H15.5055V10.5875H18.9005ZM19.4255 10.0625H14.9805V20.7375H19.4255V10.0625Z" fill="#636363"/>
<path d="M19.207 10.1851H17.6582V20.6151H19.207V10.1851Z" fill="#62E2BB"/>
<path d="M18.9005 10.5875V20.2125H15.5055V10.5875H18.9005ZM19.4255 10.0625H14.9805V20.7375H19.4255V10.0625Z" fill="#636363"/>
</svg>
