<svg width="36" height="36" viewBox="0 0 36 36" fill="none" xmlns="http://www.w3.org/2000/svg">
<path d="M5.0625 6.07031V19.7459H30.6298V6.07031H5.0625Z" fill="white"/>
<path d="M31.1502 6.44184V19.2263C31.1502 19.6718 30.7844 20.0363 30.3389 20.0363H5.30987C4.86437 20.0363 4.50122 19.6718 4.50122 19.2263V17.3363H27.6389C28.0844 17.3363 28.4502 16.9718 28.4502 16.5263V5.63184H30.3389C30.7844 5.63184 31.1502 5.98284 31.1502 6.44184Z" fill="#62E2BB"/>
<path fill-rule="evenodd" clip-rule="evenodd" d="M15.1541 29.111L12.8952 23.5068L10.858 28.5632C10.6798 30.1477 9.33322 31.383 7.70309 31.383C5.95248 31.383 4.52789 29.9584 4.52789 28.2068C4.52789 26.4562 5.95248 25.0316 7.70309 25.0316C9.01428 25.0316 10.1432 25.8325 10.6272 26.9695L12.4588 22.4224L11.4979 20.0389H5.31562C4.8691 20.0389 4.50562 19.6755 4.50562 19.2279V6.435C4.50562 5.98849 4.8691 5.625 5.31562 5.625H30.3375C30.784 5.625 31.1475 5.98849 31.1475 6.435V19.2279C31.1475 19.6755 30.784 20.0389 30.3375 20.0389H14.2935L13.3326 22.4224L15.2199 27.1072C15.6684 25.8963 16.8338 25.0316 18.1987 25.0316C19.9493 25.0316 21.3739 26.4562 21.3739 28.2068C21.3739 29.9584 19.9493 31.383 18.1987 31.383C16.7609 31.383 15.5439 30.4231 15.1541 29.111ZM15.8335 28.2068C15.8335 28.4285 15.8638 28.6432 15.9205 28.8467L16.1119 29.3216C16.5108 30.0657 17.2965 30.573 18.1987 30.573C19.5028 30.573 20.5639 29.5119 20.5639 28.2068C20.5639 26.9027 19.5028 25.8416 18.1987 25.8416C16.8946 25.8416 15.8335 26.9027 15.8335 28.2068ZM7.70309 30.573C6.39899 30.573 5.33789 29.5119 5.33789 28.2068C5.33789 26.9027 6.39899 25.8416 7.70309 25.8416C9.00719 25.8416 10.0683 26.9027 10.0683 28.2068C10.0683 29.5119 9.00719 30.573 7.70309 30.573ZM12.8952 21.339L13.4197 20.039H13.3468H12.5368H12.3717L12.8952 21.339ZM13.3468 19.2279V18.6883H12.5368V19.2279H12.0447L7.87218 8.87209L7.1209 9.17482L11.1719 19.2279H5.31561V6.435H12.5368V7.22171H13.3468V6.435H30.3375V19.2279H13.3468ZM13.3458 16.395H12.5368V14.1017H13.3468V16.3939V16.395H13.3458ZM18.5449 14.9157L19.5858 14.9167H19.5868V14.9157L19.8663 14.1482H21.8558L22.1363 14.9157L23.1721 14.9137L21.4559 10.4627H20.2672L18.5449 14.9157ZM20.1204 13.3271H21.5956L20.8615 11.2839L20.1204 13.3271ZM24.6473 14.9157L25.7691 13.2866L26.8839 14.9157L28.0179 14.9137L26.403 12.6254L27.9187 10.4627H26.7776L25.7691 11.9845L24.7475 10.4627H23.6196L25.1343 12.6325L23.5194 14.9157H24.6473ZM17.575 14.9157H16.6212V11.297H15.3191V10.4627H18.871V11.297H17.576V14.9147V14.9157H17.575ZM12.5368 11.8073H13.3458H13.3468V11.8063V9.51401H12.5368V11.8073Z" fill="#636363"/>
</svg>
