<svg width="24" height="24" viewBox="0 0 24 24" fill="none" xmlns="http://www.w3.org/2000/svg">
<path d="M24 11.04H21.6C21.24 6.48 17.52 2.76 12.96 2.4V0H11.16V2.4C6.48 2.88 2.88 6.48 2.4 11.04H0V12.84H2.4C2.88 17.4 6.48 21 11.04 21.48V24H12.84V21.48C17.4 21 21 17.4 21.48 12.84H23.88V11.04H24ZM12 19.8C7.68 19.8 4.2 16.32 4.2 12C4.2 7.68 7.68 4.2 12 4.2C16.32 4.2 19.8 7.68 19.8 12C19.8 16.32 16.32 19.8 12 19.8Z" fill="#9B9B9B"/>
<path d="M15.0551 10.3637L12.8733 12.5455L10.9097 10.3637C10.8006 10.2546 10.5824 10.1455 10.3642 10.1455C10.1461 10.1455 9.92788 10.2546 9.81879 10.3637L6.98242 13.0909L8.07333 14.2909L10.2551 12.1091L12.2188 14.2909C12.3279 14.5091 12.5461 14.5091 12.7642 14.5091C12.9824 14.5091 13.2006 14.4 13.3097 14.2909L16.037 11.4546L17.0188 12.4364V9.38184H13.8551L15.0551 10.3637Z" fill="#9B9B9B"/>
</svg>
