<svg width="28" height="28" viewBox="0 0 28 28" fill="none" xmlns="http://www.w3.org/2000/svg">
<path d="M13.125 21.5249H15.75C15.9983 21.5257 16.2414 21.4541 16.4496 21.3189C16.6578 21.1837 16.8222 20.9908 16.9225 20.7637" fill="white"/>
<path d="M24.5609 18.7596C24.5598 18.9845 24.5014 19.2054 24.3912 19.4014C24.2809 19.5974 24.1225 19.762 23.9309 19.8796L16.6159 24.2546C16.296 24.4453 15.938 24.563 15.5675 24.5993C15.1969 24.6356 14.8229 24.5896 14.4721 24.4646L7.56836 21.9796L7.75211 17.4121H10.5609C11.2606 17.4124 11.9348 17.6746 12.4509 18.1471L13.2384 18.8734H15.7496C15.9197 18.8734 16.0881 18.9069 16.2452 18.9719C16.4023 19.037 16.5451 19.1324 16.6653 19.2527C16.7856 19.3729 16.881 19.5157 16.946 19.6728C17.0111 19.8299 17.0446 19.9983 17.0446 20.1684C17.0445 20.3504 17.0026 20.53 16.9221 20.6934L22.6359 17.5784C22.8341 17.468 23.0578 17.4116 23.2847 17.4149C23.5115 17.4182 23.7336 17.481 23.9285 17.5971C24.1234 17.7131 24.2845 17.8784 24.3954 18.0763C24.5064 18.2742 24.5635 18.4977 24.5609 18.7246V18.7596Z" fill="white"/>
<path d="M3.84961 15.9688H7.52461V24.1413H3.84961" fill="white"/>
<path d="M5.97656 15.9688H7.52531V24.1413H5.97656" fill="#62E2BB"/>
<path d="M15.7495 21.796H13.1245V21.271H15.7495C16.0233 21.271 16.2859 21.1622 16.4795 20.9686C16.6732 20.7749 16.782 20.5123 16.782 20.2385C16.782 19.9646 16.6732 19.702 16.4795 19.5084C16.2859 19.3148 16.0233 19.206 15.7495 19.206H13.1245L12.2495 18.4185C11.774 17.9779 11.1476 17.7367 10.4995 17.7447H7.75195V17.2197H10.552C11.3194 17.2203 12.0589 17.5074 12.6257 18.0247L13.3345 18.681H15.7495C16.1625 18.681 16.5587 18.8451 16.8508 19.1372C17.1429 19.4292 17.307 19.8254 17.307 20.2385C17.307 20.6516 17.1429 21.0477 16.8508 21.3398C16.5587 21.6319 16.1625 21.796 15.7495 21.796Z" fill="#636363"/>
<path d="M15.3205 24.9458C15.0018 24.9455 14.6854 24.8923 14.3842 24.7883L7.48047 22.3033L7.65547 21.8133L14.5592 24.2896C14.872 24.4065 15.2075 24.4499 15.5398 24.4165C15.872 24.3832 16.1922 24.2738 16.4755 24.097L23.7905 19.7221C24.0167 19.5867 24.1832 19.3705 24.2563 19.1171C24.3294 18.8638 24.3036 18.5921 24.1842 18.3571C24.1215 18.2331 24.034 18.1233 23.9272 18.0345C23.8203 17.9457 23.6963 17.8797 23.563 17.8408C23.4319 17.7904 23.2916 17.7682 23.1514 17.7758C23.0112 17.7833 22.8741 17.8204 22.7492 17.8846L16.913 21.0696L16.668 20.6058L22.5042 17.4208C22.8641 17.23 23.2841 17.1868 23.6752 17.3005C24.0663 17.4142 24.3978 17.6758 24.5992 18.0298C24.8007 18.3838 24.8563 18.8024 24.7544 19.1967C24.6524 19.591 24.4008 19.9301 24.053 20.1421L16.7467 24.5171C16.3184 24.7853 15.8257 24.9334 15.3205 24.9458Z" fill="#636363"/>
<path d="M7.78711 24.4036H3.84961V23.8786H7.26211V16.2311H3.84961V15.7061H7.78711V24.4036Z" fill="#636363"/>
<path d="M15.4797 16.5639C18.8383 16.5639 21.5609 13.8412 21.5609 10.4826C21.5609 7.12404 18.8383 4.40137 15.4797 4.40137C12.1211 4.40137 9.39844 7.12404 9.39844 10.4826C9.39844 13.8412 12.1211 16.5639 15.4797 16.5639Z" fill="white"/>
<path d="M21.5596 10.4826C21.5482 12.0919 20.9038 13.6321 19.7658 14.7701C18.6278 15.908 17.0877 16.5524 15.4784 16.5639C15.0251 16.5639 14.5732 16.514 14.1309 16.4151C15.4474 16.077 16.6141 15.3106 17.4471 14.2366C18.2802 13.1625 18.7324 11.8419 18.7324 10.4826C18.7324 9.12336 18.2802 7.80272 17.4471 6.72868C16.6141 5.65463 15.4474 4.88822 14.1309 4.55012C14.5732 4.45125 15.0251 4.40137 15.4784 4.40137C17.0877 4.41282 18.6278 5.0572 19.7658 6.19519C20.9038 7.33317 21.5482 8.87331 21.5596 10.4826Z" fill="#62E2BB"/>
<path d="M17.1859 8.12891H13.7734V8.59266H17.1859V8.12891Z" fill="#636363"/>
<path d="M17.1859 9.50195H13.7734V9.9657H17.1859V9.50195Z" fill="#636363"/>
<path d="M15.9697 13.9652L13.9134 11.2002C13.8901 11.1636 13.8776 11.1211 13.8776 11.0777C13.8776 11.0343 13.8901 10.9918 13.9134 10.9552C13.9309 10.917 13.9594 10.8849 13.9953 10.8631C14.0311 10.8412 14.0727 10.8307 14.1147 10.8327H14.8234C15.1205 10.8327 15.4054 10.7147 15.6154 10.5047C15.8254 10.2946 15.9434 10.0097 15.9434 9.7127C15.9434 9.41566 15.8254 9.13078 15.6154 8.92074C15.4054 8.7107 15.1205 8.59269 14.8234 8.59269H13.7734V8.1377H14.8059C15.2237 8.1377 15.6243 8.30363 15.9196 8.599C16.215 8.89437 16.3809 9.29498 16.3809 9.7127C16.3809 10.1304 16.215 10.531 15.9196 10.8264C15.6243 11.1218 15.2237 11.2877 14.8059 11.2877H14.5522L16.3022 13.6939L15.9697 13.9652Z" fill="#636363"/>
<path d="M15.4788 4.85637C16.5919 4.85464 17.6805 5.18314 18.6069 5.80031C19.5333 6.41748 20.2558 7.29557 20.683 8.32348C21.1101 9.35139 21.2228 10.4829 21.0067 11.5749C20.7906 12.6668 20.2554 13.6702 19.469 14.4579C18.6825 15.2456 17.68 15.7823 16.5883 16.0001C15.4967 16.2179 14.365 16.107 13.3365 15.6814C12.3079 15.2559 11.4287 14.5347 10.8101 13.6093C10.1914 12.6839 9.86125 11.5958 9.86125 10.4826C9.86356 8.99267 10.4559 7.56428 11.5086 6.5099C12.5613 5.45552 13.9888 4.861 15.4788 4.85637ZM15.4788 4.40137C14.2798 4.41002 13.1101 4.77293 12.1168 5.44446C11.1234 6.11598 10.3508 7.06617 9.89595 8.17557C9.44111 9.28496 9.32437 10.5041 9.56041 11.6796C9.79645 12.8552 10.3747 13.9347 11.2226 14.7826C12.0704 15.6304 13.1499 16.2087 14.3255 16.4447C15.5011 16.6808 16.7202 16.564 17.8296 16.1092C18.939 15.6543 19.8891 14.8817 20.5607 13.8884C21.2322 12.895 21.5951 11.7254 21.6038 10.5264C21.6095 9.72409 21.4565 8.92861 21.1535 8.18574C20.8504 7.44287 20.4034 6.76731 19.8381 6.19797C19.2729 5.62863 18.6005 5.17677 17.8598 4.86843C17.1192 4.56008 16.3248 4.40135 15.5225 4.40137H15.4788Z" fill="#636363"/>
</svg>
