<svg width="17" height="20" viewBox="0 0 17 20" fill="none" xmlns="http://www.w3.org/2000/svg">
<g id="&#60;Group&#62;">
<g id="&#60;Group&#62;_2">
<g id="&#60;Group&#62;_3">
<path id="&#60;Path&#62;" d="M14.0294 10.6359C14.0391 9.86931 14.2393 9.11766 14.6114 8.45091C14.9835 7.78415 15.5154 7.22395 16.1576 6.82242C15.7496 6.22987 15.2115 5.74223 14.5858 5.39822C13.9601 5.05421 13.2641 4.86331 12.5532 4.84069C11.0367 4.6788 9.5665 5.76358 8.79371 5.76358C8.00597 5.76358 6.81614 4.85676 5.53489 4.88357C4.70614 4.9108 3.89846 5.1559 3.19054 5.59497C2.48263 6.03405 1.89862 6.65213 1.49541 7.389C-0.251175 10.4644 1.05162 14.9841 2.72471 17.47C3.56179 18.6873 4.54009 20.047 5.82019 19.9988C7.07283 19.946 7.54067 19.1865 9.05273 19.1865C10.5507 19.1865 10.9897 19.9988 12.2957 19.9682C13.6399 19.946 14.4868 18.7455 15.2945 17.5167C15.8959 16.6493 16.3587 15.6907 16.6658 14.6763C15.8849 14.3404 15.2184 13.7782 14.7496 13.0597C14.2808 12.3412 14.0303 11.4982 14.0294 10.6359Z" fill="#222222"/>
<path id="&#60;Path&#62;_2" d="M11.5623 3.20598C12.2952 2.31121 12.6563 1.16114 12.5688 0C11.4492 0.119602 10.4149 0.663841 9.67209 1.52428C9.30892 1.94462 9.03077 2.43364 8.85354 2.96338C8.67631 3.49312 8.60348 4.05319 8.63921 4.61157C9.19926 4.61743 9.75331 4.49398 10.2596 4.25051C10.766 4.00704 11.2114 3.64989 11.5623 3.20598Z" fill="#222222"/>
</g>
</g>
</g>
</svg>
