<svg width="16" height="16" viewBox="0 0 16 16" fill="none" xmlns="http://www.w3.org/2000/svg">
<path d="M11.4949 7.7086C11.5118 9.5246 13.088 10.1289 13.1055 10.1366C13.0921 10.1792 12.8536 10.9978 12.275 11.8433C11.7748 12.5744 11.2558 13.3027 10.438 13.3178C9.63455 13.3326 9.37618 12.8413 8.45755 12.8413C7.5392 12.8413 7.25214 13.3027 6.49154 13.3326C5.70222 13.3625 5.10114 12.5421 4.59685 11.8138C3.56635 10.3239 2.77884 7.60384 3.83627 5.76774C4.36158 4.85593 5.30035 4.27853 6.3193 4.26372C7.09439 4.24893 7.82596 4.78517 8.2998 4.78517C8.77334 4.78517 9.66236 4.1403 10.597 4.23501C10.9882 4.25129 12.0865 4.39305 12.7917 5.42533C12.7349 5.46056 11.4813 6.19037 11.4949 7.7086ZM9.98482 3.24935C10.4039 2.74211 10.6859 2.03597 10.609 1.33337C10.0049 1.35765 9.27453 1.73588 8.84127 2.24285C8.45298 2.6918 8.11293 3.41036 8.20469 4.09905C8.87795 4.15114 9.56574 3.75692 9.98482 3.24935Z" fill="black"/>
</svg>
