<svg width="32" height="32" viewBox="0 0 32 32" fill="none" xmlns="http://www.w3.org/2000/svg">
<path d="M23.9972 5.00815H7.99084C7.53415 5.00815 7.16394 5.37836 7.16394 5.83504V26.1531C7.16394 26.6097 7.53415 26.98 7.99084 26.98H23.9972C24.4539 26.98 24.8241 26.6097 24.8241 26.1531V5.83504C24.8241 5.37836 24.4539 5.00815 23.9972 5.00815Z" fill="white"/>
<path d="M24.009 5.36255C24.0711 5.36255 24.1325 5.37477 24.1898 5.39851C24.2472 5.42226 24.2992 5.45707 24.3431 5.50094C24.387 5.54482 24.4218 5.59691 24.4456 5.65424C24.4693 5.71156 24.4815 5.77301 24.4815 5.83506V26.1649C24.4815 26.2902 24.4317 26.4104 24.3431 26.499C24.2545 26.5876 24.1343 26.6374 24.009 26.6374H7.99085C7.86553 26.6374 7.74535 26.5876 7.65673 26.499C7.56812 26.4104 7.51834 26.2902 7.51834 26.1649V5.83506C7.51834 5.70974 7.56812 5.58956 7.65673 5.50094C7.74535 5.41233 7.86553 5.36255 7.99085 5.36255H24.009ZM24.009 4.65378H7.99085C7.67756 4.65378 7.37709 4.77823 7.15556 4.99977C6.93403 5.2213 6.80957 5.52176 6.80957 5.83506V26.1649C6.80957 26.4782 6.93403 26.7787 7.15556 27.0002C7.37709 27.2217 7.67756 27.3462 7.99085 27.3462H24.009C24.3223 27.3462 24.6228 27.2217 24.8443 27.0002C25.0658 26.7787 25.1903 26.4782 25.1903 26.1649V5.83506C25.1903 5.52176 25.0658 5.2213 24.8443 4.99977C24.6228 4.77823 24.3223 4.65378 24.009 4.65378Z" fill="#636363"/>
<path d="M25.1785 5.75237V26.2476C25.1785 26.5389 25.0627 26.8184 24.8567 27.0244C24.6507 27.2304 24.3713 27.3462 24.0799 27.3462H7.90816C7.6168 27.3462 7.33737 27.2304 7.13134 27.0244C6.92532 26.8184 6.80957 26.5389 6.80957 26.2476H21.8827C22.1741 26.2476 22.4535 26.1318 22.6595 25.9258C22.8656 25.7198 22.9813 25.4404 22.9813 25.149V4.65378H24.0799C24.2242 4.65378 24.367 4.68219 24.5003 4.7374C24.6336 4.79261 24.7547 4.87354 24.8567 4.97555C24.9587 5.07756 25.0396 5.19867 25.0949 5.33196C25.1501 5.46524 25.1785 5.6081 25.1785 5.75237Z" fill="#62E2BB"/>
<path d="M24.7768 5.4334V13.9386H22.9695V4.89001H24.2216C24.3669 4.88998 24.5063 4.94685 24.6101 5.04843C24.7139 5.15001 24.7738 5.28821 24.7768 5.4334Z" fill="#EAEAEA"/>
<path d="M25.1785 13.6315H6.80957V14.3402H25.1785V13.6315Z" fill="#636363"/>
<path d="M24.009 5.36255C24.0711 5.36255 24.1325 5.37477 24.1898 5.39851C24.2472 5.42226 24.2992 5.45707 24.3431 5.50094C24.387 5.54482 24.4218 5.59691 24.4456 5.65424C24.4693 5.71156 24.4815 5.77301 24.4815 5.83506V26.1649C24.4815 26.2902 24.4317 26.4104 24.3431 26.499C24.2545 26.5876 24.1343 26.6374 24.009 26.6374H7.99085C7.86553 26.6374 7.74535 26.5876 7.65673 26.499C7.56812 26.4104 7.51834 26.2902 7.51834 26.1649V5.83506C7.51834 5.70974 7.56812 5.58956 7.65673 5.50094C7.74535 5.41233 7.86553 5.36255 7.99085 5.36255H24.009ZM24.009 4.65378H7.99085C7.67756 4.65378 7.37709 4.77823 7.15556 4.99977C6.93403 5.2213 6.80957 5.52176 6.80957 5.83506V26.1649C6.80957 26.4782 6.93403 26.7787 7.15556 27.0002C7.37709 27.2217 7.67756 27.3462 7.99085 27.3462H24.009C24.3223 27.3462 24.6228 27.2217 24.8443 27.0002C25.0658 26.7787 25.1903 26.4782 25.1903 26.1649V5.83506C25.1903 5.52176 25.0658 5.2213 24.8443 4.99977C24.6228 4.77823 24.3223 4.65378 24.009 4.65378Z" fill="#636363"/>
<path d="M21.8473 17.955H10.1526V18.6637H21.8473V17.955Z" fill="#636363"/>
<path d="M21.8473 22.3966H10.1526V23.1054H21.8473V22.3966Z" fill="#636363"/>
<path d="M18.3742 19.5025C19.0332 19.5025 19.5673 18.9683 19.5673 18.3094C19.5673 17.6504 19.0332 17.1163 18.3742 17.1163C17.7153 17.1163 17.1812 17.6504 17.1812 18.3094C17.1812 18.9683 17.7153 19.5025 18.3742 19.5025Z" fill="#EAEAEA"/>
<path d="M18.3743 19.8568C18.0687 19.8545 17.7707 19.7618 17.5178 19.5903C17.2649 19.4189 17.0684 19.1764 16.9531 18.8934C16.8377 18.6105 16.8088 18.2997 16.8698 18.0003C16.9308 17.7009 17.0792 17.4263 17.296 17.211C17.5129 16.9958 17.7887 16.8496 18.0885 16.7908C18.3884 16.7321 18.6989 16.7634 18.981 16.8808C19.2631 16.9983 19.5041 17.1967 19.6736 17.4509C19.8431 17.7051 19.9336 18.0038 19.9336 18.3094C19.9336 18.5136 19.8932 18.7158 19.8147 18.9043C19.7362 19.0928 19.6211 19.2639 19.4762 19.4078C19.3312 19.5516 19.1592 19.6654 18.9701 19.7425C18.781 19.8195 18.5785 19.8584 18.3743 19.8568ZM18.3743 17.4943C18.1518 17.4943 17.9385 17.5826 17.7812 17.7399C17.6239 17.8972 17.5356 18.1106 17.5356 18.333C17.5332 18.5022 17.5814 18.6682 17.674 18.8099C17.7665 18.9516 17.8992 19.0624 18.0551 19.1282C18.211 19.1941 18.383 19.2119 18.5491 19.1795C18.7151 19.147 18.8678 19.0658 18.9874 18.9461C19.1071 18.8265 19.1883 18.6739 19.2208 18.5078C19.2532 18.3417 19.2354 18.1697 19.1695 18.0138C19.1037 17.8579 18.9929 17.7252 18.8512 17.6327C18.7095 17.5401 18.5435 17.4919 18.3743 17.4943Z" fill="#636363"/>
<path d="M13.6847 23.9559C14.3436 23.9559 14.8778 23.4217 14.8778 22.7628C14.8778 22.1038 14.3436 21.5697 13.6847 21.5697C13.0257 21.5697 12.4916 22.1038 12.4916 22.7628C12.4916 23.4217 13.0257 23.9559 13.6847 23.9559Z" fill="#EAEAEA"/>
<path d="M13.6847 24.3103C13.3786 24.3103 13.0794 24.2195 12.825 24.0495C12.5705 23.8794 12.3721 23.6377 12.255 23.355C12.1379 23.0722 12.1072 22.7611 12.1669 22.4609C12.2267 22.1607 12.374 21.885 12.5905 21.6685C12.8069 21.4521 13.0826 21.3047 13.3828 21.245C13.683 21.1853 13.9941 21.216 14.2769 21.3331C14.5596 21.4502 14.8013 21.6486 14.9714 21.903C15.1414 22.1575 15.2322 22.4567 15.2322 22.7628C15.2291 23.1722 15.065 23.5641 14.7755 23.8536C14.486 24.1431 14.0941 24.3072 13.6847 24.3103ZM13.6847 21.9477C13.5188 21.9477 13.3566 21.9969 13.2187 22.089C13.0808 22.1812 12.9733 22.3122 12.9098 22.4654C12.8463 22.6187 12.8297 22.7873 12.8621 22.95C12.8945 23.1127 12.9743 23.2622 13.0916 23.3795C13.2089 23.4968 13.3584 23.5766 13.5211 23.609C13.6838 23.6414 13.8524 23.6248 14.0056 23.5613C14.1589 23.4978 14.2899 23.3903 14.382 23.2524C14.4742 23.1144 14.5234 22.9523 14.5234 22.7864C14.5266 22.6743 14.5072 22.5627 14.4665 22.4582C14.4257 22.3537 14.3645 22.2584 14.2863 22.178C14.2081 22.0976 14.1145 22.0337 14.0112 21.9901C13.9079 21.9465 13.7968 21.924 13.6847 21.9241V21.9477Z" fill="#636363"/>
<path d="M21.9695 7.11084H18.9573V7.81961H21.9695V7.11084Z" fill="#636363"/>
<path d="M21.9695 8.3157H18.9573V9.02447H21.9695V8.3157Z" fill="#636363"/>
<path d="M20.7882 12.5093L18.9691 10.064C18.9296 10.0114 18.9055 9.94879 18.8996 9.88324C18.8937 9.81769 18.9062 9.75179 18.9356 9.69293C18.965 9.63406 19.0103 9.58456 19.0663 9.54996C19.1223 9.51536 19.1868 9.49703 19.2526 9.49703H19.8787C20.1011 9.49703 20.3144 9.40867 20.4717 9.25138C20.629 9.09409 20.7174 8.88076 20.7174 8.65832C20.7174 8.43588 20.629 8.22255 20.4717 8.06526C20.3144 7.90798 20.1011 7.81961 19.8787 7.81961H18.9691V7.11084H19.8787C20.2891 7.09988 20.687 7.2524 20.985 7.53485C21.283 7.81731 21.4565 8.20656 21.4675 8.61698C21.4784 9.02739 21.3259 9.42535 21.0435 9.72332C20.761 10.0213 20.3718 10.1948 19.9613 10.2058L21.3553 12.084L20.7882 12.5093Z" fill="#636363"/>
</svg>
