<svg width="28" height="28" viewBox="0 0 28 28" fill="none" xmlns="http://www.w3.org/2000/svg">
<g clip-path="url(#clip0_16859_177462)">
<path d="M26.4147 18.6209C26.4147 19.3638 26.3447 20.0956 26.2178 20.8072C26.1305 21.2984 25.7123 21.6628 25.2119 21.6628H20.9154C20.2496 21.6628 19.7573 21.0315 19.94 20.392C20.0892 19.8683 20.1694 19.3161 20.1694 18.7477C20.1694 15.4754 17.5172 12.812 14.2347 12.812C10.9512 12.812 8.29897 15.4754 8.29897 18.7477C8.29897 19.3161 8.37915 19.8683 8.52836 20.392C8.71106 21.0315 8.21878 21.6628 7.55294 21.6628H3.26051C2.76113 21.6628 2.34498 21.3015 2.25464 20.8122C2.12371 20.1038 2.05469 19.3709 2.05469 18.6209C2.05469 18.4138 2.05469 18.1966 2.06585 17.9895C2.07702 17.7825 2.10036 17.5764 2.11153 17.3694C2.12269 17.3115 2.13487 17.2547 2.13487 17.1978C2.14604 17.1055 2.15822 17.0019 2.16837 16.9106C2.20288 16.7035 2.2384 16.5086 2.28408 16.3016C2.29524 16.2214 2.30641 16.1412 2.32975 16.061C2.36426 15.8885 2.39877 15.7281 2.43328 15.5677C2.45663 15.4987 2.46678 15.4409 2.49114 15.3718C2.58249 15.0501 2.685 14.7405 2.78955 14.4188C2.90424 14.1203 3.0301 13.8108 3.17829 13.5124C3.20265 13.4555 3.22498 13.3865 3.26051 13.3286C3.35084 13.1338 3.45437 12.9379 3.5579 12.7552C3.69594 12.5024 3.84515 12.2497 4.00552 12.0081C4.25825 11.6062 4.5455 11.2276 4.84391 10.8602C5.21032 10.4014 5.62444 9.9761 6.07206 9.57416C6.19792 9.46048 6.33596 9.3336 6.474 9.23109C6.78357 8.96617 7.10533 8.7246 7.44941 8.49521C7.59862 8.3927 7.76 8.28917 7.92037 8.1968C8.09191 8.09327 8.25329 7.99076 8.42483 7.89941C8.59738 7.80704 8.78109 7.71468 8.95364 7.63449C9.13736 7.54314 9.30889 7.46194 9.49261 7.39292C9.63065 7.32492 9.77985 7.26706 9.91789 7.22139C10.0783 7.15237 10.2285 7.10669 10.3767 7.06102C10.4569 7.02651 10.537 7.00316 10.6182 6.98083C10.7218 6.94632 10.8253 6.91181 10.94 6.88847C11.1115 6.83061 11.2841 6.78494 11.4566 6.75043C11.5591 6.7281 11.6749 6.69359 11.7774 6.68141C12.2828 6.57889 12.7873 6.49871 13.3161 6.46318C13.6257 6.44085 13.9241 6.42969 14.2347 6.42969C16.4271 6.42969 18.4825 7.01433 20.2618 8.03643C23.9462 10.1253 26.4147 14.0868 26.4147 18.6209Z" fill="white"/>
<path d="M26.4141 18.6209C26.4141 19.6653 26.2761 20.6874 26.0345 21.6628H24.0603C24.3699 20.6417 24.5313 19.5506 24.5313 18.426C24.5313 14.2472 22.2465 10.5851 18.8605 8.66776C17.2182 7.71468 15.3242 7.17571 13.2922 7.17571C8.83839 7.17571 5.00372 9.77005 3.17773 13.5124C3.20209 13.4555 3.22442 13.3865 3.25995 13.3286C3.35028 13.1338 3.45381 12.9379 3.55734 12.7552C3.69538 12.5024 3.84459 12.2497 4.00496 12.0081C4.25769 11.6062 4.54494 11.2276 4.84335 10.8602C5.20976 10.4014 5.62388 9.9761 6.0715 9.57416C6.19736 9.46048 6.3354 9.3336 6.47344 9.23109C6.78301 8.96617 7.10477 8.7246 7.44885 8.49521C7.59806 8.3927 7.75944 8.28917 7.91981 8.1968C8.09135 8.09327 8.25273 7.99076 8.42427 7.89941C8.59682 7.80704 8.78053 7.71468 8.95308 7.63449C9.1368 7.54314 9.30833 7.46194 9.49205 7.39292C9.63009 7.32492 9.77929 7.26706 9.91733 7.22139C10.0777 7.15237 10.2279 7.10669 10.3761 7.06102C10.4563 7.02651 10.5365 7.00316 10.6177 6.98083C10.7212 6.94632 10.8247 6.91181 10.9394 6.88847C11.111 6.83061 11.2835 6.78494 11.4561 6.75043C11.5586 6.7281 11.6743 6.69359 11.7768 6.68141C12.2823 6.57889 12.7989 6.49871 13.3156 6.46318C13.6251 6.44085 13.9235 6.42969 14.2341 6.42969C16.4265 6.42969 18.4819 7.01433 20.2612 8.03643C23.9457 10.1253 26.4141 14.0868 26.4141 18.6209Z" fill="#62E2BB"/>
<path d="M2.78815 14.4189C2.38621 15.5436 2.13347 16.7382 2.06445 17.9897C2.11013 16.726 2.36286 15.5324 2.78815 14.4189Z" fill="#62E2BB"/>
<path d="M2.78815 14.4189C2.36286 15.5324 2.11013 16.726 2.06445 17.9897C2.13347 16.7382 2.38621 15.5436 2.78815 14.4189Z" fill="#636363"/>
<path d="M16.3571 18.7508C16.3571 19.9242 15.4061 20.8742 14.2338 20.8742C13.0604 20.8742 12.1094 19.9242 12.1094 18.7508C12.1094 17.5785 13.0604 16.6274 14.2338 16.6274C15.4061 16.6274 16.3571 17.5785 16.3571 18.7508Z" fill="#62E2BB"/>
<path d="M22.6765 18.9146C22.6856 18.7806 22.6897 18.6436 22.6897 18.5076C22.6897 15.4829 21.0576 12.6673 18.4307 11.159C17.1874 10.4353 15.7349 10.0516 14.2337 10.0516C9.57081 10.0516 5.77775 13.8447 5.77775 18.5076C5.77775 18.6436 5.7808 18.7806 5.78689 18.9146H4.92718C4.92109 18.7745 4.91602 18.6426 4.91602 18.5076C4.91602 13.3636 9.09579 9.17871 14.2337 9.17871C15.8658 9.17871 17.4147 9.59182 18.8398 10.4079C21.7457 12.0613 23.5504 15.1652 23.5504 18.5076C23.5504 18.6446 23.5453 18.7806 23.5402 18.9146H22.6765Z" fill="#DDDDDD"/>
<path fill-rule="evenodd" clip-rule="evenodd" d="M20.9154 21.9671C20.4964 21.9671 20.1113 21.7758 19.8594 21.4419C19.6121 21.1135 19.5349 20.7008 19.6467 20.3087L19.7247 20.0031C19.8176 19.5928 19.8649 19.1707 19.8649 18.7478C19.8649 17.3111 19.3241 15.9983 18.4355 15.0023L16.1733 17.2915C16.48 17.698 16.6621 18.2036 16.6621 18.751C16.6621 20.0897 15.573 21.1788 14.2342 21.1788C12.8947 21.1788 11.8056 20.0897 11.8056 18.751C11.8056 17.4122 12.8947 16.3231 14.2342 16.3231C14.8065 16.3231 15.3331 16.5222 15.7486 16.8546L18.0061 14.5701C17.0071 13.667 15.6839 13.1164 14.2342 13.1164C11.1291 13.1164 8.60361 15.6427 8.60361 18.7478C8.60361 19.2778 8.67685 19.8031 8.82096 20.3079L8.84695 20.4166C8.92097 20.7945 8.82175 21.1844 8.57369 21.486C8.32169 21.7915 7.94999 21.9671 7.55309 21.9671H3.26042C2.62176 21.9671 2.07209 21.5041 1.95475 20.867C1.81851 20.1299 1.75 19.3747 1.75 18.621L1.75394 18.1848L1.76181 17.9729L1.81221 17.3114L1.82403 17.2469C1.82875 17.2201 1.83111 17.1988 1.8319 17.1626L1.86813 16.8602C1.9075 16.6216 1.94373 16.431 1.98231 16.2593C2.00043 16.1302 2.01145 16.0625 2.03114 16.001L2.14454 15.4703L2.29101 14.9749L2.50521 14.3095C2.65326 13.9244 2.77454 13.6409 2.89818 13.392L2.95566 13.2542L2.98401 13.2007C3.07064 13.0125 3.1738 12.814 3.29035 12.6093L3.44234 12.3392C3.54078 12.1691 3.64315 12.0029 3.74789 11.8462L3.89436 11.6202C4.09045 11.328 4.31646 11.0256 4.60547 10.6697C4.96458 10.2208 5.37722 9.78845 5.86784 9.34824L6.15527 9.09466L6.27576 8.99938C6.5884 8.73163 6.916 8.48514 7.27667 8.24416C7.4452 8.1284 7.61294 8.0213 7.76256 7.93625L8.19805 7.67638L8.46344 7.53541C8.58393 7.4732 8.70284 7.41492 8.81781 7.36137L9.06509 7.24246C9.17691 7.19049 9.27062 7.1519 9.35804 7.11961C9.49585 7.05189 9.65571 6.98652 9.79746 6.94164C9.89511 6.8999 9.97229 6.87076 10.0817 6.83454L10.2802 6.77232L10.3393 6.74791C10.3968 6.72665 10.4535 6.71011 10.522 6.692C10.6172 6.65971 10.6881 6.63766 10.7456 6.62191L10.8425 6.59986C11.0244 6.53844 11.2087 6.48882 11.3914 6.4526L11.6741 6.38881L11.7166 6.38251C12.3088 6.26202 12.8104 6.19194 13.294 6.15965C13.6097 6.13602 13.9169 6.125 14.2342 6.125C16.4022 6.125 18.5379 6.69436 20.4114 7.77166C22.3187 8.8529 23.911 10.424 25.0167 12.3155C26.1302 14.2213 26.7193 16.4019 26.7193 18.621C26.7193 19.3574 26.6515 20.1102 26.5177 20.8599C26.4043 21.5017 25.8546 21.9671 25.212 21.9671L20.9154 21.9671ZM20.4736 18.7478C20.4736 19.3322 20.3925 19.9133 20.2326 20.4756C20.1736 20.6827 20.2145 20.9016 20.346 21.0757C20.4815 21.2552 20.6894 21.3584 20.9154 21.3584H25.212C25.5585 21.3584 25.8554 21.104 25.9176 20.7536C26.0452 20.0425 26.1097 19.3243 26.1097 18.621C26.1097 16.509 25.5498 14.4347 24.4906 12.6227C23.4393 10.8232 21.9242 9.32854 20.1098 8.30007C18.3261 7.27553 16.2943 6.73373 14.2342 6.73373C13.9397 6.73373 13.646 6.74475 13.3365 6.7668C12.8742 6.79752 12.4041 6.86445 11.8135 6.98337C11.782 6.9873 11.7426 6.99518 11.6875 7.00857L11.3536 7.08495C11.2449 7.11173 11.1331 7.14402 11.0008 7.18654C10.9559 7.19599 10.9134 7.20623 10.8511 7.22513L10.5448 7.32199L10.4731 7.34955L10.3692 7.38184C10.2841 7.40862 10.2141 7.43224 10.1455 7.45744L10.0132 7.5102C9.87149 7.55745 9.73998 7.61022 9.5998 7.67794C9.51475 7.70944 9.4297 7.74567 9.31551 7.79764L8.91389 7.99058C8.79576 8.04807 8.67921 8.10792 8.56739 8.16777C8.491 8.20872 8.4154 8.25203 8.32956 8.304L7.92479 8.54813C7.81847 8.61428 7.71531 8.682 7.61845 8.74815L7.36881 8.91983C7.12232 9.09465 6.88923 9.27578 6.65534 9.47502C6.58525 9.52699 6.51044 9.58999 6.41121 9.67819L6.00801 10.0475C5.656 10.3822 5.35281 10.7106 5.08034 11.0516C4.7299 11.4831 4.47711 11.8296 4.25898 12.1761L4.1125 12.4045C4.01564 12.5612 3.92035 12.725 3.8227 12.9054L3.71718 13.0959C3.65024 13.2204 3.58566 13.3487 3.51951 13.4881L3.49746 13.5338L3.4699 13.6031L3.37619 13.8023C3.28169 14.0055 3.18719 14.2307 3.0793 14.5127L2.82494 15.3135L2.73044 15.6317L2.59971 16.2467L2.5816 16.3672C2.5438 16.5373 2.51072 16.7106 2.47056 16.946L2.43906 17.1972C2.43906 17.2335 2.43749 17.2626 2.43355 17.2941L2.41307 17.4138L2.36976 18.006C2.36504 18.0989 2.36189 18.1982 2.36031 18.3092L2.35874 18.621C2.35874 19.3369 2.4241 20.0551 2.55404 20.7567C2.61861 21.1056 2.9155 21.3584 3.26042 21.3584H7.55309C7.7791 21.3584 7.98621 21.2552 8.12166 21.0765C8.25318 20.9016 8.29412 20.6827 8.23506 20.4756C8.0752 19.9133 7.99409 19.3322 7.99409 18.7478C7.99409 15.3072 10.7936 12.5077 14.2342 12.5077C15.8504 12.5077 17.3248 13.1253 18.4341 14.137L19.7633 12.792L20.194 13.2227L18.8639 14.5688C19.8639 15.6759 20.4736 17.142 20.4736 18.7478ZM14.2342 20.5701C13.2302 20.5701 12.4143 19.7543 12.4143 18.751C12.4143 17.7477 13.2302 16.9319 14.2342 16.9319C15.2367 16.9319 16.0534 17.7477 16.0534 18.751C16.0534 19.7543 15.2367 20.5701 14.2342 20.5701Z" fill="#636363"/>
</g>
<defs>
<clipPath id="clip0_16859_177462">
<rect width="28" height="28" fill="white"/>
</clipPath>
</defs>
</svg>
