<svg width="28" height="28" viewBox="0 0 28 28" fill="none" xmlns="http://www.w3.org/2000/svg">
<path d="M14.586 25.0337H13.3698H13.2473C11.5224 24.927 9.8495 24.4014 8.37352 23.5024C6.7868 22.5788 5.46064 21.2673 4.51941 19.6909C3.57818 18.1145 3.05271 16.3249 2.99227 14.4899C2.85741 12.5148 3.30461 10.5435 4.27852 8.81995C5.16354 7.11278 6.48807 5.67269 8.11543 4.64829C9.74278 3.62388 11.614 3.05228 13.536 2.99245C15.5007 2.86967 17.4594 3.31304 19.1798 4.26995C20.6611 5.04765 21.9433 6.15638 22.9267 7.51C23.91 8.86363 24.5681 10.4257 24.8498 12.0749C24.911 12.3637 24.946 12.6524 24.981 12.9499L25.0248 13.3349V14.5862V14.9012L24.946 15.5399C24.745 16.9922 24.2508 18.3884 23.4935 19.6437C23.4782 19.6703 23.4701 19.7005 23.4701 19.7312C23.4701 19.7619 23.4782 19.7921 23.4935 19.8187L24.491 23.5549L24.6485 24.1587C24.6525 24.2024 24.6525 24.2463 24.6485 24.2899C24.6542 24.3368 24.6502 24.3843 24.6367 24.4295C24.6231 24.4746 24.6003 24.5165 24.5698 24.5524C24.5408 24.5861 24.5043 24.6123 24.4632 24.629C24.4222 24.6458 24.3777 24.6525 24.3335 24.6487H24.176L23.301 24.4212L19.8798 23.4937C19.8343 23.4737 19.7851 23.4634 19.7354 23.4634C19.6857 23.4634 19.6365 23.4737 19.591 23.4937C18.4975 24.1574 17.2897 24.6114 16.0298 24.8324C15.7148 24.8937 15.391 24.9287 15.076 24.9725L14.6298 25.025L14.586 25.0337ZM14.1835 3.49995H13.5623C11.7266 3.55869 9.93997 4.10726 8.38762 5.08882C6.83528 6.07039 5.57366 7.44923 4.73352 9.08245C3.80728 10.7147 3.37844 12.5821 3.49977 14.4549C3.56061 16.201 4.06277 17.9032 4.9594 19.4027C5.85603 20.9022 7.1179 22.1501 8.62727 23.0299C10.0176 23.89 11.5983 24.3949 13.2298 24.4999C13.2822 24.4958 13.3349 24.4958 13.3873 24.4999H14.5773L15.006 24.4387C15.321 24.4387 15.6273 24.3599 15.9335 24.3074C17.1308 24.0967 18.2788 23.6665 19.3198 23.0387C19.4233 22.9749 19.5391 22.9333 19.6596 22.9168C19.7802 22.9002 19.9028 22.9089 20.0198 22.9424L23.441 23.8699L24.036 24.0274L23.9398 23.6774L22.9423 19.9499C22.9119 19.8543 22.9024 19.7532 22.9144 19.6536C22.9265 19.5539 22.9599 19.4581 23.0123 19.3724C23.731 18.1747 24.2012 16.8445 24.3948 15.4612C24.3948 15.2512 24.4473 15.0412 24.4735 14.8312V14.5512V13.3699L24.4998 13.0112C24.4998 12.7312 24.4385 12.4512 24.3773 12.1799C24.1065 10.6006 23.4733 9.1055 22.5275 7.81201C21.5817 6.51853 20.3489 5.46186 18.926 4.72495C17.4738 3.9232 15.8424 3.5018 14.1835 3.49995Z" fill="#636363"/>
<path d="M14.5862 24.7714H13.3699C13.3178 24.7632 13.2646 24.7632 13.2124 24.7714C11.545 24.6694 9.92821 24.1586 8.50493 23.2839C6.95807 22.3921 5.66418 21.1206 4.74554 19.5895C3.8269 18.0584 3.31387 16.3184 3.25493 14.5339C3.12496 12.6108 3.55987 10.6917 4.50618 9.0126C5.35696 7.3297 6.64525 5.90698 8.23572 4.89388C9.82619 3.88078 11.6601 3.3147 13.5449 3.2551C15.4608 3.13147 17.3717 3.56286 19.0487 4.4976C20.499 5.25565 21.7544 6.3388 22.7167 7.66241C23.6791 8.98601 24.3223 10.5142 24.5962 12.1276C24.6749 12.5389 24.7099 13.0026 24.7624 13.3701V14.5864C24.7624 14.8926 24.7012 15.1989 24.6574 15.4614C24.4598 16.879 23.9776 18.2422 23.2399 19.4689C23.2119 19.5276 23.1974 19.5919 23.1974 19.657C23.1974 19.7221 23.2119 19.7863 23.2399 19.8451C23.6337 21.2889 24.0099 22.7326 24.3949 24.1764C24.4008 24.2345 24.4008 24.2932 24.3949 24.3514H24.2549C22.8199 23.9664 21.3849 23.5901 19.9587 23.1964C19.877 23.1703 19.7905 23.1631 19.7057 23.1753C19.6208 23.1874 19.5398 23.2185 19.4687 23.2664C18.3932 23.9146 17.2062 24.3567 15.9687 24.5701C15.5224 24.6576 15.0499 24.7014 14.5862 24.7714Z" fill="white"/>
<path d="M24.762 13.3699V14.5862C24.762 14.8924 24.7008 15.1987 24.657 15.4612C24.4552 16.8779 23.9733 18.2402 23.2395 19.4687C23.2096 19.5269 23.194 19.5914 23.194 19.6568C23.194 19.7222 23.2096 19.7867 23.2395 19.8449L24.3945 24.2199C24.3945 24.2199 24.3945 24.3162 24.3945 24.3862H24.2545L22.5045 23.9224C22.1458 22.5837 21.7958 21.2449 21.437 19.9149C21.4071 19.8567 21.3915 19.7922 21.3915 19.7268C21.3915 19.6614 21.4071 19.5969 21.437 19.5387C22.1708 18.3102 22.6527 16.9479 22.8545 15.5312C22.8983 15.2249 22.9245 14.9187 22.9595 14.6562V13.3699C22.907 12.9587 22.872 12.5387 22.7933 12.1274C22.5194 10.514 21.8762 8.98584 20.9138 7.66224C19.9515 6.33864 18.6961 5.25549 17.2458 4.49744C16.0101 3.81383 14.645 3.39655 13.2383 3.27244H13.492C15.4079 3.1488 17.3188 3.5802 18.9958 4.51494C20.4461 5.27299 21.7015 6.35614 22.6638 7.67974C23.6262 9.00334 24.2694 10.5315 24.5433 12.1449C24.6745 12.5387 24.7095 12.9587 24.762 13.3699Z" fill="#62E2BB"/>
<path d="M13.4569 19.8537C13.2646 19.8264 13.0746 19.7855 12.8881 19.7312C12.5349 19.6271 12.2324 19.3964 12.0387 19.0832C11.845 18.77 11.7736 18.3963 11.8381 18.0337C11.931 17.3955 12.0774 16.7662 12.2756 16.1525C12.4244 15.5837 12.5819 15.015 12.7306 14.4462C12.7872 14.175 12.7872 13.895 12.7306 13.6237C12.719 13.5183 12.6734 13.4196 12.6008 13.3423C12.5283 13.265 12.4326 13.2133 12.3281 13.195C12.0074 13.1318 11.6758 13.1529 11.3656 13.2562L11.0156 13.37C11.0681 13.1512 11.1206 12.95 11.1731 12.7487C11.186 12.7198 11.2074 12.6954 11.2344 12.6787C11.7488 12.4596 12.2817 12.2868 12.8269 12.1625C13.3644 12.0413 13.9269 12.0997 14.4281 12.3287C14.6839 12.4617 14.895 12.667 15.035 12.9191C15.175 13.1711 15.2378 13.4588 15.2156 13.7462C15.1342 14.5301 14.9639 15.3021 14.7081 16.0475C14.5856 16.5462 14.4456 17.045 14.3231 17.5437C14.2565 17.7918 14.2416 18.0509 14.2794 18.305C14.2919 18.4305 14.3491 18.5474 14.4407 18.6341C14.5323 18.7209 14.6521 18.7718 14.7781 18.7775C15.1601 18.8324 15.5499 18.7841 15.9069 18.6375L16.0294 18.5937C15.9769 18.8125 15.9331 19.0225 15.8719 19.2237C15.8719 19.2237 15.8719 19.2675 15.8106 19.285C15.3994 19.4337 14.9881 19.6 14.5681 19.7312C14.3709 19.7897 14.1688 19.8307 13.9644 19.8537H13.4569Z" fill="#62E2BB"/>
<path d="M13.4568 20.125H13.3955H13.2293C13.0834 20.1034 12.9399 20.0683 12.8005 20.02C12.3913 19.8978 12.0408 19.6302 11.8152 19.2676C11.5896 18.905 11.5043 18.4723 11.5755 18.0512C11.644 17.5354 11.7553 17.0261 11.908 16.5287L12.118 15.75C12.2405 15.3125 12.363 14.875 12.4768 14.4287C12.5237 14.1918 12.5237 13.9481 12.4768 13.7112C12.4728 13.6569 12.4493 13.6058 12.4108 13.5672C12.3723 13.5287 12.3212 13.5053 12.2668 13.5012C11.9931 13.4414 11.7081 13.4596 11.4443 13.5537L11.0943 13.6675C11.0504 13.6812 11.0036 13.6828 10.9589 13.672C10.9143 13.6612 10.8733 13.6385 10.8405 13.6062C10.8053 13.5753 10.7792 13.5353 10.7653 13.4905C10.7514 13.4457 10.7502 13.3979 10.7618 13.3525L10.8055 13.1687C10.8055 13.0112 10.8755 12.8712 10.9193 12.7225C10.9369 12.6674 10.9664 12.617 11.0058 12.5746C11.0451 12.5323 11.0932 12.4991 11.1468 12.4775L11.3655 12.3987C11.8209 12.2001 12.2961 12.0505 12.783 11.9525C13.3709 11.8222 13.9851 11.8867 14.533 12.1362C14.8332 12.293 15.0815 12.5335 15.2477 12.8286C15.4139 13.1237 15.4908 13.4607 15.4693 13.7987C15.4239 14.3948 15.3034 14.9828 15.1105 15.5487L14.953 16.1087L14.8743 16.625C14.7868 16.9575 14.6993 17.29 14.6205 17.6137C14.5747 17.8271 14.5747 18.0478 14.6205 18.2612C14.6205 18.445 14.708 18.4975 14.9005 18.5325C15.2265 18.5582 15.5539 18.5042 15.8543 18.375L15.9768 18.3312C16.0209 18.3136 16.0692 18.3091 16.1159 18.3184C16.1625 18.3278 16.2054 18.3504 16.2393 18.3837C16.2754 18.414 16.3021 18.454 16.3161 18.499C16.33 18.544 16.3307 18.5921 16.318 18.6375V18.7337C16.2743 18.9262 16.2305 19.1012 16.178 19.2762C16.1632 19.3302 16.1355 19.3799 16.0975 19.421C16.0594 19.4621 16.012 19.4935 15.9593 19.5125L15.6443 19.6262C15.3293 19.7487 15.023 19.8625 14.708 19.9675C14.5583 20.0079 14.4064 20.04 14.253 20.0637H14.0693L13.4568 20.125ZM13.4568 19.6H13.9993H14.148C14.2752 19.5829 14.401 19.5566 14.5243 19.5212L15.3993 19.1887L15.6355 19.1012C15.6396 19.0751 15.6396 19.0486 15.6355 19.0225C15.3339 19.1073 15.0173 19.1252 14.708 19.075C14.5294 19.0601 14.3613 18.9842 14.2322 18.8598C14.1031 18.7355 14.0208 18.5704 13.9993 18.3925C13.9483 18.1012 13.9632 17.8022 14.043 17.5175C14.1218 17.1762 14.2093 16.8437 14.2968 16.5112L14.428 16.0037C14.4805 15.8112 14.533 15.6275 14.5943 15.435C14.7721 14.8933 14.8837 14.3322 14.9268 13.7637C14.9474 13.5271 14.8978 13.2897 14.7842 13.0811C14.6706 12.8726 14.498 12.7022 14.288 12.5912C13.8387 12.3857 13.3336 12.3364 12.853 12.4512C12.4008 12.5469 11.9585 12.6846 11.5318 12.8625L11.3743 12.9237C11.3784 12.9498 11.3784 12.9764 11.3743 13.0025C11.7017 12.9199 12.0444 12.9199 12.3718 13.0025C12.527 13.0301 12.6696 13.1057 12.7795 13.2188C12.8894 13.3318 12.9611 13.4765 12.9843 13.6325C13.0346 13.9442 13.0197 14.263 12.9405 14.5687C12.8268 15.015 12.7043 15.4437 12.5818 15.9075L12.3718 16.6862C12.2211 17.1534 12.1157 17.6339 12.0568 18.1212C12.0009 18.425 12.0593 18.7388 12.2208 19.0021C12.3824 19.2654 12.6356 19.4597 12.9318 19.5475C13.0368 19.5475 13.1593 19.6 13.273 19.6262L13.4568 19.6Z" fill="#636363"/>
<path d="M14.7708 10.9024C14.4829 10.8996 14.2016 10.8161 13.9587 10.6614C13.7159 10.5067 13.5213 10.2871 13.397 10.0274C13.2731 9.70874 13.2767 9.35459 13.4071 9.0385C13.5374 8.7224 13.7845 8.46865 14.097 8.32993C14.3968 8.18105 14.7377 8.13635 15.0657 8.20291C15.3937 8.26946 15.6902 8.44348 15.9083 8.69743C16.0481 8.86254 16.1452 9.05946 16.1911 9.2709C16.237 9.48233 16.2303 9.7018 16.1715 9.91003C16.1128 10.1183 16.0038 10.3089 15.8541 10.4651C15.7045 10.6214 15.5188 10.7385 15.3133 10.8062C15.1342 10.8474 14.9531 10.8795 14.7708 10.9024Z" fill="#62E2BB"/>
<path d="M14.7698 11.1649C14.4223 11.1626 14.0827 11.0608 13.7912 10.8717C13.4997 10.6825 13.2685 10.4138 13.1248 10.0974C12.984 9.71129 12.9962 9.28594 13.1588 8.90851C13.3215 8.53109 13.6224 8.23017 13.9998 8.06741C14.3518 7.88715 14.7544 7.8314 15.1421 7.90926C15.5298 7.98712 15.8797 8.19399 16.1348 8.49616C16.3006 8.68617 16.4169 8.91417 16.4734 9.15993C16.5298 9.40569 16.5247 9.66159 16.4585 9.90491C16.3891 10.1649 16.2559 10.4034 16.071 10.599C15.8862 10.7946 15.6555 10.9409 15.3998 11.0249C15.265 11.0662 15.1276 11.0984 14.9885 11.1212H14.8223L14.7698 11.1649ZM14.7698 8.40866C14.5823 8.41054 14.3974 8.4523 14.2273 8.53116C13.9746 8.64125 13.7743 8.84481 13.6683 9.09923C13.5623 9.35366 13.5588 9.63922 13.6585 9.89616C13.7549 10.1115 13.9105 10.295 14.1073 10.4252C14.3041 10.5554 14.5339 10.6268 14.7698 10.6312H14.9098C15.0183 10.5963 15.1236 10.5524 15.2248 10.4999C15.3944 10.4393 15.5468 10.3383 15.6687 10.2057C15.7907 10.0731 15.8786 9.91279 15.9248 9.73866C15.967 9.58654 15.9732 9.42665 15.9428 9.27171C15.9125 9.11678 15.8464 8.97107 15.7498 8.84616C15.6272 8.70277 15.4739 8.58894 15.3011 8.51318C15.1284 8.43742 14.9408 8.40169 14.7523 8.40866H14.7698Z" fill="#636363"/>
<path d="M14.586 25.0337H13.3698H13.2473C11.5224 24.927 9.8495 24.4014 8.37352 23.5024C6.7868 22.5788 5.46064 21.2673 4.51941 19.6909C3.57818 18.1145 3.05271 16.3249 2.99227 14.4899C2.85741 12.5148 3.30461 10.5435 4.27852 8.81995C5.16354 7.11278 6.48807 5.67269 8.11543 4.64829C9.74278 3.62388 11.614 3.05228 13.536 2.99245C15.5007 2.86967 17.4594 3.31304 19.1798 4.26995C20.6611 5.04765 21.9433 6.15638 22.9267 7.51C23.91 8.86363 24.5681 10.4257 24.8498 12.0749C24.911 12.3637 24.946 12.6524 24.981 12.9499L25.0248 13.3349V14.5862V14.9012L24.946 15.5399C24.745 16.9922 24.2508 18.3884 23.4935 19.6437C23.4782 19.6703 23.4701 19.7005 23.4701 19.7312C23.4701 19.7619 23.4782 19.7921 23.4935 19.8187L24.491 23.5549L24.6485 24.1587C24.6525 24.2024 24.6525 24.2463 24.6485 24.2899C24.6542 24.3368 24.6502 24.3843 24.6367 24.4295C24.6231 24.4746 24.6003 24.5165 24.5698 24.5524C24.5408 24.5861 24.5043 24.6123 24.4632 24.629C24.4222 24.6458 24.3777 24.6525 24.3335 24.6487H24.176L23.301 24.4212L19.8798 23.4937C19.8343 23.4737 19.7851 23.4634 19.7354 23.4634C19.6857 23.4634 19.6365 23.4737 19.591 23.4937C18.4975 24.1574 17.2897 24.6114 16.0298 24.8324C15.7148 24.8937 15.391 24.9287 15.076 24.9725L14.6298 25.025L14.586 25.0337ZM14.1835 3.49995H13.5623C11.7266 3.55869 9.93997 4.10726 8.38762 5.08882C6.83528 6.07039 5.57366 7.44923 4.73352 9.08245C3.80728 10.7147 3.37844 12.5821 3.49977 14.4549C3.56061 16.201 4.06277 17.9032 4.9594 19.4027C5.85603 20.9022 7.1179 22.1501 8.62727 23.0299C10.0176 23.89 11.5983 24.3949 13.2298 24.4999C13.2822 24.4958 13.3349 24.4958 13.3873 24.4999H14.5773L15.006 24.4387C15.321 24.4387 15.6273 24.3599 15.9335 24.3074C17.1308 24.0967 18.2788 23.6665 19.3198 23.0387C19.4233 22.9749 19.5391 22.9333 19.6596 22.9168C19.7802 22.9002 19.9028 22.9089 20.0198 22.9424L23.441 23.8699L24.036 24.0274L23.9398 23.6774L22.9423 19.9499C22.9119 19.8543 22.9024 19.7532 22.9144 19.6536C22.9265 19.5539 22.9599 19.4581 23.0123 19.3724C23.731 18.1747 24.2012 16.8445 24.3948 15.4612C24.3948 15.2512 24.4473 15.0412 24.4735 14.8312V14.5512V13.3699L24.4998 13.0112C24.4998 12.7312 24.4385 12.4512 24.3773 12.1799C24.1065 10.6006 23.4733 9.1055 22.5275 7.81201C21.5817 6.51853 20.3489 5.46186 18.926 4.72495C17.4738 3.9232 15.8424 3.5018 14.1835 3.49995Z" fill="#636363"/>
</svg>
