<svg width="28" height="28" viewBox="0 0 28 28" fill="none" xmlns="http://www.w3.org/2000/svg">
<g clip-path="url(#clip0_2489_2313)">
<path d="M20.1008 8.58495C20.1008 12.1479 17.2388 15.0099 13.6759 15.0099C10.113 15.0099 7.25098 12.1479 7.25098 8.58495C7.25098 5.02204 10.113 2.16003 13.6759 2.16003C17.2388 2.16003 20.1008 5.02204 20.1008 8.58495Z" fill="white"/>
<path d="M13.4777 15.4899C17.4789 15.4899 20.7226 12.2462 20.7226 8.24493C20.7226 4.24367 17.4789 1 13.4777 1C9.47639 1 6.23273 4.24367 6.23273 8.24493C6.23273 12.2462 9.47639 15.4899 13.4777 15.4899Z" fill="white" stroke="#636363" stroke-width="0.707849" stroke-linejoin="round"/>
<path d="M15.9861 4.47449H11.2456V5.5899H15.9861V4.47449Z" fill="#636363"/>
<path d="M15.9861 6.37061H11.2456V7.48602H15.9861V6.37061Z" fill="#636363"/>
<path d="M14.128 12.9702L11.2651 9.10346C11.2059 9.01904 11.1741 8.91843 11.1741 8.81532C11.1741 8.7122 11.2059 8.6116 11.2651 8.52717C11.3091 8.43539 11.3775 8.35743 11.4627 8.30172C11.5479 8.24601 11.6467 8.21468 11.7484 8.21113H12.7337C12.9189 8.23323 13.1067 8.21582 13.2847 8.16005C13.4627 8.10428 13.6269 8.01141 13.7664 7.88757C13.9059 7.76373 14.0175 7.61174 14.094 7.4416C14.1705 7.27146 14.21 7.08705 14.21 6.90052C14.21 6.71399 14.1705 6.52957 14.094 6.35944C14.0175 6.1893 13.9059 6.0373 13.7664 5.91346C13.6269 5.78963 13.4627 5.69676 13.2847 5.64099C13.1067 5.58522 12.9189 5.56781 12.7337 5.5899H11.3023V4.47449H12.7337C13.3436 4.50891 13.9183 4.77127 14.3438 5.20955C14.7693 5.64783 15.0146 6.23002 15.0309 6.84065C15.0473 7.45129 14.8336 8.04578 14.4322 8.50624C14.0308 8.96669 13.471 9.25948 12.8638 9.32655L15.0575 12.301L14.128 12.9702Z" fill="#636363"/>
<path d="M24.7466 19.1096C24.7502 19.3765 24.6832 19.6396 24.5523 19.8723C24.4214 20.105 24.2314 20.2989 24.0014 20.4345L15.3069 25.6866C14.9264 25.9158 14.4995 26.057 14.0575 26.1C13.6154 26.143 13.1693 26.0866 12.7518 25.935L4.5423 23.0132V19.5827L4.76705 17.5718H8.1029C8.9344 17.5764 9.73485 17.8882 10.3505 18.4471L11.285 19.3107H14.2659C14.4679 19.3107 14.6678 19.3505 14.8544 19.4277C15.041 19.505 15.2105 19.6183 15.3533 19.7611C15.4961 19.9039 15.6094 20.0734 15.6867 20.26C15.764 20.4466 15.8037 20.6465 15.8037 20.8485C15.8041 21.0642 15.7598 21.2777 15.6736 21.4754L22.4636 17.7729C22.6456 17.6747 22.8453 17.614 23.0511 17.5942C23.2569 17.5745 23.4646 17.5961 23.6619 17.6578C23.8592 17.7195 24.0422 17.8201 24.2001 17.9537C24.3579 18.0872 24.4874 18.251 24.581 18.4353C24.689 18.6437 24.7457 18.8749 24.7466 19.1096Z" fill="white"/>
<path d="M4.76715 17.5717H8.103C8.93695 17.575 9.73918 17.8916 10.3506 18.4588L11.2851 19.3106H14.266C14.6739 19.3106 15.065 19.4726 15.3534 19.761C15.6418 20.0494 15.8038 20.4405 15.8038 20.8484C15.8038 21.2562 15.6418 21.6473 15.3534 21.9357C15.065 22.2241 14.6739 22.3862 14.266 22.3862H11.2377" stroke="#636363" stroke-width="0.6" stroke-linejoin="round"/>
<path d="M15.5199 21.5583L22.4518 17.773C22.6347 17.6746 22.8353 17.6136 23.042 17.5937C23.2487 17.5738 23.4573 17.5954 23.6556 17.657C23.8538 17.7187 24.0378 17.8193 24.1967 17.953C24.3557 18.0866 24.4863 18.2506 24.5811 18.4354V18.4354C24.7574 18.7854 24.7957 19.1889 24.6883 19.5658C24.581 19.9428 24.3358 20.2655 24.0015 20.47L15.307 25.7104C14.9265 25.9395 14.4996 26.0808 14.0575 26.1237C13.6154 26.1667 13.1693 26.1104 12.7518 25.9588L4.54236 23.0133" stroke="#636363" stroke-width="0.6" stroke-linejoin="round"/>
<path d="M4.82312 16.4899V25.1364C4.82303 25.4124 4.5992 25.6364 4.32312 25.6364H2.77429C2.49823 25.6363 2.27438 25.4124 2.27429 25.1364V16.4899C2.27429 16.2137 2.49818 15.9899 2.77429 15.9899H4.32312C4.59926 15.9899 4.82312 16.2137 4.82312 16.4899Z" fill="#62E2BB" stroke="#62E2BB"/>
</g>
<defs>
<clipPath id="clip0_2489_2313">
<rect width="28" height="28" fill="white"/>
</clipPath>
</defs>
</svg>
