<svg width="16" height="16" viewBox="0 0 16 16" fill="none" xmlns="http://www.w3.org/2000/svg">
<path d="M0.5 7.97625C0.5 4.03725 3.704 0.833252 7.643 0.833252C10.2114 0.833252 12.5539 2.21814 13.8174 4.38581L14.6548 2.32725L15.8127 2.79825L14.1418 6.90825L9.728 6.4545L9.8555 5.211L13.0059 5.5348C12.0549 3.45124 9.96042 2.0835 7.643 2.0835C4.394 2.0835 1.75025 4.72725 1.75025 7.97625C1.75025 11.2253 4.394 13.869 7.643 13.869C10.2748 13.869 12.6088 12.0983 13.3183 9.56325H14.6082C14.255 11.1158 13.373 12.525 12.1273 13.533C10.862 14.556 9.269 15.1193 7.643 15.1193C3.704 15.1193 0.5 11.9153 0.5 7.97625Z" fill="#19B38D"/>
</svg>
