<svg xmlns="http://www.w3.org/2000/svg" xmlns:xlink="http://www.w3.org/1999/xlink" width="64" height="64" viewBox="0 0 64 64">
    <defs>
        <path id="a" d="M1.048 1.602h2v1.024h-2z"/>
        <path id="c" d="M1.048 1.602h2v1.024h-2z"/>
    </defs>
    <g fill="none" fill-rule="evenodd">
        <g transform="translate(30 10.398)">
            <mask id="b" fill="#fff">
                <use xlink:href="#a"/>
            </mask>
            <path fill="#9B9B9B" d="M2.06 1.602a.2.2 0 0 0-.123.048h.222c-.05-.024-.074-.024-.098-.048" mask="url(#b)"/>
        </g>
        <g transform="translate(30 10.398)">
            <mask id="d" fill="#fff">
                <use xlink:href="#c"/>
            </mask>
            <path fill="#9B9B9B" d="M2.06 1.602a.2.2 0 0 0-.123.048h.222c-.05-.024-.074-.024-.098-.048" mask="url(#d)"/>
        </g>
        <path fill="#FFF" d="M25.666 45.248a5.52 5.52 0 0 1-5.514-5.514 5.52 5.52 0 0 1 5.514-5.512 5.52 5.52 0 0 1 5.514 5.512 5.52 5.52 0 0 1-5.514 5.514"/>
        <path fill="#9B9B9B" d="M25.666 33.622a6.113 6.113 0 1 0 .002 12.225 6.113 6.113 0 0 0-.002-12.225m0 1.2a4.92 4.92 0 0 1 4.914 4.912 4.92 4.92 0 0 1-4.914 4.914 4.919 4.919 0 0 1-4.912-4.914 4.918 4.918 0 0 1 4.912-4.912"/>
        <path fill="#EAEAEA" d="M31.787 39.74c0 3.373-2.748 6.105-6.124 6.105a6.15 6.15 0 0 1-1.696-.236 6.107 6.107 0 0 0 4.428-5.87c0-2.782-1.866-5.14-4.428-5.886a6.132 6.132 0 0 1 7.82 5.886"/>
        <path fill="#FFF" d="M34.227 53.799a8.56 8.56 0 0 0-8.56-8.56 8.56 8.56 0 0 0-8.56 8.56h29.882a7.482 7.482 0 0 0-13.778-4.042"/>
        <path fill="#FFF" d="M39.506 46.179a4.75 4.75 0 0 1-4.744-4.744 4.75 4.75 0 0 1 4.744-4.744 4.75 4.75 0 0 1 4.744 4.744 4.75 4.75 0 0 1-4.744 4.744"/>
        <path fill="#9B9B9B" d="M39.506 36.092a5.343 5.343 0 1 0 .002 10.686 5.343 5.343 0 0 0-.002-10.686m0 1.2a4.147 4.147 0 0 1 4.144 4.142 4.147 4.147 0 0 1-4.144 4.144 4.147 4.147 0 0 1-4.142-4.144 4.147 4.147 0 0 1 4.142-4.142"/>
        <path fill="#EAEAEA" d="M44.85 41.436a5.342 5.342 0 0 1-5.344 5.342 5.64 5.64 0 0 1-1.698-.27 5.352 5.352 0 0 0 3.65-5.072 5.352 5.352 0 0 0-3.65-5.072 5.64 5.64 0 0 1 1.698-.272 5.343 5.343 0 0 1 5.344 5.344"/>
        <path fill="#636363" d="M34.807 53.2a9.082 9.082 0 0 0-.9-3.4 6.85 6.85 0 0 1 5.6-2.885c3.592 0 6.55 2.768 6.856 6.284H34.807zm-17.076 0a7.963 7.963 0 0 1 7.892-7.357c.016 0 .03.004.046.004.014 0 .026-.004.04-.004a7.966 7.966 0 0 1 7.894 7.356H17.73zm3.024-13.465a4.916 4.916 0 0 1 4.914-4.912 4.918 4.918 0 0 1 4.912 4.912 4.917 4.917 0 0 1-4.868 4.908c-.016 0-.03-.004-.046-.004-.014 0-.026.004-.038.004a4.915 4.915 0 0 1-4.874-4.908zm14.608 1.7a4.15 4.15 0 0 1 4.144-4.144 4.15 4.15 0 0 1 4.144 4.144 4.148 4.148 0 0 1-4.144 4.142 4.148 4.148 0 0 1-4.144-4.142zm6.618 4.71c1.7-.896 2.868-2.656 2.868-4.71a5.343 5.343 0 1 0-10.684 0c0 2.056 1.174 3.82 2.876 4.714-1.466.47-2.792 1.312-3.784 2.526a9.185 9.185 0 0 0-4.742-3.562c1.934-1.028 3.264-3.038 3.264-5.378a6.113 6.113 0 1 0-12.224 0c0 2.352 1.344 4.372 3.294 5.394-3.666 1.196-6.34 4.608-6.34 8.67 0 .33.266.6.598.6h29.882a.6.6 0 0 0 .6-.6c0-3.59-2.366-6.602-5.608-7.654z"/>
        <path fill="#FFF" d="M22.225 30.809a20.798 20.798 0 0 0-9.49-2.462c2.028-9.132 10.024-15.688 19.276-15.688 9.238 0 17.224 6.556 19.254 15.688a20.759 20.759 0 0 0-9.468 2.462 20.732 20.732 0 0 0-9.786-2.464c-3.406 0-6.78.85-9.786 2.464"/>
        <path fill="#636363" d="M32.012 12.06c-9.934 0-18.226 7.268-20.012 16.884h.416c3.548 0 6.898.924 9.81 2.548a20.002 20.002 0 0 1 9.786-2.548c3.546 0 6.874.924 9.786 2.548a20.094 20.094 0 0 1 9.81-2.548h.39C50.214 19.328 41.944 12.06 32.012 12.06m0 1.2c8.716 0 16.286 6.022 18.496 14.512a21.413 21.413 0 0 0-8.71 2.358 21.352 21.352 0 0 0-9.786-2.386c-3.396 0-6.766.824-9.786 2.386a21.405 21.405 0 0 0-8.736-2.358c2.214-8.49 9.792-14.512 18.522-14.512"/>
        <path fill="#FFF" d="M22.225 30.809a20.798 20.798 0 0 0-9.49-2.462c2.028-9.132 10.024-15.688 19.276-15.688 9.238 0 17.224 6.556 19.254 15.688a20.759 20.759 0 0 0-9.468 2.462 20.732 20.732 0 0 0-9.786-2.464c-3.406 0-6.78.85-9.786 2.464"/>
        <path fill="#636363" d="M32.012 12.06c-9.934 0-18.226 7.268-20.012 16.884h.416c3.548 0 6.898.924 9.81 2.548a20.002 20.002 0 0 1 9.786-2.548c3.546 0 6.874.924 9.786 2.548a20.094 20.094 0 0 1 9.81-2.548h.39C50.214 19.328 41.944 12.06 32.012 12.06m0 1.2c8.716 0 16.286 6.022 18.496 14.512a21.413 21.413 0 0 0-8.71 2.358 21.352 21.352 0 0 0-9.786-2.386c-3.396 0-6.766.824-9.786 2.386a21.405 21.405 0 0 0-8.736-2.358c2.214-8.49 9.792-14.512 18.522-14.512"/>
        <path fill="#62E2BB" d="M33.4 28.98c-.46-.02-.92-.04-1.38-.04-3.561 0-6.88.92-9.8 2.56-1.48-.84-3.08-1.48-4.761-1.92a20.094 20.094 0 0 1 8.682-1.96c2.558 0 5.02.48 7.26 1.36M52 28.94h-.4c-3.54 0-6.9.92-9.8 2.56-1.48-.84-3.08-1.48-4.76-1.92 2.64-1.26 5.58-1.96 8.7-1.96h.38c-1.32-7.12-6.18-12.96-12.64-15.5 9.26.66 16.82 7.68 18.52 16.82"/>
        <path fill="#636363" d="M41.965 30.055c.022-.384.076-.762.076-1.15 0-6.346-3.062-11.976-7.788-15.496 7.748.934 14.236 6.612 16.254 14.364a21.41 21.41 0 0 0-8.542 2.282zM13.491 27.77c2.028-7.782 8.57-13.478 16.372-14.374-4.736 3.518-7.808 9.154-7.808 15.508 0 .402.054.79.078 1.184a21.416 21.416 0 0 0-8.642-2.318zm27.338 1.888c-.256-.114-.524-.2-.784-.306-.306-.126-.61-.252-.922-.362-.45-.16-.912-.294-1.372-.422-.326-.092-.646-.19-.974-.266-.43-.098-.866-.164-1.302-.238-.372-.06-.74-.136-1.114-.178-.346-.04-.694-.042-1.042-.064-.436-.026-.87-.078-1.308-.078-.408 0-.812.05-1.218.072-.374.022-.75.028-1.122.07-.366.04-.726.114-1.088.172-.444.074-.886.142-1.322.242-.324.074-.642.17-.962.26-.464.128-.924.264-1.376.424-.31.108-.61.232-.916.354-.246.1-.5.18-.74.288a18.14 18.14 0 0 1 8.78-16.254 18.137 18.137 0 0 1 8.794 15.532c0 .258-.004.51-.012.754zm11.17-.714c-1.776-9.56-9.96-16.792-19.812-16.878-.012-.006-.018-.012-.028-.018h-.222a.135.135 0 0 1-.022.014c-9.89.048-18.136 7.296-19.914 16.882h.416c3.546 0 6.898.924 9.808 2.548.002.002.002.004.002.006.682-.386 1.39-.72 2.116-1.022.194-.08.394-.144.59-.218a19.961 19.961 0 0 1 7.078-1.306c2.496 0 4.87.472 7.08 1.306.194.074.396.138.588.218.726.302 1.436.636 2.118 1.022.01-.01.02-.016.03-.02a20.088 20.088 0 0 1 9.78-2.534h.392z"/>
    </g>
</svg>
