<svg width="32" height="27" viewBox="0 0 32 27" fill="none" xmlns="http://www.w3.org/2000/svg">
<path fill-rule="evenodd" clip-rule="evenodd" d="M25.6456 26.0547H21.0928H18.536H16.5786H5.05987C2.52803 26.0547 0.46875 23.9943 0.46875 21.4625C0.46875 17.5457 1.89953 13.8328 4.72169 10.4256C6.25353 8.56701 7.7958 7.32974 8.57929 6.75755L5.54795 2.17884L5.87371 1.89769C6.6438 1.2329 7.4222 0.923793 8.32538 0.923793C9.26299 0.923793 10.2568 1.22443 11.5576 1.71053C11.7387 1.77715 11.9426 1.81046 12.1653 1.81046C12.7762 1.81046 13.4442 1.56261 14.0166 1.32013C14.6493 1.05478 15.3028 0.78125 15.9677 0.78125C16.2852 0.78125 16.7773 0.831212 17.3913 1.26085L17.743 1.51576L14.9459 6.70533C15.5775 7.1601 17.2248 8.43802 18.8742 10.4256C19.739 11.4695 20.485 12.5622 21.0928 13.6705V6.26835C21.0928 5.64195 21.6037 5.13214 22.2313 5.13214H29.9705C30.5979 5.13214 31.1088 5.64195 31.1088 6.26835V24.9163C31.1088 25.5438 30.5979 26.0547 29.9705 26.0547L25.6456 26.0547ZM26.5884 25.0789H29.9705C30.0619 25.0789 30.1328 25.0069 30.1328 24.9163V22.9651H26.5884V25.0789ZM21.0928 25.0789H17.5548L17.5474 22.9651H21.0928H21.5799H21.8213H22.068H22.8681H25.6383L25.6456 25.0789H21.3655H21.0928ZM26.5884 21.9901H30.1328V19.557H26.5884V21.9901ZM21.0928 21.9901H17.5412L17.535 19.557H21.0928H21.5809H22.0231H22.068H23.0045H25.6258L25.632 21.9901H23.0961H22.1075H22.068H21.5809H21.0928ZM26.5884 18.582H30.1328V16.1428H26.5884V18.582ZM17.5287 18.582L17.5215 16.1428L21.0928 16.1292H21.1573L21.5799 16.1284V16.1428H22.068H22.198H25.6122L25.6196 18.582H22.8546H22.068H21.8598H21.5799H21.0928H17.5287ZM22.068 15.1669H25.6456H30.1328V12.7347H22.068V15.1669ZM30.1328 11.7588H22.068V9.32354H30.1328V11.7588ZM22.068 6.26834V8.34767H30.1328V6.26834C30.1328 6.17772 30.0619 6.10716 29.9705 6.10716H22.2313C22.1428 6.10716 22.068 6.18083 22.068 6.26834ZM9.92792 16.6393C9.92792 16.6475 10.7449 17.6028 12.3776 19.5051H13.4858C11.8083 17.5457 10.9707 16.5507 10.9707 16.5216V16.5134C11.3412 16.5134 11.7293 16.4166 12.1341 16.2221C12.3516 16.1357 12.5784 15.9452 12.8157 15.6538C12.9957 15.3634 13.0935 15.1158 13.1122 14.9109H13.8844C13.8907 14.9109 14.027 14.711 14.2933 14.3113C14.2933 14.3031 14.285 14.2969 14.2715 14.2938H13.0811C13.0259 14.0366 12.9219 13.8181 12.7679 13.638H13.8845C13.9166 13.6121 14.0561 13.4091 14.3017 13.0303V13.0209H10.1237C10.1153 13.0209 9.97688 13.2197 9.71154 13.6163V13.638H10.8136C10.9988 13.638 11.2079 13.6767 11.439 13.7504C11.7636 13.8785 11.9821 14.0564 12.0956 14.2853V14.2938H10.1237C10.1173 14.2938 9.97688 14.4934 9.70222 14.8942C9.70222 14.9046 9.7073 14.9109 9.71986 14.9109H12.2039C12.2039 15.0034 12.1861 15.0941 12.1518 15.1802C11.9281 15.7735 11.3598 16.0699 10.4452 16.0699C10.2506 16.0699 10.0809 16.0606 9.93624 16.0397L9.92792 16.0617V16.6393Z" fill="#19B38D"/>
<path d="M25.6456 26.0547L25.6456 25.5547H25.6456V26.0547ZM4.72169 10.4256L5.10676 10.7445L5.10753 10.7436L4.72169 10.4256ZM8.57929 6.75755L8.87418 7.16133L9.25981 6.8797L8.9962 6.48153L8.57929 6.75755ZM5.54795 2.17884L5.22126 1.80033L4.88808 2.08788L5.13104 2.45486L5.54795 2.17884ZM5.87371 1.89769L6.2004 2.27621L6.20044 2.27617L5.87371 1.89769ZM11.5576 1.71053L11.3825 2.1789L11.3849 2.17978L11.5576 1.71053ZM14.0166 1.32013L13.8232 0.859032L13.8215 0.859745L14.0166 1.32013ZM17.3913 1.26085L17.6848 0.855936L17.678 0.851192L17.3913 1.26085ZM17.743 1.51576L18.1832 1.75299L18.3908 1.36773L18.0365 1.1109L17.743 1.51576ZM14.9459 6.70533L14.5057 6.4681L14.2974 6.85457L14.6537 7.1111L14.9459 6.70533ZM18.8742 10.4256L19.2592 10.1066L19.2589 10.1063L18.8742 10.4256ZM21.0928 13.6705L20.6544 13.9109L21.5928 13.6705H21.0928ZM29.9705 26.0547L29.9705 26.5547H29.9705V26.0547ZM26.5884 25.0789H26.0884V25.5789H26.5884V25.0789ZM30.1328 22.9651H30.6328V22.4651H30.1328V22.9651ZM26.5884 22.9651V22.4651H26.0884V22.9651H26.5884ZM17.5548 25.0789L17.0548 25.0806L17.0565 25.5789H17.5548V25.0789ZM17.5474 22.9651V22.4651H17.0457L17.0474 22.9668L17.5474 22.9651ZM25.6383 22.9651L26.1383 22.9634L26.1366 22.4651H25.6383V22.9651ZM25.6456 25.0789V25.5789H26.1473L26.1455 25.0772L25.6456 25.0789ZM30.1328 21.9901V22.4901H30.6328V21.9901H30.1328ZM26.5884 21.9901H26.0884V22.4901H26.5884V21.9901ZM30.1328 19.557H30.6328V19.057H30.1328V19.557ZM26.5884 19.557V19.057H26.0884V19.557H26.5884ZM17.5412 21.9901L17.0412 21.9913L17.0425 22.4901H17.5412V21.9901ZM17.535 19.557V19.057H17.0337L17.035 19.5583L17.535 19.557ZM25.6258 19.557L26.1258 19.5558L26.1245 19.057H25.6258V19.557ZM25.632 21.9901V22.4901H26.1333L26.132 21.9888L25.632 21.9901ZM30.1328 18.582V19.082H30.6328V18.582H30.1328ZM26.5884 18.582H26.0884V19.082H26.5884V18.582ZM30.1328 16.1428H30.6328V15.6428H30.1328V16.1428ZM26.5884 16.1428V15.6428H26.0884V16.1428H26.5884ZM17.5215 16.1428L17.5196 15.6428L17.02 15.6447L17.0215 16.1442L17.5215 16.1428ZM17.5287 18.582L17.0287 18.5835L17.0301 19.082H17.5287V18.582ZM21.0928 16.1292V15.6292L21.0909 15.6292L21.0928 16.1292ZM21.1573 16.1292V16.6292L21.1583 16.6292L21.1573 16.1292ZM21.5799 16.1284H22.0799V15.6274L21.5789 15.6284L21.5799 16.1284ZM21.5799 16.1428H21.0799V16.6428H21.5799V16.1428ZM25.6122 16.1428L26.1122 16.1413L26.1107 15.6428H25.6122V16.1428ZM25.6196 18.582V19.082H26.1211L26.1196 18.5805L25.6196 18.582ZM22.068 15.1669H21.568V15.6669H22.068V15.1669ZM30.1328 15.1669V15.6669H30.6328V15.1669H30.1328ZM30.1328 12.7347H30.6328V12.2347H30.1328V12.7347ZM22.068 12.7347V12.2347H21.568V12.7347H22.068ZM22.068 11.7588H21.568V12.2588H22.068V11.7588ZM30.1328 11.7588V12.2588H30.6328V11.7588H30.1328ZM22.068 9.32354V8.82354H21.568V9.32354H22.068ZM30.1328 9.32354H30.6328V8.82354H30.1328V9.32354ZM22.068 8.34767H21.568V8.84767H22.068V8.34767ZM30.1328 8.34767V8.84767H30.6328V8.34767H30.1328ZM12.3776 19.5051L11.9982 19.8307L12.1478 20.0051H12.3776V19.5051ZM13.4858 19.5051V20.0051H14.5721L13.8657 19.1799L13.4858 19.5051ZM10.9707 16.5134V16.0134H10.4707V16.5134H10.9707ZM12.1341 16.2221L11.9496 15.7574L11.9333 15.7638L11.9176 15.7714L12.1341 16.2221ZM12.8157 15.6538L13.2034 15.9696L13.2238 15.9446L13.2407 15.9172L12.8157 15.6538ZM13.1122 14.9109V14.4109H12.656L12.6143 14.8652L13.1122 14.9109ZM14.2933 14.3113L14.7094 14.5885L14.7933 14.4626V14.3113H14.2933ZM14.2715 14.2938L14.3833 13.8064L14.3281 13.7938H14.2715V14.2938ZM13.0811 14.2938L12.5922 14.3987L12.677 14.7938H13.0811V14.2938ZM12.7679 13.638V13.138H11.6825L12.3878 13.963L12.7679 13.638ZM13.8845 13.638V14.138H14.061L14.1985 14.0271L13.8845 13.638ZM14.3017 13.0303L14.7212 13.3022L14.8017 13.1782V13.0303H14.3017ZM14.3017 13.0209H14.8017V12.5209H14.3017V13.0209ZM9.71154 13.6163L9.29596 13.3383L9.21154 13.4645V13.6163H9.71154ZM9.71154 13.638H9.21154V14.138H9.71154V13.638ZM11.439 13.7504L11.6226 13.2853L11.6069 13.2791L11.5909 13.274L11.439 13.7504ZM12.0956 14.2853H12.5956V14.1682L12.5436 14.0633L12.0956 14.2853ZM12.0956 14.2938V14.7938H12.5956V14.2938H12.0956ZM9.70222 14.8942L9.28976 14.6116L9.20222 14.7393V14.8942H9.70222ZM12.2039 14.9109H12.7039V14.4109H12.2039V14.9109ZM12.1518 15.1802L11.6872 14.9951L11.6839 15.0038L12.1518 15.1802ZM9.93624 16.0397L10.0077 15.5449L9.6105 15.4875L9.46856 15.8629L9.93624 16.0397ZM9.92792 16.0617L9.46023 15.8849L9.42792 15.9704V16.0617H9.92792ZM21.0928 26.5547H25.6456V25.5547H21.0928V26.5547ZM18.536 26.5547H21.0928V25.5547H18.536V26.5547ZM16.5786 26.5547H18.536V25.5547H16.5786V26.5547ZM5.05987 26.5547H16.5786V25.5547H5.05987V26.5547ZM-0.03125 21.4625C-0.03125 24.2703 2.25173 26.5547 5.05987 26.5547V25.5547C2.80433 25.5547 0.96875 23.7183 0.96875 21.4625H-0.03125ZM4.33663 10.1066C1.45039 13.5912 -0.03125 17.4142 -0.03125 21.4625H0.96875C0.96875 17.6772 2.34866 14.0744 5.10676 10.7445L4.33663 10.1066ZM8.2844 6.35377C7.47802 6.94268 5.90169 8.20775 4.33585 10.1076L5.10753 10.7436C6.60536 8.92627 8.11359 7.7168 8.87418 7.16133L8.2844 6.35377ZM5.13104 2.45486L8.16238 7.03356L8.9962 6.48153L5.96486 1.90283L5.13104 2.45486ZM5.54702 1.51917L5.22126 1.80033L5.87463 2.55736L6.2004 2.27621L5.54702 1.51917ZM8.32538 0.423793C7.28703 0.423793 6.39566 0.786573 5.54698 1.51921L6.20044 2.27617C6.89193 1.67924 7.55736 1.42379 8.32538 1.42379V0.423793ZM11.7326 1.24216C10.4315 0.755944 9.3622 0.423793 8.32538 0.423793V1.42379C9.16379 1.42379 10.0821 1.69291 11.3825 2.17889L11.7326 1.24216ZM12.1653 1.31046C11.992 1.31046 11.8477 1.28451 11.7302 1.24128L11.3849 2.17978C11.6296 2.26979 11.8932 2.31046 12.1653 2.31046V1.31046ZM13.8215 0.859745C13.2469 1.1032 12.6637 1.31046 12.1653 1.31046V2.31046C12.8887 2.31046 13.6416 2.02202 14.2116 1.78052L13.8215 0.859745ZM15.9677 0.28125C15.1841 0.28125 14.4354 0.602295 13.8232 0.859035L14.2099 1.78123C14.8632 1.50727 15.4215 1.28125 15.9677 1.28125V0.28125ZM17.678 0.851192C16.9608 0.349294 16.3615 0.28125 15.9677 0.28125V1.28125C16.2089 1.28125 16.5939 1.31313 17.1046 1.67051L17.678 0.851192ZM18.0365 1.1109L17.6847 0.855992L17.0979 1.66571L17.4496 1.92062L18.0365 1.1109ZM15.386 6.94257L18.1832 1.75299L17.3029 1.27852L14.5057 6.4681L15.386 6.94257ZM19.2589 10.1063C17.5745 8.07645 15.8921 6.77054 15.238 6.29957L14.6537 7.1111C15.2628 7.54966 16.8751 8.79958 18.4894 10.7449L19.2589 10.1063ZM21.5312 13.4301C20.9073 12.2924 20.143 11.1735 19.2592 10.1066L18.4891 10.7446C19.3349 11.7655 20.0628 12.8321 20.6544 13.9109L21.5312 13.4301ZM20.5928 6.26835V13.6705H21.5928V6.26835H20.5928ZM22.2313 4.63214C21.3286 4.63214 20.5928 5.36484 20.5928 6.26835H21.5928C21.5928 5.91906 21.8789 5.63214 22.2313 5.63214V4.63214ZM29.9705 4.63214H22.2313V5.63214H29.9705V4.63214ZM31.6088 6.26835C31.6088 5.36488 30.8731 4.63214 29.9705 4.63214V5.63214C30.3226 5.63214 30.6088 5.91902 30.6088 6.26835H31.6088ZM31.6088 24.9163V6.26835H30.6088V24.9163H31.6088ZM29.9705 26.5547C30.874 26.5547 31.6088 25.8199 31.6088 24.9163H30.6088C30.6088 25.2677 30.3217 25.5547 29.9705 25.5547V26.5547ZM25.6456 26.5547L29.9705 26.5547L29.9705 25.5547L25.6456 25.5547L25.6456 26.5547ZM29.9705 24.5789H26.5884V25.5789H29.9705V24.5789ZM29.6328 24.9163C29.6328 24.7336 29.783 24.5789 29.9705 24.5789V25.5789C30.3409 25.5789 30.6328 25.2802 30.6328 24.9163H29.6328ZM29.6328 22.9651V24.9163H30.6328V22.9651H29.6328ZM26.5884 23.4651H30.1328V22.4651H26.5884V23.4651ZM27.0884 25.0789V22.9651H26.0884V25.0789H27.0884ZM17.5548 25.5789H21.0928V24.5789H17.5548V25.5789ZM17.0474 22.9668L17.0548 25.0806L18.0548 25.0771L18.0474 22.9634L17.0474 22.9668ZM21.0928 22.4651H17.5474V23.4651H21.0928V22.4651ZM21.5799 22.4651H21.0928V23.4651H21.5799V22.4651ZM21.8213 22.4651H21.5799V23.4651H21.8213V22.4651ZM22.068 22.4651H21.8213V23.4651H22.068V22.4651ZM22.8681 22.4651H22.068V23.4651H22.8681V22.4651ZM25.6383 22.4651H22.8681V23.4651H25.6383V22.4651ZM26.1455 25.0772L26.1383 22.9634L25.1384 22.9668L25.1456 25.0806L26.1455 25.0772ZM21.3655 25.5789H25.6456V24.5789H21.3655V25.5789ZM21.0928 25.5789H21.3655V24.5789H21.0928V25.5789ZM30.1328 21.4901H26.5884V22.4901H30.1328V21.4901ZM29.6328 19.557V21.9901H30.6328V19.557H29.6328ZM26.5884 20.057H30.1328V19.057H26.5884V20.057ZM27.0884 21.9901V19.557H26.0884V21.9901H27.0884ZM17.5412 22.4901H21.0928V21.4901H17.5412V22.4901ZM17.035 19.5583L17.0412 21.9913L18.0412 21.9888L18.035 19.5557L17.035 19.5583ZM21.0928 19.057H17.535V20.057H21.0928V19.057ZM21.5809 19.057H21.0928V20.057H21.5809V19.057ZM22.0231 19.057H21.5809V20.057H22.0231V19.057ZM22.068 19.057H22.0231V20.057H22.068V19.057ZM23.0045 19.057H22.068V20.057H23.0045V19.057ZM25.6258 19.057H23.0045V20.057H25.6258V19.057ZM26.132 21.9888L26.1258 19.5558L25.1258 19.5583L25.132 21.9913L26.132 21.9888ZM23.0961 22.4901H25.632V21.4901H23.0961V22.4901ZM22.1075 22.4901H23.0961V21.4901H22.1075V22.4901ZM22.068 22.4901H22.1075V21.4901H22.068V22.4901ZM21.5809 22.4901H22.068V21.4901H21.5809V22.4901ZM21.0928 22.4901H21.5809V21.4901H21.0928V22.4901ZM30.1328 18.082H26.5884V19.082H30.1328V18.082ZM29.6328 16.1428V18.582H30.6328V16.1428H29.6328ZM26.5884 16.6428H30.1328V15.6428H26.5884V16.6428ZM27.0884 18.582V16.1428H26.0884V18.582H27.0884ZM17.0215 16.1442L17.0287 18.5835L18.0287 18.5805L18.0214 16.1413L17.0215 16.1442ZM21.0909 15.6292L17.5196 15.6428L17.5233 16.6428L21.0947 16.6292L21.0909 15.6292ZM21.1573 15.6292H21.0928V16.6292H21.1573V15.6292ZM21.5789 15.6284L21.1563 15.6292L21.1583 16.6292L21.5809 16.6284L21.5789 15.6284ZM22.0799 16.1428V16.1284H21.0799V16.1428H22.0799ZM22.068 15.6428H21.5799V16.6428H22.068V15.6428ZM22.198 15.6428H22.068V16.6428H22.198V15.6428ZM25.6122 15.6428H22.198V16.6428H25.6122V15.6428ZM26.1196 18.5805L26.1122 16.1413L25.1122 16.1443L25.1196 18.5835L26.1196 18.5805ZM22.8546 19.082H25.6196V18.082H22.8546V19.082ZM22.068 19.082H22.8546V18.082H22.068V19.082ZM21.8598 19.082H22.068V18.082H21.8598V19.082ZM21.5799 19.082H21.8598V18.082H21.5799V19.082ZM21.0928 19.082H21.5799V18.082H21.0928V19.082ZM17.5287 19.082H21.0928V18.082H17.5287V19.082ZM25.6456 14.6669H22.068V15.6669H25.6456V14.6669ZM30.1328 14.6669H25.6456V15.6669H30.1328V14.6669ZM29.6328 12.7347V15.1669H30.6328V12.7347H29.6328ZM22.068 13.2347H30.1328V12.2347H22.068V13.2347ZM22.568 15.1669V12.7347H21.568V15.1669H22.568ZM22.068 12.2588H30.1328V11.2588H22.068V12.2588ZM21.568 9.32354V11.7588H22.568V9.32354H21.568ZM30.1328 8.82354H22.068V9.82354H30.1328V8.82354ZM30.6328 11.7588V9.32354H29.6328V11.7588H30.6328ZM22.568 8.34767V6.26834H21.568V8.34767H22.568ZM30.1328 7.84767H22.068V8.84767H30.1328V7.84767ZM29.6328 6.26834V8.34767H30.6328V6.26834H29.6328ZM29.9705 6.60716C29.7887 6.60716 29.6328 6.45674 29.6328 6.26834H30.6328C30.6328 5.89871 30.3352 5.60716 29.9705 5.60716V6.60716ZM22.2313 6.60716H29.9705V5.60716H22.2313V6.60716ZM22.568 6.26834C22.568 6.46345 22.4124 6.60716 22.2313 6.60716V5.60716C21.8732 5.60716 21.568 5.89821 21.568 6.26834H22.568ZM12.757 19.1794C11.9407 18.2283 11.3285 17.5142 10.9205 17.037C10.7165 16.7983 10.5639 16.6193 10.4625 16.4997C10.4116 16.4397 10.3744 16.3956 10.3503 16.3666C10.3379 16.3518 10.3304 16.3427 10.3266 16.338C10.3243 16.3351 10.3257 16.3368 10.3288 16.3409C10.3297 16.3421 10.3356 16.3497 10.3428 16.3604C10.3458 16.3648 10.3549 16.3784 10.3652 16.3969C10.37 16.4056 10.3803 16.4246 10.3907 16.4499C10.3948 16.4599 10.4279 16.5362 10.4279 16.6393H9.42792C9.42792 16.7425 9.46111 16.8188 9.46525 16.8289C9.47567 16.8544 9.486 16.8735 9.49095 16.8824C9.50141 16.9012 9.51085 16.9153 9.51422 16.9203C9.52226 16.9322 9.5293 16.9415 9.5318 16.9448C9.53808 16.9531 9.5443 16.9609 9.54834 16.9659C9.55733 16.977 9.56898 16.9911 9.58216 17.0069C9.60906 17.0392 9.64843 17.0859 9.69969 17.1464C9.80248 17.2676 9.95617 17.4479 10.1604 17.6868C10.5691 18.1648 11.1818 18.8795 11.9982 19.8307L12.757 19.1794ZM13.4858 19.0051H12.3776V20.0051H13.4858V19.0051ZM10.4707 16.5216C10.4707 16.6358 10.5116 16.7205 10.5139 16.7257C10.5251 16.751 10.5361 16.7704 10.5416 16.7797C10.5532 16.7996 10.5645 16.8161 10.5707 16.8248C10.5843 16.8443 10.6 16.865 10.6146 16.8839C10.645 16.9231 10.6877 16.9762 10.7408 17.0412C10.8479 17.172 11.0069 17.3626 11.2169 17.6117C11.6372 18.1105 12.267 18.8503 13.106 19.8303L13.8657 19.1799C13.0272 18.2005 12.3994 17.4631 11.9815 16.9673C11.7724 16.7191 11.6171 16.533 11.5147 16.4078C11.4631 16.3448 11.4272 16.3 11.4053 16.2717C11.3937 16.2567 11.3898 16.2512 11.3903 16.2519C11.3907 16.2525 11.3921 16.2545 11.3942 16.2577C11.396 16.2605 11.3998 16.2664 11.4046 16.2746C11.4084 16.2811 11.4183 16.2982 11.4286 16.3216C11.4301 16.325 11.4707 16.4083 11.4707 16.5216H10.4707ZM10.4707 16.5134V16.5216H11.4707V16.5134H10.4707ZM11.9176 15.7714C11.5667 15.94 11.2524 16.0134 10.9707 16.0134V17.0134C11.4299 17.0134 11.8919 16.8932 12.3506 16.6728L11.9176 15.7714ZM12.428 15.3381C12.2138 15.6011 12.0522 15.7166 11.9496 15.7574L12.3187 16.6868C12.651 16.5548 12.9431 16.2892 13.2034 15.9696L12.428 15.3381ZM12.6143 14.8652C12.6057 14.9594 12.5523 15.1296 12.3907 15.3905L13.2407 15.9172C13.439 15.5971 13.5812 15.2722 13.6102 14.9565L12.6143 14.8652ZM13.8844 14.4109H13.1122V15.4109H13.8844V14.4109ZM13.8772 14.034C13.7443 14.2335 13.6449 14.3816 13.5783 14.4792C13.5447 14.5285 13.5211 14.5625 13.5064 14.5831C13.4985 14.5941 13.4963 14.597 13.4977 14.5951C13.4984 14.5943 13.5 14.5922 13.5024 14.5893C13.5045 14.5867 13.5091 14.5812 13.5154 14.5741C13.5197 14.5693 13.5349 14.5525 13.557 14.5332C13.5674 14.5242 13.5913 14.504 13.6251 14.4834C13.6425 14.4729 13.6706 14.4572 13.7075 14.4432C13.7422 14.4301 13.8043 14.4109 13.8844 14.4109V15.4109C14.0279 15.4109 14.1271 15.3486 14.1445 15.338C14.1787 15.3172 14.2029 15.2968 14.2138 15.2873C14.2368 15.2672 14.2532 15.2492 14.2588 15.2429C14.2726 15.2276 14.2834 15.2138 14.288 15.2079C14.2991 15.1935 14.3107 15.1776 14.3206 15.1637C14.3415 15.1343 14.3699 15.0934 14.4044 15.0427C14.4741 14.9405 14.576 14.7888 14.7094 14.5885L13.8772 14.034ZM14.1596 14.7811C14.1252 14.7732 14.0533 14.7524 13.9787 14.6939C13.8959 14.6289 13.7933 14.4994 13.7933 14.3113H14.7933C14.7933 14.1149 14.6866 13.9783 14.5963 13.9074C14.5142 13.8429 14.4313 13.8175 14.3833 13.8064L14.1596 14.7811ZM13.0811 14.7938H14.2715V13.7938H13.0811V14.7938ZM12.3878 13.963C12.4817 14.0727 12.5523 14.213 12.5922 14.3987L13.5699 14.1889C13.4994 13.8602 13.362 13.5635 13.1479 13.3131L12.3878 13.963ZM13.8845 13.138H12.7679V14.138H13.8845V13.138ZM13.8821 12.7583C13.7601 12.9465 13.6667 13.0876 13.6009 13.1834C13.5676 13.2318 13.544 13.265 13.5286 13.2855C13.5207 13.296 13.5178 13.2994 13.5187 13.2984C13.5192 13.2978 13.5228 13.2935 13.5289 13.2871C13.5334 13.2823 13.5481 13.267 13.5704 13.2489L14.1985 14.0271C14.243 13.9912 14.275 13.9527 14.2844 13.9416C14.3 13.923 14.3152 13.9034 14.3288 13.8853C14.3563 13.8486 14.3888 13.8025 14.4252 13.7495C14.4986 13.6427 14.5976 13.4929 14.7212 13.3022L13.8821 12.7583ZM13.8017 13.0209V13.0303H14.8017V13.0209H13.8017ZM10.1237 13.5209H14.3017V12.5209H10.1237V13.5209ZM10.1271 13.8943C10.2592 13.6968 10.3584 13.5507 10.4249 13.4548C10.4585 13.4063 10.4816 13.3738 10.4956 13.3548C10.5033 13.3444 10.5042 13.3436 10.5008 13.3477C10.5001 13.3484 10.4907 13.3601 10.4759 13.3751C10.4696 13.3814 10.4509 13.4001 10.4236 13.4207C10.4101 13.4309 10.3836 13.4499 10.3471 13.4682C10.3182 13.4826 10.2365 13.5209 10.1237 13.5209V12.5209C10.0106 12.5209 9.92853 12.5594 9.89934 12.574C9.86236 12.5925 9.83545 12.6118 9.82144 12.6223C9.79308 12.6437 9.77309 12.6636 9.76528 12.6715C9.74743 12.6895 9.73388 12.7059 9.72817 12.7128C9.71455 12.7294 9.7012 12.7471 9.69059 12.7615C9.66794 12.7923 9.63828 12.8342 9.6031 12.885C9.53193 12.9876 9.42919 13.1391 9.29596 13.3383L10.1271 13.8943ZM10.2115 13.638V13.6163H9.21154V13.638H10.2115ZM10.8136 13.138H9.71154V14.138H10.8136V13.138ZM11.5909 13.274C11.3278 13.1901 11.0656 13.138 10.8136 13.138V14.138C10.9319 14.138 11.088 14.1633 11.2871 14.2267L11.5909 13.274ZM12.5436 14.0633C12.3576 13.6881 12.0196 13.442 11.6226 13.2853L11.2554 14.2154C11.5076 14.315 11.6066 14.4246 11.6476 14.5074L12.5436 14.0633ZM12.5956 14.2938V14.2853H11.5956V14.2938H12.5956ZM10.1237 14.7938H12.0956V13.7938H10.1237V14.7938ZM10.1147 15.1768C10.2517 14.9769 10.3542 14.8287 10.4227 14.7311C10.4573 14.6818 10.4816 14.6478 10.4967 14.6273C10.5048 14.6162 10.5071 14.6134 10.5057 14.6152C10.505 14.616 10.5034 14.618 10.501 14.6209C10.4988 14.6234 10.4942 14.6289 10.4878 14.6359C10.4834 14.6406 10.4681 14.657 10.4458 14.6759C10.4354 14.6848 10.4116 14.7043 10.3779 14.7242C10.3607 14.7344 10.3329 14.7495 10.2967 14.7628C10.2627 14.7754 10.2019 14.7938 10.1237 14.7938V13.7938C9.98364 13.7938 9.88628 13.8532 9.8686 13.8636C9.83463 13.8837 9.81046 13.9036 9.79952 13.9128C9.77633 13.9325 9.75986 13.9501 9.75406 13.9564C9.74006 13.9715 9.72907 13.9851 9.72432 13.9911C9.71291 14.0054 9.70106 14.0213 9.69084 14.0352C9.66925 14.0646 9.64005 14.1055 9.6044 14.1563C9.53248 14.2587 9.42741 14.4107 9.28976 14.6116L10.1147 15.1768ZM9.71986 14.4109C9.78914 14.4109 9.93587 14.4282 10.0609 14.5539C10.1854 14.6792 10.2022 14.8255 10.2022 14.8942H9.20222C9.20222 14.9734 9.22153 15.128 9.35179 15.259C9.48248 15.3904 9.63802 15.4109 9.71986 15.4109V14.4109ZM12.2039 14.4109H9.71986V15.4109H12.2039V14.4109ZM12.6163 15.3652C12.6735 15.2216 12.7039 15.0683 12.7039 14.9109H11.7039C11.7039 14.9386 11.6987 14.9665 11.6873 14.9951L12.6163 15.3652ZM10.4452 16.5699C10.9509 16.5699 11.4092 16.4888 11.7888 16.2909C12.1808 16.0865 12.4639 15.7697 12.6196 15.3565L11.6839 15.0038C11.616 15.184 11.503 15.3121 11.3264 15.4042C11.1373 15.5028 10.8541 15.5699 10.4452 15.5699V16.5699ZM9.86477 16.5346C10.0412 16.5601 10.2366 16.5699 10.4452 16.5699V15.5699C10.2646 15.5699 10.1206 15.5612 10.0077 15.5449L9.86477 16.5346ZM10.3956 16.2386L10.4039 16.2166L9.46856 15.8629L9.46023 15.8849L10.3956 16.2386ZM10.4279 16.6393V16.0617H9.42792V16.6393H10.4279Z" fill="black" fill-opacity="0.01"/>
</svg>
