<svg id="fd-44px" xmlns="http://www.w3.org/2000/svg" width="44" height="44" viewBox="0 0 44 44">
  <g id="fixed_deposite" transform="translate(6.875 5.5)">
    <path id="Fill_1" data-name="Fill 1" d="M0,1.3A4.051,4.051,0,0,1,2.79.185a12.1,12.1,0,0,1,3.991.983,3.139,3.139,0,0,0,1.077.187,6.854,6.854,0,0,0,2.6-.705A6.289,6.289,0,0,1,12.758,0a2.469,2.469,0,0,1,1.5.511l-3.72,6.913H4.053Z" transform="translate(7.29 0.456)" fill="#fff"/>
    <path id="Fill_9" data-name="Fill 9" d="M5.641.508,1.921,7.422,0,7.223,1.808.66c.017,0,.017-.02.036-.02A6.6,6.6,0,0,1,4.138,0a2.464,2.464,0,0,1,1.5.508" transform="translate(15.905 0.458)" fill="#62e2bb"/>
    <path id="Fill_11" data-name="Fill 11" d="M28.3,18.931a5.345,5.345,0,0,1-5.345,5.356H5.356A5.362,5.362,0,0,1,0,18.931a21.671,21.671,0,0,1,5.412-14A28.015,28.015,0,0,1,10.667,0h6.96a27.507,27.507,0,0,1,5.267,4.93,21.64,21.64,0,0,1,5.4,14" transform="translate(0.456 7.88)" fill="#fff"/>
    <circle id="Oval" cx="1.375" cy="1.375" r="1.375" transform="translate(10.312 21.999)" fill="#62e2bb"/>
    <path id="Stroke_27" data-name="Stroke 27" d="M2,3.991A2,2,0,1,1,3.99,2,2,2,0,0,1,2,3.991ZM2,.912A1.083,1.083,0,1,0,3.078,2,1.085,1.085,0,0,0,2,.912Z" transform="translate(9.652 21.463)" fill="#636363"/>
    <path id="Fill_15" data-name="Fill 15" d="M13.331,18.922a5.344,5.344,0,0,1-5.342,5.36H5.322a5.344,5.344,0,0,0,5.342-5.36,21.683,21.683,0,0,0-5.4-14A27.574,27.574,0,0,0,0,0H2.664A27.51,27.51,0,0,1,7.936,4.924a21.691,21.691,0,0,1,5.4,14" transform="translate(15.419 7.885)" fill="#62e2bb"/>
    <circle id="Oval-2" data-name="Oval" cx="1.375" cy="1.375" r="1.375" transform="translate(16.499 15.949)" fill="#62e2bb"/>
    <path id="Stroke_19" data-name="Stroke 19" d="M1.994,3.991A2,2,0,1,1,3.99,2,2,2,0,0,1,1.994,3.991Zm0-3.079A1.083,1.083,0,1,0,3.078,2,1.084,1.084,0,0,0,1.994.912Z" transform="translate(15.693 15.423)" fill="#636363"/>
    <path id="Stroke_23" data-name="Stroke 23" d="M.645,0,8.83,8.184l-.645.645L0,.645Z" transform="translate(10.257 16.019)" fill="#636363"/>
    <path id="Stroke_29" data-name="Stroke 29" d="M23.406,25.2H5.811A5.818,5.818,0,0,1,0,19.388,22.1,22.1,0,0,1,5.516,5.1,27.665,27.665,0,0,1,10.859.084L11.123,0h6.961l.256.079A27.819,27.819,0,0,1,23.7,5.095a22.09,22.09,0,0,1,5.506,14.291,5.8,5.8,0,0,1-5.8,5.814ZM11.269.911h0l-.26.191A26.68,26.68,0,0,0,6.623,5.2l-.4.48A21.213,21.213,0,0,0,.912,19.388a4.9,4.9,0,0,0,4.9,4.9H23.406a4.89,4.89,0,0,0,4.889-4.9A21.2,21.2,0,0,0,23,5.676,26.818,26.818,0,0,0,17.94.911L17.932.906l.007.005Z" transform="translate(0 7.424)" fill="#636363"/>
    <path id="Stroke_31" data-name="Stroke 31" d="M10.989,8.334H4.509a.452.452,0,0,1-.38-.2L.075,2.008a.458.458,0,0,1,.083-.6A4.478,4.478,0,0,1,3.246.184,12.054,12.054,0,0,1,7.392,1.2a2.674,2.674,0,0,0,.922.16A4.875,4.875,0,0,0,10.205.906l.834-.343A5.312,5.312,0,0,1,13.214,0a2.913,2.913,0,0,1,1.758.593.458.458,0,0,1,.139.589L11.391,8.1A.458.458,0,0,1,10.989,8.334ZM3.246,1.1a3.419,3.419,0,0,0-2.008.63l-.172.125L4.753,7.422h5.962L14.1,1.129l-.03-.016a1.839,1.839,0,0,0-.687-.194L13.214.911a4.155,4.155,0,0,0-1.609.407l-1.1.449a5.55,5.55,0,0,1-2.19.5,3.6,3.6,0,0,1-1.236-.215A11.343,11.343,0,0,0,3.246,1.1Z" transform="translate(6.834 0)" fill="#636363"/>
    <path id="Stroke_33" data-name="Stroke 33" d="M3.007.069A4.061,4.061,0,0,1,5.136.22l.208.1-.434.8A2.972,2.972,0,0,0,3.138.971a9.678,9.678,0,0,0-1.582.386c-.432.141-.794.282-1.041.388L.38,1.8,0,.976.363.822C.643.709.95.6,1.273.49A10.561,10.561,0,0,1,3.007.069Z" transform="translate(17.894 6.49)" fill="#636363"/>
  </g>
  <rect id="icon_plate" width="44" height="44" fill="none"/>
</svg>
