<svg width="28" height="28" viewBox="0 0 28 28" fill="none" xmlns="http://www.w3.org/2000/svg">
<path d="M13.9996 24.7713C13.8626 24.7739 13.7282 24.7342 13.6146 24.6575L6.36962 20.0638C6.2674 19.9998 6.18322 19.9107 6.12503 19.8051C6.06685 19.6994 6.03659 19.5807 6.03712 19.46V3.95505C6.03712 3.86083 6.05567 3.76752 6.09173 3.68047C6.12779 3.59342 6.18064 3.51433 6.24727 3.4477C6.31389 3.38107 6.39299 3.32822 6.48004 3.29217C6.56709 3.25611 6.66039 3.23755 6.75462 3.23755H21.2446C21.4349 3.23755 21.6174 3.31314 21.752 3.4477C21.8865 3.58226 21.9621 3.76476 21.9621 3.95505V19.46C21.9626 19.5807 21.9324 19.6994 21.8742 19.8051C21.816 19.9107 21.7318 19.9998 21.6296 20.0638L14.3846 24.6575C14.2706 24.7332 14.1364 24.7728 13.9996 24.7713Z" fill="white"/>
<path d="M21.2454 3.5001C21.3661 3.5001 21.4818 3.54804 21.5671 3.63336C21.6525 3.71869 21.7004 3.83442 21.7004 3.9551V19.4601C21.7007 19.5368 21.6816 19.6123 21.6448 19.6796C21.6081 19.7469 21.555 19.8038 21.4904 19.8451L14.2454 24.4388C14.1719 24.4846 14.087 24.5088 14.0004 24.5088C13.9138 24.5088 13.8289 24.4846 13.7554 24.4388L6.5104 19.8451C6.4458 19.8038 6.39267 19.7469 6.35596 19.6796C6.31924 19.6123 6.30013 19.5368 6.3004 19.4601V3.9551C6.3004 3.83442 6.34834 3.71869 6.43367 3.63336C6.519 3.54804 6.63473 3.5001 6.7554 3.5001H21.2454ZM21.2454 2.9751H6.7554C6.49549 2.9751 6.24622 3.07835 6.06244 3.26213C5.87865 3.44592 5.7754 3.69519 5.7754 3.9551V19.4601C5.77461 19.6247 5.81601 19.7867 5.89567 19.9307C5.97533 20.0747 6.09057 20.1958 6.2304 20.2826L13.4754 24.8851C13.6331 24.9827 13.8149 25.0344 14.0004 25.0344C14.1859 25.0344 14.3677 24.9827 14.5254 24.8851L21.7704 20.2826C21.9102 20.1958 22.0255 20.0747 22.1051 19.9307C22.1848 19.7867 22.2262 19.6247 22.2254 19.4601V3.9551C22.2254 3.69519 22.1222 3.44592 21.9384 3.26213C21.7546 3.07835 21.5053 2.9751 21.2454 2.9751Z" fill="#636363"/>
<path d="M22.225 3.9551V19.4601C22.2266 19.6248 22.1856 19.7872 22.1059 19.9313C22.0261 20.0754 21.9104 20.1965 21.77 20.2826L14.525 24.8764C14.3709 24.9794 14.1897 25.0345 14.0044 25.0345C13.819 25.0345 13.6378 24.9794 13.4837 24.8764L13.125 24.6488L20.02 20.2738C20.1604 20.1877 20.2761 20.0667 20.3559 19.9225C20.4356 19.7784 20.4766 19.6161 20.475 19.4513V3.9551C20.475 3.69669 20.373 3.44874 20.1911 3.26521C20.0092 3.08167 19.7621 2.9774 19.5038 2.9751H21.2538C21.5121 2.9774 21.7592 3.08167 21.9411 3.26521C22.123 3.44874 22.225 3.69669 22.225 3.9551Z" fill="#62E2BB"/>
<path d="M21.2454 3.5001C21.3661 3.5001 21.4818 3.54804 21.5671 3.63336C21.6525 3.71869 21.7004 3.83442 21.7004 3.9551V19.4601C21.7007 19.5368 21.6816 19.6123 21.6448 19.6796C21.6081 19.7469 21.555 19.8038 21.4904 19.8451L14.2454 24.4388C14.1719 24.4846 14.087 24.5088 14.0004 24.5088C13.9138 24.5088 13.8289 24.4846 13.7554 24.4388L6.5104 19.8451C6.4458 19.8038 6.39267 19.7469 6.35596 19.6796C6.31924 19.6123 6.30013 19.5368 6.3004 19.4601V3.9551C6.3004 3.83442 6.34834 3.71869 6.43367 3.63336C6.519 3.54804 6.63473 3.5001 6.7554 3.5001H21.2454ZM21.2454 2.9751H6.7554C6.49549 2.9751 6.24622 3.07835 6.06244 3.26213C5.87865 3.44592 5.7754 3.69519 5.7754 3.9551V19.4601C5.77461 19.6247 5.81601 19.7867 5.89567 19.9307C5.97533 20.0747 6.09057 20.1958 6.2304 20.2826L13.4754 24.8851C13.6331 24.9827 13.8149 25.0344 14.0004 25.0344C14.1859 25.0344 14.3677 24.9827 14.5254 24.8851L21.7704 20.2826C21.9102 20.1958 22.0255 20.0747 22.1051 19.9307C22.1848 19.7867 22.2262 19.6247 22.2254 19.4601V3.9551C22.2254 3.69519 22.1222 3.44592 21.9384 3.26213C21.7546 3.07835 21.5053 2.9751 21.2454 2.9751Z" fill="#636363"/>
<path d="M13.9993 18.5937C12.3384 18.6014 10.7233 18.0497 9.41426 17.0274C9.36311 16.9864 9.32451 16.9319 9.30285 16.87C9.28119 16.8081 9.27735 16.7414 9.29176 16.6774C9.62587 15.6325 10.2424 14.7003 11.0731 13.9838C11.9039 13.2673 12.9166 12.7944 13.9993 12.6174C15.0819 12.7944 16.0946 13.2673 16.9254 13.9838C17.7562 14.7003 18.3727 15.6325 18.7068 16.6774C18.7225 16.7422 18.7184 16.8102 18.695 16.8726C18.6716 16.935 18.6299 16.989 18.5755 17.0274C17.2705 18.0509 15.6577 18.6028 13.9993 18.5937Z" fill="white"/>
<path d="M13.9997 12.8887C15.0244 13.062 15.9818 13.5135 16.7672 14.1941C17.5527 14.8746 18.136 15.7579 18.4534 16.7475C18.4583 16.7585 18.4607 16.7704 18.4607 16.7825C18.4607 16.7945 18.4583 16.8064 18.4534 16.8175C17.1892 17.798 15.6347 18.3302 14.0347 18.3302C12.4347 18.3302 10.8802 17.798 9.61594 16.8175C9.61112 16.8064 9.60863 16.7945 9.60863 16.7825C9.60863 16.7704 9.61112 16.7585 9.61594 16.7475C9.92781 15.7671 10.5006 14.89 11.2728 14.2103C12.045 13.5305 12.9877 13.0737 13.9997 12.8887ZM13.9997 12.355C12.8565 12.5325 11.7859 13.0266 10.9091 13.7812C10.0322 14.5359 9.38422 15.521 9.03844 16.625C9.00899 16.7399 9.01403 16.8609 9.05293 16.9729C9.09184 17.085 9.16288 17.1831 9.25719 17.255C10.6132 18.3093 12.282 18.8818 13.9997 18.8818C15.7174 18.8818 17.3861 18.3093 18.7422 17.255C18.8368 17.1835 18.9075 17.0851 18.945 16.9726C18.9825 16.8601 18.985 16.7389 18.9522 16.625C18.6098 15.5206 17.9639 14.5348 17.0883 13.7798C16.2126 13.0248 15.1424 12.5311 13.9997 12.355Z" fill="#636363"/>
<path d="M18.7422 17.2288C17.5095 18.1937 16.0128 18.7614 14.4502 18.8568C12.8877 18.9521 11.333 18.5705 9.99219 17.7625C10.6069 17.9189 11.2392 17.9953 11.8734 17.99C13.595 18.0052 15.2705 17.4344 16.6247 16.3713C16.7183 16.2991 16.7884 16.2005 16.8258 16.0883C16.8632 15.9761 16.8663 15.8553 16.8347 15.7413C16.4209 14.3638 15.5186 13.1846 14.2972 12.425C15.3811 12.6394 16.3869 13.1429 17.2079 13.8823C18.0289 14.6217 18.6347 15.5694 18.9609 16.625C18.985 16.7361 18.9772 16.8516 18.9385 16.9584C18.8998 17.0652 18.8318 17.1589 18.7422 17.2288Z" fill="#62E2BB"/>
<path d="M13.9997 12.8887C15.0244 13.062 15.9818 13.5135 16.7672 14.1941C17.5527 14.8746 18.136 15.7579 18.4534 16.7475C18.4583 16.7585 18.4607 16.7704 18.4607 16.7825C18.4607 16.7945 18.4583 16.8064 18.4534 16.8175C17.1892 17.798 15.6347 18.3302 14.0347 18.3302C12.4347 18.3302 10.8802 17.798 9.61594 16.8175C9.61112 16.8064 9.60863 16.7945 9.60863 16.7825C9.60863 16.7704 9.61112 16.7585 9.61594 16.7475C9.92781 15.7671 10.5006 14.89 11.2728 14.2103C12.045 13.5305 12.9877 13.0737 13.9997 12.8887ZM13.9997 12.355C12.8565 12.5325 11.7859 13.0266 10.9091 13.7812C10.0322 14.5359 9.38422 15.521 9.03844 16.625C9.00899 16.7399 9.01403 16.8609 9.05293 16.9729C9.09184 17.085 9.16288 17.1831 9.25719 17.255C10.6132 18.3093 12.282 18.8818 13.9997 18.8818C15.7174 18.8818 17.3861 18.3093 18.7422 17.255C18.8368 17.1835 18.9075 17.0851 18.945 16.9726C18.9825 16.8601 18.985 16.7389 18.9522 16.625C18.6098 15.5206 17.9639 14.5348 17.0883 13.7798C16.2126 13.0248 15.1424 12.5311 13.9997 12.355Z" fill="#636363"/>
<path d="M14.0009 13.125C12.7234 13.125 11.5859 11.375 11.5859 9.95748C11.5859 9.64034 11.6484 9.3263 11.7698 9.0333C11.8911 8.7403 12.069 8.47407 12.2933 8.24982C12.5175 8.02556 12.7838 7.84768 13.0768 7.72631C13.3698 7.60495 13.6838 7.54248 14.0009 7.54248C14.3181 7.54248 14.6321 7.60495 14.9251 7.72631C15.2181 7.84768 15.4843 8.02556 15.7086 8.24982C15.9329 8.47407 16.1107 8.7403 16.2321 9.0333C16.3535 9.3263 16.4159 9.64034 16.4159 9.95748C16.4159 11.3137 15.2784 13.125 14.0009 13.125Z" fill="white"/>
<path d="M13.9998 7.75254C14.5714 7.75485 15.1189 7.98358 15.5223 8.38864C15.9258 8.7937 16.1523 9.3421 16.1523 9.91379C16.1523 11.1825 15.111 12.8188 13.9998 12.8188C12.8885 12.8188 11.8473 11.1825 11.8473 9.91379C11.8473 9.3421 12.0738 8.7937 12.4772 8.38864C12.8806 7.98358 13.4281 7.75485 13.9998 7.75254ZM13.9998 7.22754C13.2888 7.22985 12.6078 7.51389 12.106 8.01741C11.6041 8.52093 11.3223 9.20286 11.3223 9.91379C11.3223 11.3925 12.521 13.3438 13.9998 13.3438C15.4785 13.3438 16.6773 11.3925 16.6773 9.91379C16.6773 9.20286 16.3955 8.52093 15.8936 8.01741C15.3917 7.51389 14.7107 7.22985 13.9998 7.22754Z" fill="#636363"/>
<path d="M16.6772 9.90508C16.6772 11.3926 15.4784 13.3526 13.9997 13.3526C13.7485 13.3499 13.5008 13.2932 13.2734 13.1863C13.8559 12.8563 14.3422 12.38 14.6844 11.8046C15.0266 11.2292 15.2128 10.5745 15.2247 9.90508C15.2326 9.32018 15.0449 8.7494 14.6914 8.28335C14.3379 7.81729 13.8388 7.48266 13.2734 7.33258C13.5089 7.26158 13.7537 7.22619 13.9997 7.22758C14.7098 7.22758 15.3908 7.50967 15.893 8.0118C16.3951 8.51393 16.6772 9.19496 16.6772 9.90508Z" fill="#62E2BB"/>
<path d="M13.9998 7.75254C14.5714 7.75485 15.1189 7.98358 15.5223 8.38864C15.9258 8.7937 16.1523 9.3421 16.1523 9.91379C16.1523 11.1825 15.111 12.8188 13.9998 12.8188C12.8885 12.8188 11.8473 11.1825 11.8473 9.91379C11.8473 9.3421 12.0738 8.7937 12.4772 8.38864C12.8806 7.98358 13.4281 7.75485 13.9998 7.75254ZM13.9998 7.22754C13.2888 7.22985 12.6078 7.51389 12.106 8.01741C11.6041 8.52093 11.3223 9.20286 11.3223 9.91379C11.3223 11.3925 12.521 13.3438 13.9998 13.3438C15.4785 13.3438 16.6773 11.3925 16.6773 9.91379C16.6773 9.20286 16.3955 8.52093 15.8936 8.01741C15.3917 7.51389 14.7107 7.22985 13.9998 7.22754Z" fill="#636363"/>
</svg>
