<svg width="28" height="28" viewBox="0 0 28 28" fill="none" xmlns="http://www.w3.org/2000/svg">
<g clip-path="url(#clip0_10491_172370)">
<path d="M7.33038 25.4105C6.91018 25.4105 6.57617 25.0765 6.57617 24.6563V6.11358C6.57617 5.69338 6.91018 5.35938 7.33038 5.35938H21.9296C22.3498 5.35938 22.6839 5.69338 22.6839 6.11358V24.6455C22.6839 25.0657 22.3498 25.3997 21.9296 25.3997H7.33038V25.4105Z" fill="white"/>
<path d="M21.9306 5.6826C22.1676 5.6826 22.3616 5.87653 22.3616 6.11357V24.6455C22.3616 24.8825 22.1676 25.0765 21.9306 25.0765H7.33134C7.09431 25.0765 6.90037 24.8825 6.90037 24.6455V6.11357C6.90037 5.87653 7.09431 5.6826 7.33134 5.6826H21.9306V5.6826ZM21.9306 5.03613H7.33134C6.73875 5.03613 6.25391 5.52098 6.25391 6.11357V24.6455C6.25391 25.2381 6.73875 25.7229 7.33134 25.7229H21.9306C22.5232 25.7229 23.008 25.2381 23.008 24.6455V6.11357C23.008 5.52098 22.5232 5.03613 21.9306 5.03613Z" fill="#636363"/>
<path d="M23.008 6.03815V24.7317C23.008 25.2812 22.5663 25.7337 22.006 25.7337H7.25592C6.70643 25.7337 6.25391 25.2812 6.25391 24.7317H19.9912C20.5515 24.7317 20.9932 24.2792 20.9932 23.7297V5.03613H21.9953C22.5663 5.03613 23.008 5.48866 23.008 6.03815Z" fill="#62E2BB"/>
<path d="M22.6318 5.74721V13.5048H20.9941V5.25159H22.1362C22.4164 5.25159 22.6318 5.47785 22.6318 5.74721Z" fill="#EAEAEA"/>
<path d="M23.008 13.2246H6.25391V13.8711H23.008V13.2246Z" fill="#636363"/>
<path d="M21.9306 5.6826C22.1676 5.6826 22.3616 5.87653 22.3616 6.11357V24.6455C22.3616 24.8825 22.1676 25.0765 21.9306 25.0765H7.33134C7.09431 25.0765 6.90037 24.8825 6.90037 24.6455V6.11357C6.90037 5.87653 7.09431 5.6826 7.33134 5.6826H21.9306V5.6826ZM21.9306 5.03613H7.33134C6.73875 5.03613 6.25391 5.52098 6.25391 6.11357V24.6455C6.25391 25.2381 6.73875 25.7229 7.33134 25.7229H21.9306C22.5232 25.7229 23.008 25.2381 23.008 24.6455V6.11357C23.008 5.52098 22.5232 5.03613 21.9306 5.03613Z" fill="#636363"/>
<path d="M19.9596 17.1681H9.29297V17.8146H19.9596V17.1681Z" fill="#636363"/>
<path d="M19.9596 21.2192H9.29297V21.8657H19.9596V21.2192Z" fill="#636363"/>
<path d="M16.8011 18.5795C17.4021 18.5795 17.8893 18.0923 17.8893 17.4913C17.8893 16.8903 17.4021 16.4031 16.8011 16.4031C16.2001 16.4031 15.7129 16.8903 15.7129 17.4913C15.7129 18.0923 16.2001 18.5795 16.8011 18.5795Z" fill="#EAEAEA"/>
<path d="M16.8021 18.9027C16.0263 18.9027 15.3906 18.267 15.3906 17.4913C15.3906 16.7155 16.0263 16.0798 16.8021 16.0798C17.5778 16.0798 18.2135 16.7155 18.2135 17.4913C18.2135 18.267 17.5886 18.9027 16.8021 18.9027ZM16.8021 16.7263C16.3819 16.7263 16.0371 17.0711 16.0371 17.4913C16.0371 17.9115 16.3819 18.2563 16.8021 18.2563C17.2223 18.2563 17.567 17.9115 17.567 17.4913C17.567 17.0711 17.2223 16.7263 16.8021 16.7263Z" fill="#636363"/>
<path d="M12.514 22.6414C13.115 22.6414 13.6022 22.1542 13.6022 21.5532C13.6022 20.9522 13.115 20.465 12.514 20.465C11.913 20.465 11.4258 20.9522 11.4258 21.5532C11.4258 22.1542 11.913 22.6414 12.514 22.6414Z" fill="#EAEAEA"/>
<path d="M12.515 22.9646C11.7392 22.9646 11.1035 22.3289 11.1035 21.5532C11.1035 20.7774 11.7392 20.1417 12.515 20.1417C13.2907 20.1417 13.9264 20.7774 13.9264 21.5532C13.9264 22.3289 13.3015 22.9646 12.515 22.9646ZM12.515 20.7774C12.0948 20.7774 11.75 21.1222 11.75 21.5424C11.75 21.9626 12.0948 22.3074 12.515 22.3074C12.9352 22.3074 13.2799 21.9626 13.2799 21.5424C13.2799 21.1222 12.9459 20.7774 12.515 20.7774Z" fill="#636363"/>
<path d="M20.9936 7.27722H18.2461V7.92368H20.9936V7.27722Z" fill="#636363"/>
<path d="M20.9936 8.37622H18.2461V9.02268H20.9936V8.37622Z" fill="#636363"/>
<path d="M19.9049 12.2011L18.2457 9.96007C18.1703 9.8631 18.1595 9.73381 18.2134 9.62607C18.2672 9.51832 18.375 9.4429 18.5043 9.4429H19.0753C19.4955 9.4429 19.8403 9.09812 19.8403 8.67792C19.8403 8.25772 19.4955 7.91294 19.0753 7.91294H18.2457V7.26648H19.0753C19.8511 7.26648 20.4867 7.90217 20.4867 8.67792C20.4867 9.43213 19.8942 10.0463 19.1507 10.0894L20.4221 11.8133L19.9049 12.2011Z" fill="#636363"/>
<path d="M8.77539 10.9729H11.4798C11.8353 10.9729 12.1262 10.682 12.1262 10.3264V2.7197C12.1262 2.36415 11.8353 2.07324 11.4798 2.07324H9.42185C9.0663 2.07324 8.77539 2.36415 8.77539 2.7197V10.9729Z" fill="white"/>
<path d="M11.4905 11.2961H8.46289V2.71969C8.46289 2.18097 8.89387 1.75 9.43258 1.75H11.4905C12.0292 1.75 12.4602 2.18097 12.4602 2.71969V10.3264C12.4602 10.8651 12.0184 11.2961 11.4905 11.2961ZM9.09858 10.6496H11.4797C11.6629 10.6496 11.8029 10.5096 11.8029 10.3264V2.71969C11.8029 2.53653 11.6629 2.39646 11.4797 2.39646H9.42181C9.23865 2.39646 9.09858 2.53653 9.09858 2.71969V10.6496V10.6496Z" fill="#666666"/>
<path d="M5.42383 10.9728H8.77466V5.03613H6.07029C5.71474 5.03613 5.42383 5.32704 5.42383 5.6826V10.9728V10.9728Z" fill="white"/>
<path d="M9.09885 11.296H5.10156V5.68258C5.10156 5.14387 5.53254 4.71289 6.07126 4.71289H9.09885V11.296V11.296ZM5.74802 10.6496H8.45239V5.35935H6.07126C5.88809 5.35935 5.74802 5.49942 5.74802 5.68258V10.6496V10.6496Z" fill="#666666"/>
<path d="M2.71873 10.9728H5.42309V8.00989H2.71873C2.36317 8.00989 2.07227 8.3008 2.07227 8.65635V10.3264C2.07227 10.6819 2.36317 10.9728 2.71873 10.9728Z" fill="white"/>
<path d="M5.74729 11.2961H2.71969C2.18097 11.2961 1.75 10.8651 1.75 10.3264V8.65634C1.75 8.11762 2.18097 7.68665 2.71969 7.68665H5.74729V11.2961ZM2.71969 8.32233C2.53653 8.32233 2.39646 8.4624 2.39646 8.64556V10.3156C2.39646 10.4988 2.53653 10.6388 2.71969 10.6388H5.10083V8.31156H2.71969V8.32233Z" fill="#666666"/>
<path d="M12.1363 2.7197V10.3264C12.1363 10.682 11.8454 10.9729 11.4898 10.9729H10.3262C10.6817 10.9729 10.9726 10.682 10.9726 10.3264V2.7197C10.9726 2.36415 10.6817 2.07324 10.3262 2.07324H11.4898C11.8454 2.07324 12.1363 2.36415 12.1363 2.7197Z" fill="#62E2BB"/>
<path d="M8.78573 5.03613H7.61133V10.9728H8.78573V5.03613Z" fill="#62E2BB"/>
<path d="M5.43417 8.00989H4.25977V10.9728H5.43417V8.00989Z" fill="#62E2BB"/>
<path d="M11.4905 11.2961H8.46289V2.71969C8.46289 2.18097 8.89387 1.75 9.43258 1.75H11.4905C12.0292 1.75 12.4602 2.18097 12.4602 2.71969V10.3264C12.4602 10.8651 12.0184 11.2961 11.4905 11.2961ZM9.09858 10.6496H11.4797C11.6629 10.6496 11.8029 10.5096 11.8029 10.3264V2.71969C11.8029 2.53653 11.6629 2.39646 11.4797 2.39646H9.42181C9.23865 2.39646 9.09858 2.53653 9.09858 2.71969V10.6496V10.6496Z" fill="#666666"/>
<path d="M9.09885 11.296H5.10156V5.68258C5.10156 5.14387 5.53254 4.71289 6.07126 4.71289H9.09885V11.296V11.296ZM5.74802 10.6496H8.45239V5.35935H6.07126C5.88809 5.35935 5.74802 5.49942 5.74802 5.68258V10.6496V10.6496Z" fill="#666666"/>
<path d="M5.74729 11.2961H2.71969C2.18097 11.2961 1.75 10.8651 1.75 10.3264V8.65634C1.75 8.11762 2.18097 7.68665 2.71969 7.68665H5.74729V11.2961ZM2.71969 8.32233C2.53653 8.32233 2.39646 8.4624 2.39646 8.64556V10.3156C2.39646 10.4988 2.53653 10.6388 2.71969 10.6388H5.10083V8.31156H2.71969V8.32233Z" fill="#666666"/>
</g>
<defs>
<clipPath id="clip0_10491_172370">
<rect width="28" height="28" fill="white"/>
</clipPath>
</defs>
</svg>
