<svg width="28" height="28" viewBox="0 0 28 28" fill="none" xmlns="http://www.w3.org/2000/svg">
<path d="M13.9914 25.48C17.35 25.48 20.0727 22.7573 20.0727 19.3988C20.0727 16.0402 17.35 13.3175 13.9914 13.3175C10.6328 13.3175 7.91016 16.0402 7.91016 19.3988C7.91016 22.7573 10.6328 25.48 13.9914 25.48Z" fill="white"/>
<path d="M20.0721 19.39C20.0606 21.0068 19.4102 22.5535 18.2627 23.6928C17.1153 24.832 15.564 25.4713 13.9471 25.4712C13.4938 25.4712 13.042 25.4213 12.5996 25.3225C13.9123 24.9814 15.0746 24.2142 15.9043 23.1414C16.734 22.0685 17.1842 20.7506 17.1842 19.3944C17.1842 18.0381 16.734 16.7202 15.9043 15.6473C15.0746 14.5745 13.9123 13.8073 12.5996 13.4662C13.0591 13.3635 13.5288 13.3135 13.9996 13.3175C15.6059 13.3312 17.1425 13.9754 18.2784 15.1112C19.4142 16.2471 20.0584 17.7837 20.0721 19.39V19.39Z" fill="#62E2BB"/>
<path d="M15.6977 17.045H12.2852V17.5088H15.6977V17.045Z" fill="#636363"/>
<path d="M15.6977 18.4187H12.2852V18.8825H15.6977V18.4187Z" fill="#636363"/>
<path d="M14.4812 22.8813L12.425 20.1075C12.4058 20.0711 12.3958 20.0306 12.3958 19.9894C12.3958 19.9483 12.4058 19.9077 12.425 19.8713C12.4444 19.834 12.4732 19.8023 12.5084 19.7793C12.5437 19.7563 12.5843 19.7428 12.6263 19.74H13.335C13.4898 19.7538 13.6458 19.7351 13.793 19.6853C13.9402 19.6355 14.0754 19.5555 14.1901 19.4506C14.3047 19.3457 14.3963 19.218 14.4589 19.0758C14.5216 18.9335 14.5539 18.7798 14.5539 18.6244C14.5539 18.469 14.5216 18.3153 14.4589 18.173C14.3963 18.0308 14.3047 17.9032 14.1901 17.7982C14.0754 17.6933 13.9402 17.6134 13.793 17.5635C13.6458 17.5137 13.4898 17.4951 13.335 17.5088H12.25V17.0713H13.2825C13.6811 17.101 14.0537 17.2803 14.3256 17.5732C14.5975 17.8661 14.7486 18.251 14.7486 18.6507C14.7486 19.0503 14.5975 19.4352 14.3256 19.7282C14.0537 20.0211 13.6811 20.2004 13.2825 20.23H13.0375L14.7875 22.6363L14.4812 22.8813Z" fill="#636363"/>
<path d="M7.66578 11.1562C8.51824 11.9072 9.56869 12.3973 10.6919 12.5679C11.8151 12.7386 12.9637 12.5826 14.0008 12.1187C14.319 11.0294 14.319 9.87175 14.0008 8.7824C13.6827 7.69306 13.0596 6.71742 12.2051 5.97057C11.3507 5.22372 10.3004 4.73681 9.17832 4.56726C8.0562 4.39772 6.909 4.55263 5.87203 5.0137C5.55695 6.10221 5.55831 7.25794 5.87597 8.34571C6.19362 9.43347 6.81443 10.4083 7.66578 11.1562V11.1562Z" fill="white"/>
<path d="M14.1571 10.5175H13.6934V13.6412H14.1571V10.5175Z" fill="#636363"/>
<path d="M14.0004 12.1187C13.0677 12.526 12.0465 12.688 11.0336 12.5894C10.0207 12.4907 9.0499 12.1347 8.2134 11.5551C7.3769 10.9755 6.70252 10.1917 6.25436 9.27799C5.80619 8.36431 5.59913 7.35121 5.65285 6.33496C5.88928 7.15012 6.29688 7.90547 6.84844 8.55059C7.4 9.1957 8.08283 9.71574 8.85134 10.076C9.61986 10.4362 10.4564 10.6284 11.3051 10.6396C12.1537 10.6509 12.9951 10.481 13.7729 10.1412C13.9009 9.70243 13.9772 9.2502 14.0004 8.79371C14.3069 9.88084 14.3069 11.0316 14.0004 12.1187V12.1187Z" fill="#62E2BB"/>
<path d="M13.4833 12.0312L10.3945 8.995L13.7895 11.69L13.4833 12.0312Z" fill="#636363"/>
<path d="M8.2518 4.96125C9.08712 4.96035 9.91165 5.14991 10.6627 5.51551C11.4138 5.88111 12.0716 6.41313 12.5862 7.07113C13.1008 7.72912 13.4586 8.49578 13.6324 9.31282C13.8062 10.1299 13.7915 10.9758 13.5893 11.7862C12.9519 12.0406 12.2718 12.1712 11.5855 12.1713C10.7504 12.1697 9.92653 11.9788 9.17588 11.6128C8.42523 11.2467 7.76739 10.7152 7.25188 10.0582C6.73637 9.40118 6.37662 8.63577 6.19971 7.8196C6.0228 7.00343 6.03335 6.15776 6.23055 5.34625C6.87405 5.09179 7.55982 4.96117 8.2518 4.96125V4.96125ZM8.2518 4.50625C7.42291 4.50392 6.6029 4.67687 5.84555 5.01375C5.5926 5.90231 5.54911 6.8374 5.71847 7.7456C5.88784 8.6538 6.26546 9.51037 6.82167 10.248C7.37788 10.9857 8.09754 11.5843 8.92412 11.997C9.7507 12.4096 10.6617 12.625 11.5855 12.6262C12.4175 12.6314 13.241 12.4584 14.0005 12.1187C14.2588 11.2314 14.3068 10.296 14.1406 9.38686C13.9745 8.47771 13.5989 7.61975 13.0436 6.881C12.4883 6.14225 11.7685 5.54302 10.9413 5.13082C10.1141 4.71862 9.20225 4.50478 8.27805 4.50625H8.2518Z" fill="#636363"/>
<path d="M14.3242 10.78L18.0517 7.69128L14.6305 11.1213L14.3242 10.78Z" fill="#636363"/>
<path d="M20.5271 2.51998V2.98374C21.3021 2.98095 22.0708 3.1234 22.7934 3.40373C23.0436 4.34397 23.0749 5.32909 22.8847 6.28331C22.6946 7.23752 22.288 8.1354 21.6964 8.90786C21.1048 9.68032 20.3439 10.3068 19.4722 10.739C18.6006 11.1713 17.6413 11.3978 16.6684 11.4012C15.8823 11.3962 15.1043 11.2418 14.3759 10.9462C14.1256 10.006 14.0943 9.02088 14.2845 8.06666C14.4747 7.11245 14.8812 6.21457 15.4728 5.44211C16.0644 4.66965 16.8253 4.04319 17.697 3.61093C18.5687 3.17867 19.5279 2.95213 20.5009 2.94873V2.48499L20.5271 2.51998ZM20.5009 2.48499C19.4347 2.49 18.3845 2.74439 17.4343 3.22783C16.484 3.71127 15.66 4.41035 15.0283 5.26916C14.3965 6.12797 13.9744 7.12269 13.7958 8.17379C13.6172 9.22488 13.687 10.3032 13.9996 11.3225C14.8325 11.6623 15.7251 11.8319 16.6246 11.8212C17.6844 11.8194 18.7292 11.5708 19.6763 11.0952C20.6233 10.6195 21.4466 9.9298 22.0808 9.08074C22.7151 8.23168 23.1429 7.24658 23.3303 6.2035C23.5178 5.16041 23.4598 4.088 23.1609 3.07123C22.331 2.71664 21.4383 2.53217 20.5359 2.52873L20.5009 2.48499Z" fill="#636363"/>
<path d="M21.2109 10.0713C20.2525 10.9437 19.0651 11.5249 17.7881 11.7465C16.5111 11.9681 15.1973 11.821 14.0009 11.3225C13.8951 10.9767 13.819 10.6225 13.7734 10.2638C14.8473 10.5037 15.9633 10.4804 17.0262 10.1959C18.0891 9.9114 19.0675 9.37412 19.8779 8.62985C20.6884 7.88559 21.3069 6.9564 21.6807 5.92149C22.0544 4.88659 22.1725 3.77665 22.0247 2.68628C22.4237 2.77449 22.8133 2.90048 23.1884 3.06253C23.5531 4.29838 23.561 5.61215 23.2111 6.85226C22.8612 8.09237 22.1678 9.20829 21.2109 10.0713V10.0713Z" fill="#62E2BB"/>
<path d="M21.2115 10.1074C23.7473 7.82492 24.6288 4.67017 23.1805 3.06104C21.7321 1.45191 18.5023 1.99775 15.9665 4.28021C13.4307 6.56267 12.5491 9.71742 13.9975 11.3265C15.4458 12.9357 18.6757 12.3898 21.2115 10.1074Z" fill="white"/>
<path d="M21.2109 10.0713C20.2525 10.9437 19.0651 11.5249 17.7881 11.7465C16.5111 11.9681 15.1973 11.821 14.0009 11.3225C13.8951 10.9767 13.819 10.6225 13.7734 10.2638C14.8473 10.5037 15.9633 10.4804 17.0262 10.1959C18.0891 9.9114 19.0675 9.37412 19.8779 8.62985C20.6884 7.88559 21.3069 6.9564 21.6807 5.92149C22.0544 4.88659 22.1725 3.77665 22.0247 2.68628C22.4237 2.77449 22.8133 2.90048 23.1884 3.06253C23.5531 4.29838 23.561 5.61215 23.2111 6.85226C22.8612 8.09237 22.1678 9.20829 21.2109 10.0713V10.0713Z" fill="#62E2BB"/>
<path d="M20.5271 2.51998V2.98374C21.3021 2.98095 22.0708 3.1234 22.7934 3.40373C23.0436 4.34397 23.0749 5.32909 22.8847 6.28331C22.6946 7.23752 22.288 8.1354 21.6964 8.90786C21.1048 9.68032 20.3439 10.3068 19.4722 10.739C18.6006 11.1713 17.6413 11.3978 16.6684 11.4012C15.8823 11.3962 15.1043 11.2418 14.3759 10.9462C14.1256 10.006 14.0943 9.02088 14.2845 8.06666C14.4747 7.11245 14.8812 6.21457 15.4728 5.44211C16.0644 4.66965 16.8253 4.04319 17.697 3.61093C18.5687 3.17867 19.5279 2.95213 20.5009 2.94873V2.48499L20.5271 2.51998ZM20.5009 2.48499C19.4347 2.49 18.3845 2.74439 17.4343 3.22783C16.484 3.71127 15.66 4.41035 15.0283 5.26916C14.3965 6.12797 13.9744 7.12269 13.7958 8.17379C13.6172 9.22488 13.687 10.3032 13.9996 11.3225C14.8325 11.6623 15.7251 11.8319 16.6246 11.8212C17.6844 11.8194 18.7292 11.5708 19.6763 11.0952C20.6233 10.6195 21.4466 9.9298 22.0808 9.08074C22.7151 8.23168 23.1429 7.24658 23.3303 6.2035C23.5178 5.16041 23.4598 4.088 23.1609 3.07123C22.331 2.71664 21.4383 2.53217 20.5359 2.52873L20.5009 2.48499Z" fill="#636363"/>
<path d="M14.0527 11.025L18.0515 7.69128L14.359 11.3663L14.0527 11.025Z" fill="#636363"/>
<path d="M24.1317 24.92H22.793V25.3838H24.1317V24.92Z" fill="#636363"/>
<path d="M21.4376 24.92H5.92383V25.3838H21.4376V24.92Z" fill="#636363"/>
<path d="M5.24188 24.92H3.85938V25.3838H5.24188V24.92Z" fill="#636363"/>
<path d="M14.0004 13.7725C15.1139 13.7708 16.2029 14.0995 17.1295 14.7171C18.056 15.3346 18.7785 16.2132 19.2054 17.2416C19.6324 18.2701 19.7445 19.402 19.5277 20.4942C19.3109 21.5864 18.7749 22.5897 17.9875 23.3771C17.2001 24.1645 16.1968 24.7005 15.1046 24.9173C14.0124 25.1341 12.8804 25.022 11.852 24.5951C10.8236 24.1681 9.94499 23.4456 9.32743 22.5191C8.70988 21.5925 8.38116 20.5035 8.38289 19.39C8.3875 17.9016 8.98083 16.4754 10.0333 15.4229C11.0858 14.3704 12.512 13.7771 14.0004 13.7725V13.7725ZM14.0004 13.3175C12.7992 13.3261 11.6274 13.6904 10.6329 14.3642C9.63845 15.038 8.86583 15.9913 8.41251 17.1037C7.9592 18.2162 7.84551 19.438 8.08578 20.615C8.32606 21.7919 8.90953 22.8714 9.7626 23.7172C10.6157 24.5629 11.7001 25.1371 12.8791 25.3672C14.0581 25.5973 15.2789 25.4731 16.3874 25.0103C17.4959 24.5474 18.4425 23.7666 19.1077 22.7664C19.773 21.7661 20.1271 20.5913 20.1254 19.39C20.1115 17.7747 19.4601 16.2302 18.313 15.0929C17.1658 13.9555 15.6158 13.3174 14.0004 13.3175V13.3175Z" fill="#636363"/>
</svg>
