<svg width="40" height="40" viewBox="0 0 40 40" fill="none" xmlns="http://www.w3.org/2000/svg">
<path d="M22.3592 17.1069C18.7979 17.1069 15.8987 14.2092 15.8987 10.6465C15.8987 7.08521 18.7979 4.1875 22.3592 4.1875C25.9189 4.1875 28.8181 7.08521 28.8181 10.6465C28.8181 14.2092 25.919 17.1069 22.3592 17.1069Z" fill="white"/>
<path d="M28.4223 25.4542C28.0198 25.4542 27.629 25.3127 27.3227 25.0561L26.8036 24.6186C26.2567 24.1592 25.5932 23.9171 24.8815 23.9171C24.794 23.9171 24.7036 23.9215 24.6161 23.9288L17.0532 24.5894C16.9088 24.6025 16.7673 24.6083 16.6244 24.6083C14.5696 24.6083 12.7205 23.3075 12.0248 21.3723L8.03774 10.2861C7.88316 9.85877 7.90649 9.39502 8.09899 8.9823C8.29296 8.57105 8.63712 8.25897 9.06587 8.10584C9.25108 8.03875 9.44503 8.00375 9.64337 8.00375C10.3594 8.00375 11.004 8.45729 11.2461 9.1325L15.2332 20.2188C15.4446 20.805 16.0032 21.2002 16.6273 21.2002L24.3186 20.5323C24.5067 20.5148 24.6963 20.5075 24.8844 20.5075C26.3836 20.5075 27.8419 21.0413 28.994 22.0081L29.5146 22.4456C30.2336 23.0494 30.3298 24.1256 29.7261 24.8446C29.4315 25.1946 29.0217 25.409 28.5696 25.4484C28.5565 25.4498 28.4355 25.4542 28.4223 25.4542" fill="white"/>
<path d="M29.3951 24.5656C29.1603 24.8281 28.857 24.9783 28.5259 25.0075C28.2095 25.0337 27.8784 24.9521 27.6028 24.7173L27.0778 24.29C26.388 23.6964 25.4911 23.4062 24.5811 23.4894L17.0095 24.1514C15.0086 24.3308 13.1201 23.1321 12.4434 21.2275L8.44323 10.1369C8.30469 9.76645 8.3601 9.3654 8.55407 9.04749L12.4434 19.8202C13.1201 21.7248 15.0087 22.9235 17.0095 22.7442L24.5811 22.0835C25.4911 22.0135 26.388 22.2892 27.0778 22.8827L27.6028 23.3231C27.8784 23.5448 28.2095 23.641 28.5259 23.6148C28.857 23.5856 29.1603 23.4354 29.3951 23.1583C29.4228 23.1321 29.4505 23.0898 29.4636 23.0621C29.7815 23.5025 29.7538 24.1237 29.3951 24.5656" fill="#62E2BB"/>
<path d="M13.8925 30.5089L16.6517 23.6125L13.8925 30.5089Z" fill="white"/>
<path fill-rule="evenodd" clip-rule="evenodd" d="M22.3587 3.75C18.5562 3.75 15.4625 6.84375 15.4625 10.6463C15.4625 14.4499 18.5562 17.5448 22.3587 17.5448C26.1612 17.5448 29.255 14.4499 29.255 10.6463C29.255 6.84375 26.1612 3.75 22.3587 3.75ZM12.8896 34.1081C10.6126 33.2644 8.90149 32.037 7.94186 30.5587C7.63136 30.0784 7.52561 29.5046 7.64374 28.9455C7.76411 28.3864 8.09486 27.9071 8.57411 27.5955C8.92399 27.3705 9.32674 27.2512 9.73961 27.2512C10.4697 27.2512 11.1414 27.6169 11.5362 28.2289C11.9508 28.8681 12.8875 29.5043 14.1267 29.9957L16.1171 25.0216C14.085 24.8253 12.3131 23.4675 11.6139 21.5205L7.62574 10.4347C7.22749 9.321 7.80686 8.09137 8.91724 7.69425C9.15124 7.60987 9.39536 7.56712 9.64286 7.56712C10.5429 7.56712 11.3529 8.13637 11.6577 8.98462L15.6447 20.0726C15.7932 20.4855 16.1881 20.7634 16.6269 20.7634C16.6617 20.7634 16.6899 20.7611 16.718 20.7589L24.2802 20.0974C24.4827 20.0794 24.6875 20.0704 24.8866 20.0704C26.4864 20.0704 28.0456 20.6385 29.2764 21.6724L29.7961 22.11C30.2337 22.4767 30.5015 22.9931 30.5521 23.5635C30.6016 24.1339 30.4272 24.6896 30.0605 25.1272C29.6937 25.5637 29.1774 25.8337 28.607 25.8855L28.5586 25.8866C28.5125 25.8889 28.4652 25.8911 28.4202 25.8911C27.9174 25.8911 27.428 25.7134 27.0432 25.3905L26.5212 24.9529C26.0555 24.5614 25.4885 24.3555 24.8821 24.3555C24.8067 24.3555 24.7302 24.3589 24.6549 24.3656L24.0546 24.418L26.2518 29.911C27.3881 29.4321 28.2441 28.831 28.6362 28.2289C29.0311 27.6169 29.7027 27.2513 30.4329 27.2513C30.8469 27.2513 31.2496 27.3705 31.5984 27.5955C32.5895 28.2401 32.873 29.5688 32.2295 30.5588C31.2732 32.037 29.5621 33.2644 27.2829 34.1081C25.1701 34.8923 22.6816 35.3074 20.0862 35.3074C17.4909 35.3074 15.0024 34.8923 12.8896 34.1081ZM9.04886 28.3301C8.46386 28.7104 8.29736 29.4967 8.67649 30.0817C9.52924 31.3991 11.0907 32.5084 13.1922 33.2891C15.2139 34.0373 17.5977 34.4333 20.0862 34.4333C22.577 34.4333 24.9597 34.0373 26.9791 33.2891C29.0795 32.5095 30.6421 31.4002 31.496 30.0817C31.8762 29.4967 31.7075 28.7104 31.1214 28.3301C30.9177 28.1974 30.6792 28.1276 30.4329 28.1276C30.0009 28.1276 29.6037 28.3425 29.3697 28.7036C28.8794 29.4608 27.8979 30.1683 26.577 30.7239L26.7125 31.0627L25.9002 31.3879L25.7585 31.0336C24.0874 31.6013 22.1361 31.9009 20.0862 31.9009C18.1233 31.9009 16.2492 31.6259 14.6257 31.1036L14.2981 31.9223L13.4859 31.5971L13.8016 30.8082C12.3776 30.2408 11.3182 29.4996 10.8027 28.7036C10.5665 28.3425 10.1694 28.1265 9.73961 28.1265C9.49661 28.1265 9.25811 28.1974 9.04886 28.3301ZM25.4328 30.2193C23.8655 30.7464 22.0267 31.0245 20.0862 31.0245C18.2348 31.0245 16.4734 30.7708 14.9518 30.2887L17.0566 25.0288L17.0915 25.026L23.1441 24.4975L25.4328 30.2193ZM27.0837 24.2835L27.6046 24.7211C27.8319 24.9112 28.1221 25.017 28.4202 25.017C28.4562 25.017 28.4945 25.0159 28.5305 25.0136C28.8691 24.9821 29.174 24.8224 29.39 24.5636C29.6071 24.3049 29.7117 23.9775 29.6825 23.64C29.6521 23.3025 29.4935 22.9976 29.2347 22.7805L28.7127 22.3429C27.6395 21.4417 26.2805 20.9456 24.8866 20.9456C24.7167 20.9456 24.5379 20.9524 24.3567 20.9681L16.7945 21.6307H16.7877L16.7813 21.6311H16.7813C16.7285 21.6344 16.6777 21.6375 16.6269 21.6375C15.8202 21.6375 15.0946 21.1267 14.8224 20.3674L10.8342 9.2805C10.6531 8.77875 10.175 8.44238 9.64286 8.44238C9.49549 8.44238 9.35149 8.46713 9.21424 8.51663C8.89474 8.63025 8.64049 8.862 8.49649 9.16913C8.35249 9.47625 8.33674 9.81938 8.45149 10.1378L12.4362 21.2246C13.0696 22.9875 14.7537 24.1721 16.6269 24.1721C16.7484 24.1721 16.8755 24.1654 17.0161 24.1541L24.5772 23.4937C24.6774 23.4836 24.7775 23.4791 24.8821 23.4791C25.6955 23.4791 26.4571 23.757 27.0837 24.2835ZM16.3377 10.6462C16.3377 13.9672 19.0389 16.6684 22.3587 16.6684C25.6786 16.6684 28.3809 13.9672 28.3809 10.6462C28.3809 7.32637 25.6786 4.62637 22.3587 4.62637C19.0389 4.62637 16.3377 7.32637 16.3377 10.6462ZM20.6679 10.6147C20.3686 10.6778 20.2156 11.04 20.4102 11.3032L22.7829 14.505L23.486 13.9841L21.6286 11.4765L21.7591 11.472C22.6209 11.3932 23.324 10.7666 23.5197 9.94425H24.3297V9.069H23.5299C23.4759 8.8125 23.3712 8.574 23.2284 8.36363H24.3297V7.48837H20.3877H20.3866V8.36363H21.5769L21.7175 8.37262C22.1281 8.42325 22.4701 8.69775 22.6186 9.069H20.3877V9.94425H22.5984C22.4229 10.3335 22.0314 10.6046 21.5769 10.6046H20.7624L20.6679 10.6147Z" fill="#636363"/>
<path d="M20.0851 34.871C17.5447 34.871 15.1078 34.4671 13.0399 33.6985C10.8524 32.8892 9.21616 31.721 8.30907 30.321C7.7972 29.5321 8.02324 28.4748 8.8122 27.9644C9.08929 27.785 9.41011 27.6888 9.73824 27.6888C10.3186 27.6888 10.8524 27.979 11.1703 28.4646C11.6676 29.2346 12.7526 29.9579 14.2255 30.5033C15.9187 31.1319 17.9443 31.4629 20.0851 31.4629C22.2274 31.4629 24.253 31.1319 25.9462 30.5033C27.4191 29.9579 28.5041 29.2346 29.0014 28.4661C29.3178 27.979 29.8516 27.6902 30.4335 27.6902C30.7616 27.6902 31.0824 27.785 31.3581 27.9644C31.7401 28.2123 32.0041 28.5915 32.0989 29.0377C32.1951 29.4825 32.1105 29.939 31.8626 30.3211C30.9556 31.7211 29.3193 32.8892 27.1318 33.6985C25.0639 34.4671 22.627 34.871 20.0851 34.871" fill="white"/>
<path fill-rule="evenodd" clip-rule="evenodd" d="M12.8903 34.1081C15.0023 34.8927 17.4909 35.3074 20.0869 35.3074C22.6819 35.3074 25.1705 34.8927 27.2836 34.1081C29.5626 33.2645 31.2732 32.0371 32.2302 30.5588C32.8729 29.5688 32.5898 28.2395 31.5991 27.5955C31.25 27.3703 30.847 27.2513 30.4336 27.2513C29.7036 27.2513 29.0319 27.6167 28.6369 28.2289C28.1936 28.9097 27.1574 29.5888 25.7941 30.0919C24.1517 30.702 22.1782 31.0245 20.0869 31.0245C17.9972 31.0245 16.0233 30.702 14.3787 30.0919C13.0152 29.5891 11.9794 28.9101 11.5369 28.2289C11.1416 27.6167 10.4699 27.2513 9.74031 27.2513C9.32691 27.2513 8.9239 27.3703 8.57481 27.5955C8.09531 27.9066 7.7649 28.386 7.64444 28.9455C7.52651 29.5048 7.63239 30.0778 7.94256 30.5588C8.90198 32.0373 10.6129 33.2646 12.8903 34.1081ZM9.04956 28.3301C9.25811 28.1969 9.49698 28.1265 9.74031 28.1265C10.1698 28.1265 10.5672 28.3422 10.8034 28.7036C11.3511 29.5493 12.513 30.334 14.0749 30.9131C15.8184 31.5593 17.8974 31.9009 20.0869 31.9009C22.2765 31.9009 24.3554 31.5593 26.0989 30.9131C27.6609 30.334 28.8228 29.5493 29.3704 28.7036C29.604 28.3429 30.0014 28.1276 30.4336 28.1276C30.6799 28.1276 30.9179 28.1976 31.1221 28.3301C31.7083 28.7108 31.8763 29.4966 31.4967 30.0817C30.6424 31.4003 29.0805 32.5094 26.9798 33.2891C24.9606 34.0376 22.577 34.4333 20.0869 34.4333C17.5984 34.4333 15.2145 34.0376 13.1929 33.2891C11.0911 32.5081 9.52953 31.399 8.67719 30.0817C8.29753 29.4965 8.46458 28.7108 9.04956 28.3301Z" fill="#636363"/>
<path d="M31.4916 30.0806C30.637 31.4048 29.0781 32.5073 26.981 33.2933C24.967 34.0385 22.5827 34.4381 20.086 34.4381C17.5879 34.4381 15.2166 34.0385 13.1881 33.2933C11.5197 32.6735 10.1825 31.8321 9.29871 30.8521C9.98849 31.3231 10.8008 31.7212 11.7122 32.0537C13.7393 32.7975 16.112 33.1985 18.6087 33.1985C21.1054 33.1985 23.4781 32.7975 25.5066 32.0537C27.6022 31.2793 29.1597 30.1637 30.0158 28.8527C30.1543 28.6325 30.2229 28.4108 30.2229 28.1643C30.5131 28.0943 30.8441 28.1498 31.1197 28.3291C31.7118 28.7141 31.8781 29.5016 31.4916 30.0806Z" fill="#62E2BB"/>
<path d="M29.2546 10.6527C29.2546 14.459 26.1658 17.5492 22.3581 17.5492C18.7852 17.5492 15.8481 14.8308 15.5025 11.3556C15.8481 14.1979 18.2763 16.4029 21.2133 16.4029C24.3852 16.4029 26.9665 13.8246 26.9665 10.6527C26.9665 7.46479 24.3852 4.90104 21.2133 4.90104C18.2763 4.90104 15.8481 7.09438 15.5025 9.94979C15.8481 6.45854 18.7852 3.75626 22.3581 3.75626C26.1658 3.75626 29.2546 6.83188 29.2546 10.6527" fill="#62E2BB"/>
<path fill-rule="evenodd" clip-rule="evenodd" d="M15.4625 10.6463C15.4625 14.4501 18.5561 17.5448 22.3587 17.5448C26.1613 17.5448 29.255 14.4501 29.255 10.6463C29.255 6.84365 26.1613 3.75 22.3587 3.75C18.5561 3.75 15.4625 6.84365 15.4625 10.6463ZM16.3377 10.6462C16.3377 7.32687 19.0387 4.62637 22.3587 4.62637C25.6793 4.62637 28.3808 7.32687 28.3808 10.6462C28.3808 13.9669 25.6793 16.6684 22.3587 16.6684C19.0387 16.6684 16.3377 13.9669 16.3377 10.6462Z" fill="#636363"/>
</svg>
