<svg width="14" height="14" viewBox="0 0 14 14" fill="none" xmlns="http://www.w3.org/2000/svg">
<path fill-rule="evenodd" clip-rule="evenodd" d="M6.16174 13.3384L5.30138 12.55C5.22815 12.4821 5.13342 12.4455 5.03495 12.4455C5.01037 12.4455 4.98465 12.4479 4.95991 12.4528L3.79536 12.61H3.61844C3.04601 12.5967 2.55642 12.1971 2.42801 11.6403L2.21316 10.528C2.19705 10.4098 2.12023 10.3084 2.01036 10.2616L0.959745 9.72933C0.408311 9.43538 0.180938 8.76269 0.440705 8.19401L0.959745 7.1416C1.0102 7.0306 1.0102 6.90267 0.959745 6.79118L0.440705 5.77588C0.186311 5.21013 0.413198 4.54297 0.959745 4.24951L2.0115 3.72038C2.12316 3.67529 2.20063 3.57341 2.21382 3.45459L2.42801 2.34213C2.5714 1.77751 3.07954 1.39242 3.64953 1.39242C3.69706 1.39242 3.74621 1.3947 3.79536 1.40072L4.95992 1.55795C4.97684 1.55974 4.99426 1.56087 5.01217 1.56087C5.11844 1.56087 5.22164 1.52132 5.30139 1.44873L6.16175 0.660319C6.39759 0.442545 6.69755 0.333332 6.99703 0.333332C7.29765 0.333332 7.59696 0.442545 7.83346 0.660319L8.69316 1.44873C8.77356 1.52133 8.87675 1.56087 8.98303 1.56087C9.00045 1.56087 9.01835 1.55973 9.03576 1.55795L10.1998 1.40072C10.2496 1.3947 10.2976 1.39242 10.3461 1.39242C10.9156 1.39242 11.4226 1.77637 11.5665 2.33969L11.782 3.45215C11.7959 3.57097 11.8732 3.67302 11.9848 3.71794L13.0348 4.23812C13.5869 4.53223 13.8142 5.20541 13.5543 5.7736L13.0348 6.80436C12.985 6.91601 12.985 7.04313 13.0348 7.15478L13.5543 8.19401C13.8232 8.76627 13.5945 9.44921 13.0348 9.7443L11.9848 10.2759C11.875 10.3227 11.7981 10.4241 11.7825 10.5423L11.5665 11.6548C11.4292 12.2254 10.9186 12.6177 10.3432 12.6177C10.2959 12.6177 10.2483 12.6154 10.1998 12.61L9.03576 12.4528C9.01054 12.4479 8.98482 12.4455 8.96025 12.4455C8.86177 12.4455 8.76705 12.4821 8.69316 12.55L7.83346 13.3384C7.60006 13.5628 7.29814 13.675 6.99703 13.675C6.69641 13.675 6.39515 13.5628 6.16174 13.3384ZM5.91938 11.8833L6.77616 12.667C6.86437 12.7516 6.94364 12.766 6.99703 12.766C7.05155 12.766 7.13081 12.7516 7.20161 12.6838L8.08003 11.8791C8.31701 11.6595 8.63081 11.5366 8.96024 11.5366C9.03218 11.5366 9.10477 11.5425 9.17622 11.5539L10.3216 11.7088H10.3222H10.3432C10.5004 11.7088 10.6365 11.605 10.6792 11.4544L10.8868 10.3864C10.9528 9.98129 11.2192 9.62973 11.5906 9.45639L12.6245 8.93311C12.7413 8.87143 12.7942 8.7142 12.7317 8.58155L12.2211 7.56088L12.2177 7.55331C12.2135 7.54392 12.2093 7.53454 12.205 7.52556C12.0496 7.17823 12.0496 6.77979 12.205 6.43295C12.2104 6.42041 12.2164 6.40772 12.2229 6.39519L12.7317 5.38542C12.7846 5.2557 12.7317 5.10694 12.6075 5.04102L11.6027 4.54297C11.2185 4.37143 10.948 4.01677 10.8844 3.60157L10.6809 2.54802C10.6347 2.40153 10.5004 2.30127 10.3461 2.30127C10.333 2.30127 10.3191 2.30193 10.3054 2.30371L9.15701 2.4585C9.09158 2.46697 9.03754 2.46989 8.98301 2.46989C8.64821 2.46989 8.32774 2.34571 8.08116 2.12012L7.21902 1.33122C7.1391 1.25733 7.05463 1.24235 6.99701 1.24235C6.94004 1.24235 6.8559 1.25733 6.77973 1.32813L5.91514 2.11898C5.66743 2.34571 5.3463 2.46989 5.01215 2.46989C4.95762 2.46989 4.90359 2.46697 4.84891 2.46029L3.67361 2.30127L3.67296 2.30193L3.64952 2.30127C3.49473 2.30127 3.36029 2.40219 3.31472 2.54802L3.11192 3.60336C3.04844 4.01742 2.77956 4.37143 2.39805 4.54363L1.36892 5.06202C1.26817 5.11589 1.21544 5.26173 1.26459 5.38949L1.7698 6.37713C1.77696 6.39161 1.78363 6.40593 1.79014 6.42042C1.94558 6.7671 1.94558 7.16554 1.79014 7.51303L1.77582 7.54363L1.25678 8.59604C1.20763 8.7033 1.26036 8.85873 1.38764 8.92709L2.40392 9.44141C2.77599 9.61541 3.04178 9.96631 3.10834 10.3714L3.31716 11.4466C3.35558 11.5936 3.48644 11.6974 3.63943 11.701H3.7335L4.81831 11.5539C4.8904 11.5425 4.963 11.5366 5.03494 11.5366C5.36437 11.5366 5.67816 11.6595 5.91938 11.8833L5.91938 11.8833ZM9.31294 3.98258L3.9796 9.31542L4.68696 10.0228L10.0205 4.68929L9.31294 3.98258ZM7.90474 8.92057C7.90474 8.36914 8.35184 7.9222 8.90376 7.9222C9.4552 7.9222 9.90214 8.36914 9.90214 8.92057C9.90214 9.47201 9.4552 9.9196 8.90376 9.9196C8.35184 9.9196 7.90474 9.47201 7.90474 8.92057ZM5.18746 4.20572C4.63602 4.20572 4.18843 4.65267 4.18843 5.2041C4.18843 5.75619 4.63602 6.20247 5.18746 6.20247C5.73873 6.20247 6.18583 5.75619 6.18583 5.2041C6.18583 4.65267 5.73872 4.20572 5.18746 4.20572Z" fill="#00B852"/>
<path d="M5.30138 12.55L4.96152 12.9167L4.96358 12.9186L5.30138 12.55ZM6.16174 13.3384L6.50841 12.9779L6.49954 12.9697L6.16174 13.3384ZM4.95991 12.4528L5.02681 12.9483L5.04188 12.9463L5.0568 12.9433L4.95991 12.4528ZM3.79536 12.61V13.11H3.82896L3.86226 13.1055L3.79536 12.61ZM3.61844 12.61L3.60678 13.11H3.61844V12.61ZM2.42801 11.6403L1.93709 11.7351L1.93879 11.7439L1.9408 11.7527L2.42801 11.6403ZM2.21316 10.528L1.71775 10.5955L1.71962 10.6092L1.72224 10.6228L2.21316 10.528ZM2.01036 10.2616L1.78441 10.7076L1.79906 10.715L1.81416 10.7214L2.01036 10.2616ZM0.959745 9.72933L0.724493 10.1706L0.733792 10.1754L0.959745 9.72933ZM0.440705 8.19401L-0.007723 7.97284L-0.0110083 7.97951L-0.0140943 7.98626L0.440705 8.19401ZM0.959745 7.1416L1.40817 7.36276L1.41166 7.35568L1.41493 7.3485L0.959745 7.1416ZM0.959745 6.79118L1.41527 6.58503L1.41036 6.57419L1.40494 6.56359L0.959745 6.79118ZM0.440705 5.77588L-0.0153149 5.98093L-0.010186 5.99234L-0.00449321 6.00347L0.440705 5.77588ZM0.959745 4.24951L0.734954 3.80269L0.723221 3.80899L0.959745 4.24951ZM2.0115 3.72038L1.82429 3.25675L1.80519 3.26446L1.78679 3.27372L2.0115 3.72038ZM2.21382 3.45459L1.72284 3.36006L1.71907 3.37963L1.71687 3.39944L2.21382 3.45459ZM2.42801 2.34213L1.9434 2.21905L1.9398 2.23323L1.93703 2.24759L2.42801 2.34213ZM3.79536 1.40072L3.86227 0.905177L3.85615 0.904427L3.79536 1.40072ZM4.95992 1.55795L4.89302 2.05345L4.90012 2.05441L4.90724 2.05516L4.95992 1.55795ZM5.30139 1.44873L5.63794 1.81851L5.6392 1.81736L5.30139 1.44873ZM6.16175 0.660319L6.49955 1.02895L6.50095 1.02766L6.16175 0.660319ZM7.83346 0.660319L7.49476 1.02813L7.49551 1.02882L7.83346 0.660319ZM8.69316 1.44873L8.3552 1.81724L8.3581 1.81986L8.69316 1.44873ZM9.03576 1.55795L9.0868 2.05533L9.09476 2.05452L9.10269 2.05345L9.03576 1.55795ZM10.1998 1.40072L10.1398 0.904283L10.1329 0.905218L10.1998 1.40072ZM11.5665 2.33969L12.0574 2.2446L12.0546 2.23018L12.051 2.21595L11.5665 2.33969ZM11.782 3.45215L12.2787 3.39433L12.2765 3.37559L12.2729 3.35707L11.782 3.45215ZM11.9848 3.71794L12.2068 3.26991L12.1894 3.26131L12.1714 3.25407L11.9848 3.71794ZM13.0348 4.23812L13.2699 3.79683L13.2634 3.79336L13.2568 3.79009L13.0348 4.23812ZM13.5543 5.7736L14.0008 5.99864L14.0051 5.9902L14.009 5.9816L13.5543 5.7736ZM13.0348 6.80436L12.5883 6.57931L12.583 6.58987L12.5782 6.60067L13.0348 6.80436ZM13.0348 7.15478L12.5782 7.35847L12.5826 7.36852L12.5876 7.37836L13.0348 7.15478ZM13.5543 8.19401L14.007 7.98132L14.0015 7.97043L13.5543 8.19401ZM13.0348 9.7443L13.2607 10.1904L13.268 10.1866L13.0348 9.7443ZM11.9848 10.2759L12.181 10.7358L12.1961 10.7293L12.2107 10.722L11.9848 10.2759ZM11.7825 10.5423L12.2733 10.6376L12.2762 10.6228L12.2782 10.6079L11.7825 10.5423ZM11.5665 11.6548L12.0526 11.7718L12.0552 11.761L12.0574 11.7501L11.5665 11.6548ZM10.1998 12.61L10.1329 13.1057L10.1448 13.107L10.1998 12.61ZM9.03576 12.4528L8.9408 12.9437L8.95476 12.9464L8.96884 12.9483L9.03576 12.4528ZM8.69316 12.55L9.0311 12.9185L9.03139 12.9182L8.69316 12.55ZM7.83346 13.3384L7.49542 12.9698L7.48688 12.978L7.83346 13.3384ZM6.77616 12.667L7.12241 12.3061L7.11363 12.2981L6.77616 12.667ZM5.91938 11.8833L6.25685 11.5144L5.90399 11.1916L5.56583 11.5297L5.91938 11.8833ZM7.20161 12.6838L6.86378 12.315L6.8556 12.3228L7.20161 12.6838ZM8.08003 11.8791L8.41778 12.2478L8.41985 12.2458L8.08003 11.8791ZM9.17622 11.5539L9.09746 12.0478L9.10919 12.0494L9.17622 11.5539ZM10.3216 11.7088L10.2545 12.2043L10.2879 12.2088H10.3216V11.7088ZM10.6792 11.4544L11.1602 11.5907L11.1659 11.5705L11.17 11.5499L10.6792 11.4544ZM10.8868 10.3864L11.3776 10.4818L11.3791 10.4743L11.3803 10.4667L10.8868 10.3864ZM11.5906 9.45639L11.8021 9.90947L11.8093 9.9061L11.8164 9.9025L11.5906 9.45639ZM12.6245 8.93311L12.8503 9.37929L12.8579 9.37529L12.6245 8.93311ZM12.7317 8.58155L13.1842 8.36838L13.1789 8.35786L12.7317 8.58155ZM12.2211 7.56088L11.7654 7.76659L11.7695 7.77566L11.774 7.78457L12.2211 7.56088ZM12.2177 7.55331L11.7619 7.75879L11.762 7.75902L12.2177 7.55331ZM12.205 7.52556L11.7485 7.72984L11.7528 7.73884L12.205 7.52556ZM12.205 6.43295L12.6614 6.63745L12.6646 6.62995L12.205 6.43295ZM12.2229 6.39519L12.6666 6.62575L12.6695 6.62017L12.2229 6.39519ZM12.7317 5.38542L13.1782 5.61041L13.1872 5.59264L13.1947 5.57422L12.7317 5.38542ZM12.6075 5.04102L12.842 4.59921L12.8296 4.59302L12.6075 5.04102ZM11.6027 4.54297L11.8247 4.09498L11.8157 4.09052L11.8065 4.08643L11.6027 4.54297ZM10.8844 3.60157L11.3786 3.52581L11.3772 3.51626L11.3753 3.50676L10.8844 3.60157ZM10.6809 2.54802L11.1719 2.45321L11.1664 2.42498L11.1578 2.39755L10.6809 2.54802ZM10.3054 2.30371L10.2407 1.80792L10.2387 1.80819L10.3054 2.30371ZM9.15701 2.4585L9.22118 2.95437L9.22379 2.95402L9.15701 2.4585ZM8.08116 2.12012L7.74362 2.48899L7.74366 2.48903L8.08116 2.12012ZM7.21902 1.33122L6.87956 1.69833L6.88148 1.70009L7.21902 1.33122ZM6.77973 1.32813L7.11721 1.69707L7.12013 1.69436L6.77973 1.32813ZM5.91514 2.11898L5.57767 1.75005L5.57757 1.75014L5.91514 2.11898ZM4.84891 2.46029L4.78186 2.95582L4.78834 2.95661L4.84891 2.46029ZM3.67361 2.30127L3.74065 1.80579L3.49523 1.77258L3.32009 1.94769L3.67361 2.30127ZM3.67296 2.30193L3.65903 2.80173L3.87423 2.80773L4.02648 2.65551L3.67296 2.30193ZM3.64952 2.30127L3.66346 1.80127H3.64952V2.30127ZM3.31472 2.54802L2.83748 2.39888L2.82904 2.42588L2.8237 2.45366L3.31472 2.54802ZM3.11192 3.60336L2.6209 3.509L2.61912 3.51827L2.61769 3.5276L3.11192 3.60336ZM2.39805 4.54363L2.19235 4.0879L2.18264 4.09228L2.17312 4.09708L2.39805 4.54363ZM1.36892 5.06202L1.14392 4.61534L1.13314 4.6211L1.36892 5.06202ZM1.26459 5.38949L0.797934 5.56902L0.807419 5.59368L0.81945 5.6172L1.26459 5.38949ZM1.7698 6.37713L2.21808 6.15557L2.21494 6.14942L1.7698 6.37713ZM1.79014 6.42042L2.24639 6.21586L2.24617 6.21539L1.79014 6.42042ZM1.79014 7.51303L2.24307 7.72499L2.24657 7.71719L1.79014 7.51303ZM1.77582 7.54363L2.22435 7.76484L2.22869 7.75556L1.77582 7.54363ZM1.25678 8.59604L0.808357 8.37488L0.805207 8.38126L0.80224 8.38774L1.25678 8.59604ZM1.38764 8.92709L1.15099 9.36771L1.16187 9.37322L1.38764 8.92709ZM2.40392 9.44141L2.17814 9.88754L2.18508 9.89104L2.19212 9.89434L2.40392 9.44141ZM3.10834 10.3714L2.61496 10.4525L2.61614 10.4596L2.61752 10.4668L3.10834 10.3714ZM3.31716 11.4466L2.82634 11.5419L2.82938 11.5576L2.83341 11.5731L3.31716 11.4466ZM3.63943 11.701L3.62773 12.201H3.63943V11.701ZM3.7335 11.701V12.201H3.76726L3.80071 12.1965L3.7335 11.701ZM4.81831 11.5539L4.88552 12.0495L4.89635 12.0478L4.81831 11.5539ZM5.91938 11.8833L5.57931 12.2498L5.93238 12.5774L6.27293 12.2369L5.91938 11.8833ZM3.9796 9.31542L3.62607 8.96185L3.27248 9.31541L3.62605 9.66898L3.9796 9.31542ZM9.31294 3.98258L9.66629 3.62882L9.31275 3.27569L8.9594 3.62901L9.31294 3.98258ZM4.68696 10.0228L4.33341 10.3763L4.68697 10.7299L5.04052 10.3763L4.68696 10.0228ZM10.0205 4.68929L10.374 5.04284L10.7278 4.68908L10.3738 4.33553L10.0205 4.68929ZM4.96358 12.9186L5.82393 13.707L6.49954 12.9697L5.63919 12.1813L4.96358 12.9186ZM5.03495 12.9455C5.00826 12.9455 4.98136 12.9351 4.96152 12.9167L5.64125 12.1832C5.47493 12.0291 5.25858 11.9455 5.03495 11.9455V12.9455ZM5.0568 12.9433C5.05253 12.9442 5.04889 12.9447 5.04574 12.945C5.04258 12.9453 5.03905 12.9455 5.03495 12.9455V11.9455C4.97841 11.9455 4.92023 11.951 4.86302 11.9623L5.0568 12.9433ZM3.86226 13.1055L5.02681 12.9483L4.89301 11.9573L3.72846 12.1145L3.86226 13.1055ZM3.61844 13.11H3.79536V12.11H3.61844V13.11ZM1.9408 11.7527C2.12054 12.532 2.80581 13.0912 3.60678 13.1099L3.63009 12.1102C3.28622 12.1021 2.99231 11.8622 2.91522 11.5279L1.9408 11.7527ZM1.72224 10.6228L1.93709 11.7351L2.91894 11.5455L2.70409 10.4332L1.72224 10.6228ZM1.81416 10.7214C1.76112 10.6988 1.72524 10.6505 1.71775 10.5955L2.70858 10.4604C2.66886 10.1691 2.47935 9.91803 2.20657 9.80166L1.81416 10.7214ZM0.733792 10.1754L1.78441 10.7076L2.23632 9.81552L1.1857 9.28329L0.733792 10.1754ZM-0.0140943 7.98626C-0.383543 8.79507 -0.060321 9.75217 0.724544 10.1706L1.19495 9.2881C0.876944 9.11859 0.745419 8.73032 0.895504 8.40175L-0.0140943 7.98626ZM0.511317 6.92044L-0.007723 7.97284L0.889133 8.41517L1.40817 7.36276L0.511317 6.92044ZM0.50422 6.99733C0.495503 6.97807 0.49513 6.95545 0.50456 6.9347L1.41493 7.3485C1.52527 7.10575 1.52489 6.82727 1.41527 6.58503L0.50422 6.99733ZM-0.00449321 6.00347L0.514547 7.01877L1.40494 6.56359L0.885903 5.54829L-0.00449321 6.00347ZM0.723221 3.80899C-0.0545903 4.22662 -0.377393 5.17569 -0.0153149 5.98093L0.896725 5.57083C0.750016 5.24456 0.880987 4.85931 1.19627 4.69003L0.723221 3.80899ZM1.78679 3.27372L0.735033 3.80285L1.18446 4.69617L2.23622 4.16704L1.78679 3.27372ZM1.71687 3.39944C1.72411 3.33418 1.76668 3.28002 1.82429 3.25675L2.19872 4.18401C2.47964 4.07057 2.67715 3.81263 2.71077 3.50975L1.71687 3.39944ZM1.93703 2.24759L1.72284 3.36006L2.7048 3.54913L2.91899 2.43666L1.93703 2.24759ZM3.64953 0.892419C2.85401 0.892419 2.14388 1.42964 1.9434 2.21905L2.91263 2.4652C2.99893 2.12538 3.30507 1.89242 3.64953 1.89242V0.892419ZM3.85615 0.904427C3.78261 0.895421 3.71264 0.892419 3.64953 0.892419V1.89242C3.68148 1.89242 3.70981 1.89398 3.73458 1.89701L3.85615 0.904427ZM5.02682 1.06244L3.86226 0.905214L3.72847 1.89622L4.89302 2.05345L5.02682 1.06244ZM5.01217 1.06087L5.01259 1.06073L4.90724 2.05516C4.93787 2.05841 4.97322 2.06087 5.01217 2.06087V1.06087ZM4.96484 1.07895C4.97732 1.0676 4.9942 1.06087 5.01217 1.06087V2.06087C5.24269 2.06087 5.46595 1.97504 5.63794 1.81851L4.96484 1.07895ZM5.82394 0.29169L4.96359 1.0801L5.6392 1.81736L6.49955 1.02895L5.82394 0.29169ZM6.99703 -0.166668C6.57612 -0.166668 6.15386 -0.0129608 5.82254 0.292975L6.50095 1.02766C6.64131 0.898052 6.81898 0.833332 6.99703 0.833332V-0.166668ZM8.17215 0.292508C7.84052 -0.0128737 7.41924 -0.166668 6.99703 -0.166668V0.833332C7.17606 0.833332 7.35341 0.897965 7.49476 1.02813L8.17215 0.292508ZM9.0311 1.08023L8.1714 0.291817L7.49551 1.02882L8.35521 1.81723L9.0311 1.08023ZM8.98303 1.06087C9.00134 1.06087 9.01733 1.06778 9.02822 1.07761L8.3581 1.81986C8.52979 1.97487 8.75217 2.06087 8.98303 2.06087V1.06087ZM8.98473 1.06056C8.97977 1.06107 8.97941 1.06087 8.98303 1.06087V2.06087C9.02149 2.06087 9.05693 2.0584 9.0868 2.05533L8.98473 1.06056ZM10.1329 0.905218L8.96884 1.06244L9.10269 2.05345L10.2668 1.89622L10.1329 0.905218ZM10.3461 0.892419C10.2816 0.892419 10.2132 0.895466 10.1398 0.904331L10.2598 1.89711C10.2861 1.89393 10.3137 1.89242 10.3461 1.89242V0.892419ZM12.051 2.21595C11.8498 1.42818 11.1409 0.892419 10.3461 0.892419V1.89242C10.6904 1.89242 10.9955 2.12456 11.0821 2.46342L12.051 2.21595ZM12.2729 3.35707L12.0574 2.2446L11.0756 2.43477L11.2911 3.54724L12.2729 3.35707ZM12.1714 3.25407C12.2306 3.27788 12.2714 3.33222 12.2787 3.39433L11.2854 3.50997C11.3203 3.80971 11.5157 4.06816 11.7982 4.18181L12.1714 3.25407ZM13.2568 3.79009L12.2068 3.26991L11.7629 4.16597L12.8128 4.68615L13.2568 3.79009ZM14.009 5.9816C14.3789 5.17299 14.0554 4.21527 13.2699 3.79683L12.7997 4.67941C13.1184 4.84918 13.2496 5.23782 13.0996 5.5656L14.009 5.9816ZM13.4813 7.0294L14.0008 5.99864L13.1078 5.54855L12.5883 6.57931L13.4813 7.0294ZM13.4914 6.95109C13.4994 6.96907 13.4994 6.99007 13.4914 7.00805L12.5782 6.60067C12.4705 6.84196 12.4705 7.11718 12.5782 7.35847L13.4914 6.95109ZM14.0015 7.97043L13.482 6.9312L12.5876 7.37836L13.1071 8.41759L14.0015 7.97043ZM13.268 10.1866C14.064 9.76693 14.3894 8.79557 14.0069 7.98138L13.1018 8.40663C13.257 8.73697 13.125 9.13149 12.8016 9.302L13.268 10.1866ZM12.2107 10.722L13.2606 10.1904L12.8089 9.29821L11.759 9.82978L12.2107 10.722ZM12.2782 10.6079C12.2707 10.6645 12.2339 10.7132 12.181 10.7358L11.7886 9.81598C11.516 9.93228 11.3256 10.1837 11.2868 10.4768L12.2782 10.6079ZM12.0574 11.7501L12.2733 10.6376L11.2917 10.447L11.0757 11.5595L12.0574 11.7501ZM10.3432 13.1177C11.1463 13.1177 11.8604 12.5703 12.0526 11.7718L11.0804 11.5378C10.9979 11.8806 10.6908 12.1177 10.3432 12.1177V13.1177ZM10.1448 13.107C10.2136 13.1146 10.2796 13.1177 10.3432 13.1177V12.1177C10.3121 12.1177 10.283 12.1162 10.2548 12.1131L10.1448 13.107ZM8.96884 12.9483L10.1329 13.1055L10.2668 12.1145L9.10269 11.9573L8.96884 12.9483ZM8.96025 12.9455C8.95605 12.9455 8.95259 12.9453 8.94971 12.945C8.94682 12.9447 8.9439 12.9443 8.9408 12.9437L9.13073 11.9619C9.07467 11.9511 9.01716 11.9455 8.96025 11.9455V12.9455ZM9.03139 12.9182C9.01324 12.9349 8.98733 12.9455 8.96025 12.9455V11.9455C8.73622 11.9455 8.52087 12.0293 8.35492 12.1817L9.03139 12.9182ZM8.1714 13.7069L9.0311 12.9185L8.35521 12.1815L7.49551 12.9699L8.1714 13.7069ZM6.99703 14.175C7.42197 14.175 7.84967 14.0165 8.18003 13.6988L7.48688 12.978C7.35044 13.1092 7.17431 13.175 6.99703 13.175V14.175ZM5.81517 13.6988C6.14526 14.0162 6.57219 14.175 6.99703 14.175V13.175C6.82064 13.175 6.64503 13.1095 6.50831 12.978L5.81517 13.6988ZM7.11363 12.2981L6.25685 11.5144L5.58192 12.2522L6.43869 13.0359L7.11363 12.2981ZM6.99703 12.266C7.01746 12.266 7.04616 12.2691 7.07622 12.2804C7.09034 12.2858 7.1017 12.2918 7.11013 12.2972C7.11844 12.3025 7.12235 12.3062 7.12231 12.3062L6.43 13.0278C6.62213 13.2121 6.83041 13.266 6.99703 13.266V12.266ZM6.8556 12.3228C6.87674 12.3026 6.90376 12.2866 6.93225 12.2769C6.95873 12.2679 6.98136 12.266 6.99703 12.266V13.266C7.13881 13.266 7.35745 13.227 7.54763 13.0447L6.8556 12.3228ZM7.74229 11.5104L6.86387 12.3151L7.53935 13.0524L8.41777 12.2478L7.74229 11.5104ZM8.96024 11.0366C8.50625 11.0366 8.07069 11.2061 7.74021 11.5123L8.41985 12.2458C8.56333 12.1129 8.75537 12.0366 8.96024 12.0366V11.0366ZM9.25496 11.0601C9.15804 11.0447 9.05911 11.0366 8.96024 11.0366V12.0366C9.00524 12.0366 9.05151 12.0403 9.09748 12.0476L9.25496 11.0601ZM10.3886 11.2133L9.24325 11.0584L9.10919 12.0494L10.2545 12.2043L10.3886 11.2133ZM10.3222 11.2088H10.3216V12.2088H10.3222V11.2088ZM10.3432 11.2088H10.3222V12.2088H10.3432V11.2088ZM10.1981 11.3182C10.216 11.255 10.2753 11.2088 10.3432 11.2088V12.2088C10.7256 12.2088 11.057 11.955 11.1602 11.5907L10.1981 11.3182ZM10.396 10.291L10.1883 11.359L11.17 11.5499L11.3776 10.4818L10.396 10.291ZM11.3791 9.0033C10.858 9.24651 10.4858 9.73751 10.3933 10.3061L11.3803 10.4667C11.4197 10.2251 11.5804 10.0129 11.8021 9.90947L11.3791 9.0033ZM12.3987 8.487L11.3648 9.01027L11.8164 9.9025L12.8503 9.37922L12.3987 8.487ZM12.2794 8.79467C12.2543 8.74128 12.2528 8.68357 12.2684 8.63381C12.2836 8.58563 12.3208 8.52803 12.391 8.49094L12.8579 9.37529C13.2252 9.18138 13.3536 8.72824 13.184 8.36844L12.2794 8.79467ZM11.774 7.78457L12.2845 8.80524L13.1789 8.35786L12.6683 7.33719L11.774 7.78457ZM11.762 7.75902L11.7654 7.76659L12.6769 7.35517L12.6734 7.3476L11.762 7.75902ZM11.7528 7.73884C11.7549 7.74325 11.7573 7.74865 11.7619 7.75879L12.6735 7.34783C12.6697 7.33919 12.6636 7.32582 12.6573 7.31228L11.7528 7.73884ZM11.7487 6.22847C11.535 6.70549 11.5351 7.2526 11.7486 7.72979L12.6614 7.32132C12.5641 7.10385 12.5642 6.85409 12.6613 6.63742L11.7487 6.22847ZM11.7793 6.16464C11.7673 6.18771 11.7559 6.21158 11.7455 6.23594L12.6646 6.62995C12.6649 6.62924 12.6656 6.62773 12.6666 6.62573L11.7793 6.16464ZM12.2852 5.16043L11.7764 6.1702L12.6695 6.62017L13.1782 5.61041L12.2852 5.16043ZM12.3731 5.48266C12.2682 5.42696 12.2258 5.30202 12.2687 5.19662L13.1947 5.57422C13.3435 5.20938 13.1953 4.78692 12.842 4.59938L12.3731 5.48266ZM11.3806 4.99097L12.3855 5.48901L12.8296 4.59302L11.8247 4.09498L11.3806 4.99097ZM10.3902 3.67732C10.4796 4.26076 10.8596 4.75873 11.3988 4.99951L11.8065 4.08643C11.5775 3.98412 11.4165 3.77278 11.3786 3.52581L10.3902 3.67732ZM10.19 2.64282L10.3935 3.69637L11.3753 3.50676L11.1719 2.45321L10.19 2.64282ZM10.3461 2.80127C10.2787 2.80127 10.2225 2.75662 10.2041 2.69849L11.1578 2.39755C11.047 2.04645 10.7222 1.80127 10.3461 1.80127V2.80127ZM10.3702 2.7995C10.3573 2.80119 10.3487 2.80127 10.3461 2.80127V1.80127C10.3172 1.80127 10.281 1.80266 10.2407 1.80793L10.3702 2.7995ZM9.22379 2.95402L10.3722 2.79923L10.2387 1.80819L9.09022 1.96298L9.22379 2.95402ZM8.98301 2.96989C9.05789 2.96989 9.1334 2.96572 9.22117 2.95436L9.09284 1.96263C9.04976 1.96821 9.01719 1.96989 8.98301 1.96989V2.96989ZM7.74366 2.48903C8.08272 2.79922 8.5237 2.96989 8.98301 2.96989V1.96989C8.77272 1.96989 8.57276 1.89219 8.41866 1.75121L7.74366 2.48903ZM6.88148 1.70009L7.74362 2.48899L8.4187 1.75124L7.55656 0.962344L6.88148 1.70009ZM6.99701 1.74235C6.98279 1.74235 6.96248 1.74052 6.93921 1.73263C6.91423 1.72417 6.89356 1.71127 6.87956 1.69833L7.55847 0.964109C7.3632 0.783543 7.14525 0.742352 6.99701 0.742352V1.74235ZM7.12013 1.69436C7.10205 1.71116 7.07876 1.72465 7.05407 1.7329C7.03122 1.74054 7.01147 1.74235 6.99701 1.74235V0.742352C6.85335 0.742352 6.63341 0.781498 6.43932 0.961891L7.12013 1.69436ZM6.25262 2.48791L7.1172 1.69706L6.44225 0.959192L5.57767 1.75005L6.25262 2.48791ZM5.01215 2.96989C5.471 2.96989 5.91263 2.79909 6.25272 2.48782L5.57757 1.75014C5.42222 1.89232 5.2216 1.96989 5.01215 1.96989V2.96989ZM4.78834 2.95661C4.86514 2.96598 4.93952 2.96989 5.01215 2.96989V1.96989C4.97573 1.96989 4.94204 1.96795 4.90947 1.96397L4.78834 2.95661ZM3.60657 2.79676L4.78186 2.95578L4.91595 1.96481L3.74065 1.80579L3.60657 2.79676ZM4.02648 2.65551L4.02713 2.65486L3.32009 1.94769L3.31944 1.94834L4.02648 2.65551ZM3.63559 2.80108L3.65903 2.80173L3.68689 1.80212L3.66345 1.80147L3.63559 2.80108ZM3.79196 2.69716C3.77322 2.75713 3.71648 2.80127 3.64952 2.80127V1.80127C3.27299 1.80127 2.94737 2.04724 2.83748 2.39888L3.79196 2.69716ZM3.60293 3.69772L3.80573 2.64237L2.8237 2.45366L2.6209 3.509L3.60293 3.69772ZM2.60375 4.99935C3.13957 4.7575 3.51702 4.26049 3.60614 3.67912L2.61769 3.5276C2.57987 3.77434 2.41954 3.98535 2.19235 4.0879L2.60375 4.99935ZM1.59385 5.50857L2.62299 4.99017L2.17312 4.09708L1.14398 4.61547L1.59385 5.50857ZM1.73125 5.20996C1.75106 5.26146 1.74936 5.31253 1.7351 5.35552C1.7219 5.39528 1.68671 5.45908 1.60469 5.50294L1.13314 4.6211C0.782397 4.80866 0.669878 5.23616 0.797934 5.56902L1.73125 5.20996ZM2.21494 6.14942L1.70973 5.16179L0.81945 5.6172L1.32466 6.60483L2.21494 6.14942ZM2.24617 6.21539C2.23782 6.1968 2.22852 6.17679 2.21804 6.15559L1.32156 6.59866C1.3254 6.60644 1.32945 6.61506 1.33412 6.62545L2.24617 6.21539ZM2.24657 7.71719C2.46004 7.23994 2.46023 6.69283 2.24639 6.21586L1.3339 6.62497C1.43092 6.84137 1.43112 7.09113 1.33372 7.30888L2.24657 7.71719ZM2.22869 7.75556L2.24301 7.72496L1.33728 7.3011L1.32296 7.3317L2.22869 7.75556ZM1.70521 8.8172L2.22425 7.76479L1.3274 7.32247L0.808357 8.37488L1.70521 8.8172ZM1.62422 8.4866C1.67492 8.51383 1.70742 8.55608 1.72385 8.59961C1.73871 8.639 1.75248 8.71454 1.71133 8.80434L0.80224 8.38774C0.629428 8.76484 0.821485 9.19057 1.15106 9.36758L1.62422 8.4866ZM2.62969 8.99529L1.61342 8.48097L1.16187 9.37322L2.17814 9.88754L2.62969 8.99529ZM3.60173 10.2904C3.50839 9.72233 3.13718 9.23234 2.61572 8.98849L2.19212 9.89434C2.41481 9.99847 2.57516 10.2103 2.61496 10.4525L3.60173 10.2904ZM3.80799 11.3513L3.59917 10.2761L2.61752 10.4668L2.82634 11.5419L3.80799 11.3513ZM3.65113 11.2011C3.72092 11.2028 3.78285 11.2511 3.80092 11.3202L2.83341 11.5731C2.92831 11.9361 3.25195 12.1921 3.62773 12.2009L3.65113 11.2011ZM3.7335 11.201H3.63943V12.201H3.7335V11.201ZM4.7511 11.0584L3.6663 11.2055L3.80071 12.1965L4.88551 12.0493L4.7511 11.0584ZM5.03494 11.0366C4.93595 11.0366 4.83726 11.0447 4.74026 11.06L4.89635 12.0478C4.94355 12.0403 4.99005 12.0366 5.03494 12.0366V11.0366ZM6.25945 11.5168C5.92551 11.2069 5.49015 11.0366 5.03494 11.0366V12.0366C5.23858 12.0366 5.43082 12.1121 5.57931 12.2498L6.25945 11.5168ZM5.56583 11.5297L5.56582 11.5298L6.27293 12.2369L6.27294 12.2369L5.56583 11.5297ZM4.33314 9.66899L9.66648 4.33615L8.9594 3.62901L3.62607 8.96185L4.33314 9.66899ZM5.04052 9.66922L4.33316 8.96187L3.62605 9.66898L4.33341 10.3763L5.04052 9.66922ZM9.6669 4.33573L4.33341 9.66922L5.04052 10.3763L10.374 5.04284L9.6669 4.33573ZM8.95959 4.33634L9.66711 5.04304L10.3738 4.33553L9.66629 3.62882L8.95959 4.33634ZM8.90376 7.4222C8.07596 7.4222 7.40474 8.09273 7.40474 8.92057H8.40474C8.40474 8.64555 8.62772 8.4222 8.90376 8.4222V7.4222ZM10.4021 8.92057C10.4021 8.093 9.73134 7.4222 8.90376 7.4222V8.4222C9.17906 8.4222 9.40214 8.64528 9.40214 8.92057H10.4021ZM8.90376 10.4196C9.73177 10.4196 10.4021 9.74772 10.4021 8.92057H9.40214C9.40214 9.19629 9.17863 9.4196 8.90376 9.4196V10.4196ZM7.40474 8.92057C7.40474 9.74799 8.07554 10.4196 8.90376 10.4196V9.4196C8.62815 9.4196 8.40474 9.19602 8.40474 8.92057H7.40474ZM4.68843 5.2041C4.68843 4.92923 4.91174 4.70572 5.18746 4.70572V3.70572C4.36031 3.70572 3.68843 4.3761 3.68843 5.2041H4.68843ZM5.18746 5.70247C4.91153 5.70247 4.68843 5.4794 4.68843 5.2041H3.68843C3.68843 6.03297 4.36052 6.70247 5.18746 6.70247V5.70247ZM5.68583 5.2041C5.68583 5.47978 5.46285 5.70247 5.18746 5.70247V6.70247C6.01461 6.70247 6.68583 6.03259 6.68583 5.2041H5.68583ZM5.18746 4.70572C5.46264 4.70572 5.68583 4.92886 5.68583 5.2041H6.68583C6.68583 4.37647 6.01481 3.70572 5.18746 3.70572V4.70572Z" fill="black" fill-opacity="0.01"/>
</svg>
