<svg width="28" height="28" viewBox="0 0 28 28" fill="none" xmlns="http://www.w3.org/2000/svg">
<path d="M6.54102 5.69067C6.54102 5.30666 6.85232 4.99536 7.23633 4.99536H21.9646C22.3486 4.99536 22.6599 5.30666 22.6599 5.69067V24.3526C22.6599 24.7371 22.3481 25.0488 21.9636 25.0488H7.23731C6.85276 25.0488 6.54102 24.7371 6.54102 24.3526V5.69067Z" fill="white"/>
<path fill-rule="evenodd" clip-rule="evenodd" d="M7.29516 4.67249H21.9045C22.5002 4.67249 22.9818 5.15522 22.9818 5.74971V24.2938C22.9818 24.8894 22.5002 25.3722 21.9045 25.3722H7.29516C6.69959 25.3722 6.2168 24.8894 6.2168 24.2938V5.74971C6.2168 5.15522 6.69959 4.67249 7.29516 4.67249ZM22.3352 5.74972C22.3352 5.51214 22.1421 5.31905 21.9045 5.31905H7.29516C7.05753 5.31905 6.86447 5.51214 6.86447 5.74972V24.2938C6.86447 24.5314 7.05753 24.7256 7.29516 24.7256H21.9045C22.1421 24.7256 22.3352 24.5314 22.3352 24.2938V5.74972Z" fill="#636363"/>
<path d="M22.9775 5.67158V24.3708C22.9775 24.923 22.5359 25.3754 21.9729 25.3754H7.22029C6.6681 25.3754 6.2168 24.923 6.2168 24.3708H19.9649C20.5268 24.3708 20.9684 23.9195 20.9684 23.3673V4.66809H21.9729C22.5359 4.66809 22.9775 5.1194 22.9775 5.67158Z" fill="#62E2BB"/>
<path d="M22.6058 5.38109V13.1441H20.9688V4.88855H22.1143C22.3855 4.88855 22.6058 5.10984 22.6058 5.38109Z" fill="#EAEAEA"/>
<rect x="6.2168" y="12.8607" width="16.7651" height="0.646237" fill="#636363"/>
<path fill-rule="evenodd" clip-rule="evenodd" d="M7.29516 4.67249H21.9045C22.5002 4.67249 22.9818 5.15522 22.9818 5.74971V24.2938C22.9818 24.8894 22.5002 25.3722 21.9045 25.3722H7.29516C6.69959 25.3722 6.2168 24.8894 6.2168 24.2938V5.74971C6.2168 5.15522 6.69959 4.67249 7.29516 4.67249ZM22.3352 5.74972C22.3352 5.51214 22.1421 5.31905 21.9045 5.31905H7.29516C7.05753 5.31905 6.86447 5.51214 6.86447 5.74972V24.2938C6.86447 24.5314 7.05753 24.7256 7.29516 24.7256H21.9045C22.1421 24.7256 22.3352 24.5314 22.3352 24.2938V5.74972Z" fill="#636363"/>
<rect x="9.26172" y="16.8097" width="10.6756" height="0.646236" fill="#636363"/>
<rect x="9.26172" y="20.8618" width="10.6756" height="0.646238" fill="#636363"/>
<ellipse cx="16.771" cy="17.1327" rx="1.09132" ry="1.09132" fill="#EAEAEA"/>
<path fill-rule="evenodd" clip-rule="evenodd" d="M15.3574 17.1331C15.3574 17.9131 15.992 18.5477 16.772 18.5477C17.552 18.5477 18.1866 17.9131 18.1866 17.1331C18.1866 16.3531 17.552 15.7185 16.772 15.7185C15.992 15.7185 15.3574 16.3531 15.3574 17.1331ZM16.004 17.1331C16.004 16.709 16.349 16.365 16.772 16.365C17.1962 16.365 17.5401 16.709 17.5401 17.1331C17.5401 17.5562 17.1962 17.9012 16.772 17.9012C16.349 17.9012 16.004 17.5562 16.004 17.1331Z" fill="#636363"/>
<ellipse cx="12.4859" cy="21.1912" rx="1.09132" ry="1.09132" fill="#EAEAEA"/>
<path fill-rule="evenodd" clip-rule="evenodd" d="M11.0703 21.1914C11.0703 21.9714 11.7049 22.606 12.485 22.606C13.2649 22.606 13.8996 21.9714 13.8996 21.1914C13.8996 20.4114 13.2649 19.7767 12.485 19.7767C11.7049 19.7767 11.0703 20.4114 11.0703 21.1914ZM11.7169 21.1914C11.7169 20.7673 12.0608 20.4233 12.485 20.4233C12.9091 20.4233 13.253 20.7673 13.253 21.1914C13.253 21.6155 12.9091 21.9595 12.485 21.9595C12.0608 21.9595 11.7169 21.6155 11.7169 21.1914Z" fill="#636363"/>
<rect x="18.6035" y="7.13733" width="2.36459" height="0.555128" fill="#636363"/>
<rect x="18.6035" y="8.08582" width="2.36459" height="0.555127" fill="#636363"/>
<path d="M20.0291 11.3715L18.6058 9.44913C18.5429 9.36451 18.5331 9.25169 18.5808 9.15839C18.6275 9.06511 18.724 9.00653 18.8293 9.00653H19.3175C19.6798 9.00653 19.9748 8.71146 19.9748 8.34911C19.9748 7.98678 19.6798 7.69281 19.3175 7.69281H18.6047V7.13733H19.3175C19.9857 7.13733 20.5302 7.68084 20.5302 8.34911C20.5302 8.99676 20.0193 9.52724 19.3793 9.55979L20.476 11.0416L20.0291 11.3715Z" fill="#636363"/>
<rect x="2.94922" y="2.94861" width="14.2285" height="7.25451" rx="0.99361" fill="white"/>
<path fill-rule="evenodd" clip-rule="evenodd" d="M4.02554 10.5259H16.0986C16.8721 10.5259 17.5002 9.89772 17.5002 9.12534V4.02664C17.5002 3.25313 16.8721 2.625 16.0986 2.625H4.02554C3.2531 2.625 2.625 3.25314 2.625 4.02664V9.12534C2.625 9.89773 3.25311 10.5259 4.02554 10.5259ZM3.27159 4.02664C3.27159 3.61007 3.61005 3.27159 4.02554 3.27159H16.0986C16.5152 3.27159 16.8537 3.61008 16.8537 4.02664V9.12535C16.8537 9.54082 16.5152 9.8793 16.0986 9.8793H4.02554C3.61005 9.8793 3.27159 9.54082 3.27159 9.12535V4.02664Z" fill="#636363"/>
<path d="M17.1788 4.03492V9.12167C17.1788 9.71941 16.6895 10.2087 16.0917 10.2087H4.03819C3.4296 10.2087 2.95117 9.71941 2.95117 9.12167H15.0048C15.6025 9.12167 16.0917 8.63245 16.0917 8.03467V2.94788C16.6895 2.94788 17.1788 3.43718 17.1788 4.03492Z" fill="#62E2BB"/>
<path fill-rule="evenodd" clip-rule="evenodd" d="M4.02554 10.5259H16.0986C16.8721 10.5259 17.5002 9.89772 17.5002 9.12534V4.02664C17.5002 3.25313 16.8721 2.625 16.0986 2.625H4.02554C3.2531 2.625 2.625 3.25314 2.625 4.02664V9.12534C2.625 9.89773 3.25311 10.5259 4.02554 10.5259ZM3.27159 4.02664C3.27159 3.61007 3.61005 3.27159 4.02554 3.27159H16.0986C16.5152 3.27159 16.8537 3.61008 16.8537 4.02664V9.12535C16.8537 9.54082 16.5152 9.8793 16.0986 9.8793H4.02554C3.61005 9.8793 3.27159 9.54082 3.27159 9.12535V4.02664Z" fill="#636363"/>
<path d="M5.74342 7.47928C6.01678 7.77002 6.44312 8.02389 6.99421 8.02389C7.56373 8.02389 7.7883 7.74506 7.7883 7.4847C7.7883 7.12998 7.36738 7.02258 6.8879 6.8989C6.24135 6.73943 5.48304 6.5496 5.48304 5.71321C5.48304 5.06121 6.058 4.55786 6.92262 4.55786C7.53881 4.55786 8.03674 4.75421 8.40446 5.10893L8.00744 5.62427C7.69934 5.31615 7.27843 5.17403 6.86296 5.17403C6.45397 5.17403 6.19357 5.36928 6.19357 5.66544C6.19357 5.97463 6.59716 6.07445 7.06583 6.19375C7.71778 6.35977 8.49344 6.56153 8.49344 7.42072C8.49344 8.07809 8.03129 8.64115 6.96489 8.64115C6.2348 8.64115 5.7087 8.38622 5.35938 8.01303L5.74342 7.47928Z" fill="#636363"/>
<path d="M9.37305 4.61731H10.0674V8.56933H9.37305V4.61731Z" fill="#636363"/>
<path fill-rule="evenodd" clip-rule="evenodd" d="M12.8803 4.61731H11.1445L11.1445 8.56933H11.8378V7.09397H12.8803C13.7048 7.09397 14.1734 6.52445 14.1734 5.85509C14.1734 5.18576 13.7102 4.61731 12.8803 4.61731ZM11.8378 5.22698H12.7859V5.22699C13.1775 5.22699 13.4607 5.4765 13.4607 5.85509C13.4607 6.23477 13.1775 6.48322 12.7859 6.48322H11.8378V5.22698Z" fill="#636363"/>
</svg>
