<svg xmlns="http://www.w3.org/2000/svg" width="64" height="64" viewBox="0 0 64 64">
    <g fill="none" fill-rule="evenodd">
        <path fill="#EAEAEA" d="M51.73 42.63a2.58 2.58 0 0 0-.486-.665 3.13 3.13 0 0 1-.47.36l-14.124 8.53a4.853 4.853 0 0 1-4.138.414l-13.334-4.804-.226-.066c.164 1.156-.076 2.312-.242 3.46-.002.004-.008.008-.01.014l.478.19 13.334 4.806a4.86 4.86 0 0 0 4.138-.414l14.124-8.53A2.508 2.508 0 0 0 52 43.765c0-.396-.09-.774-.27-1.134"/>
        <path fill="#636363" d="M50.467 45.417l-14.126 8.52a4.225 4.225 0 0 1-3.626.358l-13.026-4.678v-7.78h5.256c1.208 0 2.362.452 3.252 1.268l1.52 1.394a.61.61 0 0 0 .406.156l4.848.002a1.9 1.9 0 0 1 1.898 1.898c0 .22-.056.422-.124.618l-.024.014.016.026a1.889 1.889 0 0 1-1.766 1.242l-5.004-.004v1.198l5.004.004c1.172 0 2.182-.66 2.706-1.622l10.884-5.946c.46-.248.988-.298 1.486-.144s.902.496 1.138.96a1.922 1.922 0 0 1-.718 2.516m1.79-3.06a3.1 3.1 0 0 0-1.852-1.562 3.087 3.087 0 0 0-2.416.238l-9.93 5.424a3.096 3.096 0 0 0-3.088-2.998l-4.614-.002-1.348-1.238a6.007 6.007 0 0 0-4.064-1.58h-5.256v-2.32c0-.332-.266-.6-.598-.6H12v1.198h6.49v14.586H12v1.2h7.09a.597.597 0 0 0 .598-.6V50.89l12.62 4.534a5.456 5.456 0 0 0 1.846.324c.976 0 1.944-.266 2.806-.786l14.128-8.518a3.131 3.131 0 0 0 1.168-4.088"/>
        <path fill="#FFF" d="M22.365 26.226c-1.512-1.514-2.342-3.502-2.342-5.602 0-4.424 3.704-8.022 8.256-8.022 2.1 0 4.104.768 5.642 2.16.11.1.396.212.546.212.196 0 .39-.074.54-.208a8.306 8.306 0 0 1 5.63-2.164c4.552 0 8.256 3.598 8.256 8.022 0 2.1-.836 4.094-2.352 5.614L34.435 38.496l-12.07-12.27z"/>
        <path fill="#9B9B9B" d="M40.637 12.003a8.945 8.945 0 0 0-6.03 2.316.215.215 0 0 1-.14.056.21.21 0 0 1-.14-.056 8.952 8.952 0 0 0-6.046-2.316c-4.898 0-8.854 3.852-8.854 8.622 0 2.354.956 4.464 2.51 6.022L34.35 39.265a.118.118 0 0 0 .084.036.109.109 0 0 0 .084-.036l12.446-12.602c1.57-1.574 2.528-3.684 2.528-6.038 0-4.77-3.956-8.622-8.856-8.622m0 1.2c4.222 0 7.656 3.33 7.656 7.422 0 1.938-.774 3.782-2.182 5.194L34.437 37.64 22.787 25.8c-1.394-1.398-2.162-3.238-2.162-5.176 0-4.092 3.436-7.422 7.656-7.422 1.95 0 3.812.712 5.24 2.006a1.405 1.405 0 0 0 1.896-.004 7.72 7.72 0 0 1 5.22-2.002"/>
        <path fill="#FFF" d="M22.365 26.226c-1.512-1.514-2.342-3.502-2.342-5.602 0-4.424 3.704-8.022 8.256-8.022 2.1 0 4.104.768 5.642 2.16.11.1.396.212.546.212.196 0 .39-.074.54-.208a8.306 8.306 0 0 1 5.63-2.164c4.552 0 8.256 3.598 8.256 8.022 0 2.1-.836 4.094-2.352 5.614L34.435 38.496l-12.07-12.27z"/>
        <path fill="#9B9B9B" d="M40.637 12.003a8.945 8.945 0 0 0-6.03 2.316.215.215 0 0 1-.14.056.21.21 0 0 1-.14-.056 8.952 8.952 0 0 0-6.046-2.316c-4.898 0-8.854 3.852-8.854 8.622 0 2.354.956 4.464 2.51 6.022L34.35 39.265a.118.118 0 0 0 .084.036.109.109 0 0 0 .084-.036l12.446-12.602c1.57-1.574 2.528-3.684 2.528-6.038 0-4.77-3.956-8.622-8.856-8.622m0 1.2c4.222 0 7.656 3.33 7.656 7.422 0 1.938-.774 3.782-2.182 5.194L34.437 37.64 22.787 25.8c-1.394-1.398-2.162-3.238-2.162-5.176 0-4.092 3.436-7.422 7.656-7.422 1.95 0 3.812.712 5.24 2.006a1.405 1.405 0 0 0 1.896-.004 7.72 7.72 0 0 1 5.22-2.002"/>
        <path fill="#62E2BB" d="M49.492 20.62c0 2.367-.948 4.465-2.532 6.049L34.514 39.26c-.042.062-.124.062-.164 0l-1.668-1.708 10.204-10.348c1.338-1.338 2.142-3.128 2.142-5.144 0-4.054-3.354-7.346-7.532-7.346a7.682 7.682 0 0 0-5.142 1.976.163.163 0 0 1-.228 0 7.731 7.731 0 0 0-5.164-1.976c-3.908 0-7.096 2.902-7.488 6.584-.04-.226-.04-.452-.04-.678 0-4.774 3.948-8.622 8.846-8.622 2.344 0 4.464.886 6.048 2.326a.25.25 0 0 0 .29 0 8.896 8.896 0 0 1 6.026-2.326c4.896 0 8.848 3.848 8.848 8.622"/>
        <path fill="#636363" d="M38.896 24.407h-3.842v-3.842h-1.2v3.842h-3.84v1.2h3.84v3.842h1.2v-3.842h3.842z"/>
        <path fill="#636363" d="M40.637 12.003a8.945 8.945 0 0 0-6.03 2.316.215.215 0 0 1-.14.056.21.21 0 0 1-.14-.056 8.952 8.952 0 0 0-6.046-2.316c-4.898 0-8.854 3.852-8.854 8.622 0 2.354.956 4.464 2.51 6.022L34.35 39.265a.118.118 0 0 0 .084.036.109.109 0 0 0 .084-.036l12.446-12.602c1.57-1.574 2.528-3.684 2.528-6.038 0-4.77-3.956-8.622-8.856-8.622m0 1.2c4.222 0 7.656 3.33 7.656 7.422 0 1.938-.774 3.782-2.182 5.194L34.437 37.64 22.787 25.8c-1.394-1.398-2.162-3.238-2.162-5.176 0-4.092 3.436-7.422 7.656-7.422 1.95 0 3.812.712 5.24 2.006a1.405 1.405 0 0 0 1.896-.004 7.72 7.72 0 0 1 5.22-2.002"/>
    </g>
</svg>
