<svg width="24" height="24" viewBox="0 0 24 24" fill="none" xmlns="http://www.w3.org/2000/svg">
<path d="M12.0006 3.33683e-06C9.648 -0.00175132 7.34688 0.68854 5.38372 1.98493C3.42055 3.28132 1.88208 5.12654 0.959832 7.29085C0.0375889 9.45515 -0.227677 11.8429 0.197064 14.1569C0.621805 16.4708 1.71779 18.6087 3.34856 20.3044C3.93032 20.9216 4.57822 21.4729 5.28056 21.9484C5.34056 21.9856 5.40056 22.0204 5.47256 22.0684C6.19143 22.5303 6.96034 22.9091 7.76456 23.1976C7.77656 23.1976 7.78856 23.2084 7.80056 23.2084C8.10056 23.3284 8.40056 23.4365 8.72457 23.5445C10.3031 23.9923 11.9566 24.1116 13.583 23.8951C15.2095 23.6785 16.7742 23.1308 18.1806 22.2856C18.6307 22.0125 19.0635 21.712 19.4766 21.3856C19.8977 21.0495 20.2947 20.6842 20.6646 20.2924C22.2915 18.5953 23.3837 16.4574 23.8054 14.1445C24.2272 11.8317 23.9599 9.44586 23.0367 7.28371C22.1136 5.12155 20.5753 3.27841 18.6132 1.98342C16.651 0.688429 14.3515 -0.00129132 12.0006 3.33683e-06ZM14.2446 13.7523C13.5732 14.1526 12.8062 14.3641 12.0246 14.3643H12.0006C11.2246 14.3657 10.4638 14.1495 9.80457 13.7403C9.51748 13.583 9.25474 13.385 9.02457 13.1523C8.63718 12.7743 8.32934 12.3227 8.11915 11.8239C7.90896 11.3252 7.80068 10.7894 7.80068 10.2482C7.80068 9.70698 7.90896 9.17122 8.11915 8.67248C8.32934 8.17375 8.63718 7.7221 9.02457 7.34414C9.82987 6.56692 10.9054 6.13256 12.0246 6.13256C13.1438 6.13256 14.2193 6.56692 15.0246 7.34414C15.4154 7.72012 15.7263 8.17113 15.9387 8.67013C16.1511 9.16914 16.2605 9.70588 16.2605 10.2482C16.2605 10.7905 16.1511 11.3273 15.9387 11.8263C15.7263 12.3253 15.4154 12.7763 15.0246 13.1523C14.7891 13.3815 14.5272 13.5821 14.2446 13.7499V13.7523ZM19.3686 19.0444V19.0564C19.1406 19.2856 18.9126 19.5004 18.6726 19.7164C18.6126 19.7644 18.5526 19.8244 18.4926 19.8724C18.4806 19.8856 18.4686 19.8856 18.4566 19.9084C18.0111 20.2681 17.533 20.5855 17.0286 20.8564C17.0206 20.8644 17.0126 20.8724 17.0046 20.8804C14.7282 22.1713 12.041 22.5325 9.50457 21.8884C9.48765 21.8902 9.47065 21.886 9.45657 21.8764C8.3163 21.5139 7.2243 21.0143 6.20456 20.3884C5.89727 20.1851 5.60455 19.9605 5.32856 19.7164C5.08464 19.5051 4.8523 19.2807 4.63256 19.0444C4.40459 18.8147 4.19213 18.5702 3.99656 18.3124C4.53138 17.2752 5.26536 16.3536 6.15656 15.6003C6.66841 15.1608 7.2327 14.7863 7.83657 14.4855C8.06872 14.7161 8.32181 14.9246 8.59256 15.1083C8.91359 15.3356 9.25991 15.5249 9.62457 15.6723C10.3821 16.0001 11.1992 16.1676 12.0246 16.1643C12.8446 16.1652 13.6565 16.0019 14.4126 15.6843C14.7724 15.5264 15.1178 15.3373 15.4446 15.1191C15.7187 14.939 15.9758 14.7341 16.2126 14.5071C16.7981 14.8048 17.346 15.1714 17.8446 15.5991C18.7358 16.3524 19.4698 17.274 20.0046 18.3112C19.8101 18.5684 19.5989 18.8126 19.3722 19.042L19.3686 19.0444Z" fill="#9A9A9A"/>
</svg>
