<svg width="24" height="24" viewBox="0 0 24 24" fill="none" xmlns="http://www.w3.org/2000/svg">
<path d="M20.4484 5.96374H16.5124V4.91209C16.5124 3.86044 15.7444 3 14.7844 3H8.92839C7.96839 3 7.20039 3.86044 7.20039 4.91209V5.96374H3.36039C2.78439 5.96374 2.40039 6.44176 2.40039 7.01538V11.7V13.1341V19.444C2.40039 20.0176 2.88039 20.4 3.36039 20.4H20.5444C21.1204 20.4 21.6004 19.922 21.6004 19.444V13.1341V11.7V7.01538C21.5044 6.44176 21.0244 5.96374 20.4484 5.96374ZM20.0644 18.9659H3.74439V13.1341H9.50439V13.5165C9.50439 14.0901 9.98439 14.5681 10.5604 14.5681H13.2484C13.8244 14.5681 14.3044 14.0901 14.3044 13.5165V13.1341H20.0644V18.9659ZM3.74439 11.7V7.3978H20.0644V11.7H3.74439ZM8.73639 4.91209C8.73639 4.62527 8.92839 4.43407 9.02439 4.43407H14.8804C14.9764 4.43407 15.1684 4.62527 15.1684 4.91209V5.96374H8.73639V4.91209Z" fill="#9A9A9A"/>
</svg>
