<svg width="28" height="28" viewBox="0 0 28 28" fill="none" xmlns="http://www.w3.org/2000/svg">
<path d="M9.86914 9.13501V6.94751H15.0491C15.177 6.94837 15.3017 6.98705 15.4076 7.05868C15.5135 7.13031 15.5958 7.23168 15.6441 7.35001L16.3529 9.10001L12.9054 10.0975L9.86914 9.13501Z" fill="#BCBCBC"/>
<path d="M16.3541 9.13492H15.3741L14.6653 7.38492C14.6169 7.26659 14.5346 7.16522 14.4287 7.09359C14.3229 7.02197 14.1981 6.98328 14.0703 6.98242H15.0503C15.1781 6.98328 15.3029 7.02197 15.4087 7.09359C15.5146 7.16522 15.5969 7.26659 15.6453 7.38492L16.3541 9.13492Z" fill="#A5A5A5"/>
<path d="M4.59438 24.3075C4.28341 24.3075 3.98518 24.184 3.76529 23.9641C3.54541 23.7442 3.42187 23.446 3.42188 23.135V10.01C3.42414 9.85295 3.48755 9.70292 3.59865 9.59182C3.70974 9.48072 3.85978 9.41731 4.01688 9.41505C4.13892 9.42731 4.26217 9.41379 4.37865 9.37534C4.49513 9.33689 4.60222 9.27439 4.69297 9.19188C4.78373 9.10937 4.85613 9.00871 4.90547 8.89641C4.95481 8.78412 4.97999 8.6627 4.97938 8.54005V7.66505C4.97938 7.56294 5.01994 7.46501 5.09214 7.39281C5.16434 7.32061 5.26227 7.28005 5.36438 7.28005H9.89688C9.97347 7.27931 10.0484 7.30254 10.1111 7.34646C10.1739 7.39039 10.2213 7.45283 10.2469 7.52505L10.7894 8.8988C10.8548 9.075 10.9752 9.22546 11.1328 9.3279C11.2904 9.43033 11.4768 9.4793 11.6644 9.46755H21.0006C21.1584 9.46755 21.3098 9.53023 21.4214 9.64182C21.5329 9.7534 21.5956 9.90474 21.5956 10.0625V24.3075H4.59438Z" fill="white"/>
<path d="M9.89563 7.47251C9.91912 7.47318 9.94183 7.48111 9.96063 7.49521C9.97943 7.50931 9.9934 7.52889 10.0006 7.55126L10.5519 8.92501C10.6425 9.13647 10.7941 9.31607 10.9874 9.44079C11.1807 9.5655 11.4069 9.62965 11.6369 9.62501H20.9994C21.0876 9.62534 21.1723 9.65984 21.2356 9.72126C21.2963 9.7851 21.3307 9.86946 21.3319 9.95751V24.045H4.59313C4.36106 24.045 4.1385 23.9528 3.97441 23.7887C3.81031 23.6246 3.71813 23.4021 3.71813 23.17V10.045C3.70505 9.99753 3.70268 9.94773 3.71119 9.89923C3.71971 9.85072 3.73889 9.80471 3.76736 9.76452C3.79582 9.72433 3.83286 9.69097 3.8758 9.66684C3.91874 9.64271 3.96649 9.62843 4.01563 9.62501H4.07687C4.38041 9.62522 4.67219 9.50771 4.89087 9.2972C5.10954 9.08669 5.23805 8.79958 5.24938 8.49626V7.62126C5.24938 7.58877 5.26228 7.55761 5.28525 7.53464C5.30823 7.51167 5.33939 7.49876 5.37188 7.49876H9.90437L9.89563 7.47251ZM9.90437 6.97376H5.36313C5.27809 6.97376 5.1939 6.99051 5.11534 7.02305C5.03678 7.05559 4.9654 7.10328 4.90527 7.16341C4.84515 7.22353 4.79745 7.29491 4.76491 7.37347C4.73237 7.45203 4.71562 7.53623 4.71562 7.62126V8.49626C4.71562 8.66567 4.64833 8.82813 4.52854 8.94792C4.40875 9.06771 4.24628 9.13501 4.07687 9.13501H4.01563C3.78356 9.13501 3.561 9.2272 3.39691 9.39129C3.23281 9.55539 3.14063 9.77794 3.14062 10.01V23.135C3.14292 23.5149 3.29484 23.8785 3.56346 24.1472C3.83208 24.4158 4.19575 24.5677 4.57563 24.57H21.8744V9.99251C21.8744 9.76044 21.7822 9.53789 21.6181 9.37379C21.454 9.2097 21.2314 9.11751 20.9994 9.11751H11.6369C11.5078 9.11722 11.3817 9.07889 11.2743 9.00729C11.1669 8.9357 11.083 8.83403 11.0331 8.71501L10.4994 7.35001C10.451 7.23168 10.3687 7.13031 10.2628 7.05868C10.1569 6.98705 10.0322 6.94837 9.90437 6.94751V6.97376Z" fill="#636363"/>
<path d="M21.875 9.99243V24.5699H21V9.99243C21 9.76037 20.9078 9.53781 20.7437 9.37371C20.5796 9.20962 20.3571 9.11743 20.125 9.11743H21C21.2321 9.11743 21.4546 9.20962 21.6187 9.37371C21.7828 9.53781 21.875 9.76037 21.875 9.99243Z" fill="#E3E3E3"/>
<path fill-rule="evenodd" clip-rule="evenodd" d="M6.20312 24.3075V3.71875H19.1619C19.1619 3.71875 19.1619 3.71875 19.1619 3.77125L22.3994 6.86V24.2812L6.20312 24.3075Z" fill="white"/>
<path d="M19.0041 3.95494L22.1541 6.99994V24.0449H6.40406V3.91994H19.0041V3.95494ZM19.1441 3.39494H6.20281C6.12623 3.39494 6.05279 3.42536 5.99864 3.47951C5.94448 3.53367 5.91406 3.60711 5.91406 3.68369V24.2462C5.91406 24.3228 5.94448 24.3962 5.99864 24.4504C6.05279 24.5045 6.12623 24.5349 6.20281 24.5349H22.3991C22.4366 24.535 22.4737 24.5274 22.5083 24.5128C22.5428 24.4982 22.5741 24.4768 22.6002 24.4499C22.6263 24.4229 22.6468 24.391 22.6603 24.356C22.6739 24.321 22.6802 24.2837 22.6791 24.2462V6.74619C22.6791 6.66744 22.6791 6.64994 22.5216 6.52744L19.3978 3.55244C19.2491 3.41244 19.2316 3.37744 19.1441 3.37744V3.39494Z" fill="#636363"/>
<path fill-rule="evenodd" clip-rule="evenodd" d="M19.6873 6.57999C19.2673 6.57999 19.1973 6.48374 19.1973 6.25624V3.77124L22.1548 6.57999H19.6873Z" fill="white"/>
<path d="M19.4509 4.37489L21.4896 6.30864H19.4684C19.4684 6.30864 19.4684 6.30864 19.4684 6.24739V4.37489H19.4509ZM19.1621 3.42114H18.9434V6.25614C18.9434 6.81614 19.3984 6.84239 19.6959 6.84239H22.6884V6.79864C22.6884 6.71989 22.6884 6.70239 22.5309 6.57989L19.4071 3.60489C19.2584 3.46489 19.2409 3.42989 19.1534 3.42989L19.1621 3.42114Z" fill="#636363"/>
<path d="M17.002 6.6062V9.15245H17.0107V13.3875H18.1045V9.15245V6.6062H17.002Z" fill="#62E2BB"/>
<path d="M14.8398 8.55762V10.3776V13.3876H15.9336V10.3776V8.55762H14.8398Z" fill="#62E2BB"/>
<path d="M12.6699 9.74756V11.1213V13.3876H13.7637V11.1213V9.74756H12.6699Z" fill="#62E2BB"/>
<path d="M10.5 8.18115V10.1412V13.3874H11.5938V10.1412V8.18115H10.5Z" fill="#62E2BB"/>
<path d="M5.80078 24.3075C5.93547 24.1488 6.04738 23.9721 6.13328 23.7825C6.21741 23.5926 6.27625 23.3926 6.30828 23.1875L8.30328 12.005C8.30095 11.9234 8.31472 11.8421 8.34381 11.7659C8.37289 11.6896 8.41672 11.6198 8.47279 11.5605C8.52886 11.5012 8.59607 11.4535 8.67058 11.4201C8.74509 11.3868 8.82544 11.3685 8.90703 11.3662H24.8583C25.0161 11.3662 25.1674 11.4289 25.279 11.5405C25.3906 11.6521 25.4533 11.8034 25.4533 11.9612L23.4408 23.6687C23.4443 23.7499 23.4316 23.8309 23.4035 23.9071C23.3754 23.9834 23.3324 24.0532 23.277 24.1127C23.2217 24.1721 23.155 24.22 23.081 24.2534C23.0069 24.2868 22.927 24.3052 22.8458 24.3075H5.80078Z" fill="white"/>
<path d="M24.8587 11.6288C24.9412 11.6283 25.0209 11.6585 25.0823 11.7135C25.1437 11.7684 25.1826 11.8443 25.1912 11.9263L23.1875 23.625V23.7125C23.1875 23.8007 23.1525 23.8853 23.0901 23.9476C23.0278 24.01 22.9432 24.045 22.855 24.045H6.3L6.37 23.8875C6.46397 23.6817 6.52876 23.4638 6.5625 23.24L8.56625 12.0575V11.9613C8.56625 11.8731 8.60128 11.7885 8.66364 11.7262C8.72599 11.6638 8.81057 11.6288 8.89875 11.6288H24.8587ZM24.8587 11.1038H8.9075C8.67544 11.1038 8.45288 11.196 8.28878 11.3601C8.12469 11.5241 8.0325 11.7467 8.0325 11.9788L6.04625 23.1438C6.0205 23.3285 5.96742 23.5084 5.88875 23.6775C5.79173 23.9406 5.61454 24.1666 5.38219 24.3236C5.14984 24.4806 4.87405 24.5607 4.59375 24.5525H22.8463C23.0783 24.5525 23.3009 24.4603 23.465 24.2962C23.6291 24.1321 23.7213 23.9096 23.7213 23.6775L25.7337 11.9263C25.7337 11.6942 25.6416 11.4716 25.4775 11.3076C25.3134 11.1435 25.0908 11.0513 24.8587 11.0513V11.1038Z" fill="#636363"/>
<path d="M25.7171 11.9612L23.7046 23.7037C23.7046 23.9357 23.6124 24.1583 23.4483 24.3224C23.2842 24.4865 23.0617 24.5787 22.8296 24.5787H21.4121C21.6442 24.5787 21.8667 24.4865 22.0308 24.3224C22.1949 24.1583 22.2871 23.9357 22.2871 23.7037L24.2996 11.9612C24.2996 11.7291 24.2074 11.5066 24.0433 11.3425C23.8792 11.1784 23.6567 11.0862 23.4246 11.0862H24.8596C25.0886 11.0908 25.3067 11.185 25.467 11.3486C25.6274 11.5122 25.7172 11.7321 25.7171 11.9612Z" fill="#62E2BB"/>
<path d="M24.8587 11.6288C24.9412 11.6283 25.0209 11.6585 25.0823 11.7135C25.1437 11.7684 25.1826 11.8443 25.1912 11.9263L23.1875 23.625V23.7125C23.1875 23.8007 23.1525 23.8853 23.0901 23.9476C23.0278 24.01 22.9432 24.045 22.855 24.045H6.3L6.37 23.8875C6.46397 23.6817 6.52876 23.4638 6.5625 23.24L8.56625 12.0575V11.9613C8.56625 11.8731 8.60128 11.7885 8.66364 11.7262C8.72599 11.6638 8.81057 11.6288 8.89875 11.6288H24.8587ZM24.8587 11.1038H8.9075C8.67544 11.1038 8.45288 11.196 8.28878 11.3601C8.12469 11.5241 8.0325 11.7467 8.0325 11.9788L6.04625 23.1438C6.0205 23.3285 5.96742 23.5084 5.88875 23.6775C5.79173 23.9406 5.61454 24.1666 5.38219 24.3236C5.14984 24.4806 4.87405 24.5607 4.59375 24.5525H22.8463C23.0783 24.5525 23.3009 24.4603 23.465 24.2962C23.6291 24.1321 23.7213 23.9096 23.7213 23.6775L25.7337 11.9263C25.7337 11.6942 25.6416 11.4716 25.4775 11.3076C25.3134 11.1435 25.0908 11.0513 24.8587 11.0513V11.1038Z" fill="#636363"/>
<path d="M7.61328 17.5001C8.83828 17.4388 10.072 17.3863 11.3058 17.3513L11.1658 17.4476L12.1983 14.8226L12.382 14.3413L12.6008 14.8138L14.3508 18.7863H13.8783C14.2895 17.7801 14.7533 16.7738 15.182 15.7763L15.392 16.3626L15.847 17.6488L15.672 17.5001C18.472 17.5001 21.275 17.5788 24.0808 17.7363C21.2195 17.8763 18.367 17.9551 15.5058 17.9726L15.4445 17.8151L14.972 16.5376H15.4358C15.0158 17.5263 14.6045 18.5413 14.1583 19.5126L12.1983 14.9888H12.6008L11.437 17.6138L11.3933 17.7013C10.1333 17.7013 8.87328 17.6226 7.61328 17.5526V17.5001Z" fill="#636363"/>
</svg>
