<svg width="18" height="18" viewBox="0 0 18 18" fill="none" xmlns="http://www.w3.org/2000/svg">
<path fill-rule="evenodd" clip-rule="evenodd" d="M1.75025 12.8393H4.47275H4.4735V12.8385C4.3805 12.429 4.32575 12.009 4.30925 11.5898H1.75025V5.84252H7.0385C7.86875 5.21777 8.84375 4.78652 9.857 4.59227H1.75025V2.67677H3.299V3.70952H4.54925V2.67677H8.62475V3.70952H9.875V2.67677H11.4237V4.47527C11.8468 4.49177 12.2668 4.54727 12.674 4.63952V2.67677C12.674 1.98752 12.113 1.42652 11.4237 1.42652H9.875V0.666016H8.62475V1.42652H4.54925V0.666016H3.299V1.42652H1.75025C1.061 1.42652 0.5 1.98752 0.5 2.67677V11.5898C0.5 12.279 1.061 12.8393 1.75025 12.8393ZM15.5487 11.4503L14.3675 11.8583L15.6327 15.5258L16.328 14.4285L16.4592 14.2103C16.9662 13.3275 17.2362 12.3248 17.2362 11.2838C17.2362 8.01602 14.5872 5.36702 11.3195 5.36702C10.1923 5.36702 9.11 5.68427 8.1755 6.27527L8.84375 7.33127L9.047 7.20977C9.734 6.82277 10.511 6.61727 11.3195 6.61727C13.8965 6.61727 15.986 8.70677 15.986 11.2838L15.98 11.5253C15.968 11.766 15.9373 12.003 15.8892 12.2355L15.8607 12.3548L15.5487 11.4503ZM6.18575 8.35202C5.6765 9.23851 5.4035 10.2413 5.4035 11.2838C5.4035 14.5508 8.0525 17.1998 11.3202 17.1998C12.449 17.1998 13.532 16.8803 14.4702 16.2855L13.802 15.2295L13.5972 15.3518C12.9065 15.7418 12.1287 15.9503 11.3202 15.9503C8.74325 15.9503 6.65375 13.8608 6.65375 11.2838L6.65975 11.0415C6.67625 10.7213 6.72575 10.4063 6.806 10.1003L6.8105 10.0838L7.2065 11.0888L8.36975 10.6305L6.97625 7.09276L6.31775 8.13301L6.18575 8.35202ZM9.62525 11.5905C9.45725 11.3543 9.6005 11.034 9.86975 10.986L9.94025 10.98H10.667C11.0825 10.98 11.4425 10.7108 11.594 10.3238H9.6065V9.55052H11.609C11.4785 9.17552 11.1537 8.90027 10.7682 8.85902L10.667 8.85377H9.6065V8.08127H10.667H13.0362V8.85377H12.1145C12.2555 9.05927 12.3567 9.29552 12.407 9.55052H13.0362V10.3238H12.3987C12.2285 11.0985 11.5842 11.6903 10.7937 11.748L10.6872 11.7518L12.371 14.1233L11.741 14.5703L9.62525 11.5905Z" fill="#9A9A9A"/>
</svg>
