<svg width="28" height="28" viewBox="0 0 28 28" fill="none" xmlns="http://www.w3.org/2000/svg">
<path d="M6.09961 3.49121H17.3346L21.8321 7.80496V24.5087H6.09961V3.49121Z" fill="white"/>
<path d="M21.3059 24.7625H6.69336C6.46129 24.7625 6.23873 24.6703 6.07464 24.5062C5.91055 24.3421 5.81836 24.1196 5.81836 23.8875V4.10376C5.81836 3.8717 5.91055 3.64914 6.07464 3.48504C6.23873 3.32095 6.46129 3.22876 6.69336 3.22876H17.3509C17.4186 3.22911 17.4838 3.25398 17.5346 3.29876L22.0671 7.63001C22.0942 7.65428 22.116 7.68392 22.1311 7.71706C22.1462 7.7502 22.1542 7.78611 22.1546 7.82251V23.9225C22.1458 24.144 22.0533 24.3539 21.8958 24.5098C21.7383 24.6657 21.5274 24.756 21.3059 24.7625ZM6.69336 3.76251C6.60899 3.76248 6.52794 3.79538 6.46747 3.85422C6.407 3.91305 6.37189 3.99317 6.36961 4.07751V23.9225C6.37189 24.0068 6.407 24.087 6.46747 24.1458C6.52794 24.2046 6.60899 24.2375 6.69336 24.2375H21.3059C21.3902 24.2375 21.4713 24.2046 21.5317 24.1458C21.5922 24.087 21.6273 24.0068 21.6296 23.9225V7.96251L17.2546 3.78876L6.69336 3.76251Z" fill="#636363"/>
<path d="M19.4423 20.2737H8.47852V20.7987H19.4423V20.2737Z" fill="#636363"/>
<path d="M19.4423 18.1475H8.47852V18.6725H19.4423V18.1475Z" fill="#636363"/>
<path d="M19.4423 15.8638H8.47852V16.3888H19.4423V15.8638Z" fill="#636363"/>
<path d="M16.931 13.7375H8.47852V14.2625H16.931V13.7375Z" fill="#636363"/>
<path d="M14.9182 11.1474H8.6707C8.63623 11.1474 8.6021 11.1406 8.57025 11.1274C8.5384 11.1142 8.50946 11.0949 8.48509 11.0705C8.46071 11.0461 8.44138 11.0172 8.42819 10.9853C8.41499 10.9535 8.4082 10.9194 8.4082 10.8849V6.74614C8.4082 6.71167 8.41499 6.67754 8.42819 6.64569C8.44138 6.61384 8.46071 6.5849 8.48509 6.56053C8.50946 6.53615 8.5384 6.51682 8.57025 6.50362C8.6021 6.49043 8.63623 6.48364 8.6707 6.48364H14.9182C14.9527 6.48364 14.9868 6.49043 15.0187 6.50362C15.0505 6.51682 15.0794 6.53615 15.1038 6.56053C15.1282 6.5849 15.1475 6.61384 15.1607 6.64569C15.1739 6.67754 15.1807 6.71167 15.1807 6.74614V10.8849C15.1807 10.9194 15.1739 10.9535 15.1607 10.9853C15.1475 11.0172 15.1282 11.0461 15.1038 11.0705C15.0794 11.0949 15.0505 11.1142 15.0187 11.1274C14.9868 11.1406 14.9527 11.1474 14.9182 11.1474ZM8.9332 10.6224H14.6557V6.99989H8.9332V10.6224Z" fill="#636363"/>
<path d="M21.875 7.87508V23.9226C21.8727 24.0774 21.8102 24.2252 21.7008 24.3346C21.5913 24.4441 21.4435 24.5066 21.2887 24.5088H6.69375C6.54204 24.5021 6.39863 24.4377 6.29289 24.3287C6.18715 24.2197 6.12709 24.0744 6.125 23.9226V22.9513H19.7487C19.9035 22.9491 20.0513 22.8866 20.1608 22.7771C20.2702 22.6677 20.3327 22.5199 20.335 22.3651V6.36133L21.875 7.87508Z" fill="#62E2BB"/>
<path d="M21.3059 24.7625H6.69336C6.46129 24.7625 6.23873 24.6703 6.07464 24.5062C5.91055 24.3421 5.81836 24.1196 5.81836 23.8875V4.10376C5.81836 3.8717 5.91055 3.64914 6.07464 3.48504C6.23873 3.32095 6.46129 3.22876 6.69336 3.22876H17.3509C17.4186 3.22911 17.4838 3.25398 17.5346 3.29876L22.0671 7.63001C22.0942 7.65428 22.116 7.68392 22.1311 7.71706C22.1462 7.7502 22.1542 7.78611 22.1546 7.82251V23.9225C22.1458 24.144 22.0533 24.3539 21.8958 24.5098C21.7383 24.6657 21.5274 24.756 21.3059 24.7625ZM6.69336 3.76251C6.60899 3.76248 6.52794 3.79538 6.46747 3.85422C6.407 3.91305 6.37189 3.99317 6.36961 4.07751V23.9225C6.37189 24.0068 6.407 24.087 6.46747 24.1458C6.52794 24.2046 6.60899 24.2375 6.69336 24.2375H21.3059C21.3902 24.2375 21.4713 24.2046 21.5317 24.1458C21.5922 24.087 21.6273 24.0068 21.6296 23.9225V7.96251L17.2546 3.78876L6.69336 3.76251Z" fill="#636363"/>
<path d="M17.334 3.49121V7.92746H21.8402L17.334 3.49121Z" fill="white"/>
<path d="M21.8742 8.19006H17.333C17.2982 8.19128 17.2635 8.18533 17.2311 8.17257C17.1987 8.15981 17.1693 8.14052 17.1446 8.1159C17.12 8.09127 17.1007 8.06185 17.088 8.02945C17.0752 7.99704 17.0692 7.96236 17.0705 7.92756V3.50006C17.0689 3.4492 17.0833 3.39913 17.1115 3.3568C17.1397 3.31446 17.1804 3.28196 17.228 3.26381C17.2756 3.24157 17.329 3.23468 17.3807 3.24408C17.4324 3.25349 17.48 3.27873 17.5167 3.31631L22.023 7.75256C22.0613 7.78689 22.0878 7.83241 22.0988 7.88267C22.1098 7.93293 22.1047 7.98537 22.0842 8.03256C22.0678 8.07603 22.0393 8.11392 22.0021 8.14181C21.9649 8.1697 21.9206 8.18643 21.8742 8.19006ZM17.6305 7.66506H21.2355L17.6305 4.16506V7.66506Z" fill="#636363"/>
</svg>
