<svg width="28" height="28" viewBox="0 0 28 28" fill="none" xmlns="http://www.w3.org/2000/svg">
<path d="M13.9994 24.7449C12.3122 24.1817 10.7346 23.3322 9.33562 22.2337C5.24937 19.1187 5.35437 13.0024 5.36312 12.9412V6.92991C6.38687 6.75491 10.8494 5.89741 13.9994 3.31616C17.1581 5.94116 21.6119 6.75491 22.6794 6.92991V12.9324C22.6794 13.0024 22.7844 19.1187 18.7069 22.2337C17.2944 23.3362 15.7017 24.1858 13.9994 24.7449Z" fill="white"/>
<path d="M13.9994 3.6576C16.5043 5.44027 19.3782 6.63648 22.4082 7.1576V12.9413C22.4082 13.0026 22.5044 18.9963 18.5407 22.0238C17.1781 23.1005 15.6425 23.9379 13.9994 24.5001C12.37 23.9473 10.8463 23.1218 9.49319 22.0588C5.52944 18.9963 5.61694 13.0026 5.62569 12.9326V7.1576C8.65659 6.63968 11.5312 5.44318 14.0344 3.6576H13.9994ZM14.0344 2.9751C10.4994 5.95885 5.05694 6.71135 5.05694 6.71135V12.9326C5.05694 12.9326 4.94319 19.2501 9.16944 22.4438C10.617 23.5766 12.2517 24.4473 13.9994 25.0163C15.7468 24.4463 17.3813 23.5757 18.8294 22.4438C23.0557 19.2063 22.8982 12.9326 22.8982 12.9326V6.71135C22.8982 6.71135 17.4994 5.95885 13.9994 2.98385L14.0344 2.9751Z" fill="#636363"/>
<path d="M22.9075 12.9324C22.9075 12.9324 23.065 19.2149 18.83 22.4524C17.38 23.5793 15.7458 24.4466 14 25.0162C13.7288 24.9287 13.44 24.8324 13.125 24.7099C14.542 24.1452 15.8731 23.3853 17.08 22.4524C21.315 19.2149 21.1575 12.9324 21.1575 12.9324V6.71118C18.2985 6.25637 15.5641 5.2168 13.125 3.65743C13.4225 3.44743 13.7113 3.22868 14 2.99243C17.5 5.96743 22.925 6.71118 22.925 6.71118L22.9075 12.9324Z" fill="#62E2BB"/>
<path d="M16.3356 10.8762H11.6719V11.4012H16.3356V10.8762Z" fill="#636363"/>
<path d="M16.3356 12.7488H11.6719V13.2738H16.3356V12.7488Z" fill="#636363"/>
<path d="M14.7082 18.7687L11.8995 14.98C11.8716 14.9402 11.8566 14.8929 11.8566 14.8443C11.8566 14.7958 11.8716 14.7484 11.8995 14.7087C11.9185 14.6642 11.9502 14.6264 11.9907 14.5999C12.0312 14.5734 12.0786 14.5595 12.127 14.56H13.0895C13.3067 14.5761 13.525 14.5473 13.7307 14.4753C13.9363 14.4032 14.1249 14.2895 14.2846 14.1413C14.4443 13.9931 14.5717 13.8135 14.6588 13.6137C14.7459 13.414 14.7908 13.1985 14.7908 12.9806C14.7908 12.7627 14.7459 12.5471 14.6588 12.3474C14.5717 12.1477 14.4443 11.9681 14.2846 11.8198C14.1249 11.6716 13.9363 11.5579 13.7307 11.4859C13.525 11.4138 13.3067 11.385 13.0895 11.4012H11.6895V10.8762H13.0895C13.3772 10.8576 13.6657 10.8983 13.9372 10.9956C14.2086 11.093 14.4572 11.245 14.6675 11.4422C14.8779 11.6394 15.0456 11.8777 15.1602 12.1423C15.2748 12.4069 15.334 12.6922 15.334 12.9806C15.334 13.2689 15.2748 13.5542 15.1602 13.8188C15.0456 14.0834 14.8779 14.3217 14.6675 14.5189C14.4572 14.7162 14.2086 14.8682 13.9372 14.9655C13.6657 15.0629 13.3772 15.1035 13.0895 15.085H12.652L15.1457 18.4537L14.7082 18.7687Z" fill="#636363"/>
<path d="M13.9994 3.6576C16.5043 5.44027 19.3782 6.63648 22.4082 7.1576V12.9413C22.4082 13.0026 22.5044 18.9963 18.5407 22.0238C17.1781 23.1005 15.6425 23.9379 13.9994 24.5001C12.37 23.9473 10.8463 23.1218 9.49319 22.0588C5.52944 18.9963 5.61694 13.0026 5.62569 12.9326V7.1576C8.65659 6.63968 11.5312 5.44318 14.0344 3.6576H13.9994ZM14.0344 2.9751C10.4994 5.95885 5.05694 6.71135 5.05694 6.71135V12.9326C5.05694 12.9326 4.94319 19.2501 9.16944 22.4438C10.617 23.5766 12.2517 24.4473 13.9994 25.0163C15.7468 24.4463 17.3813 23.5757 18.8294 22.4438C23.0557 19.2063 22.8982 12.9326 22.8982 12.9326V6.71135C22.8982 6.71135 17.4994 5.95885 13.9994 2.98385L14.0344 2.9751Z" fill="#636363"/>
</svg>
