<svg width="32" height="32" viewBox="0 0 32 32" fill="none" xmlns="http://www.w3.org/2000/svg">
<path d="M12.8607 25.1641H9.48507C9.2814 25.1641 9.14707 25.0298 9.14707 24.8261V21.8556C6.91865 20.1678 5.63599 17.804 5.63599 15.2386C5.63599 10.3095 10.4297 6.32495 16.3718 6.32495C18.7356 6.32495 20.8958 6.9327 22.7201 8.08103L24.3397 6.46036C24.4069 6.39319 24.6106 6.32494 24.6777 6.39319C24.8121 6.46036 24.8803 6.59469 24.8803 6.73011V9.97253C25.6906 10.7829 26.2312 11.7947 26.6364 12.8748H28.3914C28.594 12.8748 28.7283 13.0102 28.7283 13.2128V17.2645C28.7283 17.467 28.594 17.6025 28.3914 17.6025H26.5681C25.9604 19.2903 24.8803 20.7755 23.3268 21.9239V24.8261C23.3268 25.0298 23.1914 25.1641 22.9899 25.1641H19.6131C19.4106 25.1641 19.2762 25.0298 19.2762 24.8261V23.8143C18.3305 24.084 17.3175 24.1512 16.2364 24.1512C15.0891 24.1512 14.0762 24.0158 13.1305 23.8143V24.8944C13.1987 25.0298 13.0633 25.1641 12.8607 25.1641" fill="white"/>
<path d="M28.7252 13.212V17.2637C28.7252 17.4695 28.5952 17.5995 28.3894 17.5995H26.5694C25.9627 19.2895 24.8794 20.7737 23.3313 21.922V24.8254C23.3313 25.0312 23.1894 25.1612 22.9944 25.1612H19.6144C19.4086 25.1612 19.2786 25.0312 19.2786 24.8254V23.8179C18.3361 24.0887 17.3177 24.1548 16.2344 24.1548C16.0827 24.1548 15.4544 24.0779 15.0644 24.0454C20.0586 22.9729 23.7202 19.4304 23.7202 15.2379C23.7202 11.0129 20.0044 7.45953 14.9561 6.40869C15.4219 6.34369 15.8986 6.32202 16.3752 6.32202C18.7369 6.32202 20.8938 6.92869 22.7236 8.07702L24.3377 6.46394C24.4027 6.38702 24.6086 6.32202 24.6736 6.38702C24.8144 6.46394 24.8794 6.59285 24.8794 6.73477V9.97285C25.6919 10.7854 26.2336 11.7929 26.6344 12.8762H28.3894C28.5952 12.8762 28.7252 13.0073 28.7252 13.212" fill="#62E2BB"/>
<path d="M17.9541 19.1991V16.624H15.379L17.9541 19.1991Z" fill="#62E2BB"/>
<path fill-rule="evenodd" clip-rule="evenodd" d="M18.957 24.9279C19.002 25.2573 19.2657 25.4877 19.614 25.4877H22.989L23.0907 25.4814C23.4201 25.4364 23.6523 25.1736 23.6523 24.8262L23.6514 22.083L23.8107 21.9615C25.1409 20.904 26.1318 19.5738 26.7483 18.0429L26.7924 17.9259L28.3908 17.9268L28.4925 17.9196C28.8219 17.8746 29.0541 17.6109 29.0541 17.2635V13.2117L29.0469 13.11C29.0019 12.7815 28.7382 12.5502 28.3908 12.5502L26.8581 12.5493L26.8095 12.4269C26.4099 11.445 25.9293 10.6323 25.3182 9.96L25.2048 9.8421V6.7299L25.1985 6.6327C25.1688 6.4095 25.0365 6.2097 24.825 6.1026L24.7701 6.0594C24.6027 5.9667 24.2778 6.0621 24.1095 6.2304L22.6686 7.6704L22.557 7.602C20.7453 6.5472 18.642 6 16.3722 6C11.4924 6 7.23544 8.646 5.80804 12.4845C5.52724 13.2405 5.36344 14.0298 5.32204 14.8344C5.09614 14.7642 4.87114 14.6625 4.66234 14.5212C3.88474 13.9983 3.49414 13.0929 3.70654 11.6376L3.06304 11.544L3.03154 11.7951C2.86594 13.3575 3.36184 14.4303 4.29964 15.0603C4.66054 15.3024 5.01964 15.4428 5.31934 15.513C5.32204 15.5814 5.32654 15.6561 5.33284 15.7371L5.36434 16.0818C5.43094 16.6956 5.55154 17.3103 5.73964 17.8881C5.96464 18.5802 6.27424 19.1733 6.68284 19.6359L7.16974 19.2048L7.02754 19.0311C6.75124 18.6666 6.52894 18.2121 6.35704 17.6865C6.18424 17.1564 6.07264 16.5849 6.01144 16.0116C5.97994 15.7227 5.96644 15.486 5.96284 15.3258L5.96104 15.2385L5.96914 14.9136C6.00244 14.1594 6.15454 13.4196 6.41734 12.7104C7.74484 9.1401 11.7516 6.6498 16.3722 6.6498C18.6627 6.6498 20.7669 7.2339 22.5462 8.3562L22.6128 8.3886C22.7289 8.4282 22.8603 8.4003 22.9494 8.3112L24.5496 6.7083L24.5532 6.7155L24.555 9.9717L24.5613 10.0356C24.5739 10.0977 24.6045 10.1553 24.6495 10.2012C25.3596 10.9113 25.8942 11.823 26.3316 12.9885C26.3793 13.1154 26.4999 13.2 26.6358 13.2H28.3908L28.4043 13.1982L28.4052 17.277L26.5683 17.2761L26.5017 17.2833C26.3928 17.3058 26.3019 17.3841 26.2632 17.4912C25.6638 19.1526 24.6063 20.5737 23.1339 21.6618C23.0511 21.723 23.0025 21.8193 23.0025 21.9228V24.8262L23.0043 24.8397L19.614 24.8379L19.5996 24.8397L19.6005 23.8128L19.5933 23.7435C19.5546 23.5653 19.371 23.4483 19.1865 23.5005C18.3648 23.7354 17.4558 23.8263 16.2372 23.8263C16.0383 23.8263 15.8439 23.8218 15.6522 23.8137L15.6378 24.1386L15.6513 23.8137L15.1572 23.7849C14.5029 23.7345 13.8603 23.6373 13.1988 23.4951L13.1322 23.4879C12.9567 23.487 12.8055 23.6292 12.8055 23.8128V24.8379H9.48454L9.47104 24.8397L9.47284 22.5654H8.82214V24.8262L8.82934 24.9279C8.87434 25.2564 9.13714 25.4877 9.48454 25.4877H12.8613L12.9486 25.4832C13.2906 25.4418 13.5597 25.1637 13.4562 24.8325L13.4553 24.2088L13.5768 24.2331C14.259 24.3573 14.9304 24.4347 15.6234 24.4626L15.9276 24.4725L16.2372 24.4761L16.6098 24.4734C17.4603 24.459 18.1695 24.3951 18.8202 24.2601L18.9498 24.2295L18.9507 24.8262L18.957 24.9279ZM9.56014 19.1256L5.53534 23.0667L5.99074 23.5311L9.77794 19.8213L12.2232 22.4196L12.2826 22.4691C12.4095 22.5519 12.5814 22.5366 12.6921 22.4241L16.6674 18.3723L17.724 19.4289C17.7861 19.4901 17.8662 19.5243 17.9508 19.5243C18.1119 19.5243 18.2784 19.4028 18.2784 19.1985V16.6236C18.2784 16.4445 18.1326 16.2987 17.9535 16.2987H15.3786C15.2445 16.2987 15.1293 16.3752 15.078 16.4994C15.0267 16.6227 15.0537 16.7586 15.1482 16.8531L16.2075 17.9124L12.4644 21.7275L10.0245 19.1355L9.96604 19.086C9.84094 19.0041 9.67174 19.0167 9.56014 19.1256ZM17.6277 18.4137V16.9485H16.1625L17.6277 18.4137ZM15.3291 11.0877L13.9476 14.6607L14.781 14.6616L14.7819 14.6607L15.0078 14.0442H16.6035L16.8285 14.6607L17.6583 14.6589L16.2822 11.0877H15.3291ZM15.2112 13.3854H16.3947L15.8052 11.7465L15.2112 13.3854ZM12.162 11.7573V14.6607H12.9279V11.7573H13.9674V11.0877H11.118V11.7573H12.162ZM20.5347 14.6598L19.641 13.3539L18.741 14.6598H17.8365L19.1316 12.8292L17.9166 11.0877H18.8211L19.641 12.309L20.4492 11.0877H21.3654L20.1504 12.8238L21.4455 14.6598H20.5347ZM16.329 7.8081C15.7017 7.8081 15.0771 7.8594 14.4615 7.9575L14.565 8.5992L15.0024 8.538C15.4416 8.4858 15.8844 8.4588 16.329 8.4588C16.8762 8.4588 17.4099 8.4966 17.9283 8.5713L18.021 7.9278L17.6061 7.8756C17.1885 7.8306 16.7628 7.8081 16.329 7.8081Z" fill="#636363"/>
</svg>
