<svg width="28" height="28" viewBox="0 0 28 28" fill="none" xmlns="http://www.w3.org/2000/svg">
<path d="M7.73469 15.7324H2.99219V24.4999H7.73469V15.7324Z" fill="white"/>
<path d="M15.9417 12.1187H11.1992V24.4999H15.9417V12.1187Z" fill="white"/>
<path d="M21.7708 3.80615L17.8945 7.98865H19.3995V24.4999H24.142V7.98865H25.612L21.7708 3.80615Z" fill="white"/>
<path d="M15.933 24.4999L14.043 24.7624V12.3724L15.933 12.1187V24.4999Z" fill="#62E2BB"/>
<path d="M24.2297 24.5H22.5234V4.63745L24.2297 6.0637L25.3847 7.9887H24.1422L24.2297 24.5Z" fill="#62E2BB"/>
<path d="M7.72617 24.4999L5.88867 24.7099V15.9424L7.72617 15.7324V24.4999Z" fill="#62E2BB"/>
<path d="M15.9339 24.7626H11.2002C11.1654 24.7638 11.1307 24.7579 11.0983 24.7451C11.0659 24.7324 11.0364 24.7131 11.0118 24.6884C10.9872 24.6638 10.9679 24.6344 10.9551 24.602C10.9424 24.5696 10.9364 24.5349 10.9377 24.5001V12.1189C10.9364 12.0841 10.9424 12.0494 10.9551 12.017C10.9679 11.9846 10.9872 11.9551 11.0118 11.9305C11.0364 11.9059 11.0659 11.8866 11.0983 11.8738C11.1307 11.8611 11.1654 11.8551 11.2002 11.8564H15.9339C15.9687 11.8551 16.0034 11.8611 16.0358 11.8738C16.0682 11.8866 16.0976 11.9059 16.1222 11.9305C16.1469 11.9551 16.1662 11.9846 16.1789 12.017C16.1917 12.0494 16.1976 12.0841 16.1964 12.1189V24.5001C16.1976 24.5349 16.1917 24.5696 16.1789 24.602C16.1662 24.6344 16.1469 24.6638 16.1222 24.6884C16.0976 24.7131 16.0682 24.7324 16.0358 24.7451C16.0034 24.7579 15.9687 24.7638 15.9339 24.7626ZM11.4627 24.2376H15.6714V12.3814H11.4627V24.2376Z" fill="#636363"/>
<path d="M7.72687 24.7625H2.99313C2.95832 24.7637 2.92364 24.7577 2.89124 24.745C2.85884 24.7322 2.82941 24.7129 2.80479 24.6883C2.78017 24.6637 2.76088 24.6342 2.74812 24.6018C2.73536 24.5694 2.7294 24.5348 2.73063 24.5V15.75C2.7294 15.7152 2.73536 15.6805 2.74812 15.6481C2.76088 15.6157 2.78017 15.5862 2.80479 15.5616C2.82941 15.537 2.85884 15.5177 2.89124 15.505C2.92364 15.4922 2.95832 15.4862 2.99313 15.4875H7.72687C7.76168 15.4862 7.79636 15.4922 7.82876 15.505C7.86116 15.5177 7.89059 15.537 7.91521 15.5616C7.93983 15.5862 7.95912 15.6157 7.97188 15.6481C7.98464 15.6805 7.9906 15.7152 7.98938 15.75V24.5C7.9906 24.5348 7.98464 24.5694 7.97188 24.6018C7.95912 24.6342 7.93983 24.6637 7.91521 24.6883C7.89059 24.7129 7.86116 24.7322 7.82876 24.745C7.79636 24.7577 7.76168 24.7637 7.72687 24.7625ZM3.25563 24.2375H7.46437V15.995H3.25563V24.2375Z" fill="#636363"/>
<path d="M24.1412 24.7625H19.3987C19.3291 24.7625 19.2623 24.7348 19.2131 24.6856C19.1638 24.6363 19.1362 24.5696 19.1362 24.5V8.2512H17.8937C17.8421 8.25097 17.7917 8.23602 17.7483 8.20813C17.7049 8.18023 17.6703 8.14054 17.6487 8.0937C17.6308 8.04527 17.6263 7.99294 17.6355 7.94216C17.6448 7.89138 17.6674 7.844 17.7012 7.80495L21.5774 3.6312C21.6013 3.60363 21.6309 3.58155 21.6641 3.56645C21.6974 3.55135 21.7334 3.54359 21.7699 3.5437C21.8431 3.54659 21.9122 3.578 21.9624 3.6312L25.8037 7.80495C25.8378 7.8439 25.86 7.89177 25.8677 7.94294C25.8755 7.9941 25.8684 8.04641 25.8474 8.0937C25.8293 8.14124 25.7968 8.18194 25.7545 8.21017C25.7121 8.23839 25.662 8.25273 25.6112 8.2512H24.4037V24.5C24.4049 24.5348 24.399 24.5694 24.3862 24.6018C24.3734 24.6342 24.3541 24.6637 24.3295 24.6883C24.3049 24.7129 24.2755 24.7322 24.2431 24.745C24.2107 24.7577 24.176 24.7637 24.1412 24.7625ZM19.6612 24.2375H23.8787V7.9887C23.8775 7.9539 23.8834 7.91922 23.8962 7.88682C23.9089 7.85442 23.9282 7.82499 23.9529 7.80037C23.9775 7.77574 24.0069 7.75645 24.0393 7.74369C24.0717 7.73093 24.1064 7.72498 24.1412 7.7262H25.0162L21.7699 4.2262L18.4974 7.7262H19.3724C19.4072 7.72498 19.4419 7.73093 19.4743 7.74369C19.5067 7.75645 19.5361 7.77574 19.5608 7.80037C19.5854 7.82499 19.6047 7.85442 19.6174 7.88682C19.6302 7.91922 19.6362 7.9539 19.6349 7.9887L19.6612 24.2375Z" fill="#636363"/>
</svg>
