<svg width="24" height="24" viewBox="0 0 24 24" fill="none" xmlns="http://www.w3.org/2000/svg">
<path d="M12.7647 19.5886C12.8272 19.6689 12.8986 19.7493 12.9701 19.8207C12.2379 19.9725 11.4879 20.0439 10.7299 20.0439C8.97006 20.0439 7.26559 19.6422 5.74773 18.8743C5.08613 18.5618 4.46112 18.1689 3.89059 17.7047C3.68434 17.5439 3.59505 17.2939 3.66738 17.0618C4.38077 14.5529 6.35398 12.5082 8.91648 11.4993C9.0147 11.4547 9.12273 11.419 9.22899 11.3832C9.33613 11.3475 9.43524 11.3118 9.54238 11.2761C9.92541 11.1511 10.3281 11.0529 10.7299 10.9814C10.7915 10.9904 10.8629 11.0082 10.9254 11.0261C11.2468 11.0886 11.5593 11.1689 11.8718 11.2582C11.8817 11.2672 11.8986 11.2672 11.9165 11.2761C12.0245 11.3118 12.1218 11.3475 12.229 11.3832C12.337 11.4189 12.4442 11.4547 12.5415 11.4993C12.8808 11.6332 13.2111 11.785 13.5245 11.9457C13.4442 11.9993 13.3638 12.0707 13.2924 12.1422C13.2111 12.2047 13.1406 12.2672 13.0692 12.3386C12.0951 13.3029 11.4879 14.6422 11.4879 16.1243C11.4879 16.8743 11.6397 17.5886 11.9165 18.2314C12.1308 18.7314 12.4165 19.1868 12.7647 19.5886" fill="white"/>
<path d="M11.2483 10.8299C11.2394 10.8209 11.2394 10.812 11.2305 10.812C11.2849 10.8209 11.3385 10.8388 11.3912 10.8567C11.6055 10.9013 11.8207 10.9638 12.026 11.0352C12.0876 11.0531 12.1412 11.0718 12.1957 11.0888C12.2939 11.1245 12.3912 11.1602 12.4903 11.187V11.1959C12.5073 11.1959 12.5171 11.2049 12.534 11.2049C12.6144 11.2406 12.6957 11.2674 12.7662 11.312C12.8564 11.3388 12.9367 11.3745 13.0162 11.4102C13.2037 11.4906 13.3912 11.5799 13.5706 11.6781C13.6331 11.7049 13.6948 11.7415 13.7581 11.7763C13.6778 11.8209 13.6064 11.8834 13.526 11.9459C13.4457 11.9995 13.3653 12.0709 13.2939 12.1424C13.2126 12.2049 13.1421 12.2674 13.0707 12.3388C12.8823 12.1334 12.6957 11.9459 12.4903 11.7674C12.4358 11.7227 12.3912 11.6781 12.3385 11.6513C12.2671 11.5709 12.1957 11.5084 12.1153 11.4638C12.0439 11.3924 11.9724 11.3299 11.9001 11.2852C11.8921 11.2763 11.8832 11.2674 11.8733 11.2584C11.6689 11.1066 11.4626 10.9638 11.2483 10.8299" fill="#62E2BB"/>
<path d="M12.9712 19.8212C13.0516 19.9016 13.132 19.973 13.2123 20.0534C13.2034 20.0534 13.1855 20.0534 13.1677 20.0623C12.382 20.2319 11.5695 20.3212 10.7302 20.3212C10.6489 20.3212 10.5605 20.3212 10.4802 20.3123C10.3909 20.3123 10.3105 20.3034 10.2302 20.3034C9.89982 20.2855 9.56947 20.2587 9.24804 20.223C9.12304 20.2051 8.99805 20.1873 8.87304 20.1694C8.5159 20.1069 8.16768 20.0355 7.8284 19.9462C7.68554 19.9105 7.54269 19.8748 7.39983 19.8301C6.98911 19.7141 6.58733 19.5623 6.19447 19.3926C5.96144 19.2944 5.73822 19.1873 5.51501 19.0712C5.30162 18.9552 5.0784 18.8391 4.87305 18.7051C5.15876 18.7766 5.4534 18.8391 5.74805 18.8748C6.05162 18.9373 6.36412 18.973 6.67662 18.9998C6.99805 19.0266 7.32841 19.0444 7.65876 19.0444C9.17662 19.0444 10.6141 18.7587 11.9168 18.2319C12.132 18.7319 12.4177 19.1873 12.7659 19.5891C12.8284 19.6694 12.8998 19.7498 12.9713 19.8212" fill="#62E2BB"/>
<path fill-rule="evenodd" clip-rule="evenodd" d="M10.4796 20.3126H10.73C11.5437 20.3126 12.3637 20.2283 13.1674 20.0621C13.1815 20.0551 13.1955 20.054 13.2025 20.054L13.2061 20.0541C13.2082 20.0541 13.2101 20.054 13.212 20.0534C13.1719 20.0133 13.1318 19.9754 13.091 19.9368L13.0908 19.9366C13.0509 19.8988 13.0109 19.8611 12.971 19.8212C12.8961 19.7463 12.8254 19.6661 12.7658 19.589C12.1069 19.7135 11.4219 19.7766 10.73 19.7766C9.30288 19.7766 7.93891 19.5152 6.67596 18.9997C5.71626 18.6287 4.83623 18.124 4.06035 17.4998C3.9435 17.4006 3.89077 17.257 3.92602 17.134C4.63411 14.6747 6.60031 12.6419 9.18494 11.6962C9.32068 11.7837 9.47545 11.8653 9.65811 11.9459L9.67118 11.9511L9.67126 11.9512C9.75458 11.9844 9.84073 12.0187 9.91731 12.0445C9.92551 12.0471 9.93366 12.0507 9.94201 12.0543C9.96143 12.0628 9.98151 12.0715 10.0064 12.0715C10.1266 12.1078 10.2434 12.1341 10.3635 12.1518C10.4774 12.169 10.6042 12.1781 10.73 12.1781C10.8293 12.1781 10.9281 12.1692 11.0236 12.1606L11.0236 12.1606H11.0338C11.1398 12.1511 11.2443 12.132 11.3281 12.1066C11.5165 12.0638 11.7118 11.9948 11.9086 11.9014C12.001 11.8554 12.0872 11.8051 12.1794 11.7513L12.182 11.7498C12.2124 11.732 12.2431 11.7141 12.2744 11.6962C12.3459 11.7137 12.4185 11.7411 12.489 11.7677L12.4891 11.7677C12.7475 11.8761 13.0223 11.9943 13.2923 12.1424C13.3801 12.0562 13.4561 11.992 13.5245 11.9459C13.5432 11.9315 13.5615 11.917 13.5794 11.9027C13.6389 11.8554 13.6951 11.8107 13.7567 11.7765L13.7496 11.7725L13.7496 11.7725C13.6906 11.7388 13.6295 11.704 13.5691 11.6786C13.4042 11.5875 13.218 11.4973 13.0156 11.4107C12.9757 11.3929 12.938 11.3751 12.9003 11.3574L12.8995 11.357L12.7834 11.3033C12.8135 11.2732 12.8435 11.2436 12.8736 11.214C12.9698 11.1193 13.0606 11.0299 13.1492 10.928C13.3477 10.71 13.5085 10.4998 13.6406 10.2854C13.7182 10.1909 13.7825 10.0915 13.837 9.98168C13.9091 9.86964 13.9736 9.74708 14.0341 9.60705C14.0999 9.48415 14.1541 9.36279 14.2029 9.24998C14.3355 8.95871 14.4436 8.64359 14.5154 8.33873C14.5434 8.2374 14.5611 8.14583 14.5782 8.0532C14.6177 7.89507 14.6411 7.75484 14.6497 7.62458C14.6738 7.46959 14.6855 7.30599 14.6855 7.1244V7.10685C14.6855 4.92095 12.9111 3.14258 10.73 3.14258C10.6151 3.14258 10.5066 3.14258 10.3993 3.16013C10.3043 3.16013 10.2074 3.17752 10.1137 3.19434L10.1049 3.1959L10.0836 3.19649C9.9443 3.2229 9.8002 3.25022 9.65811 3.29445C7.96029 3.76929 6.77451 5.33701 6.77451 7.10685C6.77451 8.58312 7.56023 10.3093 8.68545 11.3033C7.4143 11.8224 6.26224 12.6124 5.35382 13.5879C4.43901 14.5704 3.76626 15.7471 3.4083 16.9909C3.31026 17.3215 3.43293 17.6861 3.72082 17.9197C4.11709 18.2379 4.494 18.4949 4.87305 18.7054C5.04973 18.8205 5.24082 18.9233 5.42561 19.0227L5.42572 19.0228L5.51564 19.0712C5.75812 19.1972 5.98002 19.3023 6.19402 19.3925C6.63215 19.5815 7.0265 19.7246 7.39957 19.8299C7.54533 19.8753 7.68899 19.9112 7.82819 19.946C8.13588 20.0269 8.47744 20.1 8.87241 20.1695C8.94369 20.1794 9.01496 20.1896 9.08598 20.1997L9.09188 20.2006L9.24771 20.2228C9.57088 20.2586 9.9013 20.2856 10.2298 20.3031C10.269 20.3031 10.3075 20.3053 10.3486 20.3077C10.3906 20.3101 10.434 20.3126 10.4796 20.3126ZM10.5869 3.6873C10.6315 3.67853 10.6861 3.67853 10.73 3.67853C12.6152 3.67853 14.1489 5.21647 14.1489 7.10685C14.1489 8.54371 13.3085 10.2555 12.1941 11.0887C12.095 11.1682 12.0069 11.2278 11.9167 11.2763C11.9166 11.2764 11.9087 11.285 11.8998 11.2851C11.7786 11.3659 11.6644 11.4231 11.5603 11.4552C11.2931 11.5797 11.0137 11.6429 10.73 11.6429C10.5816 11.6429 10.4396 11.6257 10.2832 11.5889C10.1529 11.5614 10.0204 11.5152 9.89976 11.4552C9.7842 11.4223 9.67076 11.3655 9.54269 11.2763C9.45351 11.2281 9.36536 11.1684 9.26527 11.0887C8.15086 10.255 7.31047 8.54322 7.31047 7.10685C7.31047 5.26153 8.74961 3.75949 10.5869 3.6873Z" fill="#636363"/>
<path d="M10.7308 3.14259C10.6147 3.14259 10.5075 3.14259 10.4004 3.16044C10.3022 3.16044 10.204 3.1783 10.1058 3.19616H10.0879C9.94503 3.22294 9.80218 3.24973 9.65932 3.29437C7.9986 3.75866 6.77539 5.29437 6.77539 7.10687C6.77539 8.54437 7.53432 10.2854 8.68611 11.3033C8.75754 11.3747 8.83789 11.4372 8.91825 11.4997C9.00753 11.5712 9.09682 11.6337 9.1861 11.6961C9.33789 11.7944 9.4986 11.8747 9.65931 11.9461C9.7486 11.9819 9.83789 12.0176 9.91824 12.0444C9.94503 12.0533 9.97182 12.0711 10.0075 12.0711C10.1236 12.1069 10.2406 12.1336 10.3647 12.1515C10.4807 12.1694 10.6057 12.1783 10.7307 12.1783C10.829 12.1783 10.9272 12.1694 11.0245 12.1604H11.0343C11.1334 12.1515 11.2397 12.1336 11.329 12.1069C11.5254 12.0622 11.7218 11.9908 11.9093 11.9015C12.0343 11.839 12.1504 11.7676 12.2754 11.6961C12.2933 11.6783 12.3111 11.6604 12.3379 11.6515C12.4093 11.5979 12.4808 11.5533 12.5433 11.4997C12.6236 11.4372 12.6959 11.3747 12.7665 11.3122C12.7754 11.3122 12.7754 11.3033 12.7754 11.3033H12.7843C12.9093 11.1783 13.0334 11.0622 13.1504 10.9283C13.329 10.7319 13.4986 10.5176 13.6415 10.2854C13.7218 10.1872 13.7843 10.089 13.8379 9.98187C13.9182 9.85686 13.9807 9.73187 14.0352 9.60687C14.0968 9.4908 14.1495 9.37473 14.204 9.24972C14.3379 8.95508 14.445 8.64258 14.5165 8.33901C14.5432 8.24079 14.5611 8.15151 14.579 8.05329C14.6147 7.91043 14.6415 7.76758 14.6504 7.62472C14.6772 7.45508 14.6861 7.28544 14.6861 7.12472V7.10686C14.6861 4.91936 12.9191 3.14258 10.7307 3.14258" fill="white"/>
<path d="M14.6857 7.10151C14.6857 9.29526 12.9196 12.1837 10.7268 12.1837C10.3518 12.1837 9.99911 12.0988 9.65625 11.9488C11.3259 11.2212 12.5464 8.92116 12.5464 7.10151C12.5464 5.29347 11.3259 3.7524 9.65625 3.29258C9.99911 3.19615 10.3518 3.14258 10.7268 3.14258C12.9196 3.14258 14.6857 4.91847 14.6857 7.10151" fill="#62E2BB"/>
<path fill-rule="evenodd" clip-rule="evenodd" d="M10.3644 12.1518C10.4783 12.169 10.605 12.1781 10.7309 12.1781C10.8301 12.1781 10.929 12.1692 11.0245 12.1606L11.0245 12.1606H11.0346C11.1407 12.1511 11.2452 12.132 11.3289 12.1066C11.5174 12.0638 11.7127 11.9948 11.9094 11.9014C12.0018 11.8554 12.088 11.8051 12.1807 11.7511L12.1808 11.751L12.181 11.7509C12.212 11.7328 12.2434 11.7145 12.2753 11.6962L12.2789 11.6927C12.2956 11.6765 12.3128 11.6598 12.3381 11.6516C12.3654 11.631 12.3926 11.6118 12.4193 11.5929L12.4194 11.5928C12.4632 11.5619 12.5045 11.5327 12.5433 11.4998C12.6274 11.434 12.7006 11.3706 12.7667 11.3121C12.7736 11.3121 12.7751 11.3067 12.7754 11.3033H12.7842C12.8143 11.2732 12.8444 11.2436 12.8746 11.2139L12.8748 11.2137C12.9709 11.1192 13.0616 11.0298 13.1501 10.928C13.3486 10.71 13.5094 10.4998 13.6415 10.2854C13.7191 10.1909 13.7833 10.0915 13.8379 9.98168C13.91 9.86964 13.9745 9.74708 14.035 9.60705C14.1008 9.4841 14.155 9.36276 14.2038 9.24998C14.3364 8.95871 14.4445 8.64359 14.5163 8.33873C14.5442 8.23747 14.5619 8.14587 14.5791 8.0532C14.6186 7.89501 14.642 7.75479 14.6506 7.62458C14.6747 7.46964 14.6864 7.30603 14.6864 7.1244V7.10685C14.6864 4.92095 12.912 3.14258 10.7309 3.14258C10.616 3.14258 10.5075 3.14258 10.4001 3.16013C10.3052 3.16013 10.2083 3.17752 10.1146 3.19434L10.1058 3.1959L10.0845 3.19649L10.0845 3.19649C9.94515 3.22291 9.80105 3.25022 9.65899 3.29445C7.96117 3.76929 6.77539 5.33701 6.77539 7.10685C6.77539 8.58372 7.5612 10.3094 8.68632 11.3033C8.75504 11.372 8.83323 11.4331 8.90885 11.4922L8.90893 11.4923L8.91852 11.4998C9.00171 11.5666 9.08623 11.6261 9.16797 11.6836L9.168 11.6836L9.18582 11.6962C9.32157 11.7837 9.47634 11.8654 9.65899 11.9459L9.67206 11.9511L9.67224 11.9512C9.75555 11.9844 9.84169 12.0188 9.91819 12.0445C9.92639 12.0471 9.93453 12.0507 9.9429 12.0543C9.96231 12.0628 9.98239 12.0715 10.0073 12.0715C10.1275 12.1078 10.2443 12.1341 10.3644 12.1518ZM10.5878 3.6873C10.6323 3.67853 10.687 3.67853 10.7309 3.67853C12.6161 3.67853 14.1498 5.21647 14.1498 7.10685C14.1498 8.5437 13.3094 10.2555 12.195 11.0887C12.0959 11.1682 12.0078 11.2278 11.9175 11.2763C11.9175 11.2764 11.9095 11.285 11.9007 11.2851C11.7795 11.3659 11.6653 11.4231 11.5611 11.4552C11.2939 11.5797 11.0146 11.6429 10.7309 11.6429C10.5824 11.6429 10.4405 11.6257 10.284 11.5889C10.1538 11.5614 10.0213 11.5152 9.90064 11.4552C9.78507 11.4223 9.67163 11.3654 9.54357 11.2763C9.45436 11.2281 9.36622 11.1684 9.26614 11.0887C8.15172 10.255 7.31134 8.54321 7.31134 7.10685C7.31134 5.26153 8.75048 3.75949 10.5878 3.6873Z" fill="#636363"/>
<path d="M16.806 20.2395C14.54 20.2395 12.6953 18.3957 12.6953 16.1288C12.6953 13.8627 14.54 12.0181 16.806 12.0181C19.0721 12.0181 20.9167 13.8627 20.9167 16.1288C20.9167 18.3957 19.0721 20.2395 16.806 20.2395Z" fill="white"/>
<path fill-rule="evenodd" clip-rule="evenodd" d="M16.0505 20.4368C16.3042 20.4842 16.5597 20.5083 16.8099 20.5083C17.9824 20.5083 19.0794 20.0516 19.8987 19.2224C19.9945 19.1273 20.0935 19.0192 20.1849 18.9099C20.3671 18.6928 20.5265 18.4587 20.6588 18.214C20.7894 17.9679 20.8972 17.7109 20.9882 17.4283C21.1185 16.9992 21.1846 16.5605 21.1846 16.1242C21.1846 15.1065 20.8296 14.1205 20.1849 13.3479C20.0935 13.2386 19.9945 13.1305 19.8987 13.0354C19.0787 12.2062 17.9817 11.7495 16.8099 11.7495C16.5195 11.7495 16.242 11.7758 15.9614 11.8298C15.4821 11.9297 15.0405 12.095 14.6492 12.3212H14.6398L14.6049 12.342C14.5308 12.3859 14.4609 12.4274 14.3988 12.4819C14.3027 12.5352 14.2288 12.5891 14.1666 12.6513C14.0022 12.7584 13.8417 12.8957 13.6759 13.0712C12.8697 13.8864 12.4258 14.9707 12.4258 16.1242C12.4258 16.7215 12.5459 17.2983 12.7829 17.8387C13.0132 18.406 13.3746 18.9216 13.8278 19.3298C13.899 19.401 13.9801 19.4732 14.0687 19.5444C14.1554 19.6134 14.2434 19.6758 14.3455 19.7408C14.8272 20.0769 15.3657 20.3053 15.9458 20.4197C15.9816 20.4285 16.0154 20.4368 16.0505 20.4368ZM14.9307 12.7732C14.9887 12.7392 15.0487 12.7041 15.1129 12.6783H15.1224C15.6522 12.4176 16.22 12.2855 16.8099 12.2855C16.9348 12.2855 17.0617 12.2944 17.1845 12.303C18.1264 12.3942 18.9997 12.8326 19.6436 13.5375C20.2922 14.2474 20.6493 15.166 20.6493 16.1242C20.6493 17.0864 20.2922 18.008 19.6436 18.7191C19.0002 19.4247 18.1268 19.8636 17.1845 19.9548L17.1582 19.9567C17.0444 19.9647 16.9267 19.973 16.8099 19.973C16.1694 19.973 15.5508 19.8168 14.9712 19.5086C14.8652 19.4509 14.7599 19.3891 14.6668 19.3298C14.5776 19.2676 14.496 19.2038 14.4171 19.1422L14.417 19.1421C13.9018 18.7267 13.5004 18.1896 13.256 17.5889C13.0612 17.137 12.9624 16.6442 12.9624 16.1242C12.9624 15.1409 13.3268 14.2151 13.9884 13.5173C14.1784 13.3096 14.3916 13.1234 14.6222 12.9638L14.6491 12.9461L14.6492 12.946C14.7196 12.8996 14.7923 12.8516 14.8632 12.812C14.8856 12.7995 14.908 12.7864 14.9306 12.7732L14.9307 12.7732Z" fill="#636363"/>
<path d="M21.1844 16.1245C21.1844 16.5799 21.113 17.0174 20.9871 17.4281C20.8987 17.7049 20.7916 17.9638 20.6576 18.2138C20.5237 18.4638 20.363 18.6959 20.1844 18.9102C20.0942 19.0263 19.9969 19.1334 19.8987 19.2227C19.113 20.0174 18.0139 20.5084 16.8094 20.5084C16.5505 20.5084 16.2916 20.4906 16.0505 20.437C16.0148 20.437 15.9791 20.4281 15.9434 20.4192C16.1666 20.3745 16.38 20.312 16.5943 20.2317C16.8005 20.1513 16.9969 20.062 17.1844 19.9549C18.5237 19.2049 19.4344 17.7763 19.4344 16.1334C19.4344 14.4906 18.5237 13.0531 17.1844 12.3031C16.9969 12.1959 16.8094 12.1067 16.613 12.0263C16.3987 11.9459 16.1835 11.8834 15.9603 11.8299C16.2282 11.7763 16.5228 11.7495 16.8094 11.7495C18.0139 11.7495 19.113 12.2406 19.8987 13.0352C19.9969 13.1245 20.0942 13.2317 20.1844 13.3477C20.8094 14.0977 21.1844 15.0709 21.1844 16.1245" fill="#DDDDDD"/>
<path d="M18.15 14.5059V13.9702H16.2741H15.4634V14.5059H16.2741C16.6223 14.5059 16.9098 14.7354 17.017 15.0479H15.4634V15.5836H17.0107C16.8964 15.8809 16.6116 16.0943 16.2741 16.0943H15.7188C15.6179 16.0943 15.5259 16.1506 15.4804 16.2416C15.4339 16.3318 15.4438 16.4399 15.5036 16.5211L17.1205 18.705L17.5509 18.3854L16.2509 16.6291H16.2741C16.9089 16.6291 17.4402 16.1809 17.5714 15.5836H18.15V15.0479H17.5777C17.5384 14.847 17.4527 14.664 17.3339 14.5059L18.15 14.5059Z" fill="#636363"/>
<path fill-rule="evenodd" clip-rule="evenodd" d="M16.0505 20.4368C16.3042 20.4842 16.5597 20.5083 16.8099 20.5083C17.9824 20.5083 19.0794 20.0516 19.8987 19.2224C19.9945 19.1273 20.0935 19.0192 20.1849 18.9099C20.3671 18.6928 20.5265 18.4587 20.6588 18.214C20.7894 17.9679 20.8972 17.7109 20.9882 17.4283C21.1185 16.9992 21.1846 16.5605 21.1846 16.1242C21.1846 15.1065 20.8296 14.1205 20.1849 13.3479C20.0935 13.2386 19.9945 13.1305 19.8987 13.0354C19.0787 12.2062 17.9817 11.7495 16.8099 11.7495C16.5195 11.7495 16.242 11.7758 15.9614 11.8298C15.4821 11.9297 15.0405 12.095 14.6492 12.3212H14.6398L14.6049 12.342C14.5308 12.3859 14.4609 12.4274 14.3988 12.4819C14.3027 12.5352 14.2288 12.5891 14.1666 12.6513C14.0022 12.7584 13.8417 12.8957 13.6759 13.0712C12.8697 13.8864 12.4258 14.9707 12.4258 16.1242C12.4258 16.7215 12.5459 17.2983 12.7829 17.8387C13.0132 18.406 13.3746 18.9216 13.8278 19.3298C13.899 19.401 13.9801 19.4732 14.0687 19.5444C14.1554 19.6134 14.2434 19.6758 14.3455 19.7408C14.8272 20.0769 15.3657 20.3053 15.9458 20.4197C15.9816 20.4285 16.0154 20.4368 16.0505 20.4368ZM14.9307 12.7732C14.9887 12.7392 15.0487 12.7041 15.1129 12.6783H15.1224C15.6522 12.4176 16.22 12.2855 16.8099 12.2855C16.9348 12.2855 17.0617 12.2944 17.1845 12.303C18.1264 12.3942 18.9997 12.8326 19.6436 13.5375C20.2922 14.2474 20.6493 15.166 20.6493 16.1242C20.6493 17.0864 20.2922 18.008 19.6436 18.7191C19.0002 19.4247 18.1268 19.8636 17.1845 19.9548L17.1582 19.9567C17.0444 19.9647 16.9267 19.973 16.8099 19.973C16.1694 19.973 15.5508 19.8168 14.9712 19.5086C14.8652 19.4509 14.7599 19.3891 14.6668 19.3298C14.5776 19.2676 14.496 19.2038 14.4171 19.1422L14.417 19.1421C13.9018 18.7267 13.5004 18.1896 13.256 17.5889C13.0612 17.137 12.9624 16.6442 12.9624 16.1242C12.9624 15.1409 13.3268 14.2151 13.9884 13.5173C14.1784 13.3096 14.3916 13.1234 14.6222 12.9638L14.6491 12.9461L14.6492 12.946C14.7196 12.8996 14.7923 12.8516 14.8632 12.812C14.8856 12.7995 14.908 12.7864 14.9306 12.7732L14.9307 12.7732Z" fill="#636363"/>
</svg>
