<svg xmlns="http://www.w3.org/2000/svg" width="170" height="50" viewBox="0 0 170 50">
    <defs>
        <linearGradient id="a" x1="61.188%" x2="25.76%" y1="4.84%" y2="71.968%">
            <stop offset="0%" stop-color="#00A0FF"/>
            <stop offset=".7%" stop-color="#00A1FF"/>
            <stop offset="26%" stop-color="#00BEFF"/>
            <stop offset="51.2%" stop-color="#00D2FF"/>
            <stop offset="76%" stop-color="#00DFFF"/>
            <stop offset="100%" stop-color="#00E3FF"/>
        </linearGradient>
        <linearGradient id="b" x1="107.724%" x2="-130.67%" y1="49.424%" y2="49.424%">
            <stop offset="0%" stop-color="#FFE000"/>
            <stop offset="40.9%" stop-color="#FFBD00"/>
            <stop offset="77.5%" stop-color="#FFA500"/>
            <stop offset="100%" stop-color="#FF9C00"/>
        </linearGradient>
        <linearGradient id="c" x1="86.389%" x2="-49.886%" y1="31.11%" y2="134.742%">
            <stop offset="0%" stop-color="#FF3A44"/>
            <stop offset="100%" stop-color="#C31162"/>
        </linearGradient>
        <linearGradient id="d" x1="-18.581%" x2="42.275%" y1="-10.78%" y2="35.285%">
            <stop offset="0%" stop-color="#32A071"/>
            <stop offset="6.9%" stop-color="#2DA771"/>
            <stop offset="47.6%" stop-color="#15CF74"/>
            <stop offset="80.1%" stop-color="#06E775"/>
            <stop offset="100%" stop-color="#00F076"/>
        </linearGradient>
    </defs>
    <g fill="none" fill-rule="nonzero">
        <path fill="#000" d="M163.646 49.983H6.294C2.77 49.983 0 47.233 0 43.735V6.248C0 2.749 2.77 0 6.294 0h157.352c3.525 0 6.295 2.749 6.295 6.248v37.487c0 3.498-2.77 6.248-6.295 6.248z"/>
        <path fill="#A6A6A6" d="M163.646 1c2.896 0 5.287 2.374 5.287 5.248v37.487c0 2.874-2.391 5.248-5.287 5.248H6.294c-2.895 0-5.287-2.374-5.287-5.248V6.248C1.007 3.374 3.4 1 6.294 1h157.352m0-1H6.294C2.77 0 0 2.874 0 6.248v37.487c0 3.498 2.77 6.248 6.294 6.248h157.352c3.525 0 6.295-2.75 6.295-6.248V6.248c0-3.374-2.77-6.248-6.295-6.248z"/>
        <path fill="#FFF" stroke="#FFF" stroke-width=".5" d="M59.668 12.746c0 1-.252 1.874-.881 2.499-.755.75-1.637 1.124-2.77 1.124s-2.014-.375-2.769-1.124c-.755-.75-1.133-1.625-1.133-2.75 0-1.124.378-1.999 1.133-2.748.755-.75 1.636-1.125 2.77-1.125.503 0 1.006.125 1.51.375s.881.5 1.133.875l-.63.624c-.503-.624-1.132-.874-2.014-.874-.755 0-1.51.25-2.014.874-.63.5-.88 1.25-.88 2.125 0 .874.25 1.624.88 2.124s1.26.875 2.014.875c.882 0 1.511-.25 2.14-.875.378-.375.63-.875.63-1.5h-2.77v-1h3.651v.5zm5.79-3.124H62.06v2.374h3.147v.874H62.06v2.375h3.399v1h-4.406V8.746h4.406v.875zm4.155 6.622h-1.007V9.622h-2.14v-.875h5.287v.875h-2.14v6.622zm5.79 0V8.747h1.007v7.497h-1.007zm5.287 0h-1.007V9.622h-2.14v-.875h5.161v.875h-2.14v6.622h.126zm11.96-1c-.756.75-1.637 1.125-2.77 1.125s-2.014-.375-2.77-1.124c-.755-.75-1.133-1.625-1.133-2.75 0-1.124.378-1.999 1.133-2.748.756-.75 1.637-1.125 2.77-1.125s2.014.375 2.77 1.125c.754.75 1.132 1.624 1.132 2.749 0 1.124-.378 1.999-1.133 2.749zm-4.784-.624c.503.5 1.258.875 2.014.875.755 0 1.51-.25 2.014-.875.503-.5.88-1.25.88-2.124 0-.875-.25-1.625-.88-2.125-.504-.5-1.26-.874-2.014-.874-.756 0-1.51.25-2.014.874-.504.5-.882 1.25-.882 2.125 0 .874.252 1.624.882 2.124zm7.3 1.624V8.747H96.3l3.65 5.873V8.747h1.007v7.497H99.95l-3.902-6.123v6.123h-.881z"/>
        <path fill="#FFF" d="M85.726 27.24c-3.022 0-5.413 2.25-5.413 5.374 0 2.999 2.391 5.373 5.413 5.373 3.02 0 5.412-2.25 5.412-5.373 0-3.25-2.391-5.374-5.412-5.374zm0 8.497c-1.637 0-3.022-1.374-3.022-3.248 0-1.875 1.385-3.25 3.022-3.25 1.636 0 3.02 1.25 3.02 3.25 0 1.874-1.384 3.248-3.02 3.248zM74.019 27.24c-3.022 0-5.413 2.25-5.413 5.374 0 2.999 2.391 5.373 5.413 5.373 3.02 0 5.412-2.25 5.412-5.373 0-3.25-2.391-5.374-5.412-5.374zm0 8.497c-1.637 0-3.022-1.374-3.022-3.248 0-1.875 1.385-3.25 3.022-3.25 1.636 0 3.02 1.25 3.02 3.25 0 1.874-1.384 3.248-3.02 3.248zm-13.973-6.872v2.25h5.413c-.126 1.249-.63 2.248-1.26 2.873-.755.75-2.013 1.625-4.153 1.625-3.4 0-5.917-2.625-5.917-5.998 0-3.374 2.644-5.998 5.917-5.998 1.762 0 3.147.75 4.154 1.624l1.636-1.624c-1.384-1.25-3.147-2.25-5.664-2.25-4.532 0-8.435 3.75-8.435 8.248 0 4.498 3.903 8.247 8.435 8.247 2.517 0 4.28-.75 5.79-2.374 1.51-1.5 2.014-3.624 2.014-5.249 0-.5 0-1-.126-1.374h-7.804zm57.15 1.75c-.504-1.25-1.762-3.375-4.532-3.375s-5.035 2.125-5.035 5.374c0 2.999 2.266 5.373 5.287 5.373 2.392 0 3.902-1.5 4.406-2.374l-1.762-1.25c-.63.875-1.385 1.5-2.644 1.5-1.259 0-2.014-.5-2.643-1.625l7.175-2.999-.252-.625zm-7.301 1.749c0-2 1.636-3.124 2.77-3.124.88 0 1.762.5 2.013 1.124l-4.783 2zm-5.917 5.123h2.392v-15.62h-2.392v15.62zm-3.776-9.122c-.63-.625-1.636-1.25-2.895-1.25-2.644 0-5.161 2.375-5.161 5.374 0 2.999 2.391 5.248 5.16 5.248 1.26 0 2.267-.625 2.77-1.25h.126v.75c0 2-1.133 3.124-2.895 3.124-1.385 0-2.392-1-2.644-1.874l-2.014.874c.63 1.375 2.14 3.124 4.784 3.124 2.769 0 5.035-1.624 5.035-5.498V27.49h-2.266v.875zm-2.77 7.372c-1.636 0-3.02-1.374-3.02-3.248 0-1.875 1.384-3.25 3.02-3.25 1.637 0 2.896 1.375 2.896 3.25 0 1.874-1.259 3.248-2.895 3.248zm30.716-13.87h-5.665v15.62h2.392v-5.873h3.273c2.643 0 5.16-1.874 5.16-4.873 0-3-2.517-4.874-5.16-4.874zm.126 7.498h-3.4v-5.373h3.4c1.762 0 2.769 1.5 2.769 2.624-.126 1.374-1.133 2.749-2.77 2.749zm14.476-2.25c-1.762 0-3.525.75-4.154 2.375l2.14.874c.503-.874 1.259-1.124 2.14-1.124 1.259 0 2.392.75 2.518 2v.124c-.378-.25-1.385-.625-2.392-.625-2.266 0-4.532 1.25-4.532 3.499 0 2.124 1.888 3.499 3.902 3.499 1.637 0 2.392-.75 3.022-1.5h.125v1.25h2.266v-5.998c-.251-2.75-2.391-4.373-5.035-4.373zm-.252 8.622c-.755 0-1.888-.374-1.888-1.374 0-1.25 1.385-1.624 2.518-1.624 1.007 0 1.51.25 2.14.5-.252 1.499-1.51 2.498-2.77 2.498zm13.218-8.247l-2.644 6.748h-.126l-2.769-6.748h-2.518l4.155 9.497-2.392 5.248h2.392l6.42-14.745h-2.518zm-21.148 9.997h2.391v-15.62h-2.391v15.62z"/>
        <path fill="url(#a)" d="M.504.49C.126.865 0 1.49 0 2.24v27.615c0 .75.252 1.374.63 1.749l.125.125 15.61-15.495v-.25L.504.49z" transform="translate(12.588 8.882)"/>
        <path fill="url(#b)" d="M21.4 21.482l-5.161-5.123v-.375l5.16-5.123.127.125 6.168 3.499c1.762 1 1.762 2.624 0 3.624L21.4 21.482z" transform="translate(12.588 8.882)"/>
        <path fill="url(#c)" d="M21.526 21.358l-5.287-5.249L.504 31.73c.629.625 1.51.625 2.643.125l18.379-10.496" transform="translate(12.588 8.882)"/>
        <path fill="url(#d)" d="M21.526 10.861L3.147.49C2.014-.135 1.133-.01.504.615l15.735 15.494 5.287-5.248z" transform="translate(12.588 8.882)"/>
        <path fill="#000" d="M33.988 30.114L15.735 40.361c-1.007.625-1.888.5-2.517 0l-.126.125.126.125c.629.5 1.51.625 2.517 0l18.253-10.497z" opacity=".2"/>
        <path fill="#000" d="M13.092 40.36c-.378-.374-.504-.999-.504-1.749v.125c0 .75.252 1.375.63 1.75v-.125h-.126zm27.19-13.744l-6.294 3.498.126.125 6.168-3.498c.881-.5 1.259-1.125 1.259-1.75 0 .625-.504 1.125-1.259 1.625z" opacity=".12"/>
        <path fill="#FFF" d="M15.735 9.497l24.547 13.87c.755.5 1.259 1 1.259 1.624 0-.625-.378-1.25-1.259-1.75L15.735 9.372c-1.762-.999-3.147-.25-3.147 1.75v.125c0-1.874 1.385-2.749 3.147-1.75z" opacity=".25"/>
    </g>
</svg>
