<svg xmlns="http://www.w3.org/2000/svg" xmlns:xlink="http://www.w3.org/1999/xlink" width="150" height="50" viewBox="0 0 150 50">
    <defs>
        <path id="a" d="M0 0h149.58v50H0z"/>
        <path id="c" d="M0 50h149.58V0H0z"/>
    </defs>
    <g fill="none" fill-rule="evenodd">
        <g>
            <mask id="b" fill="#fff">
                <use xlink:href="#a"/>
            </mask>
            <path fill="#A6A6A6" d="M137.668 0H11.918c-.458 0-.91 0-1.368.003-.383.002-.763.01-1.149.016-.839.009-1.676.083-2.505.22a8.4 8.4 0 0 0-2.376.783 8.07 8.07 0 0 0-2.023 1.474 7.838 7.838 0 0 0-1.472 2.026 8.243 8.243 0 0 0-.781 2.38c-.14.827-.215 1.664-.226 2.502-.01.383-.012.768-.018 1.151v28.894c.006.387.007.764.018 1.151.01.839.085 1.675.226 2.502.136.83.4 1.632.78 2.382A7.745 7.745 0 0 0 2.498 47.5a7.853 7.853 0 0 0 2.023 1.474 8.45 8.45 0 0 0 2.376.789c.829.135 1.666.21 2.505.22.386.008.766.014 1.149.014.457.002.91.002 1.368.002h125.75c.45 0 .907 0 1.356-.002.38 0 .77-.005 1.152-.014.838-.01 1.674-.084 2.5-.22a8.547 8.547 0 0 0 2.385-.789 7.826 7.826 0 0 0 2.021-1.474 7.996 7.996 0 0 0 1.478-2.017c.377-.75.638-1.553.773-2.382.14-.827.218-1.663.233-2.502.004-.388.004-.764.004-1.151.01-.455.01-.907.01-1.368V11.92c0-.457 0-.911-.01-1.365 0-.383 0-.768-.004-1.151a16.984 16.984 0 0 0-.233-2.503 8.228 8.228 0 0 0-.773-2.378 8.082 8.082 0 0 0-3.499-3.5 8.496 8.496 0 0 0-2.385-.784 16.269 16.269 0 0 0-2.5-.22c-.381-.006-.771-.014-1.152-.017-.45-.002-.907-.002-1.356-.002" mask="url(#b)"/>
        </g>
        <path fill="#000" d="M10.556 48.906c-.381 0-.752-.005-1.13-.013a15.733 15.733 0 0 1-2.336-.204 7.338 7.338 0 0 1-2.071-.685 6.749 6.749 0 0 1-1.747-1.27 6.693 6.693 0 0 1-1.276-1.746 7.196 7.196 0 0 1-.679-2.072 15.508 15.508 0 0 1-.207-2.343c-.008-.264-.019-1.142-.019-1.142V10.555s.011-.864.019-1.117c.01-.785.078-1.567.206-2.34.12-.724.349-1.424.68-2.078a6.7 6.7 0 0 1 1.269-1.747 6.976 6.976 0 0 1 1.752-1.28 7.304 7.304 0 0 1 2.068-.68 15.835 15.835 0 0 1 2.343-.204l1.128-.015h128.461l1.142.016c.778.009 1.555.076 2.323.203.726.123 1.43.353 2.088.685a6.987 6.987 0 0 1 3.019 3.025c.326.65.552 1.345.67 2.06.128.78.202 1.57.216 2.36.004.353.004.735.004 1.112.01.469.01.915.01 1.365v26.161c0 .454 0 .898-.01 1.344 0 .406 0 .779-.006 1.163-.013.776-.085 1.55-.212 2.316a7.213 7.213 0 0 1-.675 2.087 6.849 6.849 0 0 1-1.27 1.733 6.724 6.724 0 0 1-1.75 1.277 7.304 7.304 0 0 1-2.084.688c-.774.126-1.555.194-2.337.204a47.49 47.49 0 0 1-1.121.013l-1.356.003-127.112-.003z"/>
        <path fill="#FFF" d="M30.961 25.376a6.182 6.182 0 0 1 2.945-5.19 6.333 6.333 0 0 0-4.988-2.697c-2.1-.22-4.134 1.256-5.204 1.256-1.09 0-2.736-1.234-4.51-1.198a6.643 6.643 0 0 0-5.591 3.41c-2.418 4.185-.615 10.337 1.7 13.72 1.16 1.658 2.513 3.508 4.286 3.442 1.733-.072 2.381-1.105 4.474-1.105 2.073 0 2.68 1.105 4.488 1.063 1.86-.03 3.033-1.665 4.151-3.337a13.716 13.716 0 0 0 1.898-3.865 5.977 5.977 0 0 1-3.649-5.499M27.546 15.264A6.094 6.094 0 0 0 28.94 10.9a6.2 6.2 0 0 0-4.01 2.075 5.801 5.801 0 0 0-1.43 4.201 5.123 5.123 0 0 0 4.046-1.912M47.574 31.989h4.69l-2.313-6.81h-.063l-2.314 6.81zm5.304 1.936H46.96l-1.42 4.195h-2.507l5.605-15.523h2.604l5.603 15.523h-2.548l-1.42-4.195zM66.562 32.462c0-2.291-1.184-3.797-2.991-3.797-1.775 0-2.97 1.537-2.97 3.797 0 2.28 1.195 3.808 2.97 3.808 1.807 0 2.99-1.495 2.99-3.808m2.388 0c0 3.516-1.882 5.776-4.722 5.776a3.837 3.837 0 0 1-3.561-1.98h-.054v5.605h-2.323v-15.06h2.25v1.883h.042a4.016 4.016 0 0 1 3.603-2.001c2.873 0 4.765 2.27 4.765 5.777M79.019 32.462c0-2.291-1.184-3.797-2.992-3.797-1.775 0-2.969 1.537-2.969 3.797 0 2.28 1.194 3.808 2.97 3.808 1.807 0 2.99-1.495 2.99-3.808m2.388 0c0 3.516-1.883 5.776-4.723 5.776a3.835 3.835 0 0 1-3.56-1.98h-.055v5.605h-2.323v-15.06h2.248v1.883h.043a4.016 4.016 0 0 1 3.604-2.001c2.873 0 4.766 2.27 4.766 5.777M89.639 33.795c.172 1.539 1.667 2.55 3.71 2.55 1.958 0 3.367-1.011 3.367-2.398 0-1.206-.85-1.927-2.861-2.42l-2.011-.486c-2.852-.688-4.174-2.02-4.174-4.184 0-2.678 2.334-4.518 5.647-4.518 3.28 0 5.53 1.84 5.605 4.518h-2.345c-.14-1.55-1.42-2.484-3.293-2.484-1.87 0-3.15.946-3.15 2.322 0 1.098.817 1.744 2.817 2.238l1.71.42c3.185.753 4.509 2.032 4.509 4.303 0 2.904-2.315 4.723-5.994 4.723-3.442 0-5.766-1.776-5.915-4.584h2.378zM104.183 24.125v2.679h2.153v1.838h-2.153v6.24c0 .97.432 1.42 1.378 1.42.255-.005.51-.02.764-.053v1.828c-.427.08-.86.117-1.29.108-2.292 0-3.185-.86-3.185-3.055v-6.488h-1.647v-1.838h1.645v-2.68h2.335zM115.95 32.462c0-2.442-1.12-3.884-3-3.884-1.883 0-3.002 1.453-3.002 3.884 0 2.453 1.12 3.883 3.002 3.883 1.88 0 3-1.43 3-3.883m-8.368 0c0-3.561 2.096-5.799 5.368-5.799 3.28 0 5.368 2.238 5.368 5.8 0 3.57-2.077 5.798-5.368 5.798-3.292 0-5.368-2.229-5.368-5.799M120.233 26.803h2.215v1.926h.054a2.7 2.7 0 0 1 2.722-2.045c.268 0 .535.03.797.088v2.172a3.248 3.248 0 0 0-1.044-.14 2.34 2.34 0 0 0-2.421 2.604v6.713h-2.323V26.803zM128.878 31.419h5.658a2.721 2.721 0 0 0-2.775-2.873 2.864 2.864 0 0 0-2.883 2.848v.025zm7.853 3.377c-.313 2.055-2.313 3.465-4.873 3.465-3.292 0-5.336-2.206-5.336-5.745 0-3.55 2.055-5.852 5.239-5.852 3.13 0 5.1 2.15 5.1 5.582v.796h-7.994v.14a2.947 2.947 0 0 0 3.045 3.207 2.562 2.562 0 0 0 2.614-1.593h2.205zM45.747 17.318h1.406a2.344 2.344 0 0 0 2.46-2.683 2.351 2.351 0 0 0-2.46-2.667h-1.406v5.35zm1.536-6.404a3.298 3.298 0 0 1 3.51 3.706c0 2.383-1.288 3.753-3.51 3.753h-2.695v-7.46h2.695zM56.267 15.556c0-1.22-.547-1.934-1.51-1.934-.965 0-1.509.713-1.509 1.934 0 1.23.544 1.937 1.51 1.937.962 0 1.51-.712 1.51-1.937m-4.167 0a2.667 2.667 0 1 1 5.309 0 2.668 2.668 0 0 1-2.395 2.913 2.67 2.67 0 0 1-2.914-2.914M64.466 18.372h-1.152l-1.164-4.145h-.087l-1.159 4.145h-1.141l-1.551-5.628h1.126l1.008 4.295h.084l1.157-4.295h1.066l1.157 4.295h.088l1.003-4.295h1.11zM67.317 12.744h1.069v.893h.083a1.685 1.685 0 0 1 1.68-1.002 1.832 1.832 0 0 1 1.948 2.094v3.643h-1.11v-3.365c0-.905-.394-1.353-1.215-1.353a1.291 1.291 0 0 0-1.344 1.426v3.292h-1.111v-5.628z"/>
        <mask id="d" fill="#fff">
            <use xlink:href="#c"/>
        </mask>
        <path fill="#FFF" d="M73.868 18.373h1.11v-7.827h-1.11zM80.689 15.556c0-1.22-.548-1.934-1.51-1.934-.966 0-1.51.713-1.51 1.934 0 1.23.544 1.937 1.51 1.937.962 0 1.51-.712 1.51-1.937m-4.167 0a2.667 2.667 0 1 1 5.31 0 2.668 2.668 0 1 1-5.31 0M86.62 16.3v-.47l-1.375.087c-.775.051-1.126.315-1.126.811 0 .508.44.802 1.043.802a1.324 1.324 0 0 0 1.458-1.23M83 16.78c0-1.013.755-1.597 2.094-1.68l1.525-.088v-.485c0-.595-.393-.931-1.153-.931-.62 0-1.05.229-1.172.626h-1.076c.113-.967 1.023-1.587 2.3-1.587 1.41 0 2.207.702 2.207 1.892v3.845h-1.07v-.791h-.087a1.894 1.894 0 0 1-1.692.884 1.7 1.7 0 0 1-1.876-1.684M90.333 15.556c0 1.193.563 1.912 1.504 1.912.936 0 1.515-.729 1.515-1.908 0-1.173-.585-1.912-1.515-1.912-.935 0-1.504.724-1.504 1.908m-1.147 0c0-1.78.913-2.905 2.336-2.905a1.855 1.855 0 0 1 1.726.987h.083v-3.091h1.111v7.825h-1.064v-.889h-.088a1.957 1.957 0 0 1-1.768.982c-1.431 0-2.336-1.127-2.336-2.91M103.204 15.556c0-1.22-.547-1.934-1.51-1.934-.965 0-1.508.713-1.508 1.934 0 1.23.543 1.937 1.508 1.937.963 0 1.51-.712 1.51-1.937m-4.166 0a2.667 2.667 0 1 1 5.309 0 2.668 2.668 0 1 1-5.309 0M105.837 12.744h1.07v.893h.083a1.684 1.684 0 0 1 1.68-1.002 1.831 1.831 0 0 1 1.947 2.094v3.643h-1.11v-3.365c0-.905-.393-1.353-1.215-1.353a1.29 1.29 0 0 0-1.343 1.426v3.292h-1.112v-5.628zM116.894 11.342v1.428h1.22v.935h-1.22V16.6c0 .588.243.847.797.847.141-.001.281-.01.424-.026v.926a3.795 3.795 0 0 1-.605.056c-1.236 0-1.728-.434-1.728-1.52v-3.178h-.892v-.935h.892v-1.428h1.112zM119.631 10.546h1.102v3.102h.087a1.729 1.729 0 0 1 1.715-1.008 1.854 1.854 0 0 1 1.939 2.099v3.634h-1.111v-3.36c0-.9-.42-1.355-1.204-1.355a1.316 1.316 0 0 0-1.416 1.427v3.288h-1.112v-7.827zM127.043 15.039h2.843a1.356 1.356 0 0 0-1.254-1.455c-.043-.004-.087-.004-.131-.004a1.44 1.44 0 0 0-1.456 1.459h-.002zm3.91 1.813a2.285 2.285 0 0 1-2.44 1.63 2.555 2.555 0 0 1-2.6-2.906 2.594 2.594 0 0 1 2.596-2.941c1.566 0 2.51 1.07 2.51 2.837v.388h-3.974v.062a1.487 1.487 0 0 0 1.498 1.613 1.35 1.35 0 0 0 1.34-.683h1.07z" mask="url(#d)"/>
    </g>
</svg>
