<svg width="36" height="36" viewBox="0 0 36 36" fill="none" xmlns="http://www.w3.org/2000/svg">
<path d="M17.1447 26.4106C11.6278 26.4106 7.14038 21.9231 7.14038 16.4063C7.14038 10.8908 11.6278 6.40332 17.1447 6.40332C22.6602 6.40332 27.1476 10.8908 27.1476 16.4063C27.1476 21.9231 22.6602 26.4106 17.1447 26.4106Z" fill="white"/>
<path fill-rule="evenodd" clip-rule="evenodd" d="M6.75122 16.4065C6.75122 22.1374 11.4136 26.7998 17.1445 26.7998C22.8749 26.7998 27.5368 22.1374 27.5368 16.4065C27.5368 10.6761 22.8749 6.01416 17.1445 6.01416C11.4136 6.01416 6.75122 10.6761 6.75122 16.4065ZM7.53186 16.4065C7.53186 11.1055 11.8441 6.79278 17.1445 6.79278C22.4455 6.79278 26.7582 11.1055 26.7582 16.4065C26.7582 21.708 22.4455 26.0212 17.1445 26.0212C11.8441 26.0212 7.53186 21.708 7.53186 16.4065Z" fill="#636363"/>
<path d="M17.0312 26.4109C21.0332 24.7909 23.7761 20.8499 23.7761 16.4079C23.7761 11.9646 21.0332 8.02364 17.0312 6.40364C17.0715 6.40234 17.1117 6.40234 17.1533 6.40234C22.6636 6.40234 27.1472 10.8911 27.1472 16.4079C27.1472 21.9248 22.6636 26.4122 17.1533 26.4122C17.1117 26.4122 17.0715 26.4122 17.0312 26.4109" fill="white"/>
<path fill-rule="evenodd" clip-rule="evenodd" d="M15.0771 26.5943C15.7776 26.7339 16.4565 26.8018 17.1528 26.8018C22.8781 26.8018 27.536 22.1394 27.536 16.4085C27.536 10.6765 22.8781 6.01318 17.1528 6.01318C16.4621 6.01318 15.7832 6.08002 15.0771 6.21973C17.3908 6.69008 19.498 7.95751 21.0105 9.78855C22.5435 11.6444 23.3878 13.9954 23.3878 16.4085C23.3878 18.8206 22.5435 21.1707 21.0105 23.0258C19.4974 24.8571 17.3902 26.1236 15.0771 26.5943ZM18.9656 6.96327L18.9661 6.96209C23.4807 7.83078 26.7573 11.8034 26.7573 16.4085C26.7573 21.015 23.4799 24.9849 18.9651 25.8501C20.5313 24.8546 21.8394 23.4686 22.748 21.842C23.6752 20.182 24.1653 18.3031 24.1653 16.4085C24.1653 14.5132 23.6751 12.6333 22.7476 10.9722C21.8389 9.34478 20.531 7.95804 18.9656 6.96327Z" fill="#636363"/>
<path d="M27.5373 16.4066C27.5373 22.1467 22.885 26.8003 17.1449 26.8003C11.4048 26.8003 6.75122 22.1467 6.75122 16.4066C6.75122 10.6678 11.4048 6.01416 17.1449 6.01416C22.885 6.01416 27.5373 10.6678 27.5373 16.4066Z" fill="white"/>
<path d="M27.5368 16.4157C27.5368 22.1519 22.8806 26.8081 17.1444 26.8081C11.7613 26.8081 7.33351 22.7139 6.81299 17.4749C7.33351 21.7573 10.9915 25.0829 15.4192 25.0829C20.2001 25.0829 24.0865 21.1965 24.0865 16.4157C24.0865 11.6141 20.2001 7.74711 15.4192 7.74711C10.9915 7.74711 7.33351 11.052 6.81299 15.3551C7.33351 10.0966 11.7613 6.02197 17.1444 6.02197C22.8806 6.02197 27.5368 10.6574 27.5368 16.4157" fill="#62E2BB"/>
<path d="M34.0887 21.4854V16.8525H29.4558L34.0887 21.4854Z" fill="white"/>
<path d="M34.0891 16.8501V21.4842L32.804 20.1991V16.8501H34.0891Z" fill="#DDDDDD"/>
<path fill-rule="evenodd" clip-rule="evenodd" d="M6.78285 19.395H1.125V18.6164H6.58946C6.43961 17.9005 6.36165 17.1614 6.36165 16.4071C6.36165 16.1023 6.3738 15.8006 6.39911 15.5019H2.4129V14.7233H6.49226C7.30125 9.56869 11.7633 5.625 17.1448 5.625C23.1003 5.625 27.9269 10.4526 27.9269 16.4071C27.9269 20.6181 25.4898 24.3836 21.7678 26.1514L21.4631 26.2901L21.1512 25.5763C24.7638 23.9958 27.1483 20.4196 27.1483 16.4071C27.1483 10.8829 22.67 6.40361 17.1448 6.40361C11.6206 6.40361 7.14127 10.8829 7.14127 16.4071C7.14127 20.5087 9.63202 24.1406 13.3469 25.6654L13.6435 25.7818L13.3702 26.5108C10.1403 25.3039 7.71739 22.638 6.78285 19.395ZM17.7138 26.121L12.0853 30.2763L12.548 30.902L17.8971 26.9533L20.6511 29.8997L20.7199 29.9584C20.8687 30.0566 21.0702 30.0434 21.2049 29.9149L31.822 19.7676L33.8146 21.7602C33.8885 21.8341 33.9857 21.8756 34.0869 21.8756C34.2803 21.8756 34.4798 21.7288 34.4798 21.4848V16.8526C34.4798 16.6379 34.3046 16.4628 34.09 16.4628H29.4568C29.2968 16.4628 29.1591 16.5549 29.0973 16.7027C29.0356 16.8516 29.068 17.0146 29.1814 17.128L31.2702 19.2168L20.9508 29.0795L18.2292 26.1686L18.1664 26.1139C18.0327 26.0208 17.8505 26.0198 17.7138 26.121ZM33.7002 17.2404V20.5442L30.3974 17.2404H33.7002ZM14.9588 16.6299C14.6925 16.6855 14.5558 17.0085 14.7289 17.2414L17.8535 21.4615L18.4792 20.9988L15.8143 17.3994H16.1161L16.2902 17.3933C17.4161 17.3143 18.3314 16.4709 18.5208 15.3774H19.7408V14.5988H18.5299C18.456 14.0986 18.2312 13.648 17.9021 13.2947H19.7408V12.5161H14.5487V13.2947H16.1161L16.276 13.3028C16.998 13.3716 17.5862 13.9032 17.7391 14.5988H14.5487V15.3774H17.7239C17.5386 16.0932 16.8886 16.6207 16.1161 16.6207H15.0418L14.9588 16.6299Z" fill="#636363"/>
</svg>
