<svg width="16" height="19" viewBox="0 0 16 19" fill="none" xmlns="http://www.w3.org/2000/svg">
<g id="logo">
<g id="path26">
<mask id="path-1-inside-1_1475_4422" fill="white">
<path d="M7.47031 8.64835L0.0684814 16.603C0.0687595 16.6047 0.0693156 16.606 0.0695937 16.6077C0.296588 17.4714 1.07574 18.1074 2.00047 18.1074C2.37013 18.1074 2.71719 18.0062 3.01482 17.8286L3.03846 17.8146L11.3702 12.9466L7.47031 8.64835Z"/>
</mask>
<path d="M7.47031 8.64835L0.0684814 16.603C0.0687595 16.6047 0.0693156 16.606 0.0695937 16.6077C0.296588 17.4714 1.07574 18.1074 2.00047 18.1074C2.37013 18.1074 2.71719 18.0062 3.01482 17.8286L3.03846 17.8146L11.3702 12.9466L7.47031 8.64835Z" fill="#222222"/>
<path d="M0.0684814 16.603L-0.424542 16.6862L-0.465607 16.443L-0.297563 16.2624L0.0684814 16.603ZM0.0695937 16.6077L-0.413985 16.7348L-0.419692 16.7131L-0.42343 16.6909L0.0695937 16.6077ZM3.01482 17.8286L2.75856 17.3992L2.75972 17.3986L3.01482 17.8286ZM3.03846 17.8146L2.78335 17.3845L2.78622 17.3829L3.03846 17.8146ZM11.3702 12.9466L11.7405 12.6106L12.1548 13.0673L11.6224 13.3783L11.3702 12.9466ZM7.83635 8.98896L0.434525 16.9436L-0.297563 16.2624L7.10426 8.30775L7.83635 8.98896ZM0.561505 16.5198C0.558935 16.5045 0.556108 16.4922 0.554126 16.4842C0.553143 16.4802 0.552302 16.4771 0.551794 16.4752C0.551337 16.4735 0.550941 16.472 0.551067 16.4725C0.551074 16.4725 0.551212 16.473 0.551368 16.4736C0.551536 16.4742 0.551795 16.4752 0.552105 16.4763C0.552715 16.4786 0.553656 16.4821 0.554734 16.4865C0.556907 16.4953 0.559909 16.5084 0.562617 16.5244L-0.42343 16.6909C-0.42086 16.7061 -0.418032 16.7184 -0.416051 16.7265C-0.415068 16.7304 -0.414227 16.7336 -0.413719 16.7355C-0.413262 16.7372 -0.412866 16.7386 -0.412991 16.7382C-0.412999 16.7382 -0.413137 16.7377 -0.413293 16.7371C-0.413461 16.7365 -0.41372 16.7355 -0.414029 16.7344C-0.41464 16.7321 -0.415581 16.7285 -0.416659 16.7242C-0.418832 16.7154 -0.421834 16.7023 -0.424542 16.6862L0.561505 16.5198ZM0.553172 16.4806C0.72469 17.1332 1.31175 17.6074 2.00047 17.6074V18.6074C0.839726 18.6074 -0.131514 17.8096 -0.413985 16.7348L0.553172 16.4806ZM2.00047 17.6074C2.27773 17.6074 2.53653 17.5318 2.75857 17.3992L3.27107 18.2579C2.89785 18.4807 2.46253 18.6074 2.00047 18.6074V17.6074ZM2.75972 17.3986L2.78336 17.3845L3.29356 18.2446L3.26992 18.2586L2.75972 17.3986ZM2.78622 17.3829L11.1179 12.5149L11.6224 13.3783L3.29069 18.2463L2.78622 17.3829ZM10.9999 13.2826L7.10001 8.98433L7.8406 8.31238L11.7405 12.6106L10.9999 13.2826Z" fill="white" mask="url(#path-1-inside-1_1475_4422)"/>
</g>
<g id="path28" opacity="0.85">
<mask id="path-3-inside-2_1475_4422" fill="white">
<path d="M14.9588 7.29532L14.9517 7.29039L11.3547 5.17903L7.30225 8.83028L11.3688 12.9473L14.9468 10.8569C15.5742 10.514 16 9.84439 16 9.07223C16 8.30563 15.5799 7.63934 14.9588 7.29532Z"/>
</mask>
<path d="M14.9588 7.29532L14.9517 7.29039L11.3547 5.17903L7.30225 8.83028L11.3688 12.9473L14.9468 10.8569C15.5742 10.514 16 9.84439 16 9.07223C16 8.30563 15.5799 7.63934 14.9588 7.29532Z" fill="#222222"/>
<path d="M14.9517 7.29039L15.2048 6.85919L15.2213 6.86889L15.2371 6.87982L14.9517 7.29039ZM11.3547 5.17903L11.02 4.80757L11.292 4.56248L11.6078 4.74783L11.3547 5.17903ZM7.30225 8.83028L6.94652 9.18165L6.57865 8.80922L6.96756 8.45882L7.30225 8.83028ZM11.3688 12.9473L11.621 13.379L11.2859 13.5748L11.0131 13.2986L11.3688 12.9473ZM14.9468 10.8569L14.6946 10.4252L14.7008 10.4216L14.707 10.4182L14.9468 10.8569ZM14.6734 7.70589L14.6664 7.70097L15.2371 6.87982L15.2442 6.88475L14.6734 7.70589ZM14.6986 7.7216L11.1016 5.61024L11.6078 4.74783L15.2048 6.85919L14.6986 7.7216ZM11.6894 5.5505L7.63693 9.20175L6.96756 8.45882L11.02 4.80757L11.6894 5.5505ZM7.65797 8.47891L11.7245 12.5959L11.0131 13.2986L6.94652 9.18165L7.65797 8.47891ZM11.1166 12.5155L14.6946 10.4252L15.1991 11.2886L11.621 13.379L11.1166 12.5155ZM14.707 10.4182C15.1788 10.1603 15.5 9.65614 15.5 9.07223H16.5C16.5 10.0326 15.9696 10.8677 15.1867 11.2956L14.707 10.4182ZM15.5 9.07223C15.5 8.49249 15.183 7.9911 14.7165 7.7327L15.2011 6.85794C15.9767 7.28758 16.5 8.11877 16.5 9.07223H15.5Z" fill="white" mask="url(#path-3-inside-2_1475_4422)"/>
</g>
<path id="path30" opacity="0.85" d="M7.3686 8.85715L0.25 2.02715V16.0637L7.3686 8.85715Z" fill="#222222" stroke="white" stroke-width="0.5"/>
<path id="path32" d="M7.5248 8.697L10.9523 5.22758L2.90715 0.504713L2.90713 0.504735L2.90407 0.50288C2.63914 0.342208 2.33071 0.249795 2.00038 0.249795C1.2411 0.249795 0.590266 0.742567 0.350216 1.43377L7.5248 8.697Z" fill="#222222" stroke="white" stroke-width="0.5"/>
</g>
</svg>
