<svg width="32" height="32" viewBox="0 0 32 32" fill="none" xmlns="http://www.w3.org/2000/svg">
<path d="M4.5 5.396V17.5521H27.2265V5.396H4.5Z" fill="white"/>
<path d="M27.689 5.72598V17.09C27.689 17.486 27.3638 17.81 26.9678 17.81H4.71978C4.32378 17.81 4.00098 17.486 4.00098 17.09V15.41H24.5678C24.9638 15.41 25.289 15.086 25.289 14.69V5.00598H26.9678C27.3638 5.00598 27.689 5.31798 27.689 5.72598Z" fill="#62E2BB"/>
<path fill-rule="evenodd" clip-rule="evenodd" d="M13.4703 25.8764L11.4624 20.8949L9.6516 25.3895C9.4932 26.798 8.29621 27.896 6.8472 27.896C5.2911 27.896 4.0248 26.6297 4.0248 25.0727C4.0248 23.5166 5.2911 22.2503 6.8472 22.2503C8.0127 22.2503 9.0162 22.9622 9.4464 23.9729L11.0745 19.931L10.2204 17.8124H4.725C4.3281 17.8124 4.005 17.4893 4.005 17.0915V5.72C4.005 5.3231 4.3281 5 4.725 5H26.9667C27.3636 5 27.6867 5.3231 27.6867 5.72V17.0915C27.6867 17.4893 27.3636 17.8124 26.9667 17.8124H12.7053L11.8512 19.931L13.5288 24.0953C13.9275 23.0189 14.9634 22.2503 16.1766 22.2503C17.7327 22.2503 18.999 23.5166 18.999 25.0727C18.999 26.6297 17.7327 27.896 16.1766 27.896C14.8986 27.896 13.8168 27.0428 13.4703 25.8764ZM14.0742 25.0727C14.0742 25.2698 14.1012 25.4606 14.1516 25.6415L14.3217 26.0636C14.6763 26.7251 15.3747 27.176 16.1766 27.176C17.3358 27.176 18.279 26.2328 18.279 25.0727C18.279 23.9135 17.3358 22.9703 16.1766 22.9703C15.0174 22.9703 14.0742 23.9135 14.0742 25.0727ZM6.8472 27.176C5.688 27.176 4.7448 26.2328 4.7448 25.0727C4.7448 23.9135 5.688 22.9703 6.8472 22.9703C8.0064 22.9703 8.9496 23.9135 8.9496 25.0727C8.9496 26.2328 8.0064 27.176 6.8472 27.176ZM11.4624 18.968L11.9286 17.8124H11.8638H11.1438H10.9971L11.4624 18.968ZM11.8638 17.0915V16.6118H11.1438V17.0915H10.7064L6.9975 7.8863L6.3297 8.1554L9.9306 17.0915H4.725V5.72H11.1438V6.4193H11.8638V5.72H26.9667V17.0915H11.8638ZM11.8629 14.5733H11.1438V12.5348H11.8638V14.5724V14.5733H11.8629ZM16.4844 13.2584L17.4096 13.2593H17.4105V13.2584L17.6589 12.5762H19.4274L19.6767 13.2584L20.5974 13.2566L19.0719 9.3002H18.0153L16.4844 13.2584ZM17.8848 11.8463H19.1961L18.5436 10.0301L17.8848 11.8463ZM21.9087 13.2584L22.9059 11.8103L23.8968 13.2584L24.9048 13.2566L23.4693 11.2226L24.8166 9.3002H23.8023L22.9059 10.6529L21.9978 9.3002H20.9952L22.3416 11.2289L20.9061 13.2584H21.9087ZM15.6222 13.2584H14.7744V10.0418H13.617V9.3002H16.7742V10.0418H15.6231V13.2575V13.2584H15.6222ZM11.1438 10.4954H11.8629H11.8638V10.4945V8.4569H11.1438V10.4954Z" fill="#636363"/>
</svg>
