<svg width="29" height="29" viewBox="0 0 29 29" fill="none" xmlns="http://www.w3.org/2000/svg">
<rect x="0.519531" y="0.401489" width="28" height="28" rx="4" fill="url(#paint0_linear_4593_1658)"/>
<g clip-path="url(#clip0_4593_1658)">
<path fill-rule="evenodd" clip-rule="evenodd" d="M18.7902 16.5844C18.5581 16.4683 17.4171 15.9069 17.2044 15.8294C16.9917 15.752 16.837 15.7133 16.6823 15.9456C16.5276 16.1778 16.0828 16.7006 15.9475 16.8555C15.8121 17.0104 15.6767 17.0298 15.4447 16.9136C15.2126 16.7974 14.4648 16.5524 13.5785 15.7617C12.8886 15.1464 12.4228 14.3864 12.2875 14.1541C12.1521 13.9218 12.273 13.7962 12.3892 13.6805C12.4936 13.5765 12.6213 13.4094 12.7373 13.2739C12.8534 13.1384 12.892 13.0416 12.9694 12.8868C13.0467 12.7318 13.0081 12.5964 12.95 12.4802C12.892 12.3641 12.4279 11.2217 12.2345 10.757C12.0461 10.3046 11.8548 10.3659 11.7124 10.3587C11.5772 10.352 11.4223 10.3505 11.2676 10.3505C11.1129 10.3505 10.8615 10.4086 10.6487 10.6409C10.436 10.8732 9.83652 11.4347 9.83652 12.5769C9.83652 13.7192 10.668 14.8227 10.7841 14.9776C10.9002 15.1325 12.4205 17.4765 14.7485 18.4817C15.3022 18.7208 15.7344 18.8636 16.0715 18.9705C16.6274 19.1472 17.1333 19.1222 17.5332 19.0625C17.979 18.9959 18.9062 18.5011 19.0996 17.9591C19.293 17.4169 19.293 16.9523 19.2349 16.8555C19.1769 16.7587 19.0222 16.7006 18.7902 16.5844ZM14.5558 22.366H14.5527C13.1675 22.3655 11.8089 21.9933 10.6237 21.29L10.3418 21.1226L7.42008 21.8891L8.19991 19.0405L8.01641 18.7484C7.24367 17.5193 6.83552 16.0988 6.83612 14.6401C6.83782 10.3839 10.3008 6.92118 14.5589 6.92118C16.6208 6.92191 18.559 7.72592 20.0165 9.1851C21.474 10.6442 22.2762 12.5837 22.2754 14.6464C22.2736 18.9029 18.8107 22.366 14.5558 22.366ZM21.1258 8.07632C19.3723 6.32078 17.0403 5.35354 14.5558 5.35254C9.43648 5.35254 5.27002 9.51874 5.26795 14.6395C5.26728 16.2765 5.69493 17.8743 6.50769 19.2828L5.19012 24.0956L10.1136 22.8041C11.4703 23.544 12.9976 23.934 14.552 23.9345H14.5559C19.6746 23.9345 23.8414 19.7679 23.8435 14.647C23.8444 12.1653 22.8793 9.83183 21.1258 8.07632Z" fill="white"/>
</g>
<defs>
<linearGradient id="paint0_linear_4593_1658" x1="14.5195" y1="0.401489" x2="14.5195" y2="28.4015" gradientUnits="userSpaceOnUse">
<stop stop-color="#7AE772"/>
<stop offset="1" stop-color="#61C757"/>
</linearGradient>
<clipPath id="clip0_4593_1658">
<rect width="21.0859" height="19.6802" fill="white" transform="translate(3.97656 4.56067)"/>
</clipPath>
</defs>
</svg>
