<svg width="28" height="28" viewBox="0 0 28 28" fill="none" xmlns="http://www.w3.org/2000/svg">
<path d="M6.73773 16.7475V13.0462C6.73773 11.1247 7.50104 9.28192 8.85975 7.92322C10.2184 6.56452 12.0612 5.80121 13.9827 5.80121C15.9042 5.80121 17.747 6.56452 19.1057 7.92322C20.4644 9.28192 21.2277 11.1247 21.2277 13.0462V16.5462H23.5377V13.0462C23.5377 10.5121 22.5311 8.08172 20.7391 6.28981C18.9472 4.4979 16.5169 3.49121 13.9827 3.49121C11.4486 3.49121 9.01824 4.4979 7.22633 6.28981C5.43442 8.08172 4.42773 10.5121 4.42773 13.0462V16.7475H6.73773Z" fill="white"/>
<path d="M6.73656 17.01H4.42656C4.35764 17.0078 4.29213 16.9795 4.24337 16.9307C4.19461 16.8819 4.16625 16.8164 4.16406 16.7475V13.0463C4.16406 10.4425 5.1984 7.94538 7.03954 6.10424C8.88068 4.2631 11.3778 3.22876 13.9816 3.22876C16.5853 3.22876 19.0824 4.2631 20.9236 6.10424C22.7647 7.94538 23.7991 10.4425 23.7991 13.0463V16.5463C23.7991 16.5807 23.7923 16.6149 23.7791 16.6467C23.7659 16.6786 23.7465 16.7075 23.7222 16.7319C23.6978 16.7562 23.6689 16.7756 23.637 16.7888C23.6052 16.802 23.571 16.8088 23.5366 16.8088H21.2266C21.1918 16.81 21.1571 16.804 21.1247 16.7913C21.0923 16.7785 21.0628 16.7592 21.0382 16.7346C21.0136 16.71 20.9943 16.6805 20.9816 16.6481C20.9688 16.6157 20.9628 16.5811 20.9641 16.5463V13.0463C20.9641 11.1897 20.2266 9.40927 18.9138 8.09651C17.6011 6.78376 15.8206 6.04626 13.9641 6.04626C12.1075 6.04626 10.3271 6.78376 9.01431 8.09651C7.70156 9.40927 6.96406 11.1897 6.96406 13.0463V16.7475C6.96463 16.8115 6.94183 16.8734 6.89994 16.9218C6.85805 16.9701 6.79995 17.0015 6.73656 17.01ZM4.68906 16.485H6.43906V13.0463C6.43906 11.0551 7.23003 9.14559 8.63796 7.73766C10.0459 6.32973 11.9554 5.53876 13.9466 5.53876C15.9377 5.53876 17.8472 6.32973 19.2552 7.73766C20.6631 9.14559 21.4541 11.0551 21.4541 13.0463V16.31H23.2041V13.0463C23.2041 10.5817 22.225 8.21815 20.4823 6.47547C18.7397 4.73279 16.3761 3.75376 13.9116 3.75376C11.447 3.75376 9.08345 4.73279 7.34077 6.47547C5.59809 8.21815 4.61906 10.5817 4.61906 13.0463L4.68906 16.485Z" fill="#636363"/>
<path d="M22.2155 13.0462V16.5462H21.2268V13.0462C21.2268 11.1248 20.4635 9.28196 19.1048 7.92326C17.7461 6.56456 15.9033 5.80125 13.9818 5.80125C12.0603 5.80125 10.2175 6.56456 8.85881 7.92326C7.50011 9.28196 6.7368 11.1248 6.7368 13.0462V16.7475H5.74805V13.0462C5.74805 10.8625 6.61553 8.76824 8.15966 7.22411C9.70378 5.67998 11.7981 4.8125 13.9818 4.8125C16.1655 4.8125 18.2598 5.67998 19.8039 7.22411C21.3481 8.76824 22.2155 10.8625 22.2155 13.0462Z" fill="#EAEAEA"/>
<path d="M6.73656 17.01H4.42656C4.35764 17.0078 4.29213 16.9795 4.24337 16.9307C4.19461 16.8819 4.16625 16.8164 4.16406 16.7475V13.0463C4.16406 10.4425 5.1984 7.94538 7.03954 6.10424C8.88068 4.2631 11.3778 3.22876 13.9816 3.22876C16.5853 3.22876 19.0824 4.2631 20.9236 6.10424C22.7647 7.94538 23.7991 10.4425 23.7991 13.0463V16.5463C23.7991 16.5807 23.7923 16.6149 23.7791 16.6467C23.7659 16.6786 23.7465 16.7075 23.7222 16.7319C23.6978 16.7562 23.6689 16.7756 23.637 16.7888C23.6052 16.802 23.571 16.8088 23.5366 16.8088H21.2266C21.1918 16.81 21.1571 16.804 21.1247 16.7913C21.0923 16.7785 21.0628 16.7592 21.0382 16.7346C21.0136 16.71 20.9943 16.6805 20.9816 16.6481C20.9688 16.6157 20.9628 16.5811 20.9641 16.5463V13.0463C20.9641 11.1897 20.2266 9.40927 18.9138 8.09651C17.6011 6.78376 15.8206 6.04626 13.9641 6.04626C12.1075 6.04626 10.3271 6.78376 9.01431 8.09651C7.70156 9.40927 6.96406 11.1897 6.96406 13.0463V16.7475C6.96463 16.8115 6.94183 16.8734 6.89994 16.9218C6.85805 16.9701 6.79995 17.0015 6.73656 17.01ZM4.68906 16.485H6.43906V13.0463C6.43906 11.0551 7.23003 9.14559 8.63796 7.73766C10.0459 6.32973 11.9554 5.53876 13.9466 5.53876C15.9377 5.53876 17.8472 6.32973 19.2552 7.73766C20.6631 9.14559 21.4541 11.0551 21.4541 13.0463V16.31H23.2041V13.0463C23.2041 10.5817 22.225 8.21815 20.4823 6.47547C18.7397 4.73279 16.3761 3.75376 13.9116 3.75376C11.447 3.75376 9.08345 4.73279 7.34077 6.47547C5.59809 8.21815 4.61906 10.5817 4.61906 13.0463L4.68906 16.485Z" fill="#636363"/>
<path d="M14.5259 24.9199H8.89086C8.20859 24.9199 7.55426 24.6489 7.07183 24.1665C6.58939 23.684 6.31836 23.0297 6.31836 22.3474V20.2212H6.84336V22.3474C6.84336 22.8905 7.05908 23.4113 7.44306 23.7952C7.82704 24.1792 8.34783 24.3949 8.89086 24.3949H14.5259V24.9199Z" fill="#636363"/>
<path d="M8.3647 12.5125H9.0297C9.33532 12.5148 9.62777 12.6372 9.84388 12.8533C10.06 13.0695 10.1824 13.3619 10.1847 13.6675V19.7925C10.1906 19.9483 10.1651 20.1036 10.1098 20.2493C10.0545 20.395 9.97047 20.5281 9.86275 20.6407C9.75503 20.7533 9.62578 20.8432 9.48268 20.9049C9.33958 20.9666 9.18554 20.999 9.0297 21H8.1547C7.57925 20.9996 7.00989 20.8822 6.48125 20.6548C5.9526 20.4275 5.47572 20.095 5.07959 19.6776C4.68346 19.2602 4.37636 18.7665 4.17697 18.2267C3.97757 17.6869 3.89004 17.1122 3.9197 16.5375C4.00865 15.4267 4.51813 14.3917 5.34416 13.6437C6.1702 12.8957 7.25054 12.4911 8.3647 12.5125Z" fill="white"/>
<path d="M9.02909 21.245H8.15409C7.54264 21.2446 6.93766 21.1199 6.37597 20.8782C5.81429 20.6366 5.30765 20.2832 4.8869 19.8396C4.46616 19.3959 4.1401 18.8712 3.92859 18.2975C3.71708 17.7238 3.62453 17.1131 3.65659 16.5025C3.76417 15.3321 4.30805 14.2451 5.18018 13.4572C6.0523 12.6694 7.18887 12.2385 8.36409 12.25H9.02909C9.40503 12.25 9.76558 12.3993 10.0314 12.6652C10.2972 12.931 10.4466 13.2915 10.4466 13.6675V19.7925C10.4501 19.9812 10.416 20.1688 10.3465 20.3443C10.2769 20.5198 10.1732 20.6798 10.0413 20.8149C9.90946 20.95 9.75208 21.0576 9.57832 21.1314C9.40457 21.2053 9.21788 21.2439 9.02909 21.245ZM8.36409 12.775C7.31854 12.7548 6.30397 13.1304 5.52354 13.8265C4.74311 14.5225 4.25442 15.4877 4.15534 16.5287C4.12684 17.0682 4.20844 17.6079 4.39517 18.1148C4.5819 18.6217 4.86984 19.0854 5.24148 19.4775C5.61312 19.8696 6.06067 20.182 6.55688 20.3956C7.0531 20.6092 7.5876 20.7195 8.12784 20.72H9.00284C9.2349 20.72 9.45746 20.6278 9.62156 20.4637C9.78565 20.2996 9.87784 20.077 9.87784 19.845V13.72C9.87784 13.4879 9.78565 13.2654 9.62156 13.1013C9.45746 12.9372 9.2349 12.845 9.00284 12.845L8.36409 12.775Z" fill="#636363"/>
<path d="M10.1841 13.6676V19.7926C10.1912 19.9494 10.1663 20.106 10.1109 20.2528C10.0555 20.3996 9.9708 20.5337 9.86189 20.6467C9.75299 20.7597 9.6222 20.8493 9.4775 20.91C9.33281 20.9708 9.17725 21.0015 9.02031 21.0001H8.14531C7.91076 20.9975 7.67676 20.977 7.44531 20.9389C7.67524 20.8603 7.87482 20.7117 8.01605 20.514C8.15727 20.3163 8.23307 20.0793 8.23281 19.8364V13.7114C8.2349 13.4818 8.16749 13.257 8.03943 13.0665C7.91137 12.8759 7.72866 12.7286 7.51531 12.6439C7.80279 12.5811 8.09608 12.5489 8.39031 12.5476H9.04656C9.34388 12.552 9.62806 12.6708 9.83994 12.8795C10.0518 13.0881 10.1751 13.3704 10.1841 13.6676Z" fill="#62E2BB"/>
<path d="M19.6345 20.9999H18.9695C18.6638 20.9977 18.3714 20.8752 18.1553 20.6591C17.9392 20.443 17.8167 20.1506 17.8145 19.8449V13.7199C17.8167 13.4143 17.9392 13.1219 18.1553 12.9058C18.3714 12.6897 18.6638 12.5672 18.9695 12.5649H19.8445C20.4195 12.5642 20.9887 12.6805 21.5173 12.9069C22.0459 13.1333 22.5229 13.4649 22.9191 13.8817C23.3154 14.2984 23.6226 14.7914 23.8221 15.3308C24.0216 15.8701 24.1092 16.4444 24.0795 17.0187C23.98 18.1217 23.466 19.1459 22.641 19.8847C21.8161 20.6236 20.7417 21.0221 19.6345 20.9999Z" fill="white"/>
<path d="M19.6357 21.245H18.9707C18.5954 21.2427 18.2362 21.0926 17.9709 20.8273C17.7055 20.562 17.5555 20.2027 17.5532 19.8275V13.7025C17.5485 13.5134 17.5817 13.3253 17.6509 13.1493C17.72 12.9733 17.8237 12.8128 17.9558 12.6775C18.0879 12.5421 18.2457 12.4346 18.42 12.3611C18.5943 12.2877 18.7815 12.2499 18.9707 12.25H19.8457C20.4563 12.2504 21.0606 12.3749 21.6216 12.616C22.1827 12.8571 22.6889 13.2097 23.1095 13.6524C23.5302 14.0951 23.8564 14.6187 24.0685 15.1914C24.2805 15.7641 24.374 16.3739 24.3432 16.9837C24.2357 18.1549 23.6921 19.2429 22.8202 20.0322C21.9483 20.8214 20.8117 21.2543 19.6357 21.245ZM18.9707 12.775C18.7386 12.775 18.516 12.8672 18.3519 13.0313C18.1879 13.1954 18.0957 13.4179 18.0957 13.65V19.775C18.0957 20.0071 18.1879 20.2296 18.3519 20.3937C18.516 20.5578 18.7386 20.65 18.9707 20.65H19.6357C20.6826 20.67 21.6983 20.2932 22.479 19.5953C23.2596 18.8974 23.7474 17.9301 23.8444 16.8875C23.8742 16.3481 23.7935 15.8084 23.6071 15.3013C23.4208 14.7943 23.1327 14.3307 22.7607 13.939C22.3887 13.5473 21.9406 13.2358 21.4438 13.0236C20.947 12.8114 20.4121 12.703 19.8719 12.705L18.9707 12.775Z" fill="#636363"/>
<path d="M20.5105 20.895C20.2221 20.9506 19.9292 20.9798 19.6355 20.9825H18.9705C18.8188 20.9814 18.6689 20.9504 18.5292 20.8913C18.3895 20.8322 18.2628 20.7461 18.1563 20.6381C18.0499 20.53 17.9658 20.402 17.9088 20.2615C17.8518 20.1209 17.8231 19.9705 17.8243 19.8188V13.6938C17.8231 13.5421 17.8518 13.3917 17.9088 13.2511C17.9658 13.1105 18.0499 12.9826 18.1563 12.8745C18.2628 12.7664 18.3895 12.6804 18.5292 12.6213C18.6689 12.5622 18.8188 12.5312 18.9705 12.53H19.8455C20.0863 12.5308 20.3266 12.5542 20.563 12.6C20.333 12.6758 20.133 12.8224 19.9915 13.0189C19.85 13.2154 19.7744 13.4517 19.7755 13.6938V19.8188C19.7766 20.051 19.8472 20.2776 19.9782 20.4694C20.1092 20.6612 20.2946 20.8095 20.5105 20.895Z" fill="#62E2BB"/>
<path d="M14.1315 26.2676C15.0207 26.2676 15.7415 25.5468 15.7415 24.6576C15.7415 23.7684 15.0207 23.0476 14.1315 23.0476C13.2423 23.0476 12.5215 23.7684 12.5215 24.6576C12.5215 25.5468 13.2423 26.2676 14.1315 26.2676Z" fill="#62E2BB"/>
<path d="M14.1312 26.5213C13.7601 26.5231 13.3969 26.4145 13.0876 26.2094C12.7784 26.0043 12.537 25.712 12.3942 25.3695C12.2514 25.027 12.2136 24.6497 12.2856 24.2857C12.3575 23.9217 12.536 23.5872 12.7984 23.3248C13.0608 23.0624 13.3953 22.8839 13.7593 22.8119C14.1234 22.74 14.5006 22.7778 14.8431 22.9206C15.1856 23.0634 15.478 23.3047 15.6831 23.614C15.8881 23.9233 15.9967 24.2865 15.995 24.6576C15.9927 25.1512 15.7956 25.6239 15.4466 25.9729C15.0975 26.3219 14.6248 26.519 14.1312 26.5213ZM14.1312 23.3101C13.8644 23.3084 13.603 23.3859 13.3802 23.5329C13.1575 23.6799 12.9834 23.8898 12.8801 24.1358C12.7767 24.3819 12.7488 24.6531 12.7998 24.9151C12.8508 25.177 12.9785 25.418 13.1666 25.6073C13.3547 25.7966 13.5947 25.9258 13.8564 25.9785C14.118 26.0312 14.3894 26.0051 14.6361 25.9033C14.8828 25.8016 15.0938 25.6289 15.2423 25.4071C15.3907 25.1853 15.47 24.9245 15.47 24.6576C15.47 24.3017 15.3292 23.9603 15.0784 23.7079C14.8276 23.4554 14.4871 23.3124 14.1312 23.3101Z" fill="#636363"/>
<path d="M19.6357 21.245H18.9707C18.5954 21.2427 18.2362 21.0926 17.9709 20.8273C17.7055 20.562 17.5555 20.2027 17.5532 19.8275V13.7025C17.5485 13.5134 17.5817 13.3253 17.6509 13.1493C17.72 12.9733 17.8237 12.8128 17.9558 12.6775C18.0879 12.5421 18.2457 12.4346 18.42 12.3611C18.5943 12.2877 18.7815 12.2499 18.9707 12.25H19.8457C20.4563 12.2504 21.0606 12.3749 21.6216 12.616C22.1827 12.8571 22.6889 13.2097 23.1095 13.6524C23.5302 14.0951 23.8564 14.6187 24.0685 15.1914C24.2805 15.7641 24.374 16.3739 24.3432 16.9837C24.2357 18.1549 23.6921 19.2429 22.8202 20.0322C21.9483 20.8214 20.8117 21.2543 19.6357 21.245ZM18.9707 12.775C18.7386 12.775 18.516 12.8672 18.3519 13.0313C18.1879 13.1954 18.0957 13.4179 18.0957 13.65V19.775C18.0957 20.0071 18.1879 20.2296 18.3519 20.3937C18.516 20.5578 18.7386 20.65 18.9707 20.65H19.6357C20.6826 20.67 21.6983 20.2932 22.479 19.5953C23.2596 18.8974 23.7474 17.9301 23.8444 16.8875C23.8742 16.3481 23.7935 15.8084 23.6071 15.3013C23.4208 14.7943 23.1327 14.3307 22.7607 13.939C22.3887 13.5473 21.9406 13.2358 21.4438 13.0236C20.947 12.8114 20.4121 12.703 19.8719 12.705L18.9707 12.775Z" fill="#636363"/>
<path d="M9.02909 21.245H8.15409C7.54264 21.2446 6.93766 21.1199 6.37597 20.8782C5.81429 20.6366 5.30765 20.2832 4.8869 19.8396C4.46616 19.3959 4.1401 18.8712 3.92859 18.2975C3.71708 17.7238 3.62453 17.1131 3.65659 16.5025C3.76417 15.3321 4.30805 14.2451 5.18018 13.4572C6.0523 12.6694 7.18887 12.2385 8.36409 12.25H9.02909C9.40503 12.25 9.76558 12.3993 10.0314 12.6652C10.2972 12.931 10.4466 13.2915 10.4466 13.6675V19.7925C10.4501 19.9812 10.416 20.1688 10.3465 20.3443C10.2769 20.5198 10.1732 20.6798 10.0413 20.8149C9.90946 20.95 9.75208 21.0576 9.57832 21.1314C9.40457 21.2053 9.21788 21.2439 9.02909 21.245ZM8.36409 12.775C7.31854 12.7548 6.30397 13.1304 5.52354 13.8265C4.74311 14.5225 4.25442 15.4877 4.15534 16.5287C4.12684 17.0682 4.20844 17.6079 4.39517 18.1148C4.5819 18.6217 4.86984 19.0854 5.24148 19.4775C5.61312 19.8696 6.06067 20.182 6.55688 20.3956C7.0531 20.6092 7.5876 20.7195 8.12784 20.72H9.00284C9.2349 20.72 9.45746 20.6278 9.62156 20.4637C9.78565 20.2996 9.87784 20.077 9.87784 19.845V13.72C9.87784 13.4879 9.78565 13.2654 9.62156 13.1013C9.45746 12.9372 9.2349 12.845 9.00284 12.845L8.36409 12.775Z" fill="#636363"/>
</svg>
