<svg width="28" height="28" viewBox="0 0 28 28" fill="none" xmlns="http://www.w3.org/2000/svg">
<g clip-path="url(#clip0_15786_176635)">
<path fill-rule="evenodd" clip-rule="evenodd" d="M11.3229 18.454L12.2241 19.3552C16.5641 17.5702 21.2629 14.1315 23.7479 9.22271L24.0279 8.70646C24.7804 6.92146 25.2091 4.92646 25.2091 2.78271C23.0654 2.78271 21.1054 3.22896 19.3291 3.98146L18.7516 4.28771C13.8516 6.77271 10.4129 11.4015 8.61914 15.7327L9.52039 16.634" fill="white"/>
<path fill-rule="evenodd" clip-rule="evenodd" d="M25.2003 2.7998C23.0566 2.7998 21.0966 3.24605 19.3203 3.99855L24.0278 8.7148C24.7803 6.9298 25.2091 4.9348 25.2091 2.7998H25.2003Z" fill="#62E2BB"/>
<path d="M12.2227 19.6175C12.1527 19.6175 12.0914 19.5913 12.0389 19.5388L11.1377 18.6375L11.5052 18.27L12.2839 19.0488C14.7777 17.9988 20.5002 15.0413 23.5102 9.10877L23.7902 8.58377C24.5164 6.86877 24.9014 5.00502 24.9364 3.05377C23.0377 3.08877 21.1827 3.48252 19.4239 4.23502L18.8639 4.53252C14.6114 6.68502 10.9977 10.745 8.92391 15.6888L9.70266 16.4675L9.33516 16.835L8.43391 15.9338C8.35516 15.8638 8.33766 15.75 8.37266 15.645C10.4814 10.5175 14.2177 6.30002 18.6277 4.06002L19.2052 3.75377C21.1389 2.93127 23.1514 2.52002 25.2077 2.52002C25.3564 2.52002 25.4702 2.63377 25.4702 2.78252C25.4702 4.90002 25.0677 6.93002 24.2714 8.80252L23.9827 9.33627C20.8327 15.5488 14.7864 18.5763 12.3277 19.5825C12.2927 19.6 12.2577 19.6 12.2314 19.6L12.2227 19.6175Z" fill="#636363"/>
<path fill-rule="evenodd" clip-rule="evenodd" d="M8.84508 15.2074C9.73758 13.1424 10.8576 11.3749 12.0476 9.81737C9.16008 8.37362 4.94258 11.2874 2.79883 16.3274C6.02758 13.8161 7.87383 13.5186 8.84508 15.2074ZM12.7651 19.1274C14.6988 18.2961 16.5188 17.2286 18.1901 15.9599C19.6338 18.8474 16.7113 23.0649 11.6801 25.2086C14.1913 21.9799 14.4626 20.0986 12.7651 19.1274ZM15.2588 12.7836C15.5913 15.6449 12.3538 17.7974 7.24383 20.7636C10.2101 15.6449 12.3626 12.4161 15.2238 12.7486L15.2588 12.7661V12.7836Z" fill="white"/>
<path d="M11.6809 25.4625C11.6022 25.4625 11.5234 25.4275 11.4709 25.3575C11.4009 25.2612 11.4009 25.13 11.4709 25.0337C13.0634 22.9775 13.7372 21.4987 13.5447 20.4925C13.4484 20.02 13.1509 19.6437 12.6347 19.3375C12.5472 19.285 12.4947 19.1975 12.5034 19.0925C12.5034 18.9962 12.5734 18.9087 12.6609 18.865C14.5684 18.0425 16.3797 16.9837 18.0334 15.7237C18.0947 15.68 18.1734 15.6537 18.2522 15.68C18.3309 15.6975 18.3922 15.75 18.4272 15.82C18.9347 16.8262 18.9522 18.025 18.4972 19.2762C17.6134 21.6825 15.0409 24.045 11.7859 25.4275C11.7509 25.445 11.7159 25.445 11.6809 25.445V25.4625ZM13.2997 19.1712C13.7109 19.5037 13.9647 19.915 14.0609 20.3962C14.2622 21.42 13.7722 22.7412 12.5122 24.5262C15.1897 23.17 17.2547 21.1487 17.9984 19.11C18.3659 18.1212 18.3922 17.1762 18.0772 16.3625C16.5897 17.465 14.9884 18.41 13.2997 19.1712ZM7.23595 21.0262C7.16595 21.0262 7.1047 21 7.0522 20.9475C6.9647 20.86 6.9472 20.7375 7.00845 20.6325C9.89595 15.6362 12.1797 12.1275 15.2422 12.4862C15.2772 12.4862 15.3122 12.5037 15.3472 12.5212C15.3997 12.5562 15.4697 12.6262 15.4959 12.6875C15.4959 12.705 15.5134 12.74 15.5134 12.7575C15.8722 15.82 12.5209 18.0075 7.3672 20.9912C7.32345 21.0175 7.2797 21.0262 7.23595 21.0262ZM14.8309 12.985C12.4159 12.985 10.4034 15.8812 7.9622 20.0287C12.2147 17.5262 15.1459 15.4787 15.0059 12.985C14.9447 12.985 14.8922 12.985 14.8309 12.985ZM2.7997 16.5812C2.7472 16.5812 2.68595 16.5637 2.6422 16.5287C2.54595 16.4587 2.51095 16.3275 2.56345 16.2137C3.9547 12.9587 6.30845 10.3862 8.7147 9.50248C9.96595 9.03873 11.1647 9.06498 12.1709 9.57248C12.2409 9.60748 12.2934 9.66873 12.3109 9.74748C12.3284 9.82623 12.3109 9.90498 12.2672 9.96623C10.9372 11.7075 9.89595 13.4487 9.0997 15.3037C9.0647 15.3912 8.96845 15.4525 8.8722 15.4612C8.7672 15.4612 8.6797 15.4175 8.6272 15.33C8.3297 14.8137 7.9622 14.525 7.49845 14.4287C6.51845 14.2362 5.03095 14.9187 2.96595 16.52C2.9222 16.555 2.86095 16.5725 2.80845 16.5725L2.7997 16.5812ZM10.4472 9.70373C9.94845 9.70373 9.4322 9.79998 8.8897 10.0012C6.85095 10.7537 4.8297 12.81 3.47345 15.4875C5.25845 14.2187 6.5797 13.72 7.58595 13.9212C8.05845 14.0175 8.46095 14.2625 8.79345 14.6737C9.54595 13.0287 10.4734 11.4712 11.6372 9.92248C11.2609 9.78248 10.8672 9.71248 10.4472 9.71248V9.70373Z" fill="#636363"/>
<path fill-rule="evenodd" clip-rule="evenodd" d="M11.6719 25.1999C12.1969 24.5349 12.6169 23.9224 12.9494 23.3624C16.0994 21.4024 17.9544 18.6287 17.6656 16.3362C17.8406 16.2137 18.0069 16.0824 18.1819 15.9512C19.6256 18.8387 16.7119 23.0474 11.6719 25.1999Z" fill="#62E2BB"/>
<path fill-rule="evenodd" clip-rule="evenodd" d="M7.23633 20.7636C7.62133 20.0986 7.98883 19.4686 8.34758 18.8649C11.9263 16.6949 14.2188 14.8924 14.4026 12.7399C14.6651 12.7136 14.9363 12.7049 15.2163 12.7399L15.2426 12.7661V12.7836C15.5838 15.6449 12.3463 17.7974 7.23633 20.7636Z" fill="#62E2BB"/>
<path fill-rule="evenodd" clip-rule="evenodd" d="M7.84852 14.2712C6.77227 13.8337 5.15352 14.4899 2.79102 16.3187C3.10602 15.5837 3.46477 14.9012 3.85852 14.2624C3.85852 14.2624 3.86143 14.2595 3.86727 14.2537C5.81852 13.1074 7.07852 13.1424 7.84852 14.2712Z" fill="#62E2BB"/>
<path fill-rule="evenodd" clip-rule="evenodd" d="M12.0475 9.80854C10.8488 11.3748 9.72875 13.1335 8.83625 15.1985C8.6175 14.8135 8.34625 14.5335 8.03125 14.3585C8.83625 12.5035 9.83375 10.9023 10.8925 9.46729C11.295 9.51104 11.68 9.62479 12.0475 9.80854Z" fill="#62E2BB"/>
<path fill-rule="evenodd" clip-rule="evenodd" d="M7.84766 14.2715C7.89141 14.3327 7.93516 14.4027 7.97891 14.4727C7.99641 14.4377 8.01391 14.394 8.03141 14.359C7.97016 14.324 7.90891 14.2977 7.84766 14.2715Z" fill="#62E2BB"/>
<path d="M19.3546 10.7975C18.7596 11.3925 17.7971 11.3925 17.2021 10.7975C16.6071 10.2025 16.6071 9.23998 17.2021 8.64498C17.7971 8.04998 18.7596 8.04998 19.3546 8.64498C19.9496 9.23998 19.9496 10.2025 19.3546 10.7975Z" fill="#62E2BB"/>
<path fill-rule="evenodd" clip-rule="evenodd" d="M7.68281 18.4888L4.67281 21.5075L5.04031 21.875L6.64156 20.2738C7.00031 19.6525 7.35031 19.0575 7.69156 18.4888H7.68281ZM4.30531 21.8663L3.93781 22.2338L4.30531 22.6013L4.67281 22.2338L4.30531 21.8663ZM6.53656 21.0963L4.30531 23.3275L4.67281 23.695L6.90406 21.4638C6.90406 21.4638 6.88656 21.4638 6.87781 21.455L6.84281 21.42C6.84281 21.42 6.78156 21.385 6.75531 21.3588H6.74656C6.74656 21.3588 6.73781 21.3413 6.72906 21.3325H6.72031C6.72031 21.3325 6.71156 21.315 6.70281 21.3063C6.70281 21.3063 6.68531 21.2888 6.68531 21.28C6.67656 21.2713 6.65906 21.2538 6.65031 21.245C6.65031 21.245 6.62406 21.2013 6.61531 21.1838C6.59781 21.1575 6.58031 21.14 6.57156 21.1138C6.57156 21.1138 6.57156 21.105 6.57156 21.0963H6.53656ZM3.93781 23.695L3.57031 24.0625L3.93781 24.43L4.30531 24.0625L3.93781 23.695ZM9.48531 20.3438C8.91656 20.685 8.32156 21.035 7.70031 21.3938L5.76656 23.3275L6.13406 23.695L9.48531 20.3438ZM5.39906 23.695L5.03156 24.0625L5.39906 24.43L5.76656 24.0625L5.39906 23.695Z" fill="#636363"/>
<path d="M11.6809 25.4625C11.6022 25.4625 11.5234 25.4275 11.4709 25.3575C11.4009 25.2612 11.4009 25.13 11.4709 25.0337C13.0634 22.9775 13.7372 21.4987 13.5447 20.4925C13.4484 20.02 13.1509 19.6437 12.6347 19.3375C12.5472 19.285 12.4947 19.1975 12.5034 19.0925C12.5034 18.9962 12.5734 18.9087 12.6609 18.865C14.5684 18.0425 16.3797 16.9837 18.0334 15.7237C18.0947 15.68 18.1734 15.6537 18.2522 15.68C18.3309 15.6975 18.3922 15.75 18.4272 15.82C18.9347 16.8262 18.9522 18.025 18.4972 19.2762C17.6134 21.6825 15.0409 24.045 11.7859 25.4275C11.7509 25.445 11.7159 25.445 11.6809 25.445V25.4625ZM13.2997 19.1712C13.7109 19.5037 13.9647 19.915 14.0609 20.3962C14.2622 21.42 13.7722 22.7412 12.5122 24.5262C15.1897 23.17 17.2547 21.1487 17.9984 19.11C18.3659 18.1212 18.3922 17.1762 18.0772 16.3625C16.5897 17.465 14.9884 18.41 13.2997 19.1712ZM7.23595 21.0262C7.16595 21.0262 7.1047 21 7.0522 20.9475C6.9647 20.86 6.9472 20.7375 7.00845 20.6325C9.89595 15.6362 12.1797 12.1275 15.2422 12.4862C15.2772 12.4862 15.3122 12.5037 15.3472 12.5212C15.3997 12.5562 15.4697 12.6262 15.4959 12.6875C15.4959 12.705 15.5134 12.74 15.5134 12.7575C15.8722 15.82 12.5209 18.0075 7.3672 20.9912C7.32345 21.0175 7.2797 21.0262 7.23595 21.0262ZM14.8309 12.985C12.4159 12.985 10.4034 15.8812 7.9622 20.0287C12.2147 17.5262 15.1459 15.4787 15.0059 12.985C14.9447 12.985 14.8922 12.985 14.8309 12.985ZM2.7997 16.5812C2.7472 16.5812 2.68595 16.5637 2.6422 16.5287C2.54595 16.4587 2.51095 16.3275 2.56345 16.2137C3.9547 12.9587 6.30845 10.3862 8.7147 9.50248C9.96595 9.03873 11.1647 9.06498 12.1709 9.57248C12.2409 9.60748 12.2934 9.66873 12.3109 9.74748C12.3284 9.82623 12.3109 9.90498 12.2672 9.96623C10.9372 11.7075 9.89595 13.4487 9.0997 15.3037C9.0647 15.3912 8.96845 15.4525 8.8722 15.4612C8.7672 15.4612 8.6797 15.4175 8.6272 15.33C8.3297 14.8137 7.9622 14.525 7.49845 14.4287C6.51845 14.2362 5.03095 14.9187 2.96595 16.52C2.9222 16.555 2.86095 16.5725 2.80845 16.5725L2.7997 16.5812ZM10.4472 9.70373C9.94845 9.70373 9.4322 9.79998 8.8897 10.0012C6.85095 10.7537 4.8297 12.81 3.47345 15.4875C5.25845 14.2187 6.5797 13.72 7.58595 13.9212C8.05845 14.0175 8.46095 14.2625 8.79345 14.6737C9.54595 13.0287 10.4734 11.4712 11.6372 9.92248C11.2609 9.78248 10.8672 9.71248 10.4472 9.71248V9.70373Z" fill="#636363"/>
<path d="M19.5085 3.81288L19.1367 4.18359L23.8386 8.89861L24.2103 8.5279L19.5085 3.81288Z" fill="#636363"/>
</g>
<defs>
<clipPath id="clip0_15786_176635">
<rect width="28" height="28" fill="white"/>
</clipPath>
</defs>
</svg>
