<svg width="28" height="28" viewBox="0 0 28 28" fill="none" xmlns="http://www.w3.org/2000/svg">
<path d="M6.50195 5.87622C6.50195 5.49167 6.81369 5.17993 7.19824 5.17993H21.7788C22.1628 5.17993 22.4741 5.49123 22.4741 5.87524V24.3567C22.4741 24.7407 22.1628 25.052 21.7788 25.052H7.19824C6.81369 25.052 6.50195 24.7402 6.50195 24.3557V5.87622Z" fill="white"/>
<path fill-rule="evenodd" clip-rule="evenodd" d="M7.24939 4.85974H21.7264C22.3157 4.85974 22.7942 5.33826 22.7942 5.92861V24.3034C22.7942 24.8937 22.3157 25.3722 21.7264 25.3722H7.24939C6.65906 25.3722 6.18164 24.8937 6.18164 24.3034V5.92861C6.18164 5.33826 6.65907 4.85974 7.24939 4.85974ZM22.1533 5.92861C22.1533 5.69202 21.962 5.50062 21.7264 5.50062H7.24939C7.01392 5.50062 6.82252 5.69202 6.82252 5.92861V24.3034C6.82252 24.5389 7.01392 24.7313 7.24939 24.7313H21.7264C21.962 24.7313 22.1533 24.5389 22.1533 24.3034V5.92861Z" fill="#636363"/>
<path d="M22.7909 5.84998V24.3807C22.7909 24.928 22.3533 25.3753 21.7952 25.3753H7.17622C6.62891 25.3753 6.18164 24.928 6.18164 24.3807H19.8049C20.3619 24.3807 20.8006 23.9323 20.8006 23.385V4.85535H21.7952C22.3533 4.85535 22.7909 5.30267 22.7909 5.84998Z" fill="#62E2BB"/>
<path d="M22.4222 5.56206V13.2543H20.8008V5.07495H21.9352C22.204 5.07495 22.4222 5.29327 22.4222 5.56206Z" fill="#EAEAEA"/>
<rect x="6.18164" y="12.9745" width="16.6138" height="0.640526" fill="#636363"/>
<path fill-rule="evenodd" clip-rule="evenodd" d="M7.24939 4.85974H21.7264C22.3157 4.85974 22.7942 5.33826 22.7942 5.92861V24.3034C22.7942 24.8937 22.3157 25.3722 21.7264 25.3722H7.24939C6.65906 25.3722 6.18164 24.8937 6.18164 24.3034V5.92861C6.18164 5.33826 6.65907 4.85974 7.24939 4.85974ZM22.1533 5.92861C22.1533 5.69202 21.962 5.50062 21.7264 5.50062H7.24939C7.01392 5.50062 6.82252 5.69202 6.82252 5.92861V24.3034C6.82252 24.5389 7.01392 24.7313 7.24939 24.7313H21.7264C21.962 24.7313 22.1533 24.5389 22.1533 24.3034V5.92861Z" fill="#636363"/>
<rect x="9.51172" y="18.9061" width="2.75636" height="0.640524" fill="#636363"/>
<rect x="10.5703" y="17.8491" width="0.640525" height="2.75636" fill="#636363"/>
<path fill-rule="evenodd" clip-rule="evenodd" d="M8.06445 19.2273C8.06445 20.7843 9.3322 22.052 10.8891 22.052C12.4461 22.052 13.7138 20.7843 13.7138 19.2273C13.7138 17.6693 12.4461 16.4027 10.8891 16.4027C9.3322 16.4027 8.06445 17.6693 8.06445 19.2273ZM8.70532 19.2273C8.70532 18.022 9.68487 17.0425 10.8891 17.0425C12.0934 17.0425 13.073 18.022 13.073 19.2273C13.073 20.4316 12.0934 21.4112 10.8891 21.4112C9.68487 21.4112 8.70532 20.4316 8.70532 19.2273Z" fill="#636363"/>
<rect x="16.7051" y="19.5107" width="2.75636" height="0.640526" fill="#636363"/>
<rect x="16.7051" y="18.3041" width="2.75636" height="0.640526" fill="#636363"/>
<path fill-rule="evenodd" clip-rule="evenodd" d="M15.2578 19.2273C15.2578 20.7843 16.5244 22.052 18.0814 22.052C19.6394 22.052 20.906 20.7843 20.906 19.2273C20.906 17.6693 19.6394 16.4027 18.0814 16.4027C16.5244 16.4027 15.2578 17.6693 15.2578 19.2273ZM15.8976 19.2273C15.8976 18.022 16.8771 17.0425 18.0814 17.0425C19.2867 17.0425 20.2663 18.022 20.2663 19.2273C20.2663 20.4316 19.2867 21.4112 18.0814 21.4112C16.8771 21.4112 15.8976 20.4316 15.8976 19.2273Z" fill="#636363"/>
<rect x="18.4551" y="7.27649" width="2.34474" height="0.550222" fill="#636363"/>
<rect x="18.4551" y="8.21802" width="2.34474" height="0.55022" fill="#636363"/>
<path d="M19.8676 11.4742L18.4559 9.5689C18.3946 9.48609 18.3849 9.37427 18.4322 9.28182C18.4785 9.18935 18.5741 9.1302 18.6774 9.1302H19.1623C19.5214 9.1302 19.8139 8.83666 19.8139 8.4786C19.8139 8.11947 19.5214 7.82702 19.1623 7.82702H18.4548V7.27649H19.1623C19.8257 7.27649 20.3644 7.81517 20.3644 8.4786C20.3644 9.12053 19.858 9.64738 19.2236 9.67964L20.3107 11.1463L19.8676 11.4742Z" fill="#636363"/>
<rect x="2.94531" y="2.94531" width="14.0277" height="7.15212" rx="0.99361" fill="white"/>
<path fill-rule="evenodd" clip-rule="evenodd" d="M4.01313 10.4173H15.9043C16.6709 10.4173 17.2935 9.7947 17.2935 9.02915V4.01315C17.2935 3.24758 16.6709 2.625 15.9043 2.625H4.01313C3.24862 2.625 2.625 3.24758 2.625 4.01315V9.02915C2.625 9.7947 3.24862 10.4173 4.01313 10.4173ZM3.26587 4.01314C3.26587 3.60133 3.6024 3.26584 4.01312 3.26584H15.9043C16.3171 3.26584 16.6526 3.60133 16.6526 4.01314V9.02914C16.6526 9.44096 16.3171 9.77752 15.9043 9.77752H4.01312C3.6024 9.77752 3.26587 9.44095 3.26587 9.02914V4.01314Z" fill="#636363"/>
<path d="M16.9719 4.01108V9.02601C16.9719 9.61523 16.4902 10.098 15.8998 10.098H4.01626C3.4163 10.098 2.94531 9.61523 2.94531 9.02601H14.8289C15.4181 9.02601 15.8998 8.54322 15.8998 7.95399V2.93909C16.4902 2.93909 16.9719 3.42182 16.9719 4.01108Z" fill="#62E2BB"/>
<path fill-rule="evenodd" clip-rule="evenodd" d="M4.01313 10.4173H15.9043C16.6709 10.4173 17.2935 9.7947 17.2935 9.02915V4.01315C17.2935 3.24758 16.6709 2.625 15.9043 2.625H4.01313C3.24862 2.625 2.625 3.24758 2.625 4.01315V9.02915C2.625 9.7947 3.24862 10.4173 4.01313 10.4173ZM3.26587 4.01314C3.26587 3.60133 3.6024 3.26584 4.01312 3.26584H15.9043C16.3171 3.26584 16.6526 3.60133 16.6526 4.01314V9.02914C16.6526 9.44096 16.3171 9.77752 15.9043 9.77752H4.01312C3.6024 9.77752 3.26587 9.44095 3.26587 9.02914V4.01314Z" fill="#636363"/>
<path d="M5.32379 5.45646V8.31123H4.63672V4.39417H5.34101L7.34415 7.17257V4.39417H8.03125V8.31123H7.36781L5.32379 5.45646Z" fill="#636363"/>
<path fill-rule="evenodd" clip-rule="evenodd" d="M10.822 4.39417H9.10156V8.31123H9.78972V6.84891H10.822C11.6392 6.84891 12.1036 6.28444 12.1036 5.621C12.1036 4.95757 11.6445 4.39417 10.822 4.39417ZM9.78971 4.99842H10.7295V4.99841C11.1166 4.99841 11.3983 5.24574 11.3983 5.62099C11.3983 5.99732 11.1166 6.24357 10.7295 6.24357H9.78971V4.99842Z" fill="#636363"/>
<path d="M13.0388 7.23038C13.3098 7.5185 13.7323 7.77012 14.2786 7.77012C14.842 7.77012 15.0657 7.4938 15.0657 7.23572C15.0657 6.88413 14.6484 6.77766 14.1732 6.65512C13.5323 6.49704 12.7808 6.30887 12.7808 5.47985C12.7808 4.83367 13.3506 4.33472 14.2076 4.33472C14.8184 4.33472 15.3119 4.52933 15.6764 4.88098L15.2829 5.39167C14.9775 5.08632 14.5603 4.94549 14.1485 4.94549C13.7431 4.94549 13.485 5.13901 13.485 5.43258C13.485 5.739 13.885 5.83791 14.3496 5.9562C14.9947 6.12071 15.7646 6.32072 15.7646 7.1723C15.7646 7.8239 15.3054 8.38194 14.2495 8.38194C13.527 8.38194 13.0044 8.12928 12.6582 7.75936L13.0388 7.23038Z" fill="#636363"/>
</svg>
