<svg width="20" height="21" viewBox="0 0 20 21" fill="none" xmlns="http://www.w3.org/2000/svg">
<path d="M10.0005 0.00195591C8.03999 0.000493719 6.12239 0.575725 4.48642 1.65603C2.85046 2.73634 1.56839 4.27399 0.799859 6.07754C0.031324 7.88109 -0.18973 9.87087 0.16422 11.7991C0.51817 13.7274 1.43149 15.5089 2.79046 16.922C3.27526 17.4363 3.81517 17.8957 4.40046 18.292C4.45046 18.323 4.50046 18.352 4.56046 18.392C5.15951 18.7768 5.80027 19.0925 6.47046 19.333C6.48046 19.333 6.49046 19.342 6.50046 19.342C6.75046 19.442 7.00046 19.532 7.27046 19.622C8.58587 19.9951 9.96382 20.0946 11.3192 19.9141C12.6745 19.7337 13.9785 19.2772 15.1505 18.573C15.5255 18.3454 15.8862 18.0949 16.2305 17.823C16.5814 17.5429 16.9122 17.2385 17.2205 16.912C18.5762 15.4977 19.4864 13.7162 19.8378 11.7888C20.1893 9.86149 19.9665 7.87335 19.1972 6.07159C18.4279 4.26983 17.1461 2.73391 15.5109 1.65477C13.8758 0.575633 11.9596 0.000877046 10.0005 0.00195591ZM11.8705 11.462C11.311 11.7956 10.6718 11.9718 10.0205 11.972H10.0005C9.35384 11.9731 8.71984 11.793 8.17046 11.452C7.93122 11.3209 7.71227 11.1559 7.52046 10.962C7.19764 10.647 6.9411 10.2706 6.76595 9.85503C6.59079 9.43942 6.50055 8.99297 6.50055 8.54196C6.50055 8.09095 6.59079 7.64449 6.76595 7.22889C6.9411 6.81328 7.19764 6.43691 7.52046 6.12196C8.19155 5.47428 9.0878 5.11232 10.0205 5.11232C10.9531 5.11232 11.8494 5.47428 12.5205 6.12196C12.8461 6.43527 13.1052 6.8111 13.2822 7.22693C13.4592 7.64276 13.5504 8.09003 13.5504 8.54196C13.5504 8.99388 13.4592 9.44116 13.2822 9.85699C13.1052 10.2728 12.8461 10.6486 12.5205 10.962C12.3242 11.153 12.106 11.3202 11.8705 11.46V11.462ZM16.1405 15.872V15.882C15.9505 16.073 15.7605 16.252 15.5605 16.432C15.5105 16.472 15.4605 16.522 15.4105 16.562C15.4005 16.573 15.3905 16.573 15.3805 16.592C15.0092 16.8917 14.6108 17.1562 14.1905 17.382C14.1838 17.3886 14.1771 17.3953 14.1705 17.402C12.2735 18.4777 10.0342 18.7786 7.92046 18.242C7.90636 18.2435 7.89219 18.2399 7.88046 18.232C6.93024 17.9299 6.02024 17.5135 5.17046 16.992C4.91438 16.8225 4.67045 16.6354 4.44046 16.432C4.23719 16.2559 4.04358 16.0689 3.86046 15.872C3.67049 15.6806 3.49343 15.4768 3.33046 15.262C3.77614 14.3977 4.3878 13.6297 5.13046 13.002C5.557 12.6357 6.02724 12.3237 6.53046 12.073C6.72393 12.2651 6.93483 12.4389 7.16046 12.592C7.42798 12.7814 7.71658 12.9391 8.02046 13.062C8.65172 13.3351 9.33265 13.4747 10.0205 13.472C10.7038 13.4727 11.3804 13.3367 12.0105 13.072C12.3103 12.9404 12.5981 12.7828 12.8705 12.601C13.0989 12.4509 13.3132 12.2801 13.5105 12.091C13.9984 12.339 14.455 12.6445 14.8705 13.001C15.6131 13.6287 16.2248 14.3967 16.6705 15.261C16.5084 15.4754 16.3324 15.6788 16.1435 15.87L16.1405 15.872Z" fill="#19B38D"/>
</svg>
